<svg width="43" height="44" viewBox="0 0 43 44" fill="none" xmlns="http://www.w3.org/2000/svg"><path d="M4.292 20.357c.072.047.475.297.899.559.42.256.878.533 1.01.619.522.332.716.452 1.614.996.51.313 1.04.633 1.172.719.132.086.341.216.462.293.382.239 2.351 1.455 2.501 1.547.427.252.721.434 1.192.73.595.375.59.363.557.995-.012.172-.02.397-.021.505 0 .106-.004.315-.007.46-.007.143-.022.567-.034.938a47.61 47.61 0 01-.032.963c-.007.159-.014.376-.014.483 0 .107-.004.315-.007.46-.011.264-.048 1.391-.06 1.855-.003.252-.012.522-.029 1.013-.007.158-.01.352-.013.434 0 .077-.012.37-.02.65-.01.28-.016.613-.02.748-.013.327-.021.67-.033 1.012a7.754 7.754 0 00-.01.41c-.003.068-.007.261-.018.433-.007.173-.017.34-.018.374-.005.105.097.075.261-.078.188-.178.543-.518.821-.785.112-.11.23-.218.254-.235.026-.02.208-.197.412-.4.204-.197.433-.416.51-.494a204.69 204.69 0 001.766-1.671c.085-.085.242-.23.342-.33.102-.093.296-.275.43-.408.134-.132.307-.296.382-.365.075-.068.222-.211.326-.31.105-.102.355-.34.555-.528.2-.19.477-.452.611-.584.135-.133.332-.313.436-.412.107-.092.2-.184.206-.206.006-.018.062-.059.125-.087.107-.049.124-.043.484.178.206.124.464.285.576.359.107.073.834.519 1.614.996.776.476 1.515.93 1.635 1.008.12.077.746.462 1.393.858 1.16.71 1.544.944 1.774 1.1.063.045.186.113.264.157a137.47 137.47 0 002.038 1.258c1.615.992 1.841 1.132 2.34 1.447.133.081.387.24.564.35.178.11.362.227.41.262.052.031.097.04.104.019.008-.023-.468-.938-1.055-2.035-1.596-2.977-1.874-3.499-2.336-4.366-.232-.44-.575-1.074-.756-1.414-.187-.337-.71-1.317-1.167-2.173-.456-.856-1.06-1.978-1.343-2.497-.28-.512-.5-.962-.49-.993.01-.03.146-.304.146-.304l.201-.252s.02-.091.527-.577c.442-.414 1.311-1.247 1.505-1.429.112-.11.278-.266.361-.347.088-.079.24-.22.34-.32.098-.095.262-.247.361-.347.098-.095.25-.237.338-.316.084-.08.25-.237.362-.347.117-.109.368-.35.555-.529.56-.527.942-.892 1.324-1.257.112-.11.286-.274.378-.367.166-.156.443-.418.797-.758.19-.183.355-.34 1.042-.992.85-.805.894-.85 1.114-1.056.113-.11.286-.275.378-.367.166-.156.443-.419.798-.758.453-.435.535-.511.68-.645.083-.08.249-.237.361-.347.193-.182 1.063-1.015 1.506-1.434.887-.841 1.099-1.051 1.088-1.079-.01-.013-.416.077-.902.194-.493.12-.927.226-.967.228a57.617 57.617 0 01-1.099.263c-.61.146-4.694 1.133-4.862 1.176-.044.016-.341.086-.655.162-.319.073-.612.145-.654.156-.106.03-4.324 1.046-5.04 1.217l-.708.174c-.08.023-.174.047-.215.053-.04.002-.945.22-2.008.48-1.064.26-1.972.457-2.013.434-.084-.041-.72-1.198-2.443-4.439-.24-.456-.58-1.09-.756-1.414-.177-.324-.673-1.25-1.107-2.056-1.61-3.005-2.278-4.245-2.673-4.989-.229-.418-.426-.74-.449-.713-.029.045-.059.517-.06.99 0 .106-.002.324-.009.483a7.733 7.733 0 00-.01.41c-.002.068-.006.261-.018.433-.006.173-.019.407-.019.53-.005.212-.025.955-.042 1.494l-.01.411c-.001.078-.008.265-.015.409-.003.145-.012.371-.012.507-.013.464-.05 1.591-.06 1.855a38.31 38.31 0 00-.008.46c0 .107-.006.324-.013.482-.008.159-.025.591-.033.964-.012.37-.026.794-.033.938-.003.145-.007.353-.007.46 0 .107-.01.333-.017.506a6.67 6.67 0 00-.011.444c.002.07 0 .2-.006.29a94.92 94.92 0 00-.052 1.435c0 .199-.011.43-.033 1.011-.024.728-.046 1.052-.069 1.064-.045.02-4.512 1.108-4.765 1.158-.072.012-1.155.275-2.408.581-1.252.307-2.34.569-2.422.582-.179.03-.189.076-.036.188z" fill="#fff" opacity=".1"/></svg>