<svg width="22" height="23" viewBox="0 0 22 23" fill="none" xmlns="http://www.w3.org/2000/svg"><path d="M8.851 1.039c-.015.053-.09.351-.168.664-.075.31-.156.646-.183.744-.102.387-.138.53-.297 1.191-.093.375-.186.765-.213.864-.027.098-.066.253-.09.342-.072.283-.435 1.736-.462 1.846-.072.313-.126.53-.216.879-.114.44-.108.435-.504.539-.108.027-.25.065-.315.086-.066.02-.195.06-.286.086-.09.024-.354.099-.585.164-.23.069-.5.143-.6.17a9.498 9.498 0 00-.3.086l-.285.087a129.676 129.676 0 00-1.786.509c-.099.027-.219.062-.27.077-.048.015-.23.066-.405.116-.174.048-.38.11-.465.134-.204.057-.417.12-.63.179-.1.027-.213.06-.255.074-.042.012-.162.048-.27.075-.108.03-.213.056-.234.062-.066.018-.027.075.099.146l.645.352a10.344 10.344 0 00.522.286l.405.217c.312.176.804.447 1.378.76.069.035.189.104.27.145.078.045.228.128.336.185.108.056.243.13.3.164l.255.14c.084.044.279.151.435.238.156.086.372.205.48.262.108.056.258.143.34.187a.794.794 0 00.167.087c.012 0 .048.027.078.06.051.056.051.068-.015.333-.036.152-.084.342-.108.426a74.9 74.9 0 00-.297 1.19c-.14.572-.276 1.117-.3 1.207-.024.089-.138.55-.255 1.027-.21.854-.279 1.137-.33 1.31-.015.048-.033.137-.045.194a125.473 125.473 0 01-.807 3.23l-.105.417a7.284 7.284 0 01-.081.304c-.01.039-.006.069.009.069s.486-.474 1.047-1.052c1.521-1.569 1.789-1.843 2.233-2.298.225-.23.549-.566.723-.745.17-.181.672-.697 1.11-1.146.438-.45 1.011-1.042 1.276-1.32.26-.273.495-.497.516-.497.02 0 .216.03.216.03l.195.075s.06-.006.459.211c.342.19 1.026.563 1.176.646l.285.155c.066.039.184.104.264.146.079.042.205.113.286.155.078.041.195.107.26.146.067.035.196.107.286.155l.435.238 1.035.569.3.16.624.343c.15.08.28.151.817.446.663.367.699.384.87.48.09.047.225.122.3.16.129.072.345.191.624.343.357.194.42.23.531.292l.285.155c.15.083.835.455 1.18.646.693.38.864.47.879.458.006-.009-.129-.24-.297-.518-.171-.28-.321-.527-.33-.55a1070.08 1070.08 0 00-2.059-3.392c-.018-.024-.12-.194-.228-.372a997.48 997.48 0 01-1.966-3.24 104.166 104.166 0 01-.32-.524 61.718 61.718 0 00-.69-1.144c-.37-.604-.67-1.125-.664-1.155.01-.06.597-.679 2.257-2.38.234-.237.558-.57.723-.744.165-.172.64-.66 1.05-1.086 1.537-1.585 2.17-2.24 2.551-2.63.213-.223.372-.408.351-.417-.033-.009-.33.066-.621.158a8.84 8.84 0 01-.3.09c-.1.026-.213.06-.255.074-.042.012-.162.048-.27.074-.108.03-.255.069-.33.093l-.93.268-.256.074a8.468 8.468 0 01-.255.072c-.09.026-.23.065-.315.092-.288.083-.99.283-1.155.327-.09.027-.22.066-.285.087-.066.02-.201.06-.3.086-.1.027-.37.101-.6.17-.232.065-.496.14-.586.164-.09.026-.219.065-.285.086-.066.02-.207.06-.315.09a4.319 4.319 0 00-.276.08 2.719 2.719 0 01-.18.053c-.102.027-.66.182-.894.25-.123.04-.267.078-.63.18-.454.127-.658.178-.67.166a273.21 273.21 0 01-1.65-2.71c-.021-.041-.396-.658-.831-1.37a94.34 94.34 0 01-.835-1.378C8.92.92 8.89.923 8.851 1.039z" fill="#fff" opacity=".25"/></svg>