<svg width="78" height="78" viewBox="0 0 78 78" fill="none" xmlns="http://www.w3.org/2000/svg"><path fill="#1CABE2" d="M0 0h78v78H0z"/><path d="M12.007 65.082V60.61H11v-.549h1.007v-1.07c0-.86.348-1.248 1.205-1.248.193.016.384.052.57.108v.48a2.216 2.216 0 00-.369-.04c-.817 0-.838.41-.807 1.13v.64h1.14v.55h-1.14v4.467l-.599.004zM18.623 62.572c0 1.32-.737 2.658-2.33 2.658-1.591 0-2.33-1.334-2.33-2.658 0-1.323.737-2.658 2.325-2.658 1.589 0 2.33 1.335 2.33 2.658h.005zm-2.335-2.108c-1.205 0-1.683 1.18-1.683 2.108 0 .929.478 2.11 1.683 2.11s1.684-1.181 1.684-2.11c0-.928-.48-2.108-1.684-2.108zM20.088 65.082h-.598v-3.888c0-.391-.029-.79-.05-1.129h.618l.03.736h.02a1.291 1.291 0 011.124-.889c.19 0 .4 0 .599.01v.572c-.12-.01-.25-.04-.369-.04-.885 0-1.355.64-1.374 1.6v3.028zM24.732 62.708c.02 1.07.508 1.97 1.733 1.97a1.487 1.487 0 001.444-1.2h.627c-.308 1.2-1.056 1.748-2.26 1.748-1.494 0-2.192-1.288-2.192-2.657 0-1.37.747-2.658 2.231-2.658 1.674 0 2.28 1.23 2.28 2.797h-3.863zm3.217-.55c-.07-.968-.587-1.698-1.624-1.698-.975 0-1.494.82-1.574 1.699h3.198zM29.403 60.065l1.723 4.187 1.663-4.187h.657l-1.982 5.017h-.678l-2.04-5.017h.657zM34.218 62.708c.019 1.07.507 1.97 1.733 1.97a1.486 1.486 0 001.444-1.2h.627c-.308 1.2-1.057 1.748-2.261 1.748-1.494 0-2.191-1.288-2.191-2.657 0-1.37.746-2.658 2.23-2.658 1.675 0 2.28 1.23 2.28 2.797h-3.862zm3.217-.55c-.07-.968-.588-1.698-1.625-1.698-.975 0-1.494.82-1.573 1.699h3.198zM39.608 65.082h-.596v-3.888c0-.391-.03-.79-.05-1.129h.618l.028.738h.021a1.289 1.289 0 011.125-.889c.2 0 .4 0 .599.01v.572c-.12-.01-.251-.04-.369-.04-.887 0-1.355.64-1.376 1.6v3.026zM42.635 60.065l1.684 4.197 1.674-4.197h.646L43.882 67h-.658l.757-1.918-2.072-5.017h.726zM52.335 61.604c-.049-.763-.537-1.144-1.364-1.144-.916 0-1.484.953-1.484 2.097 0 1.144.57 2.118 1.484 2.118.777 0 1.315-.48 1.364-1.168h.648c-.16 1.144-.817 1.716-1.951 1.716-1.495 0-2.19-1.29-2.19-2.658 0-1.37.746-2.658 2.228-2.658 1.026 0 1.864.62 1.913 1.69l-.648.007zM54.414 60.824h.021a1.713 1.713 0 011.564-.91c1.632 0 1.761 1.45 1.761 2.03v3.138h-.596V61.84c0-.867-.498-1.378-1.315-1.378-.986 0-1.435.829-1.435 1.729v2.889h-.596v-7.213h.596v2.957zM59.421 58.616h-.697v-.75h.697v.75zm-.05 1.449v5.017h-.596v-5.017h.597zM61.137 65.082h-.599v-7.215h.599v7.215zM65.84 64.342l-.02-.04a2.036 2.036 0 01-1.71.928c-1.483 0-2.05-1.418-2.05-2.67 0-1.3.57-2.638 2.05-2.638a1.998 1.998 0 011.71.91l.02-.021v-2.937h.598v6.084c0 .391.029.79.05 1.131h-.618l-.03-.74v-.007zm-1.633-3.878c-1.14 0-1.504 1.06-1.504 2.019 0 .928.27 2.198 1.415 2.198 1.304 0 1.71-1.089 1.71-2.229 0-1.018-.448-1.988-1.613-1.988h-.008zM11.087 54.564v-.303H66.44v.303H11.087zM59.326 37.007a5.208 5.208 0 00-2.9.885 5.235 5.235 0 00-1.921 2.352 5.257 5.257 0 001.134 5.709 5.204 5.204 0 005.69 1.134 5.226 5.226 0 002.343-1.93 5.253 5.253 0 00-.651-6.614 5.218 5.218 0 00-3.69-1.536h-.005zm4.072 2.317c-.269.181-.549.344-.84.488a5.62 5.62 0 00-.623-.98c.214-.13.417-.276.608-.437.323.273.61.585.855.929zm-2.196-1.74c.418.172.812.398 1.17.674a4.7 4.7 0 01-.57.408 5.495 5.495 0 00-.859-.797c.096-.088.184-.183.264-.284h-.005zm.404 1.19c-.28.152-.575.276-.88.369a7.854 7.854 0 00-.434-.855 2.4 2.4 0 00.477-.278c.306.223.586.479.837.763v.002zm-.617-1.27c-.07.086-.148.165-.232.237a5.28 5.28 0 00-.874-.484c.377.039.748.122 1.106.248zm-.409.382a2.186 2.186 0 01-.399.225 7.589 7.589 0 00-.503-.705c.316.13.619.291.904.48h-.002zm-1.14-.442c.195.235.375.482.54.74a2.08 2.08 0 01-.54.095v-.835zm0 1.052c.224-.01.445-.052.658-.122.16.268.303.547.427.833a4.732 4.732 0 01-1.085.151v-.866.004zm-.216-1.043v.826c-.18-.01-.36-.042-.532-.096a8.13 8.13 0 01.532-.73zm-.753.658a2.113 2.113 0 01-.4-.225 5.14 5.14 0 01.9-.477c-.18.224-.347.459-.5.702zm.3-.852a5.453 5.453 0 00-.881.488 2.422 2.422 0 01-.23-.237c.36-.126.733-.21 1.111-.251zm3.578 8.994c-.695-.382-.708-.914-.67-1.108.038-.195.172-.113.258-.113.456 0 .937-.135 1.52-.741.667-.683.878-2.2-.148-3.192-1.104-1.066-2.28-.88-3.04.08a1.15 1.15 0 01-.861.328c-.486-.017-.18.366-.18.446 0 .08-.075.137-.118.124-.164-.048-.1.19-.1.273a.111.111 0 01-.102.11c-.205 0-.148.19-.142.237a.19.19 0 01-.08.171.442.442 0 00-.143.322c0 .224.204.382.544.632a.808.808 0 01.38.667c-.002.216.032.431.099.637.09.223.08.63-.39.65-.57.023-1.588.482-1.674.513a2.02 2.02 0 01-1.085.072 5.332 5.332 0 01-.511-.415.79.79 0 01.165-.647.89.89 0 00.635.191 7.463 7.463 0 001.053-.154.283.283 0 01.228 0c.3.108.708.14.876-.433.167-.574-.228-.414-.278-.382-.05.033-.118.017-.093-.03.074-.147-.036-.132-.099-.137a.744.744 0 00-.437.215.148.148 0 01-.16.044c-.212-.107-.845.048-1.04-.297a11.905 11.905 0 00-.253-1.732.234.234 0 01.024-.227c.16-.244.605.017.844.012a.431.431 0 00.414-.225c.074-.096.131-.042.171-.069.04-.027 0-.103.023-.14.023-.035.04-.018.087-.06.048-.042 0-.137.02-.174.072-.108.266-.023.148-.303a.455.455 0 01.112-.433c.139-.19.678-.942-.272-1.733-.906-.753-1.824-.692-2.417-.05-.593.643-.294 1.585-.234 1.833a.522.522 0 01-.319.572 4.53 4.53 0 00-.811.572c.02-.984.327-1.94.885-2.75a4.992 4.992 0 012.252-1.8c.08.102.17.197.264.285-.209.152-.663.56-.663.56s.063.01.12.025l.125.034s.401-.34.59-.478c.146.112.305.206.474.28-.091.154-.32.585-.32.585l.102.063a.872.872 0 01.078.06s.248-.47.341-.628c.21.07.43.111.65.12v.864c-.123 0-.439-.017-.57-.03h-.08l.044.066c.032.047.06.095.084.145l.01.017h.02c.093 0 .38.02.489.021v1.571h.216v-.389c.32-.015.583-.036.905-.064h.013l.281-.248-.154.013c-.338.044-.634.065-.904.08h-.14v-.997c.395-.008.789-.063 1.172-.164.104.26.302.889.302.889l.205-.065s-.19-.626-.302-.885c.324-.102.638-.235.937-.398.24.293.448.613.619.953-.154.072-.435.171-.435.171.134.015.266.042.395.08l.131-.057.06.136.28.126-.032-.079s-.093-.223-.116-.274c.3-.15.592-.318.87-.505a5.035 5.035 0 01-1.163 6.745l.021.016zM53.632 38.401l-.082.073c-.306.27-1.005.99-.897 1.777l.01.055.036.157.096-.09c.428-.393.751-1.06.882-1.829l.036-.217-.081.074zM52.21 39.76l-.034.096c-.092.251-.155.511-.19.776-.066.52-.051 1.257.4 1.806l.048.065.054.066.066-.333c.074-.591-.025-1.829-.24-2.382l-.075-.19-.034.093.005.004zM51.691 41.89v.098c-.038.528-.01 1.836 1.044 2.528l.125.082v-.149c-.017-.495-.595-1.977-1.028-2.507l-.121-.149v.098h-.02zM51.874 44.228l.017.09c.156.751.865 1.966 1.961 2.318l.148.05-.053-.149c-.205-.562-1.26-1.87-1.94-2.301l-.152-.097.019.09zM54.074 39.532l-.085.053c-.817.498-1.2 1.104-1.169 1.852v.17l.118-.1c.44-.366.994-1.302 1.157-1.834l.06-.19-.088.053.007-.004zM53.596 41.162l-.063.057c-.21.191-.884.921-.827 1.814.012.15.044.297.093.438l.048.143.087-.122c.323-.457.76-1.66.728-2.22v-.169l-.06.06h-.006zM53.584 42.785c-.319.44-.494.967-.504 1.51.012.362.13.714.337 1.01l.07.107.061-.114c.146-.277.264-1.178.247-1.89a2.56 2.56 0 00-.074-.602l-.046-.158-.09.137zM54.025 44.373l-.021.07c-.099.309-.147.63-.142.954a1.884 1.884 0 00.91 1.61l.099.062.02-.133v-.107c-.015-.563-.433-1.981-.76-2.414l-.09-.118-.024.07.008.006zM52.875 46.57l.042.07c.44.74 1.186 1.693 2.58 1.447l.116-.019-.066-.099c-.26-.381-1.951-1.346-2.55-1.445l-.163-.027.041.073zM54.939 48.446l-.22.059.21.086c.886.364 1.997.473 2.643.255.219-.083.414-.218.57-.392 1.14.118 2.197 1.063 2.816 1.837l.035.039.047-.016a.745.745 0 00.223-.156l.041-.048-.038-.051a5.597 5.597 0 00-1.71-1.394c-.91-.446-2.517-.793-4.623-.22h.006zM54.984 46.08l.014.074c.133.839.471 1.94 1.883 1.817h.09l-.024-.088c-.095-.381-1.387-1.489-1.839-1.8l-.135-.07.011.074v-.007zM64.958 38.327l.038.217c.131.763.453 1.436.882 1.829l.097.09.034-.157.011-.055c.107-.788-.592-1.506-.898-1.777l-.082-.073-.082-.074zM66.427 39.667l-.074.191c-.217.553-.316 1.79-.241 2.382l.068.333.051-.066.05-.065c.45-.55.465-1.285.399-1.806a3.787 3.787 0 00-.19-.776l-.036-.095-.034-.094.007-.004zM66.974 41.793l-.123.15c-.431.53-1.01 2.01-1.028 2.506v.15l.123-.083c1.055-.692 1.082-2 1.045-2.528v-.195h-.017zM66.817 44.139l-.152.097c-.679.43-1.735 1.739-1.94 2.301l-.056.149.153-.05c1.094-.352 1.805-1.567 1.959-2.318l.018-.09.018-.09zM64.552 39.446l.057.19c.152.537.686 1.482 1.119 1.858l.118.103.01-.172c.043-.745-.328-1.36-1.141-1.874l-.086-.055-.077-.05zM65.015 41.109v.17c-.022.558.405 1.761.728 2.219l.087.122.048-.143c.05-.141.082-.289.093-.439.059-.892-.618-1.613-.827-1.813l-.06-.057-.063-.06h-.006zM64.998 42.648l-.047.158c-.05.197-.073.4-.072.602-.018.712.098 1.613.245 1.89l.06.114.073-.106a1.88 1.88 0 00.334-1.011 2.635 2.635 0 00-.503-1.51l-.044-.069-.046-.068zM64.624 44.303l-.091.118c-.327.433-.745 1.851-.76 2.414v.106l.022.134.1-.063a1.876 1.876 0 00.907-1.61 2.88 2.88 0 00-.142-.953l-.023-.07-.02-.07.007-.006zM65.838 46.501l-.161.027c-.599.099-2.292 1.058-2.552 1.445l-.065.1.116.018c1.395.246 2.14-.707 2.578-1.447l.042-.07.042-.073z" fill="#fff"/><path d="M59.11 48.665a5.602 5.602 0 00-1.701 1.394l-.04.051.044.048a.722.722 0 00.222.156l.048.016.032-.038c.62-.775 1.682-1.717 2.816-1.839.156.175.351.31.57.393.644.218 1.756.109 2.643-.255l.21-.086-.22-.06c-2.107-.571-3.714-.226-4.624.22zM63.699 46.005l-.135.07c-.453.312-1.745 1.42-1.84 1.8l-.023.089h.09c1.412.122 1.752-.979 1.885-1.818l.023-.148v.007zM27.613 37.377h1.786v1.633h-1.787v-1.633zm.14 11.44v-7.954h1.5v7.947l-1.5.008zM16.436 40.869h1.5v7.949h-1.458v-1.173h-.033c-.598.997-1.609 1.41-2.715 1.41-1.655 0-2.603-1.269-2.603-2.86v-5.326h1.501v4.703c0 1.377.316 2.392 1.75 2.392.616 0 1.452-.317 1.767-1.145.2-.602.301-1.233.3-1.868v-4.082h-.009zM20.928 42.041h.032c.506-.997 1.61-1.409 2.398-1.409.553 0 2.998.141 2.998 2.693v5.493H24.86v-5.003c0-1.314-.553-2.027-1.816-2.027a2.054 2.054 0 00-1.452.585c-.22.221-.63.572-.63 2.122v4.323h-1.5v-7.95h1.467v1.173zM35.53 43.418c-.08-.992-.549-1.682-1.615-1.682-1.425 0-1.976 1.242-1.976 3.099 0 1.857.551 3.1 1.976 3.1.986 0 1.598-.643 1.676-1.779h1.492c-.127 1.779-1.444 2.86-3.185 2.86-2.523 0-3.527-1.792-3.527-4.122s1.16-4.248 3.655-4.248c1.662 0 2.914 1.054 2.99 2.768l-1.486.004zM39.321 45.117c-.11 1.386.454 2.818 1.974 2.818 1.161 0 1.74-.456 1.912-1.607h1.57c-.236 1.796-1.616 2.692-3.497 2.692-2.523 0-3.528-1.793-3.528-4.123s1.16-4.248 3.654-4.248c2.35.05 3.464 1.541 3.464 3.73v.738H39.32zm3.98-1.037c.033-1.32-.57-2.344-2.006-2.344-1.24 0-1.974 1.05-1.974 2.344h3.98zM46.557 48.79v-6.865h-1.355v-1.041h1.355v-1.697c.047-1.731 1.347-2.187 2.46-2.187.36.021.717.074 1.068.156v1.242c-.252-.014-.501-.048-.76-.048-.845 0-1.33.223-1.284 1.087v1.447h1.818v1.041h-1.818v6.864h-1.484z" fill="#fff"/></svg>