<svg width="406" height="58" viewBox="0 0 406 58" fill="none" xmlns="http://www.w3.org/2000/svg"><path d="M1.44 25V7.6h3.72V25H1.44zm13.928-2.496v2.328c-.944.256-1.864.384-2.76.384-.672 0-1.256-.088-1.752-.264-.48-.176-.832-.368-1.056-.576-.224-.208-.4-.488-.528-.84-.128-.368-.2-.648-.216-.84a9.307 9.307 0 01-.024-.744v-6.648H6.704v-2.352h2.328v-2.376L12.56 9.28v3.672h2.88v2.352h-2.88v5.472c0 .352.008.608.024.768.032.16.096.336.192.528a.817.817 0 00.48.408c.224.064.528.096.912.096.368 0 .768-.024 1.2-.072zm2.512-8.28l-.648-5.952h3.192l-.648 5.952H17.88zm4.543 7.272h3.336c.032.448.208.84.528 1.176.32.32.816.48 1.488.48.592 0 1.048-.136 1.368-.408.336-.288.504-.632.504-1.032 0-.304-.12-.56-.36-.768-.224-.224-.664-.424-1.32-.6l-2.208-.6a10.57 10.57 0 01-.936-.312 9.295 9.295 0 01-.936-.528 2.37 2.37 0 01-.888-1.008c-.208-.432-.312-.936-.312-1.512 0-1.168.488-2.088 1.464-2.76.976-.688 2.256-1.032 3.84-1.032 1.312 0 2.392.304 3.24.912.864.608 1.32 1.496 1.368 2.664h-3.24c-.064-.96-.64-1.44-1.728-1.44-.496 0-.904.112-1.224.336a.99.99 0 00-.456.864c0 .368.12.632.36.792.24.144.672.304 1.296.48l2.184.6c2.16.592 3.24 1.72 3.24 3.384 0 1.136-.488 2.12-1.464 2.952-.96.816-2.328 1.224-4.104 1.224-1.824 0-3.208-.496-4.152-1.488-.544-.576-.84-1.368-.888-2.376zm26.671 1.008v2.328c-.944.256-1.864.384-2.76.384-.672 0-1.256-.088-1.752-.264-.48-.176-.832-.368-1.056-.576-.224-.208-.4-.488-.528-.84-.128-.368-.2-.648-.216-.84a9.307 9.307 0 01-.024-.744v-6.648H40.43v-2.352h2.328v-2.376l3.528-1.296v3.672h2.88v2.352h-2.88v5.472c0 .352.008.608.024.768.032.16.096.336.192.528a.817.817 0 00.48.408c.224.064.528.096.912.096.368 0 .768-.024 1.2-.072zm2.08-11.736V7.672h3.792v3.096h-3.792zM51.294 25V12.856h3.552V25h-3.552zm6.752 0v-9.84c0-.672-.04-1.432-.12-2.28h3.432l.12 1.56c.88-1.216 2.128-1.824 3.744-1.824 1.904 0 3.176.76 3.816 2.28.784-1.504 2.08-2.256 3.888-2.256 1.744 0 2.976.648 3.696 1.944.4.656.6 1.776.6 3.36V25h-3.576v-7.128c0-.528-.04-.968-.12-1.32-.064-.352-.256-.672-.576-.96-.32-.304-.768-.456-1.344-.456-.416 0-.768.08-1.056.24a2.07 2.07 0 00-.648.576c-.144.208-.256.504-.336.888a9.54 9.54 0 00-.12.984c-.016.272-.024.64-.024 1.104V25h-3.576v-7.2c0-.336-.016-.616-.048-.84a4.465 4.465 0 00-.216-.816 1.254 1.254 0 00-.6-.744c-.288-.176-.664-.264-1.128-.264-.528 0-.96.096-1.296.288-.32.192-.544.464-.672.816a5.004 5.004 0 00-.216.84 5.37 5.37 0 00-.048.792V25h-3.576zm33.584-5.16h-8.136c0 2.16.824 3.24 2.472 3.24 1.136 0 1.84-.56 2.112-1.68h3.24c-.08 1.04-.464 1.92-1.152 2.64-.896.944-2.312 1.416-4.248 1.416-1.872 0-3.296-.504-4.272-1.512-1.04-1.088-1.56-2.664-1.56-4.728 0-2.656.84-4.568 2.52-5.736 1.008-.672 2.144-1.008 3.408-1.008.992 0 1.928.232 2.808.696.88.448 1.576 1.192 2.088 2.232.56 1.152.8 2.632.72 4.44zm-8.016-2.232h4.392c0-.24-.016-.464-.048-.672a4.542 4.542 0 00-.24-.864 1.532 1.532 0 00-.648-.84c-.304-.224-.696-.336-1.176-.336-.736 0-1.296.256-1.68.768-.368.512-.568 1.16-.6 1.944zm24.168 4.896v2.328c-.944.256-1.864.384-2.76.384-.672 0-1.256-.088-1.752-.264-.48-.176-.832-.368-1.056-.576-.224-.208-.4-.488-.528-.84-.128-.368-.2-.648-.216-.84a9.307 9.307 0 01-.024-.744v-6.648h-2.328v-2.352h2.328v-2.376l3.528-1.296v3.672h2.88v2.352h-2.88v5.472c0 .352.008.608.024.768.032.16.096.336.192.528a.817.817 0 00.48.408c.224.064.528.096.912.096.368 0 .768-.024 1.2-.072zm1.648-3.456c0-.784.104-1.536.312-2.256.224-.72.56-1.4 1.008-2.04.464-.656 1.12-1.176 1.968-1.56.848-.4 1.84-.6 2.976-.6 2.08 0 3.648.608 4.704 1.824 1.056 1.2 1.584 2.712 1.584 4.536 0 1.84-.544 3.384-1.632 4.632-1.072 1.232-2.648 1.848-4.728 1.848-1.808 0-3.296-.552-4.464-1.656-1.152-1.104-1.728-2.68-1.728-4.728zm3.648.024c0 2.592.888 3.888 2.664 3.888.848 0 1.496-.312 1.944-.936.448-.624.672-1.696.672-3.216 0-2.56-.888-3.84-2.664-3.84-1.744 0-2.616 1.368-2.616 4.104zm26.271-4.704V7.672h3.576v15.36c0 .704.032 1.36.096 1.968h-3.6l-.096-1.752c-.336.608-.744 1.064-1.224 1.368-.64.416-1.424.624-2.352.624-1.616 0-2.88-.528-3.792-1.584-.912-1.072-1.368-2.552-1.368-4.44 0-1.984.488-3.56 1.464-4.728.992-1.184 2.288-1.776 3.888-1.776 1.472 0 2.608.552 3.408 1.656zm-5.16 4.752c0 1.104.2 2.016.6 2.736.4.72 1.016 1.08 1.848 1.08a2.44 2.44 0 001.344-.384c.4-.256.704-.584.912-.984.384-.736.576-1.688.576-2.856s-.24-2.072-.72-2.712c-.464-.64-1.104-.96-1.92-.96-.56 0-1.032.152-1.416.456a2.53 2.53 0 00-.816 1.152c-.16.48-.272.912-.336 1.296a9.473 9.473 0 00-.072 1.176zm11.264-.072c0-.784.104-1.536.312-2.256.224-.72.56-1.4 1.008-2.04.464-.656 1.12-1.176 1.968-1.56.848-.4 1.84-.6 2.976-.6 2.08 0 3.648.608 4.704 1.824 1.056 1.2 1.584 2.712 1.584 4.536 0 1.84-.544 3.384-1.632 4.632-1.072 1.232-2.648 1.848-4.728 1.848-1.808 0-3.296-.552-4.464-1.656-1.152-1.104-1.728-2.68-1.728-4.728zm3.648.024c0 2.592.888 3.888 2.664 3.888.848 0 1.496-.312 1.944-.936.448-.624.672-1.696.672-3.216 0-2.56-.888-3.84-2.664-3.84-1.744 0-2.616 1.368-2.616 4.104zM160.725 25v-9.96c0-.912-.024-1.648-.072-2.208h3.408l.096 1.824c.864-1.408 2.176-2.112 3.936-2.112 1.056 0 1.88.24 2.472.72.608.464 1.016.984 1.224 1.56.224.624.336 1.832.336 3.624V25h-3.624v-7.536c0-.624-.064-1.064-.192-1.32-.336-.688-.912-1.032-1.728-1.032s-1.432.312-1.848.936c-.288.416-.432 1.032-.432 1.848V25h-3.576zm25.112 0h-3.216c-.08-.496-.12-1.048-.12-1.656-.896 1.296-2.104 1.944-3.624 1.944-1.344 0-2.352-.32-3.024-.96-.704-.704-1.056-1.592-1.056-2.664 0-1.728.856-2.984 2.568-3.768.992-.448 2.592-.672 4.8-.672 0-.736-.056-1.272-.168-1.608-.24-.672-.768-1.008-1.584-1.008-.592 0-1.04.224-1.344.672-.176.272-.264.632-.264 1.08h-3.48c.048-1.28.504-2.232 1.368-2.856.912-.656 2.136-.984 3.672-.984 1.984 0 3.424.52 4.32 1.56.56.672.84 1.664.84 2.976l.024 4.872c0 1.152.096 2.176.288 3.072zm-3.672-5.712c-1.168-.096-2.112.032-2.832.384-.72.352-1.08.88-1.08 1.584 0 .448.152.848.456 1.2.304.352.728.528 1.272.528.608 0 1.112-.232 1.512-.696.288-.352.472-.744.552-1.176.08-.448.12-1.056.12-1.824zm13.648 3.216v2.328c-.944.256-1.864.384-2.76.384-.672 0-1.256-.088-1.752-.264-.48-.176-.832-.368-1.056-.576-.224-.208-.4-.488-.528-.84-.128-.368-.2-.648-.216-.84a9.307 9.307 0 01-.024-.744v-6.648h-2.328v-2.352h2.328v-2.376l3.528-1.296v3.672h2.88v2.352h-2.88v5.472c0 .352.008.608.024.768.032.16.096.336.192.528a.817.817 0 00.48.408c.224.064.528.096.912.096.368 0 .768-.024 1.2-.072zm13.192-2.664h-8.136c0 2.16.824 3.24 2.472 3.24 1.136 0 1.84-.56 2.112-1.68h3.24c-.08 1.04-.464 1.92-1.152 2.64-.896.944-2.312 1.416-4.248 1.416-1.872 0-3.296-.504-4.272-1.512-1.04-1.088-1.56-2.664-1.56-4.728 0-2.656.84-4.568 2.52-5.736 1.008-.672 2.144-1.008 3.408-1.008.992 0 1.928.232 2.808.696.88.448 1.576 1.192 2.088 2.232.56 1.152.8 2.632.72 4.44zm-8.016-2.232h4.392c0-.24-.016-.464-.048-.672a4.542 4.542 0 00-.24-.864 1.532 1.532 0 00-.648-.84c-.304-.224-.696-.336-1.176-.336-.736 0-1.296.256-1.68.768-.368.512-.568 1.16-.6 1.944zm15.816-4.728h3.84l2.664 8.4 2.712-8.4h3.528l-4.584 11.904-1.464 4.824h-3.576l1.536-4.56-4.656-12.168zm14.008 6.168c0-.784.104-1.536.312-2.256.224-.72.56-1.4 1.008-2.04.464-.656 1.12-1.176 1.968-1.56.848-.4 1.84-.6 2.976-.6 2.08 0 3.648.608 4.704 1.824 1.056 1.2 1.584 2.712 1.584 4.536 0 1.84-.544 3.384-1.632 4.632-1.072 1.232-2.648 1.848-4.728 1.848-1.808 0-3.296-.552-4.464-1.656-1.152-1.104-1.728-2.68-1.728-4.728zm3.648.024c0 2.592.888 3.888 2.664 3.888.848 0 1.496-.312 1.944-.936.448-.624.672-1.696.672-3.216 0-2.56-.888-3.84-2.664-3.84-1.744 0-2.616 1.368-2.616 4.104zm11.456-6.192h3.6v7.944c.016.16.056.384.12.672.064.272.16.488.288.648.128.16.312.304.552.432.256.128.568.192.936.192.448 0 .816-.072 1.104-.216.304-.144.528-.304.672-.48.16-.192.28-.48.36-.864.08-.4.12-.728.12-.984.016-.272.024-.68.024-1.224v-6.12h3.648v7.992c.016.752.024 1.384.024 1.896.016.496.024.824.024.984.016.16.024.28.024.36.016.288.048.584.096.888h-3.456l-.12-1.608c-.88 1.28-2.072 1.92-3.576 1.92a5.074 5.074 0 01-2.16-.456c-.64-.32-1.136-.712-1.488-1.176-.528-.656-.792-1.744-.792-3.264V12.88zM260.708 25v-9.144c0-.928-.056-1.936-.168-3.024h3.336l.072 2.328a5.78 5.78 0 01.432-.84c.16-.224.392-.472.696-.744.304-.288.712-.496 1.224-.624s1.104-.176 1.776-.144V16c-.848-.08-1.552-.048-2.112.096-.544.144-.936.392-1.176.744a2.995 2.995 0 00-.432 1.008 5.887 5.887 0 00-.096 1.176V25h-3.552zm15.288-5.544h3.792v.672c.016.176.08.448.192.816.112.368.264.664.456.888.208.224.52.432.936.624.432.192.952.288 1.56.288 1.008 0 1.808-.216 2.4-.648.592-.448.888-1.04.888-1.776 0-.704-.232-1.192-.696-1.464-.448-.272-1.312-.56-2.592-.864-2.224-.56-3.848-1.216-4.872-1.968-1.008-.768-1.512-1.864-1.512-3.288 0-1.552.576-2.832 1.728-3.84 1.152-1.024 2.864-1.536 5.136-1.536 2.4 0 4.144.68 5.232 2.04.656.832.984 1.904.984 3.216h-3.576c-.144-1.76-1.08-2.64-2.808-2.64-.864 0-1.56.216-2.088.648-.512.432-.768 1-.768 1.704 0 .736.256 1.248.768 1.536.528.288 1.528.616 3 .984.752.176 1.352.336 1.8.48.448.128.968.328 1.56.6.592.256 1.048.544 1.368.864.336.304.624.712.864 1.224s.36 1.096.36 1.752c0 1.632-.656 2.984-1.968 4.056-1.296 1.056-3.104 1.584-5.424 1.584-.912 0-1.736-.088-2.472-.264-.72-.16-1.312-.36-1.776-.6a3.98 3.98 0 01-1.176-.96c-.336-.4-.584-.752-.744-1.056a4.83 4.83 0 01-.384-1.176c-.08-.464-.128-.808-.144-1.032a12.587 12.587 0 01-.024-.864zM303.212 25h-3.216c-.08-.496-.12-1.048-.12-1.656-.896 1.296-2.104 1.944-3.624 1.944-1.344 0-2.352-.32-3.024-.96-.704-.704-1.056-1.592-1.056-2.664 0-1.728.856-2.984 2.568-3.768.992-.448 2.592-.672 4.8-.672 0-.736-.056-1.272-.168-1.608-.24-.672-.768-1.008-1.584-1.008-.592 0-1.04.224-1.344.672-.176.272-.264.632-.264 1.08h-3.48c.048-1.28.504-2.232 1.368-2.856.912-.656 2.136-.984 3.672-.984 1.984 0 3.424.52 4.32 1.56.56.672.84 1.664.84 2.976l.024 4.872c0 1.152.096 2.176.288 3.072zm-3.672-5.712c-1.168-.096-2.112.032-2.832.384-.72.352-1.08.88-1.08 1.584 0 .448.152.848.456 1.2.304.352.728.528 1.272.528.608 0 1.112-.232 1.512-.696.288-.352.472-.744.552-1.176.08-.448.12-1.056.12-1.824zm14.536-4.92V7.672h3.576v15.36c0 .704.032 1.36.096 1.968h-3.6l-.096-1.752c-.336.608-.744 1.064-1.224 1.368-.64.416-1.424.624-2.352.624-1.616 0-2.88-.528-3.792-1.584-.912-1.072-1.368-2.552-1.368-4.44 0-1.984.488-3.56 1.464-4.728.992-1.184 2.288-1.776 3.888-1.776 1.472 0 2.608.552 3.408 1.656zm-5.16 4.752c0 1.104.2 2.016.6 2.736.4.72 1.016 1.08 1.848 1.08a2.44 2.44 0 001.344-.384c.4-.256.704-.584.912-.984.384-.736.576-1.688.576-2.856s-.24-2.072-.72-2.712c-.464-.64-1.104-.96-1.92-.96-.56 0-1.032.152-1.416.456a2.53 2.53 0 00-.816 1.152c-.16.48-.272.912-.336 1.296a9.473 9.473 0 00-.072 1.176zM331.22 25h-3.216c-.08-.496-.12-1.048-.12-1.656-.896 1.296-2.104 1.944-3.624 1.944-1.344 0-2.352-.32-3.024-.96-.704-.704-1.056-1.592-1.056-2.664 0-1.728.856-2.984 2.568-3.768.992-.448 2.592-.672 4.8-.672 0-.736-.056-1.272-.168-1.608-.24-.672-.768-1.008-1.584-1.008-.592 0-1.04.224-1.344.672-.176.272-.264.632-.264 1.08h-3.48c.048-1.28.504-2.232 1.368-2.856.912-.656 2.136-.984 3.672-.984 1.984 0 3.424.52 4.32 1.56.56.672.84 1.664.84 2.976l.024 4.872c0 1.152.096 2.176.288 3.072zm-3.672-5.712c-1.168-.096-2.112.032-2.832.384-.72.352-1.08.88-1.08 1.584 0 .448.152.848.456 1.2.304.352.728.528 1.272.528.608 0 1.112-.232 1.512-.696.288-.352.472-.744.552-1.176.08-.448.12-1.056.12-1.824zm14.728-6.432h3.504c0 .048-.016.408-.048 1.08a70.35 70.35 0 00-.024 1.248v14.424h-3.648v-6.024c-.88 1.056-2 1.584-3.36 1.584-1.408 0-2.648-.528-3.72-1.584-1.072-1.072-1.608-2.672-1.608-4.8 0-1.12.152-2.088.456-2.904.304-.832.704-1.472 1.2-1.92a4.92 4.92 0 011.632-1.008 4.988 4.988 0 011.824-.336c1.648 0 2.872.664 3.672 1.992l.12-1.752zm-5.28 6.024c0 1.344.264 2.368.792 3.072.416.576 1.04.864 1.872.864.544 0 1-.128 1.368-.384.368-.272.632-.624.792-1.056.176-.448.288-.856.336-1.224.064-.384.096-.784.096-1.2 0-.416-.032-.816-.096-1.2a6.158 6.158 0 00-.36-1.272 2.278 2.278 0 00-.864-1.104c-.4-.288-.888-.432-1.464-.432-1.648 0-2.472 1.312-2.472 3.936zM359.228 25h-3.216c-.08-.496-.12-1.048-.12-1.656-.896 1.296-2.104 1.944-3.624 1.944-1.344 0-2.352-.32-3.024-.96-.704-.704-1.056-1.592-1.056-2.664 0-1.728.856-2.984 2.568-3.768.992-.448 2.592-.672 4.8-.672 0-.736-.056-1.272-.168-1.608-.24-.672-.768-1.008-1.584-1.008-.592 0-1.04.224-1.344.672-.176.272-.264.632-.264 1.08h-3.48c.048-1.28.504-2.232 1.368-2.856.912-.656 2.136-.984 3.672-.984 1.984 0 3.424.52 4.32 1.56.56.672.84 1.664.84 2.976l.024 4.872c0 1.152.096 2.176.288 3.072zm-3.672-5.712c-1.168-.096-2.112.032-2.832.384-.72.352-1.08.88-1.08 1.584 0 .448.152.848.456 1.2.304.352.728.528 1.272.528.608 0 1.112-.232 1.512-.696.288-.352.472-.744.552-1.176.08-.448.12-1.056.12-1.824zM362.172 25V7.672h3.528v6.864c.864-1.216 2.032-1.824 3.504-1.824 1.504 0 2.68.544 3.528 1.632.528.736.792 1.832.792 3.288V25h-3.528v-7.248c0-1.76-.664-2.64-1.992-2.64-.608 0-1.144.2-1.608.6-.448.384-.672 1.008-.672 1.872l.024 7.416h-3.576zM8.688 47.504v2.328c-.944.256-1.864.384-2.76.384-.672 0-1.256-.088-1.752-.264-.48-.176-.832-.368-1.056-.576-.224-.208-.4-.488-.528-.84-.128-.368-.2-.648-.216-.84a9.307 9.307 0 01-.024-.744v-6.648H.024v-2.352h2.328v-2.376L5.88 34.28v3.672h2.88v2.352H5.88v5.472c0 .352.008.608.024.768.032.16.096.336.192.528a.817.817 0 00.48.408c.224.064.528.096.912.096.368 0 .768-.024 1.2-.072zm1.648-3.456c0-.784.104-1.536.312-2.256.224-.72.56-1.4 1.008-2.04.464-.656 1.12-1.176 1.968-1.56.848-.4 1.84-.6 2.976-.6 2.08 0 3.648.608 4.704 1.824 1.056 1.2 1.584 2.712 1.584 4.536 0 1.84-.544 3.384-1.632 4.632-1.072 1.232-2.648 1.848-4.728 1.848-1.808 0-3.296-.552-4.464-1.656-1.152-1.104-1.728-2.68-1.728-4.728zm3.648.024c0 2.592.888 3.888 2.664 3.888.848 0 1.496-.312 1.944-.936.448-.624.672-1.696.672-3.216 0-2.56-.888-3.84-2.664-3.84-1.744 0-2.616 1.368-2.616 4.104zm28.144-1.896h-3.48c-.16-1.488-.68-2.232-1.56-2.232-1.248 0-1.872 1.288-1.872 3.864 0 1.84.296 3.08.888 3.72.256.272.576.408.96.408.128 0 .256-.024.384-.072.144-.048.312-.136.504-.264.192-.144.352-.384.48-.72.144-.352.232-.776.264-1.272H42.2c-.08 1.568-.6 2.76-1.56 3.576-.88.752-2.032 1.128-3.456 1.128-1.808 0-3.184-.536-4.128-1.608-1.024-1.184-1.536-2.776-1.536-4.776 0-1.04.144-1.96.432-2.76.304-.8.664-1.416 1.08-1.848.432-.432.92-.776 1.464-1.032.56-.272 1.048-.448 1.464-.528.432-.08.84-.12 1.224-.12 1.296 0 2.44.376 3.432 1.128.992.752 1.496 1.888 1.512 3.408zM44.336 50V32.672h3.528v6.864c.864-1.216 2.032-1.824 3.504-1.824 1.504 0 2.68.544 3.528 1.632.528.736.792 1.832.792 3.288V50H52.16v-7.248c0-1.76-.664-2.64-1.992-2.64-.608 0-1.144.2-1.608.6-.448.384-.672 1.008-.672 1.872L47.912 50h-3.576zm14.456-14.232v-3.096h3.792v3.096h-3.792zM58.912 50V37.856h3.552V50h-3.552zm6.68 0V32.648h3.551V50h-3.552zm14.695-10.632v-6.696h3.576v15.36c0 .704.032 1.36.096 1.968h-3.6l-.096-1.752c-.336.608-.744 1.064-1.224 1.368-.64.416-1.424.624-2.352.624-1.616 0-2.88-.528-3.792-1.584-.912-1.072-1.368-2.552-1.368-4.44 0-1.984.488-3.56 1.464-4.728.992-1.184 2.288-1.776 3.888-1.776 1.472 0 2.608.552 3.408 1.656zm-5.16 4.752c0 1.104.2 2.016.6 2.736.4.72 1.016 1.08 1.848 1.08a2.44 2.44 0 001.344-.384c.4-.256.704-.584.912-.984.384-.736.576-1.688.576-2.856s-.24-2.072-.72-2.712c-.464-.64-1.104-.96-1.92-.96-.56 0-1.032.152-1.416.456a2.53 2.53 0 00-.816 1.152c-.16.48-.272.912-.336 1.296a9.473 9.473 0 00-.072 1.176zM86.943 50v-9.144c0-.928-.056-1.936-.168-3.024h3.336l.072 2.328a5.78 5.78 0 01.432-.84c.16-.224.392-.472.696-.744.304-.288.712-.496 1.224-.624s1.104-.176 1.776-.144V41c-.848-.08-1.552-.048-2.112.096-.544.144-.936.392-1.176.744a2.995 2.995 0 00-.432 1.008 5.887 5.887 0 00-.096 1.176V50h-3.552zm19.898-5.16h-8.136c0 2.16.824 3.24 2.472 3.24 1.136 0 1.84-.56 2.112-1.68h3.24c-.08 1.04-.464 1.92-1.152 2.64-.896.944-2.312 1.416-4.248 1.416-1.872 0-3.296-.504-4.272-1.512-1.04-1.088-1.56-2.664-1.56-4.728 0-2.656.84-4.568 2.52-5.736 1.008-.672 2.144-1.008 3.408-1.008.992 0 1.928.232 2.808.696.88.448 1.576 1.192 2.088 2.232.56 1.152.8 2.632.72 4.44zm-8.016-2.232h4.392c0-.24-.016-.464-.048-.672a4.542 4.542 0 00-.24-.864 1.532 1.532 0 00-.648-.84c-.304-.224-.696-.336-1.176-.336-.736 0-1.296.256-1.68.768-.368.512-.568 1.16-.6 1.944zM109.233 50v-9.96c0-.912-.024-1.648-.072-2.208h3.408l.096 1.824c.864-1.408 2.176-2.112 3.936-2.112 1.056 0 1.88.24 2.472.72.608.464 1.016.984 1.224 1.56.224.624.336 1.832.336 3.624V50h-3.624v-7.536c0-.624-.064-1.064-.192-1.32-.336-.688-.912-1.032-1.728-1.032s-1.432.312-1.848.936c-.288.416-.432 1.032-.432 1.848V50h-3.576zm21.184-14.232v-3.096h3.792v3.096h-3.792zm.12 14.232V37.856h3.552V50h-3.552zm6.727 0v-9.96c0-.912-.024-1.648-.072-2.208h3.408l.096 1.824c.864-1.408 2.176-2.112 3.936-2.112 1.056 0 1.88.24 2.472.72.608.464 1.016.984 1.224 1.56.224.624.336 1.832.336 3.624V50h-3.624v-7.536c0-.624-.064-1.064-.192-1.32-.336-.688-.912-1.032-1.728-1.032s-1.432.312-1.848.936c-.288.416-.432 1.032-.432 1.848V50h-3.576zm20.128-17.28h4.344l3.576 7.896 3.648-7.896h3.816l-5.856 10.968V50h-3.672v-6.36l-5.856-10.92zm25.504 12.12h-8.136c0 2.16.824 3.24 2.472 3.24 1.136 0 1.84-.56 2.112-1.68h3.24c-.08 1.04-.464 1.92-1.152 2.64-.896.944-2.312 1.416-4.248 1.416-1.872 0-3.296-.504-4.272-1.512-1.04-1.088-1.56-2.664-1.56-4.728 0-2.656.84-4.568 2.52-5.736 1.008-.672 2.144-1.008 3.408-1.008.992 0 1.928.232 2.808.696.88.448 1.576 1.192 2.088 2.232.56 1.152.8 2.632.72 4.44zm-8.016-2.232h4.392c0-.24-.016-.464-.048-.672a4.542 4.542 0 00-.24-.864 1.532 1.532 0 00-.648-.84c-.304-.224-.696-.336-1.176-.336-.736 0-1.296.256-1.68.768-.368.512-.568 1.16-.6 1.944zM185.312 50v-9.84c0-.672-.04-1.432-.12-2.28h3.432l.12 1.56c.88-1.216 2.128-1.824 3.744-1.824 1.904 0 3.176.76 3.816 2.28.784-1.504 2.08-2.256 3.888-2.256 1.744 0 2.976.648 3.696 1.944.4.656.6 1.776.6 3.36V50h-3.576v-7.128c0-.528-.04-.968-.12-1.32-.064-.352-.256-.672-.576-.96-.32-.304-.768-.456-1.344-.456-.416 0-.768.08-1.056.24a2.07 2.07 0 00-.648.576c-.144.208-.256.504-.336.888a9.54 9.54 0 00-.12.984c-.016.272-.024.64-.024 1.104V50h-3.576v-7.2c0-.336-.016-.616-.048-.84a4.465 4.465 0 00-.216-.816 1.254 1.254 0 00-.6-.744c-.288-.176-.664-.264-1.128-.264-.528 0-.96.096-1.296.288-.32.192-.544.464-.672.816a5.004 5.004 0 00-.216.84 5.37 5.37 0 00-.048.792V50h-3.576zm33.584-5.16h-8.136c0 2.16.824 3.24 2.472 3.24 1.136 0 1.84-.56 2.112-1.68h3.24c-.08 1.04-.464 1.92-1.152 2.64-.896.944-2.312 1.416-4.248 1.416-1.872 0-3.296-.504-4.272-1.512-1.04-1.088-1.56-2.664-1.56-4.728 0-2.656.84-4.568 2.52-5.736 1.008-.672 2.144-1.008 3.408-1.008.992 0 1.928.232 2.808.696.88.448 1.576 1.192 2.088 2.232.56 1.152.8 2.632.72 4.44zm-8.016-2.232h4.392c0-.24-.016-.464-.048-.672a4.542 4.542 0 00-.24-.864 1.532 1.532 0 00-.648-.84c-.304-.224-.696-.336-1.176-.336-.736 0-1.296.256-1.68.768-.368.512-.568 1.16-.6 1.944zM221.288 50v-9.96c0-.912-.024-1.648-.072-2.208h3.408l.096 1.824c.864-1.408 2.176-2.112 3.936-2.112 1.056 0 1.88.24 2.472.72.608.464 1.016.984 1.224 1.56.224.624.336 1.832.336 3.624V50h-3.624v-7.536c0-.624-.064-1.064-.192-1.32-.336-.688-.912-1.032-1.728-1.032s-1.432.312-1.848.936c-.288.416-.432 1.032-.432 1.848V50h-3.576z" fill="#fff"/></svg>