<svg width="48" height="49" viewBox="0 0 48 49" fill="none" xmlns="http://www.w3.org/2000/svg"><path d="M7.816 17.809c.055.066.37.42.702.791.33.365.69.761.792.881.406.467.557.637 1.264 1.415.398.445.816.902.918 1.022.102.12.266.305.36.413.298.338 1.84 2.064 1.957 2.194.337.364.568.622.934 1.04.464.528.462.515.25 1.112-.06.161-.132.375-.163.477-.03.103-.094.301-.138.44-.048.135-.182.537-.3.89-.113.354-.253.764-.305.914-.052.15-.12.355-.15.458l-.138.44c-.087.249-.442 1.32-.587 1.76-.075.24-.16.496-.316.962-.052.15-.11.334-.136.413-.022.074-.117.352-.204.618-.09.264-.19.583-.233.71-.105.31-.21.637-.32.96-.052.15-.11.325-.127.391-.021.064-.08.249-.14.41-.056.164-.113.321-.123.353-.035.1.071.1.272 0l1.01-.518c.14-.074.283-.145.311-.154.031-.012.255-.129.51-.265.25-.132.533-.276.63-.328.495-.246 1.27-.64 2.168-1.1.106-.057.298-.15.422-.218.125-.061.362-.18.528-.269.166-.089.379-.197.47-.241.092-.044.273-.14.401-.204.13-.069.437-.225.683-.349.246-.124.586-.297.753-.386.166-.089.407-.205.534-.27.13-.058.244-.12.257-.14.01-.015.076-.037.144-.047.117-.016.132-.006.413.309.163.178.365.405.45.508.082.1.652.735 1.264 1.414.608.677 1.187 1.323 1.28 1.431.093.109.584.656 1.091 1.219.91 1.01 1.211 1.345 1.387 1.56.048.06.147.161.209.226a137.708 137.708 0 001.595 1.786c1.266 1.41 1.443 1.609 1.831 2.052.105.116.303.34.442.497.138.156.282.32.317.367.042.045.083.067.096.048.013-.019-.182-1.032-.433-2.25-.681-3.308-.8-3.887-.995-4.85-.097-.487-.245-1.193-.322-1.571a235.86 235.86 0 01-.5-2.415 337.21 337.21 0 00-.576-2.775c-.123-.571-.204-1.064-.186-1.091.018-.027.226-.25.226-.25l.265-.185s.044-.082.67-.403c.54-.271 1.611-.822 1.848-.94.14-.074.343-.177.446-.23.107-.051.293-.143.416-.21.122-.064.323-.163.446-.23.122-.064.307-.156.414-.207.103-.053.307-.156.446-.23.143-.07.452-.23.683-.348.687-.347 1.157-.588 1.627-.829.14-.073.352-.181.467-.243.204-.103.544-.276.98-.5.234-.122.438-.224 1.282-.654 1.045-.53 1.099-.56 1.37-.695.139-.074.351-.182.466-.244.203-.103.544-.275.98-.5.559-.288.66-.337.836-.425.103-.053.306-.156.446-.23.237-.119 1.307-.669 1.851-.944 1.09-.555 1.353-.695 1.351-.725-.006-.015-.42-.045-.92-.07a25.323 25.323 0 01-.992-.058 3.32 3.32 0 00-.268-.014c-.104-.003-.49-.025-.86-.046-.628-.035-4.823-.251-4.997-.257-.046.002-.352-.015-.674-.032a1543.138 1543.138 0 01-5.85-.305c-.319-.015-.648-.03-.728-.035-.083 0-.18-.005-.221-.01-.039-.01-.969-.059-2.062-.112-1.094-.054-2.02-.124-2.054-.157-.068-.063-.348-1.353-1.077-4.95-.101-.506-.245-1.21-.322-1.57-.077-.362-.29-1.392-.476-2.287-.688-3.339-.974-4.717-1.14-5.543-.1-.466-.198-.83-.228-.81-.04.034-.204.478-.339.93-.03.103-.095.311-.147.461-.052.15-.109.324-.127.39-.02.065-.08.249-.14.41-.055.164-.134.386-.169.502-.065.202-.296.91-.466 1.421l-.127.39a13.14 13.14 0 01-.13.389c-.045.138-.118.352-.157.482-.144.44-.5 1.511-.586 1.76l-.138.44c-.03.102-.099.309-.15.458-.053.15-.192.56-.306.914-.117.353-.252.755-.3.89-.044.138-.107.337-.137.44-.031.102-.104.316-.16.48a6.68 6.68 0 00-.138.422c-.017.067-.057.19-.088.276a95.822 95.822 0 00-.458 1.36c-.058.191-.134.409-.32.96-.23.69-.343.995-.37 1-.048.006-4.641-.223-4.898-.246-.072-.01-1.186-.066-2.474-.129a146.168 146.168 0 01-2.487-.132c-.18-.022-.203.02-.088.17z" fill="#fff" opacity=".2"/></svg>