<svg width="143" height="56" viewBox="0 0 143 56" fill="none" xmlns="http://www.w3.org/2000/svg"><path d="M5.442.72c-.187.397-.375.887-.421 1.07-.094.26-.265.337-1.045.429-1.841.214-1.841.214-.78 1.01l.92.688-.39.918c-.905 2.127-.998 2.402-.795 2.25.109-.077.748-.582 1.435-1.087.67-.52 1.294-.903 1.403-.842.094.062.905.643 1.779 1.316.889.658 1.637 1.178 1.669 1.148.015-.03-.312-.842-.718-1.806a56.785 56.785 0 01-.842-2.004c-.063-.168.343-.566 1.357-1.331.78-.612 1.388-1.102 1.341-1.102-.03 0-.826.107-1.762.23-.92.137-1.716.199-1.778.153-.047-.046-.234-.444-.422-.888-.187-.428-.405-.81-.499-.841-.078-.016-.28.29-.452.688zM97.27 2.525c0 .045.218.612.498 1.254l.5 1.163-.39.321c-.219.169-.64.52-.936.75l-.53.428.467-.076c.265-.046.796-.122 1.186-.184l.733-.091.28.719.281.719.344-.75c.358-.826.577-.964 1.403-.964.578 0 .687-.199.266-.444-.874-.504-.874-.52-.453-1.56.219-.52.39-.98.359-1.01-.031-.015-.421.23-.889.566-.453.337-.905.566-.998.505a26.057 26.057 0 01-1.061-.765c-.842-.627-1.06-.75-1.06-.581zM13.584 6.243c-.81.505-1.747 1.637-2.308 2.8-1.482 3.075-2.636 8.43-3.089 14.367-.171 2.31-.312 2.754-.795 2.754-.328 0 .109-5.753.826-10.864.25-1.805.453-3.503.453-3.779 0-.964-.827-1.33-3.588-1.591-2.043-.184-2.34-.076-2.823 1.01C1.324 13.005.872 16.662.872 22.11c0 4.33.156 6.502.702 9.792 1.2 7.344 3.837 11.659 7.144 11.704.67 0 1.825-.52 1.825-.826 0-.107-.266-.78-.609-1.484-.795-1.713-1.341-3.198-1.794-5.003-.499-1.897-.904-4.667-.842-5.63.047-.72.063-.75.593-.842.296-.046.686-.138.858-.184.28-.092.452.184 1.513 2.31 4.57 9.211 10.092 15.699 15.13 17.75 1.56.642 3.229.887 4.508.657 2.075-.352 2.792-1.836.89-1.851-.282 0-.921-.169-1.405-.367-3.244-1.316-7.362-6.09-11.823-13.725-1.217-2.096-3.588-6.61-3.588-6.84 0-.091.328-.336.749-.58 1.076-.613 3.104-2.204 4.102-3.23 2.964-3.014 4.352-6.135 4.352-9.761 0-2.938-.717-5.462-1.934-6.778-.873-.949-1.591-1.132-4.617-1.209-2.324-.061-2.62-.03-3.042.23zm2.558 2.02c1.451.718 2.2 2.447 2.2 5.018-.016 3.61-2.137 7.023-6.286 10.052-1.17.872-2.746 1.836-2.824 1.745-.093-.107.343-4.132.687-6.335.92-5.906 2.199-9.67 3.603-10.603.452-.306.655-.352 1.294-.26.422.046 1.014.214 1.326.382zM26.92 6.58c0 .275.11.305 1.093.305h1.091l.032 2.785.047 2.8h.78l.046-2.8.031-2.785h1.014c.905 0 1.014-.03 1.014-.306 0-.29-.109-.306-2.574-.306-2.464 0-2.573.016-2.573.306zM33.035 9.364c.047 3.09.047 3.106.406 3.152.343.046.343.015.343-1.469 0-1.3.047-1.576.328-1.928.234-.29.468-.398.826-.398.843 0 1.014.337 1.061 2.142.047 1.53.063 1.607.406 1.653.343.046.343.03.343-1.867 0-1.882 0-1.912-.406-2.218-.28-.215-.64-.322-1.076-.322-.437 0-.795.107-1.076.322l-.406.306V7.513c0-1.224 0-1.24-.39-1.24h-.39l.032 3.09zM51.379 7.268c-.14.627-.187 1.04-.094 1.086.219.138.5-.214.952-1.209l.405-.872h-.514c-.484 0-.515.015-.749.995zM73.248 9.41c0 3.03.015 3.136.311 3.136.203 0 .313-.107.313-.29 0-.276.015-.276.577 0 .686.352 1.123.367 1.84.076.78-.321 1.06-.98.983-2.264-.047-.872-.125-1.102-.468-1.439-.515-.52-1.576-.657-2.277-.306l-.5.26V7.422c0-1.117-.015-1.148-.39-1.148h-.39V9.41zm2.745-.49c.577.49.702 1.775.234 2.51-.28.428-.406.504-.936.504-.998 0-1.388-.596-1.28-1.912.11-1.255 1.124-1.821 1.982-1.102zM83.901 7.145c-.109.03-.203.276-.203.52 0 .368-.062.444-.39.444-.28 0-.39.077-.39.306 0 .23.11.306.39.306h.39v1.76c0 1.958.063 2.065 1.155 2.065.452 0 .561-.06.561-.29 0-.215-.124-.322-.42-.352l-.438-.046-.046-1.576-.047-1.56h1.887v1.667c0 1.928.11 2.157 1.108 2.157.499 0 .608-.045.608-.306 0-.214-.11-.306-.374-.306-.5 0-.562-.23-.562-1.851V8.721h.468c.359 0 .468-.061.468-.306s-.11-.306-.468-.306c-.437 0-.468-.046-.468-.535 0-.291-.062-.536-.14-.536-.406 0-.64.23-.64.612 0 .367-.078.444-.42.49-.25.03-.672.015-.937-.015-.468-.046-.515-.092-.515-.567 0-.505-.124-.596-.577-.413zM38.994 8.4c-.655.398-.89 1.025-.811 2.25.062.917.109 1.07.561 1.453.92.81 2.777.52 3.12-.475.156-.413.14-.459-.156-.459-.172 0-.515.2-.749.46-.265.29-.592.458-.842.458-.577 0-1.185-.627-1.185-1.224v-.459h3.166l-.11-.734c-.124-1.01-.748-1.56-1.777-1.56-.437 0-.92.106-1.217.29zm1.919.52c.093.107.234.367.28.597l.11.428h-1.186c-1.045 0-1.185-.03-1.185-.275 0-.857 1.341-1.362 1.98-.75zM43.424 8.216c-.031.077-.031 1.071 0 2.234.047 2.081.047 2.112.39 2.066.327-.046.343-.138.421-1.622.078-1.744.234-2.02 1.123-2.02.374 0 .437-.06.437-.398 0-.367-.047-.397-.5-.306-.264.046-.608.2-.764.337-.234.199-.265.199-.343-.092-.078-.29-.655-.443-.764-.199zM47.401 8.415c-.655.383-.873.811-.889 1.836-.031 1.607.593 2.295 2.075 2.295.608 0 .873-.091 1.248-.397.577-.475.64-.98.124-.98a.577.577 0 00-.499.337c-.218.474-.889.688-1.404.459-.42-.184-.935-1.148-.78-1.408.063-.091.796-.153 1.67-.153h1.575l-.11-.658c-.202-1.178-.732-1.637-1.933-1.637-.312 0-.796.138-1.077.306zm1.934.505c.094.107.203.352.234.566.047.367.016.383-1.076.429-1.217.046-1.357-.062-.967-.75.312-.581 1.326-.704 1.81-.245zM53.344 8.385c-1.123.704-.733 1.76.811 2.218 1.139.337 1.404.566 1.17.995-.327.612-1.59.535-1.81-.107-.062-.214-.233-.322-.483-.322-.514 0-.499.505.032 1.026.358.351.483.382 1.497.32 1.263-.06 1.684-.382 1.684-1.269 0-.658-.374-.949-1.575-1.27-.951-.245-.998-.29-.998-.72 0-.397.062-.458.452-.504.64-.077 1.186.092 1.186.352 0 .138.156.23.39.23.28 0 .39-.077.39-.276 0-.81-1.81-1.24-2.746-.673zM59.989 10.328v2.218h.39c.39 0 .39 0 .39-1.514 0-1.286.047-1.561.328-1.913.233-.29.467-.398.826-.398.843 0 1.014.337 1.06 2.142.048 1.53.063 1.607.406 1.653.344.046.344.03.344-1.699 0-.979-.047-1.882-.094-2.02-.265-.672-1.778-.902-2.465-.366l-.405.306V8.43c0-.245-.094-.322-.39-.322h-.39v2.219zM65.979 8.4c-.858.505-1.232 1.943-.78 2.983.343.796.936 1.163 1.903 1.163 1.045 0 1.45-.183 1.919-.841.312-.46.358-.673.296-1.5-.062-1.025-.39-1.637-1.03-1.927-.577-.26-1.762-.2-2.308.122zm1.887.413c.344.138.702.872.702 1.438 0 1.24-.904 2.066-1.856 1.683-.468-.183-.562-.32-.811-1.132-.187-.612.078-1.545.53-1.851.343-.245.983-.306 1.435-.138zM79.222 8.415c-.655.383-.874.811-.89 1.836-.03 1.607.593 2.295 2.075 2.295.609 0 .874-.091 1.248-.397.577-.475.64-.98.125-.98a.577.577 0 00-.5.337c-.218.474-.888.688-1.403.459-.421-.184-.936-1.148-.78-1.408.062-.091.796-.153 1.669-.153h1.575l-.109-.658C82.03 8.568 81.5 8.11 80.298 8.11c-.312 0-.796.138-1.076.306zm1.934.505c.093.107.203.352.234.566.047.367.016.383-1.076.429-1.217.046-1.357-.062-.967-.75.312-.581 1.325-.704 1.809-.245zM89.766 8.461c-.904.597-1.17 1.943-.608 3.137.343.734.749.948 1.872.948.593 0 .858-.091 1.232-.397.608-.49.64-.98.094-.98-.234 0-.39.092-.39.214 0 .307-.609.704-1.045.704-.5 0-1.123-.612-1.17-1.147l-.047-.46 1.607-.045c1.762-.046 1.747-.03 1.419-1.148-.312-1.117-1.872-1.545-2.964-.826zm1.623.276c.436.23.577.428.577.856 0 .337-.063.352-1.092.352-1.045 0-1.092-.015-1.092-.352 0-.367.343-.75.78-.918.359-.122.468-.122.827.062zM94.212 8.308c-.031.107-.047 1.087-.031 2.188.047 1.882.062 1.974.374 2.02.328.046.343-.03.406-1.515.046-1.392.093-1.576.42-1.836.204-.168.562-.29.812-.29.374 0 .452-.062.452-.383 0-.276-.078-.383-.312-.383-.374 0-1.092.322-1.092.49 0 .061-.062.122-.156.122-.078 0-.156-.137-.156-.306 0-.352-.577-.443-.717-.107zM101.247 12.715c-.109.168-.546 2.83-1.326 8.17-.265 1.76-.515 3.366-.546 3.55l-.078.337-.593-.337c-.514-.306-.795-.337-2.683-.337-1.95 0-2.168.03-2.963.398-3.042 1.408-5.553 6.06-5.865 10.817-.094 1.638-.562 3.045-1.903 5.876-1.357 2.892-1.81 1.714-2.013-5.202-.093-3.412-.124-3.764-.405-4.116-.515-.643-1.435-.964-2.792-.964-1.06 0-1.248.046-1.67.398-.28.23-.498.581-.545.872-.031.275-.156 1.056-.25 1.76-.202 1.453-1.014 4.284-1.747 6.074-.889 2.188-1.341 2.708-1.965 2.28-1.201-.811-1.045-6.32.28-10.206.983-2.876 2.715-5.325 4.275-6.059.951-.459 1.856-.428 2.261.077.422.52.796 1.76.796 2.6 0 .903.125 1.133.608 1.133.609 0 .796-.26.796-1.102 0-1.76-.593-3.243-1.576-3.947-.889-.628-1.98-.811-4.492-.735-1.965.046-2.184.092-2.948.475-2.293 1.178-4.102 3.917-5.132 7.742-.53 1.958-.67 5.523-.296 7.114.655 2.693 2.386 4.223 4.82 4.223.499 0 1.091-.091 1.341-.214.827-.428 1.763-1.622 2.62-3.427.562-1.148.905-1.683.968-1.545.062.122.312.918.561 1.774.827 2.938 2.153 4.759 3.619 5.034 1.28.23 2.527-1.01 4.071-4.039l.874-1.714.499 1.056c.92 1.959 2.527 3.06 4.664 3.198 1.903.122 3.073-.627 4.71-2.968.484-.704.936-1.24.999-1.179.062.077.358.689.67 1.377 2.964 6.824 6.583 11.46 10.03 12.868.437.184.842.337.889.337.281 0-.031-.735-1.06-2.586-2.621-4.682-4.087-8.553-5.039-13.311-.39-1.974-.421-2.326-.421-6.519.016-4.13.031-4.59.421-6.732.234-1.27.499-2.693.577-3.167.078-.49.437-2.035.796-3.443.343-1.422.671-2.891.717-3.274.078-.658.063-.719-.546-1.224-1.154-.98-3.681-1.729-4.008-1.193zM97.425 26.01c.343.336.406 1.423.156 2.83-.14.857.047 1.148.733 1.148h.375l-.11 1.637c-.14 2.555-.826 4.667-2.573 8.033-1.42 2.708-2.137 3.335-2.917 2.525-1.045-1.087-1.326-3.214-.905-6.687.64-5.11 2.106-8.553 4.071-9.547.609-.322.796-.306 1.17.06zM45.483 13.924c0 .413.046.459.468.459.42 0 .468-.046.468-.46 0-.413-.047-.459-.468-.459-.422 0-.468.046-.468.46zM66.696 16.601v3.137h.39c.39 0 .39-.03.39-1.194 0-1.958.328-2.631 1.295-2.631.702 0 .873.398.92 2.142.047 1.606.047 1.606.437 1.606h.39v-1.79c0-1.622-.031-1.836-.328-2.111-.452-.444-1.435-.566-2.059-.245-.265.137-.514.199-.546.122-.046-.061-.078-.505-.078-.994-.015-.475-.015-.949-.015-1.025-.016-.092-.187-.153-.406-.153h-.39V16.6zM43.034 14.337c-.11.03-.203.275-.203.52 0 .367-.062.444-.39.444-.515 0-.546.566-.03.642.327.046.342.123.389 1.714.016.933.125 1.775.218 1.882.094.107.468.199.843.199.577 0 .686-.046.686-.29 0-.215-.125-.322-.421-.353l-.437-.046-.047-1.576-.047-1.56h.484c.359 0 .468-.062.468-.306 0-.245-.11-.306-.468-.306-.437 0-.468-.046-.468-.536 0-.52-.125-.612-.577-.428zM64.17 14.398c-.156.076-.281.321-.281.52 0 .26-.094.383-.343.413-.53.077-.578.582-.063.582h.406v1.667c0 1.974.125 2.204 1.154 2.127.749-.061.92-.474.218-.55-.545-.062-.623-.337-.561-1.944l.047-1.224.514-.046c.702-.076.64-.55-.093-.612-.453-.046-.5-.092-.5-.581 0-.551-.077-.597-.498-.352zM49.351 15.591c-.483.383-.593.398-.593.092 0-.138-.14-.23-.39-.23h-.405l.047 2.097.047 2.111h.39c.39 0 .39-.015.42-1.377.032-.765.079-1.53.126-1.698.093-.413.873-.735 1.403-.612.546.138.702.627.702 2.325 0 1.439 0 1.439.39 1.439h.39v-1.576c0-1.454.031-1.607.359-1.913.452-.413 1.107-.428 1.513-.03.265.26.312.505.312 1.912v1.607h.78v-1.744c0-1.607-.031-1.79-.359-2.158-.452-.52-1.42-.673-2.106-.321-.28.137-.499.336-.499.428 0 .092-.171.016-.374-.168-.562-.52-1.607-.597-2.153-.184zM57.01 15.652c-.67.444-.983 1.286-.858 2.326.047.413.218.933.374 1.148.39.505 1.28.826 1.966.703 1.092-.198 2.059-1.468 1.138-1.468-.25 0-.436.137-.546.382-.343.735-1.575.689-1.98-.076-.453-.873-.39-.919 1.325-.919 1.779 0 1.84-.045 1.56-1.04-.343-1.316-1.81-1.82-2.98-1.056zm1.918.52c.156.138.281.414.281.613 0 .336-.047.352-1.185.352-1.154 0-1.17-.016-1.06-.352.17-.582.545-.873 1.122-.873.312 0 .687.108.842.26zM72.826 15.454c-.327.137-.67.58-.67.902 0 .321.655.168.967-.214.171-.214.452-.383.655-.383.5 0 1.03.429 1.03.827 0 .321-.094.367-.905.459-1.217.137-1.857.535-1.997 1.24-.14.733.296 1.315 1.108 1.53.483.121.686.09 1.185-.184.468-.26.608-.276.608-.108 0 .123.156.215.39.215h.39v-1.653c0-1.989-.078-2.28-.64-2.555-.483-.245-1.59-.29-2.12-.076zm1.981 2.448c0 .52-.436 1.178-.842 1.285-.483.122-1.107-.107-1.248-.46-.25-.657.312-1.1 1.435-1.116.562-.015.655.03.655.29zM78.707 15.408a1.711 1.711 0 00-.5.321c-.249.214-.28.199-.28-.015 0-.169-.125-.26-.39-.26h-.39v4.284h.375c.374 0 .374-.03.436-1.622.047-1.484.078-1.637.421-1.913.437-.351.92-.367 1.389-.046.312.215.343.352.343 1.913v1.668h.78v-1.806c-.016-1.866-.078-2.111-.733-2.448-.343-.183-1.045-.23-1.45-.076zM45.639 17.596v2.142h.78v-4.284h-.78v2.142zM26.53 17.687c.079.551.047.643-.265.78l-.343.154.453.214c.25.122.499.383.546.597l.093.382.219-.336c.171-.26.28-.291.577-.184.624.23.748.153.374-.23l-.359-.382.344-.55c.187-.307.311-.582.265-.628-.032-.046-.328.046-.655.199l-.578.275-.39-.459-.374-.459.094.627z" fill="#fff"/><path d="M84.853 17.947c.094.52.078.597-.203.674-.437.107-.405.29.047.413a.656.656 0 01.468.49c.11.382.125.397.405.137.25-.214.39-.23.78-.107.546.199.593.107.14-.367l-.342-.352.343-.566c.405-.658.327-.811-.203-.46-.515.322-.702.307-1.154-.106l-.39-.337.109.581zM52.86 23.134c-1.762.444-3.68 5.264-5.287 13.281l-.452 2.219-.047-1.377c-.031-.765.031-2.142.109-3.076.094-.918.172-2.233.172-2.922 0-1.193-.016-1.255-.5-1.714-.623-.596-2.152-1.086-3.4-1.086-1.123 0-1.404.245-1.123.964.14.321.218 1.729.25 4.085l.046 3.596-.764 1.882c-.983 2.448-1.638 3.703-1.919 3.703-.623 0-.858-1.423-.998-6.304-.14-4.606-.156-4.667-1.31-5.187-.827-.367-2.73-.398-3.385-.061-.593.306-.718.566-.842 1.774-.203 2.05-1.45 6.335-2.387 8.171-1.06 2.08-1.887 1.775-2.262-.842-.296-1.989.188-5.691 1.077-8.262 1.326-3.81 3.51-6.273 5.568-6.273.671 0 .733.03 1.092.643.39.658.718 2.035.718 2.983 0 .46.047.505.452.505.78 0 .998-.367.874-1.438-.234-2.142-.843-3.274-2.169-3.963-.592-.306-.857-.337-3.369-.337-2.511 0-2.776.031-3.37.337-3.212 1.683-5.52 6.32-5.77 11.598-.219 4.59 1.481 7.329 4.71 7.543.905.061 1.201.015 1.747-.26.858-.429 1.81-1.699 2.683-3.58.375-.811.718-1.485.765-1.485.046 0 .296.72.545 1.607.437 1.591 1.373 3.687 1.919 4.284.484.536 1.201.964 1.794 1.071 1.294.245 2.495-.949 4.024-3.963.515-.994.952-1.729.998-1.606.032.122.188.596.344 1.056.374 1.178.733 1.835 1.341 2.402 1.295 1.224 3.322 1.3 3.026.122-.062-.214.11-1.392.359-2.647.265-1.24.733-3.596 1.045-5.233 1.295-6.84 2.2-9.73 3.182-10.251.25-.122.328-.092.484.183.25.475.093 3.611-.406 7.85-.577 4.896-.655 6.778-.328 7.635.53 1.346 2.403 2.494 3.869 2.356.437-.03.593-.168.998-.857.577-.933 1.638-3.458 2.59-6.12.717-1.99.857-2.05.889-.398.046 2.647 1.185 5.921 2.464 7.13.686.658 1.232.888 2.06.888.935 0 .966-.138.623-2.448-.374-2.556-.421-5.585-.094-8.064.25-2.004.188-2.754-.312-3.29-.452-.52-1.544-.902-2.76-.994l-1.123-.092-.593.673c-.827.949-1.482 2.295-2.917 6.029-.811 2.08-1.17 2.708-1.014 1.76.28-1.76.468-4.407.452-6.81-.015-3.029-.28-4.528-1.06-5.829-.733-1.224-2.106-1.867-3.307-1.56zM137.825 23.792c-.546.398-1.623 1.79-2.168 2.846-.172.306-.375.704-.468.857-.656 1.148-2.496 5.906-3.526 9.104-.436 1.331-.842 2.417-.904 2.417-.078 0-.11-1.912-.094-4.253.031-3.183-.016-4.33-.156-4.59-.374-.674-1.466-1.025-3.244-1.025-1.311 0-1.638.045-1.872.275-.25.245-.25.29 0 .704.203.336.265.826.281 2.035 0 .857.062 2.157.124 2.876.078.72.094 1.362.047 1.454a.762.762 0 00-.125.306c-.046.321-1.622 4.07-2.09 4.957-1.092 2.127-1.528.735-1.7-5.37-.14-4.636-.14-4.667-1.388-5.202-.889-.383-2.59-.414-3.323-.046-.546.29-.686.581-.826 1.912-.312 2.77-1.981 7.834-2.98 9.012-1.154 1.331-2.027-1.101-1.684-4.697.452-4.697 2.09-8.737 4.242-10.512 1.03-.826 1.81-1.178 2.559-1.117.577.046.686.108 1.013.674.219.398.422 1.178.546 2.065l.188 1.439.468-.046c.686-.062.889-.429.811-1.408-.188-2.234-.796-3.305-2.293-4.04-1.326-.657-5.335-.627-6.692.062-2.542 1.27-4.492 4.498-5.506 9.104-.296 1.407-.25 5.003.093 6.12.531 1.714 1.389 2.846 2.652 3.473.702.352 2.106.52 2.979.367.983-.183 1.95-1.3 2.995-3.442.499-1.01.936-1.852.983-1.852.047 0 .296.735.53 1.638 1.373 4.972 3.838 6.686 6.037 4.192.593-.673 2.792-4.743 2.792-5.156 0-.383.265-.215.359.214.047.23.234.81.405 1.27.796 2.065 2.059 3.197 3.557 3.197h.826l.531-1.055c.514-.98 1.856-4.866 3.619-10.343 1.154-3.642 1.622-5.034 1.731-5.126.047-.046.047.122 0 .383-.359 1.667-.92 6.854-.998 9.119-.094 2.922.015 3.763.686 5.08.78 1.53 2.262 2.631 3.744 2.815 1.138.122 1.247-.077.826-1.668-.202-.826-.358-2.005-.421-3.336-.093-2.218 0-3.09.905-7.956 1.107-5.89 1.139-6.319.499-6.931-1.217-1.132-3.541-1.53-4.57-.796zM122.382 50.553v3.152h.78v-1.53c0-1.438.031-1.576.39-1.913.421-.428.967-.49 1.42-.168.249.184.296.444.343 1.913.062 1.683.062 1.698.437 1.698.374 0 .374 0 .374-1.744 0-1.515-.047-1.79-.312-2.127-.452-.566-1.232-.673-2.028-.306l-.608.306-.047-1.163c-.047-1.071-.078-1.163-.39-1.209l-.359-.046v3.137zM132.786 47.523c-.062.062-.109 1.485-.109 3.152v3.03h.78l-.031-3.09c-.047-2.663-.078-3.107-.281-3.153-.14-.015-.296 0-.359.061zM141.1 48.38a40 40 0 00.109 2.448c.078 1.316.125 1.5.39 1.5.25 0 .281-.123.281-.964 0-.52.047-1.622.109-2.448l.094-1.484h-.983v.948zM44.594 48.564c-.203.398-.437.673-.546.643-.11-.046-.406-.107-.67-.169l-.469-.107.437.46c.343.351.421.535.328.856-.094.383-.078.398.327.245.374-.138.5-.107.811.168l.359.337v-.413c0-.337.11-.46.468-.597.515-.199.624-.413.203-.413-.515 0-.733-.276-.811-1.01l-.094-.704-.343.704zM111.9 48.365c-.171.092-.28.337-.28.597 0 .382-.063.459-.39.459-.499 0-.531.413-.032.49.328.045.344.122.422 1.805.078 1.683.093 1.76.468 1.943.592.306 1.154.199 1.216-.245.031-.214 0-.321-.109-.26-.094.061-.312.03-.484-.061-.296-.153-.311-.29-.28-1.653l.047-1.484.436-.046c.234-.03.421-.137.421-.26 0-.122-.187-.23-.421-.26-.374-.046-.436-.122-.483-.627-.047-.597-.109-.643-.531-.398zM115.425 49.482c-1.123.49-1.591 1.882-1.06 3.121.686 1.622 3.166 1.683 3.946.108.499-.995.187-2.433-.624-3.03-.53-.383-1.638-.474-2.262-.199zm1.888.888c.374.428.421.596.359 1.3-.094 1.01-.562 1.576-1.311 1.576-.842 0-1.201-.428-1.279-1.5-.062-.887-.046-.963.406-1.407.655-.627 1.263-.627 1.825.03zM128.824 49.375c-.639.122-1.247.872-1.341 1.683-.109.795.062 1.76.374 2.127.952 1.132 3.416.688 3.416-.612 0-.398-.546-.276-.904.214-.375.49-1.014.612-1.591.306-.25-.123-.624-.888-.624-1.24 0-.076.748-.137 1.653-.137h1.669l-.109-.72c-.172-1.254-1.217-1.912-2.543-1.621zm1.404.765c.125.153.265.413.297.581.046.276-.047.306-1.077.352-1.06.046-1.138.016-1.138-.275 0-.78 1.372-1.255 1.918-.658zM136.623 49.574c-.545.245-.67.245-.67.076 0-.153-.156-.23-.421-.23h-.437l.047 3c.046 2.983.046 2.983.39 2.937.312-.045.343-.153.39-1.01.046-.948.046-.948.389-.719.453.306 1.436.291 1.997-.03.593-.352.92-1.071.92-2.035 0-1.102-.343-1.76-1.107-2.05-.749-.306-.702-.306-1.498.06zm1.014.398c.78.214 1.077 1.836.499 2.769-.265.428-.389.505-.935.505-.406 0-.734-.107-.921-.29-.67-.659-.514-2.418.265-2.831.484-.26.593-.276 1.092-.153zM141.1 53.322c0 .322.078.383.468.383s.468-.061.468-.383c0-.321-.078-.382-.468-.382s-.468.061-.468.382z" fill="#fff"/></svg>