<svg width="84" height="85" viewBox="0 0 84 85" fill="none" xmlns="http://www.w3.org/2000/svg"><path d="M52.517 13.532c-.112.107-.712.71-1.34 1.344-.617.632-1.286 1.319-1.489 1.514-.79.778-1.078 1.068-2.393 2.417-.752.762-1.526 1.56-1.729 1.756-.203.196-.515.51-.699.688-.571.572-3.492 3.52-3.712 3.744a85.594 85.594 0 01-1.758 1.787c-.895.888-.872.882-1.947.575a17.795 17.795 0 00-.86-.236 62.04 62.04 0 01-.791-.194c-.245-.069-.969-.262-1.603-.43a81.16 81.16 0 01-1.646-.437c-.27-.075-.641-.172-.825-.214a62.605 62.605 0 01-.79-.195c-.45-.124-2.378-.633-3.171-.839a85.705 85.705 0 01-1.734-.45c-.27-.075-.602-.158-.742-.194-.134-.032-.634-.168-1.114-.292-.475-.13-1.049-.271-1.28-.332-.557-.152-1.145-.301-1.728-.458a13.52 13.52 0 00-.703-.18c-.116-.03-.448-.114-.739-.201-.295-.081-.579-.164-.636-.18-.18-.05-.17.14.023.486l1.01 1.74c.142.239.28.485.299.535.025.053.252.44.515.876.256.432.538.918.638 1.084.48.855 1.246 2.189 2.142 3.735.11.182.293.513.424.726.119.215.35.624.523.91.172.285.382.652.469.81.087.157.271.47.397.69.133.223.437.752.68 1.175.241.425.577 1.01.75 1.296.171.286.4.702.525.921.115.223.235.42.27.441.029.017.075.131.098.251.04.206.022.234-.51.772-.3.311-.685.697-.86.862-.17.157-1.243 1.247-2.392 2.416a455.177 455.177 0 01-2.421 2.449 325.6 325.6 0 00-2.061 2.086c-1.71 1.738-2.274 2.314-2.64 2.654-.103.092-.272.28-.381.397-.109.118-.28.293-.388.393a252.95 252.95 0 00-2.633 2.658c-2.385 2.421-2.721 2.759-3.472 3.502-.197.2-.576.58-.84.845s-.544.54-.623.609c-.076.08-.111.154-.076.175.035.021 1.812-.445 3.949-1.033 5.796-1.601 6.812-1.879 8.5-2.34.854-.23 2.092-.577 2.754-.758.659-.192 2.566-.716 4.232-1.171a600.99 600.99 0 004.864-1.352c1.002-.285 1.868-.489 1.917-.46.049.03.463.374.463.374l.35.45s.15.07.773 1.146c.53.933 1.6 2.776 1.832 3.185.143.24.343.59.447.767.1.185.28.505.41.717.123.209.316.555.446.768.124.208.304.528.403.713.104.177.304.528.447.767.138.246.45.779.679 1.176.674 1.183 1.143 1.993 1.612 2.803.143.24.353.605.473.803.2.35.536.936.973 1.688.236.402.436.752 1.273 2.206 1.03 1.8 1.09 1.893 1.354 2.36.142.239.352.605.473.802.2.35.536.937.972 1.689.56.96.657 1.133.827 1.438.104.177.304.528.447.767.232.409 1.303 2.252 1.839 3.189 1.079 1.877 1.352 2.33 1.404 2.322.027-.013.042-.754.043-1.648-.001-.906 0-1.704.013-1.773.005-.074.008-.284.001-.48-.003-.185 0-.876.005-1.537.005-1.123.014-8.622.01-8.933-.008-.082-.005-.629-.004-1.205.007-.583.005-1.123.004-1.2-.006-.197.008-7.943.014-9.258-.003-.57-.004-1.157-.003-1.301a4.189 4.189 0 01-.002-.396c.013-.069.017-1.731.015-3.686-.003-1.955.038-3.614.094-3.677.106-.129 2.365-.778 8.672-2.498.887-.238 2.12-.578 2.753-.757.632-.18 2.438-.677 4.007-1.114 5.853-1.616 8.268-2.287 9.716-2.681.817-.233 1.452-.45 1.416-.5-.065-.067-.866-.306-1.679-.495-.184-.043-.56-.133-.83-.208-.27-.074-.583-.156-.703-.18-.115-.03-.447-.113-.738-.2-.295-.081-.694-.195-.904-.244-.364-.093-1.636-.421-2.558-.665l-.704-.18a22.706 22.706 0 01-.698-.188c-.25-.062-.634-.168-.87-.221a347.02 347.02 0 01-3.17-.84 64.231 64.231 0 00-.79-.194c-.184-.043-.555-.14-.825-.215a80.847 80.847 0 00-1.646-.436c-.635-.168-1.359-.361-1.603-.43a62.459 62.459 0 00-.79-.194c-.185-.043-.57-.149-.865-.23a11.718 11.718 0 00-.76-.195 7.33 7.33 0 01-.498-.124c-.277-.08-1.804-.493-2.45-.658-.343-.08-.735-.19-1.729-.458-1.243-.33-1.793-.495-1.804-.54-.015-.087-.019-8.297 0-8.757.01-.129.01-2.12.006-4.422-.004-2.302.001-4.3.013-4.448.022-.323-.052-.358-.31-.137z" fill="#fff" opacity=".4"/></svg>