<svg width="44" height="44" viewBox="0 0 44 44" fill="none" xmlns="http://www.w3.org/2000/svg"><path d="M4.93 19.925c.073.048.476.298.9.56.42.255.878.532 1.01.618.522.332.715.452 1.614.996.509.314 1.04.634 1.171.72.132.085.342.215.462.293.383.238 2.352 1.455 2.502 1.546.426.253.721.434 1.192.73.595.375.59.363.556.996-.01.171-.02.397-.02.504 0 .107-.005.315-.007.46-.008.144-.022.568-.034.939-.008.372-.025.805-.032.963-.007.158-.014.375-.014.482 0 .107-.004.315-.007.46-.012.264-.048 1.392-.06 1.855-.004.252-.013.522-.03 1.013-.006.158-.01.352-.012.434 0 .078-.012.371-.02.651-.011.279-.016.613-.02.748-.013.327-.021.67-.034 1.011a7.841 7.841 0 00-.01.41c-.002.068-.006.262-.017.433-.007.173-.017.34-.018.374-.005.106.097.075.261-.077l.82-.785c.113-.11.23-.219.255-.236.026-.02.207-.196.412-.399.203-.198.433-.417.51-.494.406-.377 1.036-.975 1.766-1.672.085-.085.242-.23.342-.329.102-.094.295-.276.43-.408.133-.133.307-.297.382-.365.075-.069.222-.212.326-.31.105-.103.354-.34.555-.529.2-.19.477-.451.611-.584.134-.132.332-.313.436-.411.107-.093.199-.185.206-.207.006-.018.062-.058.124-.087.108-.048.125-.043.484.179.207.124.465.284.576.358.108.074.835.52 1.615.997.775.476 1.514.93 1.635 1.007.12.078.746.462 1.392.858 1.16.71 1.544.945 1.774 1.1.064.045.187.114.264.158.078.044.195.116.263.161.063.045.862.538 1.775 1.097 1.616.992 1.842 1.132 2.34 1.446l.565.35c.177.11.362.228.41.262.052.032.097.041.104.02.007-.023-.469-.939-1.055-2.036-1.596-2.976-1.874-3.498-2.336-4.366-.232-.439-.575-1.074-.757-1.414-.187-.337-.71-1.316-1.166-2.172-.456-.856-1.06-1.978-1.343-2.497-.28-.513-.5-.962-.49-.993.01-.031.146-.304.146-.304l.2-.253s.02-.09.528-.576c.441-.415 1.31-1.247 1.504-1.43.113-.11.279-.266.362-.346.088-.08.24-.22.34-.32.097-.096.262-.248.361-.348.098-.095.25-.236.338-.316.083-.08.25-.236.362-.347.116-.108.367-.35.555-.529.56-.527.942-.892 1.324-1.257.112-.11.285-.274.378-.366.165-.157.442-.419.797-.759.189-.183.355-.34 1.041-.992.851-.804.895-.849 1.115-1.056.113-.11.286-.274.378-.366l.798-.759c.452-.435.535-.51.679-.645.084-.08.25-.237.362-.347.193-.182 1.063-1.014 1.506-1.433.887-.842 1.098-1.052 1.088-1.08-.01-.012-.416.077-.903.195-.492.12-.927.225-.966.227a58.071 58.071 0 01-1.099.263c-.611.147-4.694 1.133-4.862 1.177-.044.015-.342.086-.656.161a1531.276 1531.276 0 01-5.694 1.374l-.707.174c-.08.023-.175.046-.215.053-.04.002-.945.22-2.008.48-1.064.26-1.972.457-2.013.434-.084-.041-.72-1.198-2.443-4.439-.241-.456-.58-1.09-.757-1.414-.176-.324-.673-1.251-1.106-2.056-1.611-3.006-2.278-4.245-2.673-4.99-.23-.418-.426-.739-.45-.712-.028.044-.058.517-.059.989 0 .107-.002.325-.01.483a7.733 7.733 0 00-.01.41c-.002.068-.005.262-.017.433-.007.173-.019.408-.019.53-.005.212-.025.955-.043 1.495-.002.145-.008.328-.01.41 0 .078-.007.266-.014.41-.003.145-.013.37-.013.507-.012.463-.048 1.59-.06 1.854-.003.146-.007.354-.007.46 0 .108-.007.325-.014.483-.007.158-.024.591-.032.963-.012.371-.026.795-.034.939l-.007.46c0 .107-.01.333-.016.506-.011.171-.012.37-.011.444.002.069-.001.2-.006.29a94.9 94.9 0 00-.052 1.434c0 .2-.011.43-.033 1.012-.024.727-.046 1.051-.069 1.063a421.14 421.14 0 01-4.766 1.159c-.07.011-1.155.274-2.407.581-1.253.307-2.34.568-2.422.581-.18.031-.189.077-.036.189z" fill="#fff" opacity=".1"/></svg>