<svg width="34" height="35" viewBox="0 0 34 35" fill="none" xmlns="http://www.w3.org/2000/svg"><path d="M13.68 1.02c-.024.083-.14.543-.26 1.026-.116.479-.242.999-.283 1.15-.158.6-.214.82-.46 1.842-.143.58-.287 1.182-.329 1.334-.042.152-.102.391-.139.53-.111.437-.672 2.682-.714 2.853-.111.483-.195.819-.334 1.357-.176.681-.167.672-.78.833-.166.041-.384.101-.486.133-.102.033-.302.093-.44.134-.14.037-.548.152-.905.253-.357.106-.775.22-.928.262-.153.042-.361.102-.463.134a36.11 36.11 0 01-.441.133c-.255.07-1.34.378-1.785.506-.242.074-.501.148-.974.281-.153.042-.339.097-.418.12-.074.023-.357.101-.626.18-.269.073-.589.17-.719.206-.315.088-.644.184-.974.276-.153.042-.329.092-.394.115-.065.019-.25.074-.417.116-.167.046-.33.087-.362.096-.102.028-.042.115.153.226l.997.543c.14.073.278.152.302.17.027.018.25.138.505.271.25.134.529.286.626.336.483.272 1.243.69 2.129 1.174.107.055.292.161.417.225.12.07.353.198.52.286.167.087.375.202.464.253.088.05.269.147.394.216.13.07.431.235.672.368.241.134.575.318.742.405.167.088.4.221.524.29.12.074.237.134.26.134.019 0 .074.041.12.092.08.087.08.105-.023.515-.055.235-.13.53-.167.658-.037.124-.24.953-.459 1.84-.218.884-.426 1.727-.463 1.865-.038.138-.214.851-.395 1.587-.324 1.321-.431 1.758-.51 2.025-.023.074-.05.212-.07.3-.018.087-.05.22-.074.298-.023.074-.25.985-.505 2.025-.455 1.84-.52 2.099-.668 2.67l-.162.644a11.27 11.27 0 01-.125.469c-.014.06-.01.106.013.106.024 0 .752-.732 1.619-1.625 2.351-2.425 2.764-2.848 3.45-3.552.348-.355.85-.875 1.118-1.15.264-.282 1.039-1.078 1.716-1.773a334.09 334.09 0 001.971-2.038c.404-.424.765-.769.798-.769.032 0 .334.046.334.046l.301.115s.093-.009.71.327c.528.295 1.586.87 1.818.999.139.073.338.184.44.239.102.06.283.161.409.226.12.064.315.174.44.239.12.064.302.166.404.225.102.055.301.166.44.24.14.078.445.244.673.368.672.372 1.136.626 1.6.879.139.073.347.188.463.248.2.11.534.295.965.53.232.124.431.234 1.262.69 1.024.566 1.08.593 1.344.74.14.074.348.19.464.25.2.11.534.294.965.528.552.3.65.355.82.451.103.055.302.166.441.24.232.128 1.29.704 1.823.998 1.071.59 1.336.727 1.359.709.009-.014-.2-.373-.46-.8a25.249 25.249 0 01-.51-.852 3.297 3.297 0 00-.139-.23 1659.901 1659.901 0 00-3.042-5.011c-.028-.037-.186-.3-.352-.576a1515.132 1515.132 0 01-3.038-5.007c-.167-.271-.339-.552-.38-.621a2.346 2.346 0 01-.116-.189 94.633 94.633 0 00-1.067-1.767c-.57-.934-1.034-1.74-1.025-1.785.014-.092.923-1.05 3.488-3.677.361-.368.862-.884 1.117-1.15.255-.268.988-1.022 1.623-1.68 2.375-2.449 3.353-3.461 3.943-4.064.329-.345.575-.63.542-.644-.05-.014-.51.101-.96.244-.102.032-.31.096-.464.138-.153.041-.329.092-.394.115-.065.018-.25.073-.417.115-.167.046-.395.106-.51.143-.204.06-.919.266-1.438.414l-.394.115c-.075.023-.255.073-.395.11-.139.042-.357.101-.486.143-.446.129-1.53.437-1.786.506-.14.042-.339.101-.44.134-.103.032-.311.092-.464.133-.153.041-.57.156-.928.262-.357.102-.765.217-.904.253-.14.042-.339.102-.44.134-.103.032-.32.092-.488.138a6.701 6.701 0 00-.426.124c-.065.023-.19.06-.279.083-.157.041-1.02.28-1.382.387-.19.06-.412.12-.974.276-.7.198-1.015.276-1.034.257a423.658 423.658 0 01-2.55-4.187c-.033-.065-.613-1.017-1.285-2.117-.673-1.1-1.253-2.057-1.29-2.13-.083-.162-.13-.157-.19.022z" fill="#fff" opacity=".25"/></svg>