<svg width="48" height="48" viewBox="0 0 48 48" fill="none" xmlns="http://www.w3.org/2000/svg"><path d="M8.197 17.08c.055.066.37.42.702.792.33.365.69.76.793.88.405.467.557.637 1.263 1.415.399.445.816.902.918 1.022.103.12.267.305.36.413.299.338 1.84 2.064 1.957 2.195.337.363.568.621.935 1.039.464.529.461.516.25 1.112-.06.162-.133.375-.164.478-.03.102-.093.3-.137.439-.048.136-.183.538-.3.89-.114.354-.253.764-.305.914-.052.15-.12.356-.151.458-.03.103-.094.301-.138.44-.086.249-.442 1.32-.586 1.76-.075.24-.16.496-.316.962-.052.15-.111.335-.136.413-.023.074-.118.352-.204.618-.09.264-.191.583-.234.71-.105.31-.21.637-.32.96-.052.15-.109.325-.126.391-.022.064-.08.249-.14.41-.056.164-.113.321-.124.353-.035.1.072.1.273 0l1.01-.518c.14-.074.282-.145.31-.154.031-.012.256-.129.51-.265.25-.132.533-.276.63-.328.496-.246 1.27-.64 2.168-1.1.106-.057.298-.15.422-.218.125-.06.362-.18.528-.269.167-.089.38-.197.47-.24.092-.045.274-.14.401-.205.13-.069.437-.225.683-.349.246-.124.587-.297.753-.386.166-.088.407-.205.535-.27.128-.058.243-.12.256-.14.01-.015.076-.037.144-.047.117-.016.132-.006.413.309.163.178.365.405.45.508.082.1.653.735 1.264 1.414.608.677 1.187 1.323 1.28 1.432.094.108.584.655 1.092 1.218.909 1.011 1.21 1.345 1.387 1.56.048.06.146.162.208.226s.154.166.206.23c.047.06.673.76 1.39 1.556a194.59 194.59 0 011.83 2.053c.105.116.303.34.442.496.139.156.283.321.318.367.041.045.082.068.095.048.013-.019-.182-1.032-.432-2.25-.682-3.308-.8-3.887-.996-4.85-.097-.487-.245-1.193-.322-1.57-.083-.377-.305-1.465-.499-2.415a333.2 333.2 0 00-.576-2.776c-.123-.571-.205-1.064-.187-1.091.018-.027.226-.25.226-.25l.265-.185s.045-.081.67-.402c.54-.272 1.612-.822 1.849-.942l.446-.23c.107-.05.292-.142.416-.21.121-.063.322-.162.446-.23.121-.063.307-.155.413-.206.104-.053.307-.156.446-.23.143-.07.453-.23.683-.348.687-.347 1.157-.588 1.628-.829.14-.073.352-.18.466-.243.204-.103.544-.275.981-.5.233-.122.437-.224 1.281-.654 1.045-.53 1.1-.56 1.37-.695.139-.074.352-.182.466-.244.204-.103.544-.275.981-.5.558-.288.659-.337.835-.425.103-.053.307-.156.446-.23.237-.118 1.308-.669 1.852-.944 1.09-.554 1.353-.695 1.35-.725-.005-.015-.42-.044-.92-.07a25.206 25.206 0 01-.991-.058 3.228 3.228 0 00-.269-.014 1724.232 1724.232 0 00-5.857-.303c-.046.002-.351-.015-.674-.032a1542.67 1542.67 0 01-5.85-.305c-.319-.015-.647-.03-.728-.035-.083 0-.18-.005-.221-.01-.038-.01-.968-.058-2.062-.112-1.093-.054-2.02-.123-2.053-.157-.069-.063-.349-1.353-1.078-4.95-.1-.506-.245-1.21-.322-1.57-.077-.361-.289-1.391-.475-2.287-.688-3.339-.974-4.717-1.141-5.543-.1-.466-.198-.83-.228-.81-.04.034-.203.478-.338.93-.031.103-.095.311-.147.461-.052.15-.11.324-.127.39-.021.065-.08.25-.14.41-.056.164-.134.386-.17.502-.065.203-.295.91-.466 1.421-.044.139-.101.313-.127.39a13.14 13.14 0 01-.13.389c-.044.138-.118.352-.156.483-.145.44-.5 1.51-.587 1.76a36.01 36.01 0 00-.138.44c-.03.102-.098.308-.15.457-.052.15-.192.56-.305.915-.118.352-.252.754-.3.89a35.4 35.4 0 00-.138.438c-.03.103-.104.317-.16.48a6.68 6.68 0 00-.137.423c-.018.067-.058.191-.088.277a96.18 96.18 0 00-.459 1.36c-.057.19-.133.408-.32.96-.23.69-.343.994-.369 1a421.57 421.57 0 01-4.899-.247c-.071-.01-1.185-.066-2.473-.129a146.166 146.166 0 01-2.488-.132c-.18-.022-.203.02-.088.17z" fill="#fff" opacity=".2"/></svg>