<svg width="406" height="66" viewBox="0 0 406 66" fill="none" xmlns="http://www.w3.org/2000/svg"><path d="M17.752 14.364h-4.424c-.28-2.37-1.372-3.556-3.276-3.556-1.53 0-2.679.7-3.444 2.1-.747 1.381-1.12 3.192-1.12 5.432 0 .355.01.672.028.952.019.28.056.737.112 1.372.075.616.205 1.157.392 1.624.187.467.42.952.7 1.456.299.485.7.868 1.204 1.148.523.261 1.12.392 1.792.392.99 0 1.83-.317 2.52-.952.71-.653 1.083-1.615 1.12-2.884h4.564a17.584 17.584 0 01-.14 1.456c-.056.355-.224.868-.504 1.54a5.837 5.837 0 01-1.176 1.764c-1.475 1.512-3.444 2.268-5.908 2.268-1.68 0-3.136-.29-4.368-.868-1.232-.579-2.193-1.363-2.884-2.352a10.381 10.381 0 01-1.512-3.22 14.034 14.034 0 01-.476-3.724c0-3.23.83-5.815 2.492-7.756 1.68-1.941 3.939-2.912 6.776-2.912 2.221 0 4.032.625 5.432 1.876 1.4 1.232 2.1 2.847 2.1 4.844zM20.608 28V7.784h4.116v8.008c1.008-1.419 2.37-2.128 4.088-2.128 1.754 0 3.126.635 4.116 1.904.616.859.924 2.137.924 3.836V28h-4.116v-8.456c0-2.053-.775-3.08-2.324-3.08-.71 0-1.335.233-1.876.7-.523.448-.784 1.176-.784 2.184L24.78 28h-4.172zm16.865-16.604V7.784h4.424v3.612h-4.424zM37.613 28V13.832h4.144V28h-4.144zm7.793 0V7.756h4.144V28h-4.144zM62.55 15.596V7.784h4.172v17.92c0 .821.037 1.587.112 2.296h-4.2l-.112-2.044c-.392.71-.868 1.241-1.428 1.596-.747.485-1.661.728-2.744.728-1.885 0-3.36-.616-4.424-1.848-1.064-1.25-1.596-2.977-1.596-5.18 0-2.315.57-4.153 1.708-5.516 1.157-1.381 2.67-2.072 4.536-2.072 1.717 0 3.043.644 3.976 1.932zm-6.02 5.544c0 1.288.233 2.352.7 3.192.467.84 1.185 1.26 2.156 1.26.579 0 1.101-.15 1.568-.448a2.984 2.984 0 001.064-1.148c.448-.859.672-1.97.672-3.332 0-1.363-.28-2.417-.84-3.164-.541-.747-1.288-1.12-2.24-1.12-.653 0-1.204.177-1.652.532-.43.336-.747.784-.952 1.344-.187.56-.317 1.064-.392 1.512-.056.448-.084.905-.084 1.372zM70.316 28V17.332c0-1.083-.065-2.259-.196-3.528h3.892l.084 2.716c.168-.392.336-.719.504-.98a5.54 5.54 0 01.812-.868c.355-.336.83-.579 1.428-.728.597-.15 1.288-.205 2.072-.168V17.5c-.99-.093-1.81-.056-2.464.112-.635.168-1.092.457-1.372.868-.261.41-.43.803-.504 1.176-.075.355-.112.812-.112 1.372V28h-4.144zm23.215-6.02h-9.492c0 2.52.961 3.78 2.884 3.78 1.325 0 2.146-.653 2.464-1.96h3.78c-.094 1.213-.542 2.24-1.344 3.08-1.046 1.101-2.698 1.652-4.956 1.652-2.184 0-3.846-.588-4.984-1.764-1.214-1.27-1.82-3.108-1.82-5.516 0-3.099.98-5.33 2.94-6.692 1.176-.784 2.501-1.176 3.976-1.176 1.157 0 2.25.27 3.276.812 1.026.523 1.838 1.39 2.436 2.604.653 1.344.933 3.07.84 5.18zm-9.352-2.604h5.124c0-.28-.019-.541-.056-.784-.038-.261-.13-.597-.28-1.008a1.787 1.787 0 00-.756-.98c-.355-.261-.812-.392-1.372-.392-.859 0-1.512.299-1.96.896-.43.597-.663 1.353-.7 2.268zM96.32 28V16.38c0-1.064-.028-1.923-.084-2.576h3.976l.112 2.128c1.008-1.643 2.539-2.464 4.592-2.464 1.232 0 2.194.28 2.884.84.71.541 1.186 1.148 1.428 1.82.262.728.392 2.137.392 4.228V28h-4.228v-8.792c0-.728-.074-1.241-.224-1.54-.392-.803-1.064-1.204-2.016-1.204s-1.67.364-2.156 1.092c-.336.485-.504 1.204-.504 2.156V28h-4.172zm24.714-16.604V7.784h4.424v3.612h-4.424zm.14 16.604V13.832h4.144V28h-4.144zm7.849 0V16.38c0-1.064-.028-1.923-.084-2.576h3.976l.112 2.128c1.008-1.643 2.539-2.464 4.592-2.464 1.232 0 2.194.28 2.884.84.71.541 1.186 1.148 1.428 1.82.262.728.392 2.137.392 4.228V28h-4.228v-8.792c0-.728-.074-1.241-.224-1.54-.392-.803-1.064-1.204-2.016-1.204s-1.67.364-2.156 1.092c-.336.485-.504 1.204-.504 2.156V28h-4.172zm30.483-20.244h5.152L171.687 28h-4.368l-1.456-4.368h-8.008L156.343 28h-4.144l7.308-20.244zm-.532 12.6h5.796l-2.8-8.624-2.996 8.624zM174.366 28V16.8h-2.1v-2.94h2.1v-1.932c0-1.419.345-2.52 1.036-3.304.69-.803 1.969-1.204 3.836-1.204.709 0 1.456.047 2.24.14v2.884a8.316 8.316 0 00-.868-.084c-.504 0-.915.056-1.232.168-.299.112-.514.28-.644.504a2.86 2.86 0 00-.224.56c-.019.15-.028.355-.028.616v1.652h2.632v2.94h-2.632V28h-4.116zm18.564-14.084h3.892a35.463 35.463 0 00-.196 3.5V27.86c0 3.808-2.352 5.712-7.056 5.712-3.957 0-6.029-1.512-6.216-4.536h3.976c.168 1.307.989 1.96 2.464 1.96.653 0 1.213-.159 1.68-.476.467-.317.765-.775.896-1.372.112-.448.177-1.568.196-3.36-.971 1.288-2.24 1.932-3.808 1.932-1.904 0-3.379-.69-4.424-2.072-1.027-1.381-1.54-3.005-1.54-4.872 0-1.923.523-3.565 1.568-4.928 1.064-1.381 2.557-2.072 4.48-2.072 1.717 0 3.033.672 3.948 2.016l.14-1.876zm-5.992 6.86c0 .355.019.69.056 1.008.037.299.131.728.28 1.288.149.541.429.98.84 1.316.429.336.961.504 1.596.504.672 0 1.223-.168 1.652-.504.448-.336.747-.775.896-1.316.168-.56.271-.99.308-1.288.037-.299.056-.607.056-.924 0-2.875-.943-4.312-2.828-4.312-.84 0-1.531.345-2.072 1.036-.523.69-.784 1.755-.784 3.192zM200.639 28V7.784h4.116v8.008c1.008-1.419 2.371-2.128 4.088-2.128 1.755 0 3.127.635 4.116 1.904.616.859.924 2.137.924 3.836V28h-4.116v-8.456c0-2.053-.775-3.08-2.324-3.08-.709 0-1.335.233-1.876.7-.523.448-.784 1.176-.784 2.184l.028 8.652h-4.172zm29.241 0h-3.752a12.23 12.23 0 01-.14-1.932c-1.045 1.512-2.454 2.268-4.228 2.268-1.568 0-2.744-.373-3.528-1.12-.821-.821-1.232-1.857-1.232-3.108 0-2.016.999-3.481 2.996-4.396 1.158-.523 3.024-.784 5.6-.784 0-.859-.065-1.484-.196-1.876-.28-.784-.896-1.176-1.848-1.176-.69 0-1.213.261-1.568.784-.205.317-.308.737-.308 1.26h-4.06c.056-1.493.588-2.604 1.596-3.332 1.064-.765 2.492-1.148 4.284-1.148 2.315 0 3.995.607 5.04 1.82.654.784.98 1.941.98 3.472l.028 5.684c0 1.344.112 2.539.336 3.584zm-4.284-6.664c-1.362-.112-2.464.037-3.304.448-.84.41-1.26 1.027-1.26 1.848 0 .523.178.99.532 1.4.355.41.85.616 1.484.616.71 0 1.298-.27 1.764-.812.336-.41.551-.868.644-1.372.094-.523.14-1.232.14-2.128zM233.259 28V16.38c0-1.064-.028-1.923-.084-2.576h3.976l.112 2.128c1.008-1.643 2.538-2.464 4.592-2.464 1.232 0 2.193.28 2.884.84.709.541 1.185 1.148 1.428 1.82.261.728.392 2.137.392 4.228V28h-4.228v-8.792c0-.728-.075-1.241-.224-1.54-.392-.803-1.064-1.204-2.016-1.204s-1.671.364-2.156 1.092c-.336.485-.504 1.204-.504 2.156V28h-4.172zm16.921-16.604V7.784h4.424v3.612h-4.424zM250.32 28V13.832h4.144V28h-4.144zm6.785-4.088h3.892c.037.523.243.98.616 1.372.373.373.952.56 1.736.56.691 0 1.223-.159 1.596-.476.392-.336.588-.737.588-1.204 0-.355-.14-.653-.42-.896-.261-.261-.775-.495-1.54-.7l-2.576-.7c-.448-.13-.812-.252-1.092-.364a10.85 10.85 0 01-1.092-.616 2.768 2.768 0 01-1.036-1.176c-.243-.504-.364-1.092-.364-1.764 0-1.363.569-2.436 1.708-3.22 1.139-.803 2.632-1.204 4.48-1.204 1.531 0 2.791.355 3.78 1.064 1.008.71 1.54 1.745 1.596 3.108h-3.78c-.075-1.12-.747-1.68-2.016-1.68-.579 0-1.055.13-1.428.392a1.155 1.155 0 00-.532 1.008c0 .43.14.737.42.924.28.168.784.355 1.512.56l2.548.7c2.52.69 3.78 2.007 3.78 3.948 0 1.325-.569 2.473-1.708 3.444-1.12.952-2.716 1.428-4.788 1.428-2.128 0-3.743-.579-4.844-1.736-.635-.672-.98-1.596-1.036-2.772zm23.324 1.176v2.716a12.275 12.275 0 01-3.22.448c-.784 0-1.465-.103-2.044-.308-.56-.205-.971-.43-1.232-.672-.261-.243-.467-.57-.616-.98-.149-.43-.233-.756-.252-.98a10.702 10.702 0 01-.028-.868v-7.756h-2.716v-2.744h2.716v-2.772l4.116-1.512v4.284h3.36v2.744h-3.36v6.384c0 .41.009.71.028.896.037.187.112.392.224.616a.954.954 0 00.56.476c.261.075.616.112 1.064.112.429 0 .896-.028 1.4-.084zM295.232 28h-3.752a12.112 12.112 0 01-.14-1.932c-1.046 1.512-2.455 2.268-4.228 2.268-1.568 0-2.744-.373-3.528-1.12-.822-.821-1.232-1.857-1.232-3.108 0-2.016.998-3.481 2.996-4.396 1.157-.523 3.024-.784 5.6-.784 0-.859-.066-1.484-.196-1.876-.28-.784-.896-1.176-1.848-1.176-.691 0-1.214.261-1.568.784-.206.317-.308.737-.308 1.26h-4.06c.056-1.493.588-2.604 1.596-3.332 1.064-.765 2.492-1.148 4.284-1.148 2.314 0 3.994.607 5.04 1.82.653.784.98 1.941.98 3.472l.028 5.684c0 1.344.112 2.539.336 3.584zm-4.284-6.664c-1.363-.112-2.464.037-3.304.448-.84.41-1.26 1.027-1.26 1.848 0 .523.177.99.532 1.4.354.41.849.616 1.484.616.709 0 1.297-.27 1.764-.812.336-.41.55-.868.644-1.372.093-.523.14-1.232.14-2.128zM298.61 28V16.38c0-1.064-.028-1.923-.084-2.576h3.976l.112 2.128c1.008-1.643 2.539-2.464 4.592-2.464 1.232 0 2.194.28 2.884.84.71.541 1.186 1.148 1.428 1.82.262.728.392 2.137.392 4.228V28h-4.228v-8.792c0-.728-.074-1.241-.224-1.54-.392-.803-1.064-1.204-2.016-1.204s-1.67.364-2.156 1.092c-.336.485-.504 1.204-.504 2.156V28h-4.172zm37.091 0h-3.752a12.112 12.112 0 01-.14-1.932c-1.046 1.512-2.455 2.268-4.228 2.268-1.568 0-2.744-.373-3.528-1.12-.822-.821-1.232-1.857-1.232-3.108 0-2.016.998-3.481 2.996-4.396 1.157-.523 3.024-.784 5.6-.784 0-.859-.066-1.484-.196-1.876-.28-.784-.896-1.176-1.848-1.176-.691 0-1.214.261-1.568.784-.206.317-.308.737-.308 1.26h-4.06c.056-1.493.588-2.604 1.596-3.332 1.064-.765 2.492-1.148 4.284-1.148 2.314 0 3.994.607 5.04 1.82.653.784.98 1.941.98 3.472l.028 5.684c0 1.344.112 2.539.336 3.584zm-4.284-6.664c-1.363-.112-2.464.037-3.304.448-.84.41-1.26 1.027-1.26 1.848 0 .523.177.99.532 1.4.354.41.849.616 1.484.616.709 0 1.297-.27 1.764-.812.336-.41.55-.868.644-1.372.093-.523.14-1.232.14-2.128zM339.023 28V17.332c0-1.083-.065-2.259-.196-3.528h3.892l.084 2.716c.168-.392.336-.719.504-.98a5.54 5.54 0 01.812-.868c.355-.336.831-.579 1.428-.728.597-.15 1.288-.205 2.072-.168V17.5c-.989-.093-1.811-.056-2.464.112-.635.168-1.092.457-1.372.868-.261.41-.429.803-.504 1.176-.075.355-.112.812-.112 1.372V28h-4.144zm23.215-6.02h-9.492c0 2.52.961 3.78 2.884 3.78 1.325 0 2.146-.653 2.464-1.96h3.78c-.094 1.213-.542 2.24-1.344 3.08-1.046 1.101-2.698 1.652-4.956 1.652-2.184 0-3.846-.588-4.984-1.764-1.214-1.27-1.82-3.108-1.82-5.516 0-3.099.98-5.33 2.94-6.692 1.176-.784 2.501-1.176 3.976-1.176 1.157 0 2.249.27 3.276.812 1.026.523 1.838 1.39 2.436 2.604.653 1.344.933 3.07.84 5.18zm-9.352-2.604h5.124c0-.28-.019-.541-.056-.784a5.376 5.376 0 00-.28-1.008 1.79 1.79 0 00-.756-.98c-.355-.261-.812-.392-1.372-.392-.859 0-1.512.299-1.96.896-.43.597-.663 1.353-.7 2.268zM2.1 57V45.8H0v-2.94h2.1v-1.932c0-1.419.345-2.52 1.036-3.304.69-.803 1.97-1.204 3.836-1.204.71 0 1.456.047 2.24.14v2.884a8.291 8.291 0 00-.868-.084c-.504 0-.915.056-1.232.168-.299.112-.513.28-.644.504-.112.224-.187.41-.224.56-.019.15-.028.355-.028.616v1.652h2.632v2.94H6.216V57H2.1zm21.28 0h-3.752a12.194 12.194 0 01-.14-1.932c-1.045 1.512-2.454 2.268-4.228 2.268-1.568 0-2.744-.373-3.528-1.12-.821-.821-1.232-1.857-1.232-3.108 0-2.016.999-3.481 2.996-4.396 1.158-.523 3.024-.784 5.6-.784 0-.859-.065-1.484-.196-1.876-.28-.784-.896-1.176-1.848-1.176-.69 0-1.213.261-1.568.784-.205.317-.308.737-.308 1.26h-4.06c.056-1.493.588-2.604 1.596-3.332 1.064-.765 2.492-1.148 4.284-1.148 2.315 0 3.995.607 5.04 1.82.654.784.98 1.941.98 3.472l.028 5.684c0 1.344.112 2.539.336 3.584zm-4.284-6.664c-1.362-.112-2.464.037-3.304.448-.84.41-1.26 1.027-1.26 1.848 0 .523.178.99.532 1.4.355.41.85.616 1.484.616.71 0 1.298-.27 1.764-.812a3 3 0 00.644-1.372c.094-.523.14-1.232.14-2.128zm19.143-2.464h-4.06c-.187-1.736-.794-2.604-1.82-2.604-1.456 0-2.184 1.503-2.184 4.508 0 2.147.345 3.593 1.036 4.34.299.317.672.476 1.12.476.15 0 .298-.028.448-.084.168-.056.364-.159.588-.308.224-.168.41-.448.56-.84.168-.41.27-.905.308-1.484h4.088c-.093 1.83-.7 3.22-1.82 4.172-1.027.877-2.37 1.316-4.032 1.316-2.11 0-3.715-.625-4.816-1.876-1.195-1.381-1.792-3.239-1.792-5.572 0-1.213.168-2.287.504-3.22.354-.933.774-1.652 1.26-2.156a6.033 6.033 0 011.708-1.204c.653-.317 1.223-.523 1.708-.616a7.86 7.86 0 011.428-.14c1.512 0 2.847.439 4.004 1.316 1.157.877 1.745 2.203 1.764 3.976zm2.324-7.476v-3.612h4.424v3.612h-4.424zM40.703 57V42.832h4.144V57h-4.144zm7.849 0V45.38c0-1.064-.028-1.923-.084-2.576h3.976l.112 2.128c1.008-1.643 2.538-2.464 4.592-2.464 1.232 0 2.193.28 2.884.84.71.541 1.185 1.148 1.428 1.82.261.728.392 2.137.392 4.228V57h-4.228v-8.792c0-.728-.075-1.241-.224-1.54-.392-.803-1.064-1.204-2.016-1.204s-1.67.364-2.156 1.092c-.336.485-.504 1.204-.504 2.156V57h-4.172zm26.581-14.084h3.892a35.556 35.556 0 00-.196 3.5V56.86c0 3.808-2.352 5.712-7.056 5.712-3.957 0-6.03-1.512-6.216-4.536h3.976c.168 1.307.99 1.96 2.464 1.96.653 0 1.213-.159 1.68-.476.467-.317.765-.775.896-1.372.112-.448.177-1.568.196-3.36-.97 1.288-2.24 1.932-3.808 1.932-1.904 0-3.379-.69-4.424-2.072-1.027-1.381-1.54-3.005-1.54-4.872 0-1.923.523-3.565 1.568-4.928 1.064-1.381 2.557-2.072 4.48-2.072 1.717 0 3.033.672 3.948 2.016l.14-1.876zm-5.992 6.86c0 .355.019.69.056 1.008.037.299.13.728.28 1.288.15.541.43.98.84 1.316.43.336.961.504 1.596.504.672 0 1.223-.168 1.652-.504a2.4 2.4 0 00.896-1.316c.168-.56.27-.99.308-1.288.037-.299.056-.607.056-.924 0-2.875-.943-4.312-2.828-4.312-.84 0-1.53.345-2.072 1.036-.523.69-.784 1.755-.784 3.192zm32.918-1.904h-4.06c-.186-1.736-.793-2.604-1.82-2.604-1.456 0-2.184 1.503-2.184 4.508 0 2.147.346 3.593 1.036 4.34.299.317.672.476 1.12.476.15 0 .299-.028.448-.084.168-.056.364-.159.588-.308.224-.168.41-.448.56-.84.168-.41.27-.905.308-1.484h4.088c-.093 1.83-.7 3.22-1.82 4.172-1.026.877-2.37 1.316-4.032 1.316-2.11 0-3.715-.625-4.816-1.876-1.194-1.381-1.792-3.239-1.792-5.572 0-1.213.168-2.287.504-3.22.355-.933.775-1.652 1.26-2.156a6.035 6.035 0 011.708-1.204c.653-.317 1.223-.523 1.708-.616a7.86 7.86 0 011.428-.14c1.512 0 2.847.439 4.004 1.316 1.157.877 1.745 2.203 1.764 3.976zM104.635 57V36.784h4.116v8.008c1.008-1.419 2.371-2.128 4.088-2.128 1.755 0 3.127.635 4.116 1.904.616.859.924 2.137.924 3.836V57h-4.116v-8.456c0-2.053-.775-3.08-2.324-3.08-.709 0-1.335.233-1.876.7-.523.448-.784 1.176-.784 2.184l.028 8.652h-4.172zm29.241 0h-3.752a12.23 12.23 0 01-.14-1.932c-1.045 1.512-2.454 2.268-4.228 2.268-1.568 0-2.744-.373-3.528-1.12-.821-.821-1.232-1.857-1.232-3.108 0-2.016.999-3.481 2.996-4.396 1.158-.523 3.024-.784 5.6-.784 0-.859-.065-1.484-.196-1.876-.28-.784-.896-1.176-1.848-1.176-.69 0-1.213.261-1.568.784-.205.317-.308.737-.308 1.26h-4.06c.056-1.493.588-2.604 1.596-3.332 1.064-.765 2.492-1.148 4.284-1.148 2.315 0 3.995.607 5.04 1.82.654.784.98 1.941.98 3.472l.028 5.684c0 1.344.112 2.539.336 3.584zm-4.284-6.664c-1.362-.112-2.464.037-3.304.448-.84.41-1.26 1.027-1.26 1.848 0 .523.178.99.532 1.4.355.41.85.616 1.484.616.71 0 1.298-.27 1.764-.812.336-.41.551-.868.644-1.372.094-.523.14-1.232.14-2.128zM137.199 57V36.756h4.144V57h-4.144zm7.793 0V36.756h4.144V57h-4.144zm20.617-6.02h-9.492c0 2.52.961 3.78 2.884 3.78 1.325 0 2.147-.653 2.464-1.96h3.78c-.093 1.213-.541 2.24-1.344 3.08-1.045 1.101-2.697 1.652-4.956 1.652-2.184 0-3.845-.588-4.984-1.764-1.213-1.27-1.82-3.108-1.82-5.516 0-3.099.98-5.33 2.94-6.692 1.176-.784 2.501-1.176 3.976-1.176 1.157 0 2.249.27 3.276.812 1.027.523 1.839 1.39 2.436 2.604.653 1.344.933 3.07.84 5.18zm-9.352-2.604h5.124c0-.28-.019-.541-.056-.784-.037-.261-.131-.597-.28-1.008a1.79 1.79 0 00-.756-.98c-.355-.261-.812-.392-1.372-.392-.859 0-1.512.299-1.96.896-.429.597-.663 1.353-.7 2.268zM168.399 57V45.38c0-1.064-.028-1.923-.084-2.576h3.976l.112 2.128c1.008-1.643 2.539-2.464 4.592-2.464 1.232 0 2.194.28 2.884.84.71.541 1.186 1.148 1.428 1.82.262.728.392 2.137.392 4.228V57h-4.228v-8.792c0-.728-.074-1.241-.224-1.54-.392-.803-1.064-1.204-2.016-1.204s-1.67.364-2.156 1.092c-.336.485-.504 1.204-.504 2.156V57h-4.172zm26.582-14.084h3.892a35.463 35.463 0 00-.196 3.5V56.86c0 3.808-2.352 5.712-7.056 5.712-3.958 0-6.03-1.512-6.216-4.536h3.976c.168 1.307.989 1.96 2.464 1.96.653 0 1.213-.159 1.68-.476.466-.317.765-.775.896-1.372.112-.448.177-1.568.196-3.36-.971 1.288-2.24 1.932-3.808 1.932-1.904 0-3.379-.69-4.424-2.072-1.027-1.381-1.54-3.005-1.54-4.872 0-1.923.522-3.565 1.568-4.928 1.064-1.381 2.557-2.072 4.48-2.072 1.717 0 3.033.672 3.948 2.016l.14-1.876zm-5.992 6.86c0 .355.018.69.056 1.008.037.299.13.728.28 1.288.149.541.429.98.84 1.316.429.336.961.504 1.596.504.672 0 1.222-.168 1.652-.504.448-.336.746-.775.896-1.316.168-.56.27-.99.308-1.288.037-.299.056-.607.056-.924 0-2.875-.943-4.312-2.828-4.312-.84 0-1.531.345-2.072 1.036-.523.69-.784 1.755-.784 3.192zm26.413 1.204h-9.492c0 2.52.961 3.78 2.884 3.78 1.325 0 2.146-.653 2.464-1.96h3.78c-.094 1.213-.542 2.24-1.344 3.08-1.046 1.101-2.698 1.652-4.956 1.652-2.184 0-3.846-.588-4.984-1.764-1.214-1.27-1.82-3.108-1.82-5.516 0-3.099.98-5.33 2.94-6.692 1.176-.784 2.501-1.176 3.976-1.176 1.157 0 2.249.27 3.276.812 1.026.523 1.838 1.39 2.436 2.604.653 1.344.933 3.07.84 5.18zm-9.352-2.604h5.124c0-.28-.019-.541-.056-.784a5.376 5.376 0 00-.28-1.008 1.79 1.79 0 00-.756-.98c-.355-.261-.812-.392-1.372-.392-.859 0-1.512.299-1.96.896-.43.597-.663 1.353-.7 2.268zm11.078 4.536h3.892c.038.523.243.98.616 1.372.374.373.952.56 1.736.56.691 0 1.223-.159 1.596-.476.392-.336.588-.737.588-1.204 0-.355-.14-.653-.42-.896-.261-.261-.774-.495-1.54-.7l-2.576-.7c-.448-.13-.812-.252-1.092-.364a10.85 10.85 0 01-1.092-.616 2.768 2.768 0 01-1.036-1.176c-.242-.504-.364-1.092-.364-1.764 0-1.363.57-2.436 1.708-3.22 1.139-.803 2.632-1.204 4.48-1.204 1.531 0 2.791.355 3.78 1.064 1.008.71 1.54 1.745 1.596 3.108h-3.78c-.074-1.12-.746-1.68-2.016-1.68-.578 0-1.054.13-1.428.392a1.157 1.157 0 00-.532 1.008c0 .43.14.737.42.924.28.168.784.355 1.512.56l2.548.7c2.52.69 3.78 2.007 3.78 3.948 0 1.325-.569 2.473-1.708 3.444-1.12.952-2.716 1.428-4.788 1.428-2.128 0-3.742-.579-4.844-1.736-.634-.672-.98-1.596-1.036-2.772z" fill="#fff"/></svg>