<svg width="43" height="43" viewBox="0 0 43 43" fill="none" xmlns="http://www.w3.org/2000/svg"><path d="M14.14 6.158c-.001.086.006.56.015 1.058.011.493.025 1.027.024 1.185.003.619.006.846.033 1.897.011.597.029 1.216.028 1.374-.001.157.002.404.002.547.006.451.045 2.766.049 2.94.018.496.024.842.029 1.399.006.703.012.692-.537 1.006-.15.083-.346.197-.436.255l-.391.243c-.125.071-.49.288-.808.478-.318.195-.691.414-.828.494-.137.08-.323.19-.414.248-.09.058-.267.167-.39.243-.23.133-1.198.712-1.594.951-.214.134-.446.272-.868.524-.137.08-.302.18-.373.223-.065.042-.318.19-.558.335-.24.141-.525.317-.64.387-.283.165-.576.344-.87.518a7.82 7.82 0 00-.35.213c-.059.035-.224.136-.374.22-.15.087-.296.17-.325.186-.091.053-.01.122.207.179l1.103.266c.154.035.308.075.336.086.031.011.277.07.558.132.277.064.585.139.692.162.536.138 1.38.346 2.36.583.117.026.324.08.461.11.135.035.392.1.576.141.184.041.415.098.513.125.099.026.298.072.437.106.143.034.478.115.745.182.268.067.638.158.822.2.184.04.442.11.58.144.136.04.264.067.286.061.018-.005.083.021.14.058.1.064.104.082.112.504.007.24.011.545.009.679-.004.13.013.982.033 1.896.018.91.034 1.778.034 1.92 0 .144.015.878.03 1.636.029 1.36.039 1.81.032 2.088-.004.077.005.218.01.307.005.09.008.227.006.308-.004.077.013 1.016.036 2.087.037 1.895.041 2.161.046 2.75l.01.665c.003.209.004.428 0 .486.002.061.019.104.041.098.022-.006.536-.9 1.143-1.987 1.643-2.952 1.932-3.467 2.413-4.325.244-.432.594-1.064.782-1.4.183-.34.725-1.31 1.199-2.156.474-.846 1.093-1.96 1.376-2.479.28-.513.54-.94.572-.949.03-.008.334-.042.334-.042l.321.034s.087-.033.77.131c.587.148 1.757.43 2.014.495.154.035.375.09.488.117.114.031.315.082.453.112.133.03.35.087.487.117.133.031.334.082.448.113.113.027.334.082.488.118.154.04.493.12.745.181.746.186 1.26.31 1.773.435.153.035.385.092.512.12.221.055.591.147 1.069.262.256.06.477.115 1.397.34 1.137.282 1.197.294 1.49.368.154.035.386.092.513.12.221.055.592.146 1.069.261.61.146.719.174.91.223.113.027.334.082.487.117.258.065 1.428.347 2.02.493 1.187.292 1.478.357 1.495.333.006-.015-.289-.308-.65-.654-.368-.35-.69-.659-.714-.69a59.5 59.5 0 01-.815-.782c-.452-.437-3.487-3.34-3.615-3.458-.036-.029-.256-.241-.489-.465a1522.391 1522.391 0 01-4.23-4.05l-.529-.501a2.348 2.348 0 01-.16-.153 94.67 94.67 0 00-1.488-1.43c-.793-.755-1.45-1.413-1.452-1.46-.01-.092.62-1.252 2.416-4.454.255-.45.605-1.077.782-1.4.178-.324.69-1.243 1.133-2.043 1.66-2.98 2.344-4.21 2.756-4.945.229-.418.393-.758.358-.763-.053 0-.467.23-.864.484-.09.058-.276.174-.413.254-.137.08-.294.174-.35.213-.059.034-.224.136-.374.219-.15.088-.353.204-.456.27-.182.11-.818.495-1.282.772l-.35.213c-.066.041-.228.137-.353.209-.123.076-.318.19-.433.264-.397.24-1.365.818-1.594.95l-.39.243c-.091.058-.277.17-.414.25-.137.079-.51.298-.828.493-.319.19-.683.407-.808.478l-.391.243c-.09.058-.286.172-.435.26-.15.083-.319.19-.38.23-.057.039-.168.107-.247.152-.142.08-.913.535-1.235.731-.168.107-.368.222-.87.519-.625.372-.91.53-.932.516-.04-.027-3.368-3.2-3.548-3.385-.048-.054-.854-.824-1.789-1.712a146.23 146.23 0 01-1.796-1.724c-.123-.134-.166-.118-.178.071z" fill="#fff" opacity=".2"/></svg>