<svg width="45" height="44" viewBox="0 0 45 44" fill="none" xmlns="http://www.w3.org/2000/svg"><path d="M37.634 27.919a86.971 86.971 0 00-.707-.7c-.332-.322-.693-.671-.796-.777-.41-.413-.562-.563-1.271-1.25-.401-.392-.82-.796-.924-.902-.103-.106-.268-.269-.362-.365-.3-.298-1.851-1.823-1.97-1.938a45.24 45.24 0 01-.939-.917c-.467-.467-.464-.456-.308-1.012.045-.15.099-.35.12-.446l.1-.409c.035-.127.133-.501.219-.83.082-.33.184-.712.223-.852.038-.14.087-.332.109-.427.022-.096.067-.28.099-.41.063-.232.323-1.23.427-1.64.054-.225.116-.464.23-.898.038-.14.08-.312.099-.385.016-.069.085-.328.148-.576.067-.246.139-.543.17-.662.077-.29.153-.594.233-.896.039-.14.08-.302.092-.364.016-.06.058-.231.103-.382.04-.153.083-.3.091-.33.026-.093-.073-.088-.254.011l-.905.518a3.735 3.735 0 01-.279.153c-.028.013-.229.13-.456.264-.225.132-.478.276-.565.328-.445.245-1.14.638-1.945 1.097-.094.057-.267.15-.377.218-.113.06-.325.18-.474.268-.149.088-.34.196-.422.24-.082.045-.245.14-.359.204-.117.068-.392.224-.612.348-.221.124-.526.296-.675.385-.149.088-.365.205-.48.27-.116.058-.218.12-.23.138-.008.015-.067.038-.13.05-.107.02-.122.01-.405-.267a18.174 18.174 0 01-.453-.45c-.083-.088-.657-.648-1.272-1.248a238.594 238.594 0 01-1.287-1.264c-.095-.096-.588-.579-1.098-1.076-.914-.892-1.217-1.187-1.396-1.378-.048-.054-.147-.142-.209-.199a4.504 4.504 0 01-.206-.203c-.05-.053-.678-.672-1.399-1.374a186.33 186.33 0 01-1.842-1.813c-.105-.102-.305-.3-.444-.438a10.91 10.91 0 01-.32-.325c-.043-.04-.082-.059-.093-.04-.01.018.24.941.554 2.051.856 3.012 1.005 3.54 1.252 4.416.123.444.308 1.087.405 1.431.103.343.383 1.333.627 2.199.244.865.568 2.001.723 2.527.153.52.262.97.247.996-.016.025-.194.238-.194.238l-.234.18s-.036.078-.596.398c-.486.27-1.446.82-1.659.939-.124.073-.307.176-.4.229-.095.05-.262.143-.373.21-.108.063-.288.162-.4.229-.108.063-.274.156-.37.207-.093.053-.275.155-.4.229-.128.07-.405.23-.612.348-.616.345-1.038.586-1.46.826-.124.073-.315.18-.418.243-.182.102-.487.274-.879.498-.209.122-.391.224-1.148.653-.938.528-.986.558-1.229.694-.124.073-.315.18-.418.243-.182.102-.487.274-.879.498-.5.287-.59.337-.749.424-.092.053-.275.156-.4.23-.212.118-1.172.667-1.66.942-.977.553-1.213.693-1.209.72.007.014.395.025.862.028.473.003.89.006.927.013a54.768 54.768 0 011.054.01c.587.006 4.506.037 4.669.036.043-.004.328 0 .63.002a1424.352 1424.352 0 015.466.045c.297 0 .604.002.68.003.077-.003.168-.003.206 0 .036.007.905.015 1.927.02 1.022.006 1.89.032 1.922.062.068.055.415 1.229 1.335 4.505.128.461.31 1.102.405 1.43.096.33.362 1.267.596 2.082.865 3.041 1.224 4.296 1.435 5.048.124.425.24.755.266.736.035-.033.157-.448.252-.868.022-.096.068-.29.106-.43.039-.14.08-.302.092-.364.016-.06.058-.231.103-.382.04-.153.099-.36.123-.468.048-.188.215-.847.34-1.325.031-.129.073-.29.091-.364.017-.069.06-.235.096-.361.032-.13.085-.329.113-.45.104-.41.364-1.409.428-1.642l.098-.409c.022-.095.072-.287.11-.427.038-.14.14-.522.223-.852.085-.329.184-.704.219-.83.032-.129.077-.314.099-.41.021-.095.075-.294.116-.447.045-.15.086-.328.1-.394.012-.062.04-.177.063-.258.04-.143.252-.933.336-1.267.04-.178.096-.381.233-.896.168-.643.253-.928.276-.933.045-.008 4.336.018 4.577.03.067.005 1.108.012 2.311.018 1.204.006 2.248.015 2.325.022.169.012.187-.026.07-.16z" fill="#fff" opacity=".4"/></svg>