<svg width="32" height="32" viewBox="0 0 32 32" fill="none" xmlns="http://www.w3.org/2000/svg"><path d="M24.645 8.562l-.689.196c-.32.094-.666.196-.77.223-.403.11-.552.153-1.233.354-.388.112-.79.232-.893.26-.103.026-.264.072-.357.097-.294.083-1.8.514-1.913.547-.32.099-.546.163-.908.264-.459.128-.45.13-.752-.174a6.908 6.908 0 00-.243-.24 24.56 24.56 0 01-.227-.213c-.069-.069-.275-.27-.455-.444a32.096 32.096 0 01-.467-.454 9.973 9.973 0 00-.236-.227 25.015 25.015 0 01-.227-.213 136.145 136.145 0 00-1.395-1.35c-.076-.075-.171-.165-.211-.203-.039-.036-.18-.175-.317-.306-.135-.133-.3-.288-.365-.351-.158-.155-.326-.315-.492-.477a5.262 5.262 0 00-.2-.192c-.033-.032-.128-.122-.21-.206-.083-.082-.162-.163-.178-.179-.05-.05-.082.015-.08.166.004.175.012.507.02.768a10.552 10.552 0 00.014.622c.006.192.011.406.015.48.004.375.016.962.033 1.644.004.082.005.226.01.321 0 .094.003.274.008.4.005.128.009.29.009.358 0 .069.005.208.007.304l.012.519c.003.186.008.444.014.571.005.128.005.309.007.405a.828.828 0 00.01.198c.006.01 0 .057-.013.102-.025.075-.035.082-.31.16-.156.047-.354.104-.442.125-.085.02-.64.181-1.233.354-.592.172-1.155.335-1.249.36-.093.025-.57.163-1.063.306-.884.257-1.176.343-1.359.387-.05.011-.141.042-.199.06a130.306 130.306 0 01-3.347.96c-.1.03-.296.084-.432.123a7.67 7.67 0 01-.317.085c-.04.012-.065.03-.057.044.008.014.683.193 1.5.398 2.216.556 2.603.655 3.248.819.325.083.8.2 1.052.265.254.06.983.244 1.619.405.636.161 1.472.37 1.861.464.385.093.71.189.72.207.011.02.086.212.086.212l.035.215s.037.051.049.526c.007.41.027 1.224.03 1.403.005.106.007.26.01.339 0 .08.001.22.006.315.003.093.004.244.009.34.003.092.005.232.004.312.002.079.005.233.01.34 0 .107.007.342.011.518.01.52.018.877.027 1.234.004.107.007.268.011.356l.017.744c.006.178.009.332.023.972.015.792.018.834.021 1.039l.012.356.016.744c.012.424.013.5.014.633.002.078.005.233.01.339.002.18.023.993.031 1.405.018.827.027 1.029.045 1.036.011 0 .151-.243.314-.54.164-.301.309-.566.326-.587a39.343 39.343 0 01.368-.67c.205-.371 1.57-2.863 1.625-2.967.012-.029.112-.21.217-.401a1030.71 1030.71 0 011.904-3.474 102.362 102.362 0 01.307-.565c.017-.02.32-.572.674-1.223.354-.65.668-1.194.698-1.204.059-.023.927.185 3.335.798.338.087.81.206 1.052.265.242.059.933.233 1.533.382 2.238.562 3.162.793 3.715.933.313.076.564.124.56.1-.008-.034-.231-.264-.467-.48a9.322 9.322 0 01-.238-.224 5.348 5.348 0 00-.2-.192c-.034-.032-.129-.122-.21-.206-.083-.082-.195-.195-.256-.25l-.73-.702-.2-.192a8.81 8.81 0 01-.198-.194c-.071-.067-.18-.174-.248-.236-.227-.218-.775-.749-.901-.875a25.224 25.224 0 00-.228-.213 9.933 9.933 0 01-.235-.226 31.693 31.693 0 00-.468-.455c-.18-.175-.385-.375-.454-.444a24.06 24.06 0 00-.227-.212c-.054-.05-.162-.157-.246-.239a4.57 4.57 0 00-.217-.208c-.036-.03-.1-.09-.143-.135-.078-.078-.51-.502-.694-.678-.1-.091-.21-.202-.492-.477-.353-.343-.505-.502-.5-.519.01-.031 1.499-2.761 1.588-2.911.027-.04.389-.703.805-1.469.417-.766.781-1.43.812-1.476.066-.104.047-.13-.078-.104z" fill="#fff" opacity=".2"/></svg>