<svg width="43" height="44" viewBox="0 0 43 44" fill="none" xmlns="http://www.w3.org/2000/svg"><path d="M23.413 5.175c-.047.071-.297.475-.559.898-.256.421-.533.878-.619 1.01-.332.523-.452.716-.997 1.615-.313.508-.633 1.04-.719 1.171-.086.132-.216.342-.293.462-.24.383-1.456 2.352-1.548 2.501a46.94 46.94 0 01-.73 1.192c-.375.596-.364.59-.996.557a10.11 10.11 0 00-.505-.02l-.46-.007a88.002 88.002 0 00-.938-.034 46.64 46.64 0 01-.964-.032 14.757 14.757 0 00-.482-.014c-.107 0-.315-.003-.46-.006-.264-.012-1.392-.048-1.856-.06a48.835 48.835 0 01-1.013-.029c-.158-.007-.352-.01-.434-.013-.077 0-.37-.012-.65-.019-.28-.011-.614-.016-.749-.02-.327-.013-.67-.021-1.011-.034a7.822 7.822 0 00-.41-.01c-.068-.002-.262-.006-.434-.017-.173-.007-.34-.017-.374-.018-.105-.005-.074.097.078.261.178.188.518.543.785.82.11.113.219.23.235.255.021.026.197.207.4.412.197.203.416.432.494.51.377.405.974 1.035 1.671 1.765.085.085.23.242.33.341.093.103.275.296.408.43.132.134.296.307.364.382.069.075.212.222.31.326.103.105.34.354.53.555.188.2.45.477.583.61.133.135.313.332.411.436.093.107.185.2.207.206.018.006.058.062.087.125.049.107.043.125-.179.484a18.76 18.76 0 01-.359.576c-.073.107-.519.834-.997 1.614-.476.776-.93 1.515-1.008 1.635-.077.12-.462.746-.858 1.393-.71 1.16-.945 1.543-1.101 1.774-.045.063-.113.186-.157.264a4.668 4.668 0 01-.162.262c-.044.063-.538.862-1.097 1.775A192.969 192.969 0 015.74 33.8l-.35.565c-.11.177-.228.362-.263.41-.031.052-.04.097-.019.104.023.007.939-.469 2.036-1.056 2.977-1.596 3.5-1.874 4.367-2.336.44-.232 1.075-.575 1.415-.757.337-.187 1.317-.71 2.173-1.166.856-.457 1.979-1.06 2.497-1.344.513-.28.963-.5.994-.49.03.01.304.146.304.146l.252.2s.091.02.577.528c.414.44 1.247 1.31 1.429 1.503.11.113.266.278.347.362.079.088.22.24.32.339.095.098.247.262.347.362.095.098.237.249.316.337.08.084.237.25.347.362.109.117.35.367.529.555.527.56.892.941 1.257 1.323.11.113.274.286.366.378l.759.797c.183.189.34.355.992 1.041.804.85.849.894 1.056 1.114.11.113.274.286.366.378.157.166.419.443.759.797.434.453.51.535.645.68.08.083.236.249.347.361.181.193 1.014 1.063 1.433 1.505.841.887 1.051 1.099 1.079 1.088.013-.01-.077-.416-.194-.902-.12-.493-.225-.927-.227-.966a3.24 3.24 0 00-.063-.262 1670.097 1670.097 0 00-1.376-5.699c-.015-.043-.086-.34-.16-.654a1542.363 1542.363 0 01-1.373-5.693L28.85 27a2.326 2.326 0 01-.053-.215c-.002-.039-.22-.944-.48-2.007-.259-1.064-.456-1.972-.433-2.013.041-.083 1.198-.719 4.44-2.443.456-.241 1.09-.58 1.414-.757.325-.177 1.252-.673 2.057-1.107 3.007-1.611 4.247-2.278 4.99-2.674.42-.229.74-.426.714-.449-.045-.028-.517-.058-.99-.059-.106 0-.325-.002-.483-.01a7.822 7.822 0 00-.41-.01c-.068-.002-.261-.005-.433-.017-.173-.007-.408-.019-.53-.019-.212-.005-.956-.024-1.495-.042l-.41-.01c-.078 0-.266-.007-.41-.015-.145-.002-.37-.012-.507-.012-.463-.012-1.591-.048-1.855-.06a36.215 36.215 0 00-.46-.006c-.107 0-.324-.007-.483-.014a45.751 45.751 0 00-.963-.032 85.227 85.227 0 01-.939-.034 36.228 36.228 0 00-.46-.006c-.107 0-.333-.01-.506-.017a6.725 6.725 0 00-.444-.01c-.07.001-.2-.002-.29-.006a95.558 95.558 0 00-1.435-.052c-.199 0-.43-.011-1.011-.033-.728-.024-1.052-.045-1.064-.069-.02-.045-1.107-4.511-1.158-4.764-.011-.071-.274-1.155-.58-2.407-.307-1.252-.568-2.34-.581-2.422-.03-.178-.076-.188-.189-.035z" fill="#fff" opacity=".1"/></svg>