<svg width="253" height="108" viewBox="0 0 253 108" fill="none" xmlns="http://www.w3.org/2000/svg"><path d="M101.766 7.72h3.84l2.688 12.984 3.384-12.984h4.2l3.048 12.984 2.808-12.984h3.552l-4.416 17.328h-4.128L113.598 11.8l-3.384 13.248h-4.224L101.766 7.72zm34.833 12.12h-8.136c0 2.16.824 3.24 2.472 3.24 1.136 0 1.84-.56 2.112-1.68h3.24c-.08 1.04-.464 1.92-1.152 2.64-.896.944-2.312 1.416-4.248 1.416-1.872 0-3.296-.504-4.272-1.512-1.04-1.088-1.56-2.664-1.56-4.728 0-2.656.84-4.568 2.52-5.736 1.008-.672 2.144-1.008 3.408-1.008.992 0 1.928.232 2.808.696.88.448 1.576 1.192 2.088 2.232.56 1.152.8 2.632.72 4.44zm-8.016-2.232h4.392c0-.24-.016-.464-.048-.672a4.542 4.542 0 00-.24-.864 1.532 1.532 0 00-.648-.84c-.304-.224-.696-.336-1.176-.336-.736 0-1.296.256-1.68.768-.368.512-.568 1.16-.6 1.944zm26.928-.432h-3.48c-.16-1.488-.68-2.232-1.56-2.232-1.248 0-1.872 1.288-1.872 3.864 0 1.84.296 3.08.888 3.72.256.272.576.408.96.408.128 0 .256-.024.384-.072.144-.048.312-.136.504-.264.192-.144.352-.384.48-.72.144-.352.232-.776.264-1.272h3.504c-.08 1.568-.6 2.76-1.56 3.576-.88.752-2.032 1.128-3.456 1.128-1.808 0-3.184-.536-4.128-1.608-1.024-1.184-1.536-2.776-1.536-4.776 0-1.04.144-1.96.432-2.76.304-.8.664-1.416 1.08-1.848.432-.432.92-.776 1.464-1.032.56-.272 1.048-.448 1.464-.528.432-.08.84-.12 1.224-.12 1.296 0 2.44.376 3.432 1.128.992.752 1.496 1.888 1.512 3.408zm12.6 7.824h-3.216c-.08-.496-.12-1.048-.12-1.656-.896 1.296-2.104 1.944-3.624 1.944-1.344 0-2.352-.32-3.024-.96-.704-.704-1.056-1.592-1.056-2.664 0-1.728.856-2.984 2.568-3.768.992-.448 2.592-.672 4.8-.672 0-.736-.056-1.272-.168-1.608-.24-.672-.768-1.008-1.584-1.008-.592 0-1.04.224-1.344.672-.176.272-.264.632-.264 1.08h-3.48c.048-1.28.504-2.232 1.368-2.856.912-.656 2.136-.984 3.672-.984 1.984 0 3.424.52 4.32 1.56.56.672.84 1.664.84 2.976l.024 4.872c0 1.152.096 2.176.288 3.072zm-3.672-5.712c-1.168-.096-2.112.032-2.832.384-.72.352-1.08.88-1.08 1.584 0 .448.152.848.456 1.2.304.352.728.528 1.272.528.608 0 1.112-.232 1.512-.696.288-.352.472-.744.552-1.176.08-.448.12-1.056.12-1.824zM171.006 25v-9.96c0-.912-.024-1.648-.072-2.208h3.408l.096 1.824c.864-1.408 2.176-2.112 3.936-2.112 1.056 0 1.88.24 2.472.72.608.464 1.016.984 1.224 1.56.224.624.336 1.832.336 3.624V25h-3.624v-7.536c0-.624-.064-1.064-.192-1.32-.336-.688-.912-1.032-1.728-1.032s-1.432.312-1.848.936c-.288.416-.432 1.032-.432 1.848V25h-3.576zm21.304 0v-9.144c0-.928-.056-1.936-.168-3.024h3.336l.072 2.328a5.78 5.78 0 01.432-.84c.16-.224.392-.472.696-.744.304-.288.712-.496 1.224-.624s1.104-.176 1.776-.144V16c-.848-.08-1.552-.048-2.112.096-.544.144-.936.392-1.176.744a2.995 2.995 0 00-.432 1.008 5.887 5.887 0 00-.096 1.176V25h-3.552zm19.898-5.16h-8.136c0 2.16.824 3.24 2.472 3.24 1.136 0 1.84-.56 2.112-1.68h3.24c-.08 1.04-.464 1.92-1.152 2.64-.896.944-2.312 1.416-4.248 1.416-1.872 0-3.296-.504-4.272-1.512-1.04-1.088-1.56-2.664-1.56-4.728 0-2.656.84-4.568 2.52-5.736 1.008-.672 2.144-1.008 3.408-1.008.992 0 1.928.232 2.808.696.88.448 1.576 1.192 2.088 2.232.56 1.152.8 2.632.72 4.44zm-8.016-2.232h4.392c0-.24-.016-.464-.048-.672a4.542 4.542 0 00-.24-.864 1.532 1.532 0 00-.648-.84c-.304-.224-.696-.336-1.176-.336-.736 0-1.296.256-1.68.768-.368.512-.568 1.16-.6 1.944zM225.04 25h-3.216c-.08-.496-.12-1.048-.12-1.656-.896 1.296-2.104 1.944-3.624 1.944-1.344 0-2.352-.32-3.024-.96-.704-.704-1.056-1.592-1.056-2.664 0-1.728.856-2.984 2.568-3.768.992-.448 2.592-.672 4.8-.672 0-.736-.056-1.272-.168-1.608-.24-.672-.768-1.008-1.584-1.008-.592 0-1.04.224-1.344.672-.176.272-.264.632-.264 1.08h-3.48c.048-1.28.504-2.232 1.368-2.856.912-.656 2.136-.984 3.672-.984 1.984 0 3.424.52 4.32 1.56.56.672.84 1.664.84 2.976l.024 4.872c0 1.152.096 2.176.288 3.072zm-3.672-5.712c-1.168-.096-2.112.032-2.832.384-.72.352-1.08.88-1.08 1.584 0 .448.152.848.456 1.2.304.352.728.528 1.272.528.608 0 1.112-.232 1.512-.696.288-.352.472-.744.552-1.176.08-.448.12-1.056.12-1.824zm16.408-2.112h-3.48c-.16-1.488-.68-2.232-1.56-2.232-1.248 0-1.872 1.288-1.872 3.864 0 1.84.296 3.08.888 3.72.256.272.576.408.96.408.128 0 .256-.024.384-.072.144-.048.312-.136.504-.264.192-.144.352-.384.48-.72.144-.352.232-.776.264-1.272h3.504c-.08 1.568-.6 2.76-1.56 3.576-.88.752-2.032 1.128-3.456 1.128-1.808 0-3.184-.536-4.128-1.608-1.024-1.184-1.536-2.776-1.536-4.776 0-1.04.144-1.96.432-2.76.304-.8.664-1.416 1.08-1.848.432-.432.92-.776 1.464-1.032.56-.272 1.048-.448 1.464-.528.432-.08.84-.12 1.224-.12 1.296 0 2.44.376 3.432 1.128.992.752 1.496 1.888 1.512 3.408zM239.984 25V7.672h3.528v6.864c.864-1.216 2.032-1.824 3.504-1.824 1.504 0 2.68.544 3.528 1.632.528.736.792 1.832.792 3.288V25h-3.528v-7.248c0-1.76-.664-2.64-1.992-2.64-.608 0-1.144.2-1.608.6-.448.384-.672 1.008-.672 1.872L243.56 25h-3.576zm-199.6 7.72h4.344l3.576 7.896 3.648-7.896h3.816l-5.856 10.968V50H46.24v-6.36l-5.856-10.92zm25.504 12.12h-8.136c0 2.16.824 3.24 2.472 3.24 1.136 0 1.84-.56 2.112-1.68h3.24c-.08 1.04-.464 1.92-1.152 2.64-.896.944-2.312 1.416-4.248 1.416-1.872 0-3.296-.504-4.272-1.512-1.04-1.088-1.56-2.664-1.56-4.728 0-2.656.84-4.568 2.52-5.736 1.008-.672 2.144-1.008 3.408-1.008.992 0 1.928.232 2.808.696.88.448 1.576 1.192 2.088 2.232.56 1.152.8 2.632.72 4.44zm-8.016-2.232h4.392c0-.24-.016-.464-.048-.672a4.542 4.542 0 00-.24-.864 1.532 1.532 0 00-.648-.84c-.304-.224-.696-.336-1.176-.336-.736 0-1.296.256-1.68.768-.368.512-.568 1.16-.6 1.944zM68.304 50v-9.84c0-.672-.04-1.432-.12-2.28h3.432l.12 1.56c.88-1.216 2.128-1.824 3.744-1.824 1.904 0 3.176.76 3.816 2.28.784-1.504 2.08-2.256 3.888-2.256 1.744 0 2.976.648 3.696 1.944.4.656.6 1.776.6 3.36V50h-3.576v-7.128c0-.528-.04-.968-.12-1.32-.064-.352-.256-.672-.576-.96-.32-.304-.768-.456-1.344-.456-.416 0-.768.08-1.056.24a2.07 2.07 0 00-.648.576c-.144.208-.256.504-.336.888a9.54 9.54 0 00-.12.984c-.016.272-.024.64-.024 1.104V50h-3.576v-7.2c0-.336-.016-.616-.048-.84a4.465 4.465 0 00-.216-.816 1.254 1.254 0 00-.6-.744c-.288-.176-.664-.264-1.128-.264-.528 0-.96.096-1.296.288-.32.192-.544.464-.672.816a5.004 5.004 0 00-.216.84 5.37 5.37 0 00-.048.792V50h-3.576zm33.584-5.16h-8.136c0 2.16.824 3.24 2.472 3.24 1.136 0 1.84-.56 2.112-1.68h3.24c-.08 1.04-.464 1.92-1.152 2.64-.896.944-2.312 1.416-4.248 1.416-1.872 0-3.296-.504-4.272-1.512-1.04-1.088-1.56-2.664-1.56-4.728 0-2.656.84-4.568 2.52-5.736 1.008-.672 2.144-1.008 3.408-1.008.992 0 1.928.232 2.808.696.88.448 1.576 1.192 2.088 2.232.56 1.152.8 2.632.72 4.44zm-8.016-2.232h4.392c0-.24-.016-.464-.048-.672a4.542 4.542 0 00-.24-.864 1.532 1.532 0 00-.648-.84c-.304-.224-.696-.336-1.176-.336-.736 0-1.296.256-1.68.768-.368.512-.568 1.16-.6 1.944zM104.28 50v-9.96c0-.912-.024-1.648-.072-2.208h3.408l.096 1.824c.864-1.408 2.176-2.112 3.936-2.112 1.056 0 1.88.24 2.472.72.608.464 1.016.984 1.224 1.56.224.624.336 1.832.336 3.624V50h-3.624v-7.536c0-.624-.064-1.064-.192-1.32-.336-.688-.912-1.032-1.728-1.032s-1.432.312-1.848.936c-.288.416-.432 1.032-.432 1.848V50h-3.576zm14.504-14.232v-3.096h3.792v3.096h-3.792zm.12 14.232V37.856h3.552V50h-3.552zm23.247-7.824h-3.48c-.16-1.488-.68-2.232-1.56-2.232-1.248 0-1.872 1.288-1.872 3.864 0 1.84.296 3.08.888 3.72.256.272.576.408.96.408.128 0 .256-.024.384-.072.144-.048.312-.136.504-.264.192-.144.352-.384.48-.72.144-.352.232-.776.264-1.272h3.504c-.08 1.568-.6 2.76-1.56 3.576-.88.752-2.032 1.128-3.456 1.128-1.808 0-3.184-.536-4.128-1.608-1.024-1.184-1.536-2.776-1.536-4.776 0-1.04.144-1.96.432-2.76.304-.8.664-1.416 1.08-1.848.432-.432.92-.776 1.464-1.032.56-.272 1.048-.448 1.464-.528.432-.08.84-.12 1.224-.12 1.296 0 2.44.376 3.432 1.128.992.752 1.496 1.888 1.512 3.408zM144.359 50V32.672h3.528v6.864c.864-1.216 2.032-1.824 3.504-1.824 1.504 0 2.68.544 3.528 1.632.528.736.792 1.832.792 3.288V50h-3.528v-7.248c0-1.76-.664-2.64-1.992-2.64-.608 0-1.144.2-1.608.6-.448.384-.672 1.008-.672 1.872l.024 7.416h-3.576zm14.456-14.232v-3.096h3.792v3.096h-3.792zm.12 14.232V37.856h3.552V50h-3.552zm6.68 0V32.648h3.552V50h-3.552zm14.695-10.632v-6.696h3.576v15.36c0 .704.032 1.36.096 1.968h-3.6l-.096-1.752c-.336.608-.744 1.064-1.224 1.368-.64.416-1.424.624-2.352.624-1.616 0-2.88-.528-3.792-1.584-.912-1.072-1.368-2.552-1.368-4.44 0-1.984.488-3.56 1.464-4.728.992-1.184 2.288-1.776 3.888-1.776 1.472 0 2.608.552 3.408 1.656zm-5.16 4.752c0 1.104.2 2.016.6 2.736.4.72 1.016 1.08 1.848 1.08a2.44 2.44 0 001.344-.384c.4-.256.704-.584.912-.984.384-.736.576-1.688.576-2.856s-.24-2.072-.72-2.712c-.464-.64-1.104-.96-1.92-.96-.56 0-1.032.152-1.416.456a2.53 2.53 0 00-.816 1.152c-.16.48-.272.912-.336 1.296a9.473 9.473 0 00-.072 1.176zM186.966 50v-9.144c0-.928-.056-1.936-.168-3.024h3.336l.072 2.328a5.78 5.78 0 01.432-.84c.16-.224.392-.472.696-.744.304-.288.712-.496 1.224-.624s1.104-.176 1.776-.144V41c-.848-.08-1.552-.048-2.112.096-.544.144-.936.392-1.176.744a2.995 2.995 0 00-.432 1.008 5.887 5.887 0 00-.096 1.176V50h-3.552zm19.899-5.16h-8.136c0 2.16.824 3.24 2.472 3.24 1.136 0 1.84-.56 2.112-1.68h3.24c-.08 1.04-.464 1.92-1.152 2.64-.896.944-2.312 1.416-4.248 1.416-1.872 0-3.296-.504-4.272-1.512-1.04-1.088-1.56-2.664-1.56-4.728 0-2.656.84-4.568 2.519-5.736 1.009-.672 2.145-1.008 3.409-1.008.992 0 1.928.232 2.808.696.88.448 1.576 1.192 2.088 2.232.56 1.152.799 2.632.72 4.44zm-8.016-2.232h4.392c0-.24-.016-.464-.048-.672a4.542 4.542 0 00-.24-.864 1.532 1.532 0 00-.648-.84c-.304-.224-.696-.336-1.176-.336-.736 0-1.296.256-1.68.768-.368.512-.568 1.16-.6 1.944zM209.256 50v-9.96c0-.912-.024-1.648-.072-2.208h3.408l.096 1.824c.864-1.408 2.176-2.112 3.936-2.112 1.056 0 1.88.24 2.472.72.608.464 1.016.984 1.224 1.56.224.624.336 1.832.336 3.624V50h-3.624v-7.536c0-.624-.064-1.064-.192-1.32-.336-.688-.912-1.032-1.728-1.032s-1.432.312-1.848.936c-.288.416-.432 1.032-.432 1.848V50h-3.576zm28.432-2.496v2.328c-.944.256-1.864.384-2.76.384-.672 0-1.256-.088-1.752-.264-.48-.176-.832-.368-1.056-.576-.224-.208-.4-.488-.528-.84-.128-.368-.2-.648-.216-.84a9.307 9.307 0 01-.024-.744v-6.648h-2.328v-2.352h2.328v-2.376l3.528-1.296v3.672h2.88v2.352h-2.88v5.472c0 .352.008.608.024.768.032.16.096.336.192.528a.817.817 0 00.48.408c.224.064.528.096.912.096.368 0 .768-.024 1.2-.072zm1.648-3.456c0-.784.104-1.536.312-2.256.224-.72.56-1.4 1.008-2.04.464-.656 1.12-1.176 1.968-1.56.848-.4 1.84-.6 2.976-.6 2.08 0 3.648.608 4.704 1.824 1.056 1.2 1.584 2.712 1.584 4.536 0 1.84-.544 3.384-1.632 4.632-1.072 1.232-2.648 1.848-4.728 1.848-1.808 0-3.296-.552-4.464-1.656-1.152-1.104-1.728-2.68-1.728-4.728zm3.648.024c0 2.592.888 3.888 2.664 3.888.848 0 1.496-.312 1.944-.936.448-.624.672-1.696.672-3.216 0-2.56-.888-3.84-2.664-3.84-1.744 0-2.616 1.368-2.616 4.104zM79.929 75V57.672h3.528v6.864c.864-1.216 2.032-1.824 3.504-1.824 1.504 0 2.68.544 3.528 1.632.528.736.792 1.832.792 3.288V75h-3.528v-7.248c0-1.76-.664-2.64-1.992-2.64-.608 0-1.144.2-1.608.6-.448.384-.672 1.008-.672 1.872L83.505 75H79.93zm25.568-5.16h-8.136c0 2.16.824 3.24 2.472 3.24 1.136 0 1.84-.56 2.112-1.68h3.24c-.08 1.04-.464 1.92-1.152 2.64-.896.944-2.312 1.416-4.248 1.416-1.872 0-3.296-.504-4.272-1.512-1.04-1.088-1.56-2.664-1.56-4.728 0-2.656.84-4.568 2.52-5.736 1.008-.672 2.144-1.008 3.408-1.008.992 0 1.928.232 2.808.696.88.448 1.576 1.192 2.088 2.232.56 1.152.8 2.632.72 4.44zm-8.016-2.232h4.392c0-.24-.016-.464-.048-.672a4.542 4.542 0 00-.24-.864 1.532 1.532 0 00-.648-.84c-.304-.224-.696-.336-1.176-.336-.736 0-1.296.256-1.68.768-.368.512-.568 1.16-.6 1.944zM107.841 75V57.648h3.552V75h-3.552zm6.56-12.12h3.456l.096 1.728c.752-1.312 1.984-1.968 3.696-1.968 1.568 0 2.8.544 3.696 1.632.896 1.088 1.344 2.56 1.344 4.416 0 1.824-.464 3.36-1.392 4.608-.928 1.248-2.224 1.872-3.888 1.872-1.456 0-2.584-.52-3.384-1.56v6.048h-3.624V62.88zm6.096 9.96c.832 0 1.472-.36 1.92-1.08.448-.72.672-1.696.672-2.928 0-.432-.032-.84-.096-1.224a6.608 6.608 0 00-.336-1.248 2.177 2.177 0 00-.768-1.032c-.336-.272-.752-.408-1.248-.408-.72 0-1.368.32-1.944.96-.56.64-.84 1.696-.84 3.168 0 .336.016.648.048.936.048.288.144.688.288 1.2.144.496.408.896.792 1.2.4.304.904.456 1.512.456zm22.504-.336v2.328c-.944.256-1.864.384-2.76.384-.672 0-1.256-.088-1.752-.264-.48-.176-.832-.368-1.056-.576-.224-.208-.4-.488-.528-.84-.128-.368-.2-.648-.216-.84a9.307 9.307 0 01-.024-.744v-6.648h-2.328v-2.352h2.328v-2.376l3.528-1.296v3.672h2.88v2.352h-2.88v5.472c0 .352.008.608.024.768.032.16.096.336.192.528a.817.817 0 00.48.408c.224.064.528.096.912.096.368 0 .768-.024 1.2-.072zM145.297 75V57.672h3.528v6.864c.864-1.216 2.032-1.824 3.504-1.824 1.504 0 2.68.544 3.528 1.632.528.736.792 1.832.792 3.288V75h-3.528v-7.248c0-1.76-.664-2.64-1.992-2.64-.608 0-1.144.2-1.608.6-.448.384-.672 1.008-.672 1.872l.024 7.416h-3.576zm25.568-5.16h-8.136c0 2.16.824 3.24 2.472 3.24 1.136 0 1.84-.56 2.112-1.68h3.24c-.08 1.04-.464 1.92-1.152 2.64-.896.944-2.312 1.416-4.248 1.416-1.872 0-3.296-.504-4.272-1.512-1.04-1.088-1.56-2.664-1.56-4.728 0-2.656.84-4.568 2.519-5.736 1.009-.672 2.145-1.008 3.409-1.008.992 0 1.928.232 2.808.696.88.448 1.576 1.192 2.088 2.232.56 1.152.799 2.632.72 4.44zm-8.016-2.232h4.392c0-.24-.016-.464-.048-.672a4.542 4.542 0 00-.24-.864 1.532 1.532 0 00-.648-.84c-.304-.224-.696-.336-1.176-.336-.736 0-1.296.256-1.68.768-.368.512-.568 1.16-.6 1.944zM173.28 75v-9.84c0-.672-.04-1.432-.12-2.28h3.432l.12 1.56c.88-1.216 2.128-1.824 3.744-1.824 1.904 0 3.176.76 3.816 2.28.784-1.504 2.08-2.256 3.888-2.256 1.744 0 2.976.648 3.696 1.944.4.656.6 1.776.6 3.36V75h-3.576v-7.128c0-.528-.04-.968-.12-1.32-.064-.352-.256-.672-.576-.96-.32-.304-.768-.456-1.344-.456-.416 0-.768.08-1.056.24a2.07 2.07 0 00-.648.576c-.144.208-.256.504-.336.888a9.54 9.54 0 00-.12.984c-.016.272-.024.64-.024 1.104V75h-3.576v-7.2c0-.336-.016-.616-.048-.84a4.465 4.465 0 00-.216-.816 1.254 1.254 0 00-.6-.744c-.288-.176-.664-.264-1.128-.264-.528 0-.96.096-1.296.288-.32.192-.544.464-.672.816a5.004 5.004 0 00-.216.84 5.37 5.37 0 00-.048.792V75h-3.576zm27.832-12.12h3.768l2.232 9.144 2.568-9.144h3.912l2.544 9.144 2.376-9.144h3.528L217.888 75h-3.864l-2.496-8.976L208.984 75h-3.912l-3.96-12.12zm22.648-2.112v-3.096h3.792v3.096h-3.792zM223.88 75V62.856h3.552V75h-3.552zm13.808-2.496v2.328c-.944.256-1.864.384-2.76.384-.672 0-1.256-.088-1.752-.264-.48-.176-.832-.368-1.056-.576-.224-.208-.4-.488-.528-.84-.128-.368-.2-.648-.216-.84a9.307 9.307 0 01-.024-.744v-6.648h-2.328v-2.352h2.328v-2.376l3.528-1.296v3.672h2.88v2.352h-2.88v5.472c0 .352.008.608.024.768.032.16.096.336.192.528a.817.817 0 00.48.408c.224.064.528.096.912.096.368 0 .768-.024 1.2-.072zM239.984 75V57.672h3.528v6.864c.864-1.216 2.032-1.824 3.504-1.824 1.504 0 2.68.544 3.528 1.632.528.736.792 1.832.792 3.288V75h-3.528v-7.248c0-1.76-.664-2.64-1.992-2.64-.608 0-1.144.2-1.608.6-.448.384-.672 1.008-.672 1.872L243.56 75h-3.576zm-128.063 25v-9.84c0-.672-.04-1.432-.12-2.28h3.432l.12 1.56c.88-1.216 2.128-1.824 3.744-1.824 1.904 0 3.176.76 3.816 2.28.784-1.504 2.08-2.256 3.888-2.256 1.744 0 2.976.648 3.696 1.944.4.656.6 1.776.6 3.36V100h-3.576v-7.128c0-.528-.04-.968-.12-1.32-.064-.352-.256-.672-.576-.96-.32-.304-.768-.456-1.344-.456-.416 0-.768.08-1.056.24a2.07 2.07 0 00-.648.576c-.144.208-.256.504-.336.888a9.54 9.54 0 00-.12.984c-.016.272-.024.64-.024 1.104V100h-3.576v-7.2c0-.336-.016-.616-.048-.84a4.465 4.465 0 00-.216-.816 1.254 1.254 0 00-.6-.744c-.288-.176-.664-.264-1.128-.264-.528 0-.96.096-1.296.288-.32.192-.544.464-.672.816a5.004 5.004 0 00-.216.84 5.37 5.37 0 00-.048.792V100h-3.576zm33.08 0h-3.216c-.08-.496-.12-1.048-.12-1.656-.896 1.296-2.104 1.944-3.624 1.944-1.344 0-2.352-.32-3.024-.96-.704-.704-1.056-1.592-1.056-2.664 0-1.728.856-2.984 2.568-3.768.992-.448 2.592-.672 4.8-.672 0-.736-.056-1.272-.168-1.608-.24-.672-.768-1.008-1.584-1.008-.592 0-1.04.224-1.344.672-.176.272-.264.632-.264 1.08h-3.48c.048-1.28.504-2.232 1.368-2.856.912-.656 2.136-.984 3.672-.984 1.984 0 3.424.52 4.32 1.56.56.672.84 1.664.84 2.976l.024 4.872c0 1.152.096 2.176.288 3.072zm-3.672-5.712c-1.168-.096-2.112.032-2.832.384-.72.352-1.08.88-1.08 1.584 0 .448.152.848.456 1.2.304.352.728.528 1.272.528.608 0 1.112-.232 1.512-.696.288-.352.472-.744.552-1.176.08-.448.12-1.056.12-1.824zm6.52 5.712V82.648h3.552V100h-3.552zm6.728 0v-9.96c0-.912-.024-1.648-.072-2.208h3.408l.096 1.824c.864-1.408 2.176-2.112 3.936-2.112 1.056 0 1.88.24 2.472.72.608.464 1.016.984 1.224 1.56.224.624.336 1.832.336 3.624V100h-3.624v-7.536c0-.624-.064-1.064-.192-1.32-.336-.688-.912-1.032-1.728-1.032s-1.432.312-1.848.936c-.288.416-.432 1.032-.432 1.848V100h-3.576zm14.504-12.12h3.6v7.944c.016.16.056.384.12.672.064.272.16.488.288.648.128.16.312.304.552.432.256.128.568.192.936.192.448 0 .816-.072 1.104-.216.304-.144.528-.304.672-.48.16-.192.28-.48.36-.864.08-.4.12-.728.12-.984.016-.272.024-.68.024-1.224v-6.12h3.648v7.992c.016.752.024 1.384.024 1.896.016.496.024.824.024.984.016.16.024.28.024.36.016.288.048.584.096.888h-3.456l-.12-1.608c-.88 1.28-2.072 1.92-3.576 1.92a5.074 5.074 0 01-2.16-.456c-.64-.32-1.136-.712-1.488-1.176-.528-.656-.792-1.744-.792-3.264V87.88zm21.92 9.624v2.328c-.944.256-1.864.384-2.76.384-.672 0-1.256-.088-1.752-.264-.48-.176-.832-.368-1.056-.576-.224-.208-.4-.488-.528-.84-.128-.368-.2-.648-.216-.84a9.307 9.307 0 01-.024-.744v-6.648h-2.328v-2.352h2.328v-2.376l3.528-1.296v3.672h2.88v2.352h-2.88v5.472c0 .352.008.608.024.768.032.16.096.336.192.528a.817.817 0 00.48.408c.224.064.528.096.912.096.368 0 .768-.024 1.2-.072zm2.2 2.496v-9.144c0-.928-.056-1.936-.168-3.024h3.336l.072 2.328a5.78 5.78 0 01.432-.84c.16-.224.392-.472.696-.744.304-.288.712-.496 1.224-.624s1.104-.176 1.776-.144V91c-.848-.08-1.552-.048-2.112.096-.544.144-.936.392-1.176.744a2.995 2.995 0 00-.432 1.008 5.887 5.887 0 00-.096 1.176V100h-3.552zm9.208-14.232v-3.096h3.792v3.096h-3.792zm.12 14.232V87.856h3.552V100h-3.552zm13.807-2.496v2.328c-.944.256-1.864.384-2.76.384-.672 0-1.256-.088-1.752-.264-.48-.176-.832-.368-1.056-.576-.224-.208-.4-.488-.528-.84-.128-.368-.2-.648-.216-.84a9.307 9.307 0 01-.024-.744v-6.648h-2.328v-2.352H210v-2.376l3.528-1.296v3.672h2.88v2.352h-2.88v5.472c0 .352.008.608.024.768.032.16.096.336.192.528a.817.817 0 00.48.408c.224.064.528.096.912.096.368 0 .768-.024 1.2-.072zm2.081-11.736v-3.096h3.792v3.096h-3.792zm.12 14.232V87.856h3.552V100h-3.552zm6.127-5.952c0-.784.104-1.536.312-2.256.224-.72.56-1.4 1.008-2.04.464-.656 1.12-1.176 1.968-1.56.848-.4 1.84-.6 2.976-.6 2.08 0 3.648.608 4.704 1.824 1.056 1.2 1.584 2.712 1.584 4.536 0 1.84-.544 3.384-1.632 4.632-1.072 1.232-2.648 1.848-4.728 1.848-1.808 0-3.296-.552-4.464-1.656-1.152-1.104-1.728-2.68-1.728-4.728zm3.648.024c0 2.592.888 3.888 2.664 3.888.848 0 1.496-.312 1.944-.936.448-.624.672-1.696.672-3.216 0-2.56-.888-3.84-2.664-3.84-1.744 0-2.616 1.368-2.616 4.104zM239.936 100v-9.96c0-.912-.024-1.648-.072-2.208h3.408l.096 1.824c.864-1.408 2.176-2.112 3.936-2.112 1.056 0 1.88.24 2.472.72.608.464 1.016.984 1.224 1.56.224.624.336 1.832.336 3.624V100h-3.624v-7.536c0-.624-.064-1.064-.192-1.32-.336-.688-.912-1.032-1.728-1.032s-1.432.312-1.848.936c-.288.416-.432 1.032-.432 1.848V100h-3.576z" fill="#fff"/></svg>