<svg width="48" height="49" viewBox="0 0 48 49" fill="none" xmlns="http://www.w3.org/2000/svg"><path d="M30.41 8.787c-.066.055-.42.37-.791.702-.365.33-.76.69-.88.793-.467.406-.637.557-1.414 1.264-.445.398-.902.816-1.022.918-.12.102-.304.266-.412.36-.338.299-2.063 1.84-2.193 1.957-.364.337-.622.568-1.039.935-.528.464-.515.462-1.112.25-.161-.06-.375-.133-.477-.163l-.44-.138a85.22 85.22 0 00-.889-.3 46.813 46.813 0 01-.913-.306c-.15-.052-.356-.12-.458-.15-.103-.032-.301-.094-.44-.139-.249-.086-1.319-.442-1.759-.587a49.79 49.79 0 01-.962-.316c-.15-.052-.334-.11-.412-.136-.075-.023-.352-.118-.619-.204-.263-.091-.582-.191-.71-.234-.31-.105-.636-.211-.96-.32a7.815 7.815 0 00-.39-.127c-.064-.022-.248-.08-.41-.14-.163-.056-.32-.113-.353-.124-.1-.035-.099.072 0 .273.118.23.342.668.519 1.01.073.14.144.283.153.311.013.031.13.255.265.51.132.251.277.534.329.63.246.497.639 1.271 1.1 2.17.056.106.15.298.217.422.061.125.18.362.27.528.088.167.196.38.24.471.045.092.14.273.204.401.069.13.225.437.35.684.124.246.296.586.385.753.089.166.205.407.27.535.058.128.12.243.14.256.015.01.038.076.047.144.017.117.006.132-.308.414-.178.162-.405.364-.508.45-.1.082-.734.652-1.414 1.264-.676.608-1.322 1.187-1.43 1.28-.108.094-.654.585-1.217 1.092-1.01.91-1.345 1.211-1.56 1.388-.06.047-.16.146-.225.208a4.777 4.777 0 01-.23.206c-.06.047-.76.673-1.555 1.39a194.824 194.824 0 01-2.051 1.831c-.116.105-.34.303-.496.442-.156.139-.321.282-.368.318-.045.041-.067.082-.048.095.02.013 1.032-.182 2.25-.432 3.306-.681 3.885-.8 4.847-.995.487-.097 1.193-.245 1.57-.322a234.76 234.76 0 012.413-.499c.95-.193 2.197-.452 2.774-.576.572-.123 1.064-.205 1.091-.186.027.018.25.226.25.226l.185.265s.081.044.402.67c.272.541.822 1.613.941 1.85.074.14.177.343.23.446.05.107.143.293.21.417.064.12.163.322.23.446.063.121.156.307.207.414.053.103.155.307.23.446.07.143.23.453.348.683.346.688.587 1.158.828 1.629.074.139.181.352.244.467.102.203.275.544.5.98.121.234.224.438.654 1.282.528 1.046.559 1.1.695 1.371.073.14.181.352.243.467.103.204.275.544.5.981.288.559.337.659.425.836.053.103.156.306.23.446.118.237.669 1.309.944 1.853.554 1.09.695 1.354.725 1.351.015-.006.044-.42.07-.92.025-.507.048-.954.057-.992a58.151 58.151 0 01.06-1.129c.034-.628.25-4.825.256-5-.002-.046.015-.352.032-.674.02-.326.035-.628.036-.672.002-.11.227-4.445.267-5.181l.035-.728c0-.084.005-.18.01-.222.01-.038.059-.968.112-2.063.054-1.094.123-2.021.157-2.054.063-.068 1.352-.348 4.947-1.077.506-.1 1.209-.245 1.57-.322.36-.077 1.39-.289 2.284-.475 3.338-.688 4.715-.974 5.54-1.14.466-.1.83-.198.81-.228-.034-.04-.478-.204-.93-.34-.102-.03-.31-.094-.46-.146a7.677 7.677 0 00-.39-.127c-.064-.021-.249-.08-.41-.14-.164-.056-.385-.134-.502-.17-.202-.065-.908-.296-1.42-.467l-.39-.127a13.183 13.183 0 01-.388-.13c-.139-.044-.352-.118-.483-.157-.44-.144-1.51-.5-1.76-.587a37.543 37.543 0 00-.438-.138c-.103-.03-.309-.098-.459-.15-.15-.052-.559-.192-.913-.306a82.864 82.864 0 01-.89-.3 38.153 38.153 0 00-.439-.138c-.102-.03-.316-.104-.48-.16a6.736 6.736 0 00-.422-.138 4.21 4.21 0 01-.276-.088c-.154-.054-1.001-.342-1.36-.459-.19-.057-.408-.133-.96-.32-.689-.23-.994-.344-.998-.37-.007-.048.222-4.643.245-4.9.01-.072.066-1.187.128-2.475.062-1.29.121-2.407.132-2.49.021-.18-.02-.202-.17-.087z" fill="#fff" opacity=".2"/></svg>