<svg width="43" height="43" viewBox="0 0 43 43" fill="none" xmlns="http://www.w3.org/2000/svg"><path d="M13.634 6.17c0 .086.006.56.015 1.059.011.492.025 1.027.024 1.185.002.619.005.846.032 1.897.01.597.028 1.217.027 1.375-.002.157.002.404.002.547.005.451.043 2.766.047 2.941.018.496.024.842.028 1.399.006.703.013.692-.537 1.006-.15.084-.345.198-.436.255-.09.058-.267.167-.39.244-.126.071-.49.288-.809.479-.317.194-.69.414-.828.493-.137.08-.323.192-.413.25l-.391.243c-.229.133-1.197.712-1.594.952-.214.133-.446.272-.868.523-.137.08-.302.182-.372.224-.066.042-.319.19-.559.336-.24.14-.524.317-.64.387-.282.166-.575.344-.87.519-.137.08-.294.174-.35.213-.059.035-.223.136-.374.22l-.324.187c-.092.053-.011.122.206.178l1.103.266c.153.035.308.074.335.086.032.01.278.069.558.131.277.064.585.139.692.162.536.138 1.379.345 2.359.582.117.026.324.08.461.11.135.035.392.1.576.14.184.042.415.099.513.125.098.026.298.073.437.107.143.033.477.115.744.181.268.066.638.158.821.199.184.041.443.11.582.144.135.04.262.068.285.062.018-.005.082.02.14.057.099.064.104.082.11.504.008.241.012.545.01.68-.004.129.013.982.032 1.896.017.91.033 1.778.033 1.921 0 .143.014.878.03 1.636.027 1.36.037 1.81.03 2.089-.003.077.005.217.01.307.005.089.008.226.006.308-.004.077.012 1.016.035 2.087.036 1.896.04 2.162.044 2.752.004.156.007.455.01.664.003.209.004.428 0 .486.002.061.019.105.041.099.022-.006.537-.902 1.144-1.99 1.644-2.952 1.933-3.468 2.414-4.326.245-.432.594-1.065.782-1.401.183-.34.726-1.31 1.2-2.157a333.52 333.52 0 001.377-2.48c.28-.514.54-.941.572-.95.031-.008.334-.042.334-.042l.321.033s.087-.033.77.132c.587.147 1.756.429 2.014.493.153.035.374.09.487.117.114.032.315.082.452.112.133.031.35.087.488.117.133.031.334.082.448.113.112.027.334.082.487.117.154.04.493.12.744.182.746.185 1.26.31 1.773.434.153.035.385.092.512.12.221.055.591.146 1.068.26.256.06.478.116 1.397.34 1.136.282 1.197.294 1.49.368.154.035.385.092.513.12.22.054.59.146 1.068.26.61.146.718.174.91.223.112.027.333.082.486.117.258.065 1.428.346 2.019.492 1.187.292 1.478.357 1.495.333.006-.016-.289-.309-.65-.655-.367-.35-.69-.658-.713-.69a3.263 3.263 0 00-.194-.186c-.076-.07-.354-.339-.62-.596-.452-.436-3.485-3.338-3.612-3.457-.037-.028-.257-.24-.49-.464a1510.462 1510.462 0 01-4.227-4.05l-.528-.5a2.36 2.36 0 01-.16-.153 95.314 95.314 0 00-1.487-1.43c-.792-.755-1.448-1.413-1.451-1.46-.01-.092.62-1.253 2.418-4.456.254-.45.605-1.077.782-1.401.178-.324.69-1.243 1.134-2.044 1.66-2.98 2.345-4.212 2.758-4.947.228-.42.392-.759.357-.764-.053 0-.466.23-.864.485-.09.058-.275.174-.412.254a7.84 7.84 0 00-.351.213c-.058.035-.223.136-.374.22-.149.087-.353.204-.456.27-.181.11-.817.495-1.281.772l-.351.214a12.95 12.95 0 01-.352.209c-.124.076-.319.19-.434.264-.396.24-1.365.819-1.593.952-.124.076-.301.185-.391.243-.09.057-.277.17-.414.249-.137.08-.51.3-.828.494-.319.19-.683.407-.808.479-.123.076-.3.185-.39.243-.091.058-.286.172-.435.26-.151.083-.32.19-.38.23-.057.04-.169.107-.248.153-.142.08-.913.535-1.235.731-.168.107-.367.223-.87.52-.624.372-.909.53-.931.517-.041-.027-3.366-3.199-3.546-3.384-.048-.054-.854-.824-1.787-1.712-.934-.888-1.741-1.663-1.796-1.724-.122-.134-.166-.118-.178.071z" fill="#fff" opacity=".2"/></svg>