<svg width="44" height="44" viewBox="0 0 44 44" fill="none" xmlns="http://www.w3.org/2000/svg"><path d="M23.886 5.246c-.047.072-.297.475-.558.9-.256.42-.533.877-.619 1.01a68.49 68.49 0 00-.995 1.614c-.313.508-.633 1.04-.719 1.171-.086.132-.216.342-.293.462-.239.383-1.454 2.352-1.546 2.502-.252.426-.434.72-.73 1.192-.374.595-.362.589-.994.556-.172-.011-.398-.02-.505-.021-.107 0-.315-.004-.46-.007a88.02 88.02 0 00-.938-.034 47.058 47.058 0 01-.963-.032 14.812 14.812 0 00-.482-.014c-.107 0-.315-.004-.46-.007-.264-.012-1.392-.049-1.855-.061a49.837 49.837 0 01-1.013-.03c-.158-.006-.351-.01-.434-.012-.077-.001-.37-.013-.65-.02-.279-.012-.613-.017-.748-.021-.327-.013-.67-.021-1.011-.034a7.779 7.779 0 00-.41-.01c-.068-.002-.262-.006-.433-.018-.173-.007-.34-.016-.374-.018-.106-.004-.075.097.077.262l.785.82c.11.113.22.23.236.255.02.026.197.208.4.413.197.203.416.432.494.51.377.406.974 1.036 1.671 1.766.085.085.23.243.33.342.094.103.275.296.408.43.132.134.296.307.365.383.069.075.211.222.31.326.102.105.34.354.529.555.189.2.451.478.584.612.132.134.313.332.411.436.093.106.185.199.207.206.018.005.058.062.087.124.048.107.043.125-.179.484-.124.207-.284.465-.358.576-.073.108-.519.835-.996 1.615-.475.775-.93 1.514-1.007 1.635-.077.12-.461.746-.857 1.392-.71 1.16-.944 1.544-1.1 1.775-.044.063-.113.186-.157.264a4.735 4.735 0 01-.161.262c-.045.063-.538.862-1.096 1.776a194.062 194.062 0 01-1.446 2.34c-.081.133-.24.387-.35.564-.11.178-.227.362-.261.41-.032.052-.041.097-.02.105.023.007.938-.47 2.035-1.056 2.976-1.595 3.497-1.873 4.365-2.335.438-.232 1.073-.575 1.413-.756.337-.187 1.316-.71 2.172-1.166a335.82 335.82 0 002.496-1.343c.513-.28.962-.5.993-.49.03.01.304.146.304.146l.252.202s.091.02.577.527c.414.441 1.247 1.311 1.429 1.505.11.112.266.278.347.362.079.088.22.24.32.34.096.097.248.262.347.361.096.098.237.25.316.338.08.084.237.25.347.362.11.117.35.368.53.555.527.56.892.943 1.257 1.325.11.113.274.286.366.378.157.166.419.443.759.798.183.189.34.355.992 1.042.804.851.85.894 1.056 1.115.11.113.274.286.367.378.156.166.418.443.758.798.435.453.511.535.645.68.08.083.237.25.347.362.182.193 1.015 1.063 1.434 1.506.841.887 1.051 1.1 1.079 1.089.013-.01-.077-.416-.194-.903-.121-.493-.226-.927-.228-.967a3.263 3.263 0 00-.063-.261 1713.037 1713.037 0 00-1.378-5.701c-.015-.044-.086-.342-.161-.656a1524.199 1524.199 0 01-1.375-5.696l-.174-.707a2.36 2.36 0 01-.053-.215c-.003-.04-.22-.945-.48-2.009s-.458-1.972-.435-2.013c.04-.084 1.197-.72 4.437-2.442.456-.241 1.09-.58 1.414-.757.323-.176 1.25-.672 2.055-1.106 3.005-1.61 4.244-2.277 4.988-2.672.418-.229.739-.426.712-.449-.044-.029-.517-.059-.989-.06-.107 0-.325-.002-.483-.01a7.888 7.888 0 00-.41-.01c-.068-.002-.261-.006-.433-.017-.173-.007-.408-.02-.53-.02-.212-.005-.955-.025-1.494-.042l-.41-.01c-.078-.002-.266-.008-.41-.016-.145-.002-.37-.012-.507-.012-.463-.013-1.59-.049-1.854-.06a34.675 34.675 0 00-.46-.008c-.107 0-.324-.007-.483-.014a46.36 46.36 0 00-.963-.032c-.37-.012-.794-.027-.938-.034a36.473 36.473 0 00-.46-.007c-.107 0-.333-.01-.506-.017a6.685 6.685 0 00-.444-.011c-.069.002-.2-.001-.29-.006a95.45 95.45 0 00-1.434-.052c-.2-.001-.43-.012-1.011-.034-.727-.024-1.051-.046-1.064-.069-.02-.045-1.108-4.514-1.16-4.767-.01-.071-.274-1.155-.58-2.408a145.682 145.682 0 01-.583-2.423c-.03-.179-.076-.188-.188-.036z" fill="#fff" opacity=".1"/></svg>