<svg width="47" height="47" viewBox="0 0 47 47" fill="none" xmlns="http://www.w3.org/2000/svg"><path d="M39.368 29.748c-.06-.062-.397-.396-.75-.745-.353-.343-.737-.714-.846-.827-.435-.44-.597-.6-1.35-1.33-.426-.418-.871-.848-.98-.96-.11-.114-.285-.287-.385-.389-.32-.318-1.966-1.94-2.091-2.063a48.285 48.285 0 01-.998-.977c-.496-.497-.493-.485-.326-1.077a9.58 9.58 0 00.128-.475c.023-.101.071-.298.105-.436.038-.134.142-.534.233-.883.087-.352.197-.76.237-.908a13.9 13.9 0 00.117-.455c.023-.101.07-.298.105-.436.067-.248.343-1.31.455-1.748.057-.239.123-.493.244-.956.04-.148.086-.331.105-.409.017-.073.091-.35.158-.614.07-.262.147-.578.18-.705.082-.308.163-.632.248-.954.041-.148.086-.321.098-.387.017-.064.062-.247.11-.407.043-.163.088-.32.097-.351.027-.1-.078-.094-.27.011l-.962.552a3.953 3.953 0 01-.296.163c-.03.014-.243.138-.485.282-.239.14-.508.293-.6.348-.473.262-1.21.68-2.066 1.17-.1.06-.283.16-.4.232-.12.065-.346.192-.504.286-.158.094-.36.208-.448.256-.088.047-.26.148-.382.217-.124.073-.416.239-.65.37-.235.133-.56.316-.717.41-.158.095-.388.22-.51.288a1.18 1.18 0 00-.244.148c-.009.015-.072.04-.139.053-.114.02-.13.011-.43-.285-.173-.167-.389-.38-.481-.477-.088-.095-.697-.691-1.35-1.33-.649-.636-1.267-1.243-1.367-1.345-.1-.102-.624-.616-1.165-1.146-.971-.95-1.293-1.263-1.482-1.466-.052-.057-.157-.152-.222-.212a4.835 4.835 0 01-.22-.216c-.051-.057-.72-.715-1.484-1.463a198.643 198.643 0 01-1.956-1.93c-.112-.109-.324-.32-.472-.466a11.57 11.57 0 01-.34-.346c-.045-.042-.086-.062-.098-.043-.011.02.253 1.002.587 2.184.909 3.207 1.066 3.769 1.328 4.703.131.472.327 1.157.43 1.523.11.365.406 1.42.665 2.341.259.922.603 2.131.767 2.691.162.554.278 1.033.262 1.06a8.11 8.11 0 01-.206.255l-.249.192s-.038.082-.634.423c-.515.289-1.535.874-1.761 1-.133.079-.327.188-.425.244a9.556 9.556 0 00-.396.224c-.116.068-.307.173-.425.244a13.57 13.57 0 01-.394.22c-.098.057-.292.166-.425.245-.136.075-.43.245-.65.37-.655.369-1.103.625-1.55.881-.133.078-.336.193-.445.259-.194.109-.518.292-.934.531-.222.13-.416.239-1.22.696-.995.562-1.047.595-1.305.74-.132.077-.335.192-.444.258-.194.109-.518.292-.934.531-.531.306-.627.359-.795.452-.099.056-.293.166-.425.244-.226.127-1.246.712-1.764 1.004-1.038.59-1.288.74-1.284.768.007.015.419.026.915.03.503.002.946.005.984.012.04.004.158.006.267.003a1722.987 1722.987 0 005.812.044c.045-.005.349-.001.669.002a1512.26 1512.26 0 015.806.045c.315 0 .642.002.722.003.082-.003.178-.003.22 0 .038.008.96.016 2.046.021 1.085.005 2.006.034 2.04.065.073.059.441 1.309 1.417 4.797.136.491.328 1.173.43 1.523.102.35.384 1.349.632 2.217.917 3.238 1.298 4.574 1.522 5.375.132.452.254.803.282.783.037-.035.167-.477.269-.925.023-.102.072-.309.112-.457.041-.15.085-.322.098-.388.017-.063.062-.246.11-.407.043-.163.105-.383.13-.498.051-.201.23-.903.362-1.411.033-.137.078-.31.097-.388.017-.073.064-.25.102-.385.034-.137.09-.35.12-.48.111-.436.387-1.5.455-1.747.034-.137.082-.334.105-.436.023-.101.076-.306.116-.455.041-.149.15-.556.237-.908.091-.35.196-.748.234-.883l.105-.436c.023-.102.08-.314.124-.477.047-.16.09-.35.106-.42a4.05 4.05 0 01.067-.274c.043-.152.267-.994.357-1.35.043-.19.103-.405.248-.953.18-.686.269-.989.294-.995.048-.008 4.605.018 4.861.03.072.006 1.177.013 2.455.019 1.278.005 2.387.015 2.469.022.18.013.199-.028.075-.17z" fill="#fff" opacity=".4"/></svg>