<svg width="35" height="35" viewBox="0 0 35 35" fill="none" xmlns="http://www.w3.org/2000/svg"><path d="M34.406 14.642c-.083-.023-.543-.14-1.027-.26-.478-.116-.998-.241-1.15-.283-.598-.158-.82-.213-1.84-.459-.58-.144-1.183-.288-1.335-.33-.152-.041-.391-.101-.53-.138-.437-.112-2.683-.673-2.853-.715-.483-.11-.819-.194-1.357-.334-.681-.176-.672-.166-.833-.779a10.132 10.132 0 00-.134-.487 35.638 35.638 0 01-.133-.44c-.037-.14-.152-.547-.253-.905-.106-.357-.221-.774-.262-.927a14.91 14.91 0 00-.134-.464 36.158 36.158 0 01-.133-.44c-.07-.256-.378-1.34-.507-1.786-.073-.241-.147-.5-.28-.974-.042-.153-.097-.338-.12-.417-.023-.074-.101-.357-.18-.626-.073-.27-.17-.59-.207-.72-.087-.315-.184-.644-.276-.973a7.8 7.8 0 00-.115-.394c-.018-.065-.073-.25-.115-.418-.046-.167-.087-.329-.096-.361-.028-.103-.116-.042-.226.153a533.3 533.3 0 00-.543.997c-.074.139-.152.278-.17.301-.019.028-.138.25-.272.506-.133.25-.285.528-.336.626-.271.482-.69 1.243-1.173 2.128-.055.107-.161.293-.226.418-.069.12-.198.352-.285.52-.087.166-.202.375-.253.463-.05.088-.147.269-.216.394-.07.13-.235.432-.368.673-.134.24-.318.575-.405.742-.088.167-.221.399-.29.524a1.23 1.23 0 00-.134.26c0 .018-.041.074-.092.12-.087.079-.106.079-.515-.023a18.78 18.78 0 01-.658-.167 115.67 115.67 0 00-1.841-.46c-.884-.217-1.726-.426-1.864-.463a177.4 177.4 0 00-1.587-.394c-1.321-.325-1.758-.431-2.025-.51-.074-.023-.212-.051-.3-.07a4.712 4.712 0 01-.299-.074c-.073-.023-.984-.25-2.024-.506-1.841-.454-2.099-.519-2.67-.667L1.12 6.34a11.302 11.302 0 01-.47-.125c-.059-.014-.105-.01-.105.014 0 .023.732.751 1.625 1.619 2.425 2.35 2.848 2.764 3.552 3.45.354.348.875.849 1.15 1.118.281.264 1.077 1.038 1.772 1.716.695.677 1.611 1.563 2.039 1.97.423.404.768.766.768.798 0 .033-.046.334-.046.334l-.115.302s.01.092-.326.71c-.295.528-.87 1.585-.999 1.817-.074.14-.184.339-.24.44-.059.103-.16.284-.225.409-.064.12-.175.315-.239.44-.064.121-.166.302-.225.404-.056.102-.166.302-.24.44-.078.14-.244.446-.368.673-.373.673-.626 1.136-.879 1.6-.074.14-.189.348-.248.464-.11.2-.295.533-.53.965-.124.231-.234.43-.69 1.261-.566 1.025-.594 1.08-.74 1.345-.074.14-.19.348-.25.464-.11.2-.294.533-.529.964-.299.552-.354.65-.45.821-.056.102-.166.302-.24.44-.129.233-.704 1.29-.998 1.823-.59 1.072-.728 1.336-.71 1.36.015.009.374-.2.802-.46.432-.264.814-.496.851-.51a57.696 57.696 0 01.966-.584c.539-.325 4.128-2.505 4.276-2.597.036-.028.299-.186.575-.353a1517.775 1517.775 0 015.007-3.038l.62-.38c.07-.046.153-.097.19-.116.036-.014.832-.496 1.767-1.067.934-.57 1.74-1.034 1.785-1.024.092.013 1.05.922 3.677 3.487.368.362.884.863 1.15 1.118.267.255 1.022.988 1.68 1.623 2.448 2.374 3.46 3.353 4.064 3.942.345.33.63.575.644.543.014-.051-.101-.51-.244-.96-.032-.102-.097-.311-.138-.464a7.858 7.858 0 00-.115-.394c-.018-.065-.074-.25-.115-.418-.046-.167-.106-.394-.143-.51-.06-.204-.267-.918-.414-1.438l-.115-.394a13.062 13.062 0 01-.11-.394c-.042-.14-.102-.357-.143-.487-.129-.445-.437-1.53-.506-1.786l-.134-.44c-.032-.102-.092-.31-.133-.464-.042-.153-.157-.57-.263-.927a84.697 84.697 0 01-.253-.905 35.5 35.5 0 00-.133-.44c-.032-.102-.092-.32-.138-.487a6.748 6.748 0 00-.124-.427 4.253 4.253 0 01-.083-.278c-.042-.158-.28-1.02-.387-1.382-.06-.19-.12-.413-.276-.974-.198-.7-.276-1.016-.258-1.034a423.49 423.49 0 014.188-2.551c.064-.033 1.017-.612 2.117-1.285 1.1-.672 2.057-1.252 2.13-1.29.162-.082.157-.129-.022-.19z" fill="#fff" opacity=".25"/></svg>