<svg width="140" height="31" viewBox="0 0 140 31" fill="none" xmlns="http://www.w3.org/2000/svg"><path d="M18.956 22h-1.17V9.004h1.17v5.706h7.092V9.004h1.17V22h-1.17v-6.21h-7.092V22zm19.092-4.266h-6.984c.024 1.044.288 1.896.792 2.556.516.66 1.296.99 2.34.99.636 0 1.194-.204 1.674-.612.492-.408.804-.924.936-1.548h1.134c-.54 2.1-1.902 3.15-4.086 3.15-1.272 0-2.25-.462-2.934-1.386-.684-.936-1.026-2.07-1.026-3.402 0-1.32.354-2.448 1.062-3.384.708-.936 1.698-1.404 2.97-1.404 1.428 0 2.472.462 3.132 1.386.66.912.99 2.13.99 3.654zm-6.948-.99h5.778c-.072-.924-.354-1.662-.846-2.214-.492-.564-1.188-.846-2.088-.846-.828 0-1.488.294-1.98.882-.492.588-.78 1.314-.864 2.178zm10.434-7.74V22h-1.08V9.004h1.08zm3.792 8.262c0 .744.084 1.404.252 1.98.18.564.51 1.044.99 1.44.48.396 1.092.594 1.836.594.492 0 .912-.12 1.26-.36.36-.252.63-.582.81-.99.192-.42.324-.84.396-1.26a7.06 7.06 0 00.126-1.35 5.5 5.5 0 00-.252-1.71 2.799 2.799 0 00-.882-1.35c-.432-.384-.972-.576-1.62-.576-.984 0-1.716.342-2.196 1.026-.48.684-.72 1.536-.72 2.556zm0 3.33v4.86h-1.08V14.998c0-.228-.03-.906-.09-2.034h1.116l.054 1.332.036.036c.3-.516.732-.918 1.296-1.206a3.976 3.976 0 011.8-.432c.852 0 1.566.24 2.142.72.576.48.978 1.068 1.206 1.764.24.684.36 1.44.36 2.268 0 .6-.072 1.176-.216 1.728a5.493 5.493 0 01-.63 1.53c-.276.468-.66.846-1.152 1.134-.48.288-1.032.432-1.656.432-1.332 0-2.382-.558-3.15-1.674h-.036zm14.886-1.008v-5.634h-1.8v-.99h1.8v-1.926l1.08-.468v2.394h2.052v.99h-2.052v6.048c-.024.852.39 1.278 1.242 1.278.396 0 .708-.036.936-.108v.936a4.34 4.34 0 01-1.098.162c-.348 0-.654-.03-.918-.09a1.34 1.34 0 01-.612-.306 3.704 3.704 0 01-.378-.396c-.084-.12-.144-.3-.18-.54-.036-.24-.06-.426-.072-.558v-.612-.18zm6.3-10.584v5.328h.036c.612-1.092 1.554-1.638 2.826-1.638.564 0 1.05.096 1.458.288.42.192.732.42.936.684.216.264.384.582.504.954.132.372.21.684.234.936.036.252.054.516.054.792V22h-1.08v-5.832c0-.78-.21-1.386-.63-1.818-.42-.444-1.002-.666-1.746-.666-.84 0-1.482.3-1.926.9-.444.6-.666 1.338-.666 2.214V22h-1.08V9.004h1.08zm16.536 8.73h-6.984c.024 1.044.288 1.896.792 2.556.516.66 1.296.99 2.34.99.636 0 1.194-.204 1.674-.612.492-.408.804-.924.936-1.548h1.134c-.54 2.1-1.902 3.15-4.086 3.15-1.272 0-2.25-.462-2.934-1.386-.684-.936-1.026-2.07-1.026-3.402 0-1.32.354-2.448 1.062-3.384.708-.936 1.698-1.404 2.97-1.404 1.428 0 2.472.462 3.132 1.386.66.912.99 2.13.99 3.654zm-6.948-.99h5.778c-.072-.924-.354-1.662-.846-2.214-.492-.564-1.188-.846-2.088-.846-.828 0-1.488.294-1.98.882-.492.588-.78 1.314-.864 2.178zm10.344-3.78l.054 1.332.036.036c.612-1.092 1.554-1.638 2.826-1.638.708 0 1.32.18 1.836.54.528.36.894.84 1.098 1.44.828-1.32 1.866-1.98 3.114-1.98.564 0 1.05.096 1.458.288.42.192.732.42.936.684.216.264.384.582.504.954.132.372.21.684.234.936.036.252.054.516.054.792V22h-1.08v-5.832c0-.78-.21-1.386-.63-1.818-.42-.444-1.002-.666-1.746-.666-.84 0-1.482.3-1.926.9-.444.6-.666 1.338-.666 2.214V22h-1.08v-5.832c0-.78-.21-1.386-.63-1.818-.42-.444-1.002-.666-1.746-.666-.84 0-1.482.3-1.926.9-.444.6-.666 1.338-.666 2.214V22h-1.08v-7.002c0-.336-.03-1.014-.09-2.034h1.116zm21.078 3.834V22h-1.08v-7.002c0-.336-.03-1.014-.09-2.034h1.116l.054 1.332.036.036c.612-1.092 1.554-1.638 2.826-1.638.564 0 1.05.096 1.458.288.42.192.732.42.936.684.216.264.384.582.504.954.132.372.21.684.234.936.036.252.054.516.054.792V22h-1.08v-5.832c0-.78-.21-1.386-.63-1.818-.42-.444-1.002-.666-1.746-.666-.84 0-1.482.3-1.926.9-.444.6-.666 1.338-.666 2.214zm14.754 3.312c.516-.78.774-1.656.774-2.628 0-.972-.258-1.848-.774-2.628s-1.272-1.17-2.268-1.17c-.996 0-1.752.39-2.268 1.17a4.658 4.658 0 00-.774 2.628c0 .972.258 1.848.774 2.628s1.272 1.17 2.268 1.17c.996 0 1.752-.39 2.268-1.17zm-5.4-5.994c.732-.948 1.776-1.422 3.132-1.422s2.394.474 3.114 1.422c.732.948 1.098 2.07 1.098 3.366 0 1.296-.366 2.418-1.098 3.366-.72.948-1.758 1.422-3.114 1.422-1.356 0-2.4-.474-3.132-1.422-.72-.948-1.08-2.07-1.08-3.366 0-1.296.36-2.418 1.08-3.366zm9.606-1.152l2.7 7.614h.036l2.736-7.614h1.278l2.664 7.542h.036l2.61-7.542h1.188L136.364 22h-1.026l-2.772-7.794h-.036L129.704 22h-1.098l-3.312-9.036h1.188z" fill="#fff"/></svg>