<svg width="49" height="49" viewBox="0 0 49 49" fill="none" xmlns="http://www.w3.org/2000/svg"><path d="M38.943 33.658c-.043-.075-.29-.48-.55-.904-.262-.418-.545-.871-.625-1.007a68.989 68.989 0 00-.993-1.617c-.314-.509-.643-1.034-.723-1.17-.079-.136-.208-.347-.28-.47-.235-.385-1.446-2.358-1.538-2.507a47.233 47.233 0 01-.736-1.19c-.363-.602-.363-.59-.05-1.14.087-.148.197-.345.245-.44.048-.096.145-.28.213-.41.07-.124.274-.497.452-.823.174-.33.384-.708.461-.846.077-.139.18-.33.229-.425.048-.096.145-.28.213-.409.129-.23.668-1.222.887-1.63.116-.224.245-.461.48-.893.078-.138.169-.31.207-.382.036-.069.178-.326.31-.573.136-.244.29-.54.355-.659.158-.286.32-.59.484-.89.077-.137.164-.299.193-.361.033-.06.123-.231.21-.38l.184-.325c.052-.093-.053-.11-.268-.049-.248.075-.717.22-1.085.333-.15.048-.303.092-.333.096a15.81 15.81 0 00-.547.171c-.27.086-.574.178-.678.212-.531.155-1.362.406-2.326.7-.115.038-.32.097-.454.141-.133.038-.387.113-.567.171a16.7 16.7 0 01-.505.155c-.097.027-.293.089-.43.13-.14.045-.469.144-.733.223a48.71 48.71 0 00-.808.247c-.18.058-.437.13-.574.172a1.23 1.23 0 00-.277.092c-.013.013-.081.024-.15.022-.117-.005-.13-.018-.351-.378a18.927 18.927 0 01-.354-.58c-.063-.113-.511-.839-.993-1.617-.479-.774-.934-1.513-1.007-1.636-.072-.123-.459-.748-.858-1.393-.716-1.156-.953-1.539-1.089-1.782-.036-.068-.116-.184-.165-.259a4.729 4.729 0 01-.162-.262c-.036-.069-.528-.869-1.092-1.78a194.861 194.861 0 01-1.44-2.345l-.346-.567a11.421 11.421 0 01-.247-.418c-.033-.052-.07-.08-.086-.064-.016.016-.003 1.05.028 2.294.088 3.378.102 3.97.124 4.953.01.497.031 1.219.04 1.604.016.386.043 1.497.065 2.467.023.97.058 2.245.078 2.836.02.585.013 1.085-.01 1.108-.022.023-.266.206-.266.206l-.293.135s-.058.073-.73.279c-.58.172-1.73.525-1.984.6-.15.048-.368.113-.479.148-.114.03-.313.09-.446.134-.13.04-.346.102-.48.147-.13.04-.329.1-.443.13-.11.035-.329.1-.479.148-.153.044-.485.147-.733.223-.736.22-1.242.374-1.747.528-.15.048-.378.117-.501.158-.219.065-.584.175-1.053.319-.25.078-.47.144-1.375.418-1.121.336-1.18.357-1.47.443-.15.048-.378.116-.502.157-.218.065-.583.175-1.052.32-.6.184-.707.215-.896.27-.111.035-.33.1-.48.148-.254.075-1.404.428-1.987.603-1.17.354-1.454.446-1.457.476.004.016.406.118.893.232.494.114.929.215.965.231.04.013.154.04.262.062a1683.808 1683.808 0 005.707 1.334c.045.005.342.076.656.15a1520.643 1520.643 0 015.7 1.334c.311.07.632.144.71.163.082.015.177.037.216.05.036.015.942.227 2.008.474 1.066.246 1.965.478 1.992.517.056.074.104 1.394.186 5.067.01.516.028 1.235.04 1.604s.039 1.421.064 2.336c.088 3.41.127 4.819.145 5.662.017.477.048.852.08.839.046-.027.285-.436.498-.857.049-.096.149-.29.226-.428.077-.139.165-.3.194-.362.032-.06.122-.231.21-.38.083-.15.2-.355.254-.464.1-.188.452-.843.71-1.317l.193-.363c.036-.069.126-.234.197-.359.068-.128.178-.326.239-.448.22-.408.758-1.4.887-1.63.068-.129.165-.313.213-.409.048-.095.152-.286.23-.425.076-.138.286-.517.46-.846.178-.326.381-.698.452-.824.068-.128.165-.313.213-.408.048-.095.158-.293.242-.445.087-.148.177-.326.21-.392.029-.062.09-.177.135-.257.08-.141.513-.925.69-1.258.09-.178.204-.379.485-.89.348-.638.513-.919.539-.919.049.003 4.526 1.04 4.774 1.108.07.022 1.155.275 2.41.564 1.256.29 2.345.545 2.424.57.173.053.202.017.116-.152z" fill="#fff" opacity=".3"/></svg>