<svg width="41" height="41" viewBox="0 0 41 41" fill="none" xmlns="http://www.w3.org/2000/svg"><path d="M12.373 32.075c.062-.035.397-.236.749-.447.346-.211.721-.441.834-.505.44-.257.601-.353 1.339-.805.42-.254.856-.522.968-.586.113-.064.287-.168.39-.227l2.076-1.246c.346-.217.59-.364.984-.597.5-.294.488-.294.938-.031.122.073.283.165.362.206.078.04.229.122.334.179.102.06.407.23.673.38.27.146.58.322.693.387.113.065.27.152.348.192.078.041.229.122.334.18a168.682 168.682 0 002.064 1.148c.113.065.253.141.313.174.056.03.266.149.468.26.2.114.442.244.54.298.234.133.482.268.727.407.113.065.245.138.296.162.049.027.189.103.31.177.124.07.243.14.267.154.076.043.091-.043.042-.22l-.264-.898a3.423 3.423 0 01-.076-.275 12.962 12.962 0 00-.137-.452c-.068-.224-.141-.475-.169-.56-.122-.44-.321-1.127-.555-1.925-.03-.094-.077-.264-.112-.374-.03-.11-.09-.32-.137-.469-.046-.148-.1-.337-.122-.418-.022-.08-.071-.242-.104-.355a52.109 52.109 0 01-.177-.607c-.063-.218-.15-.52-.196-.668-.046-.148-.104-.36-.136-.474a1.012 1.012 0 00-.074-.229c-.01-.01-.019-.067-.016-.124.005-.097.015-.108.313-.287.17-.104.384-.232.48-.286.094-.05.695-.414 1.339-.805.641-.387 1.253-.756 1.355-.815.102-.06.62-.372 1.153-.695.958-.58 1.275-.773 1.476-.883.056-.03.153-.094.214-.134a114.632 114.632 0 001.69-1.016A160.5 160.5 0 0136.11 17.8c.11-.067.322-.192.47-.28.147-.089.303-.18.345-.201.043-.027.067-.056.054-.07-.014-.013-.863-.011-1.888.004-2.78.043-3.267.049-4.076.06-.409.003-1.003.014-1.32.018-.317.01-1.232.022-2.03.033-.799.01-1.847.027-2.334.04-.481.01-.893.001-.912-.018-.019-.019-.167-.221-.167-.221l-.109-.243s-.06-.049-.223-.604c-.136-.48-.417-1.43-.477-1.64-.038-.125-.09-.305-.117-.397a8.294 8.294 0 00-.106-.369c-.033-.107-.082-.285-.117-.396a12 12 0 01-.104-.366c-.027-.092-.079-.272-.117-.396-.035-.127-.117-.402-.177-.607a210.48 210.48 0 00-.42-1.444c-.038-.124-.092-.312-.125-.415l-.253-.87c-.063-.208-.115-.388-.333-1.137-.267-.927-.283-.976-.352-1.215-.038-.124-.092-.313-.125-.415-.052-.18-.139-.483-.253-.87-.147-.496-.172-.585-.216-.742-.027-.091-.079-.272-.117-.396-.06-.21-.34-1.16-.48-1.643-.28-.968-.354-1.202-.378-1.205-.013.003-.1.334-.199.734a21.02 21.02 0 01-.198.793 49.066 49.066 0 01-.222.903c-.125.504-.946 3.865-.977 4.005-.005.037-.066.282-.13.54a1265.18 1265.18 0 01-1.146 4.687l-.14.583a1.957 1.957 0 01-.043.178c-.013.03-.196.774-.407 1.65-.212.877-.411 1.616-.443 1.638-.062.045-1.148.073-4.17.11-.425.004-1.017.012-1.32.02l-1.923.032c-2.807.043-3.966.063-4.66.07-.392.01-.701.033-.69.06.021.038.355.238.7.417.078.041.237.125.35.19.114.065.246.138.297.163.048.027.189.103.31.176.124.07.29.168.38.214.153.084.69.38 1.078.596l.296.163c.057.03.191.106.294.165.105.057.267.15.366.2.335.185 1.146.638 1.334.746l.334.179c.079.04.235.127.348.192.113.065.423.242.693.388.266.149.57.32.673.38.105.056.256.138.334.178.079.041.24.133.364.204.122.073.267.149.32.176.052.024.146.076.211.114.116.067.757.43 1.03.58.145.075.31.17.727.406.523.293.752.431.752.453-.002.04-.894 3.72-.953 3.925-.018.057-.235.95-.484 1.982a121.528 121.528 0 01-.49 1.992c-.045.143-.015.167.124.098z" fill="#fff" opacity=".1"/></svg>