<svg width="36" height="36" viewBox="0 0 36 36" fill="none" xmlns="http://www.w3.org/2000/svg"><path d="M27.778 25.693a64.992 64.992 0 00-.338-.702c-.16-.325-.335-.677-.383-.782a50.269 50.269 0 00-.61-1.255c-.192-.395-.395-.803-.444-.909-.048-.105-.127-.269-.17-.364l-.944-1.947a34.706 34.706 0 01-.452-.923c-.222-.467-.223-.458.046-.838.075-.102.17-.238.212-.305l.185-.283c.061-.087.237-.344.39-.57.152-.228.333-.49.4-.586.066-.095.156-.228.198-.294.042-.067.126-.194.185-.284a144.47 144.47 0 001.184-1.746c.067-.096.146-.215.18-.265.03-.048.153-.226.267-.397.117-.168.252-.374.308-.456.136-.198.276-.408.419-.616.066-.095.142-.207.168-.25.028-.042.106-.16.18-.263l.159-.225c.044-.064-.03-.085-.193-.055l-.818.165a11.669 11.669 0 00-.663.132c-.204.042-.433.088-.511.106-.4.074-1.027.197-1.754.343-.086.02-.24.047-.341.07-.1.018-.292.055-.428.084-.135.03-.307.063-.38.076-.074.013-.222.044-.325.065-.105.022-.354.07-.552.11a36.2 36.2 0 00-.61.121c-.135.03-.329.064-.432.084a.91.91 0 00-.21.048c-.01.008-.06.011-.11.005-.086-.013-.095-.023-.23-.302a14.03 14.03 0 01-.217-.45 85.59 85.59 0 00-.61-1.255c-.293-.601-.573-1.175-.617-1.27-.044-.096-.281-.581-.527-1.082-.44-.898-.586-1.195-.667-1.383-.022-.053-.071-.144-.102-.202a142.623 142.623 0 01-1.652-3.405l-.213-.44a8.237 8.237 0 01-.15-.324c-.02-.04-.045-.064-.058-.053-.013.01-.078.767-.146 1.68-.182 2.479-.215 2.912-.27 3.634-.028.364-.065.894-.087 1.176a172.96 172.96 0 01-.131 1.81 244.82 244.82 0 00-.15 2.08c-.027.43-.068.795-.087.81-.018.016-.21.132-.21.132l-.224.078s-.048.049-.554.15c-.437.084-1.304.259-1.495.296l-.362.073a7.297 7.297 0 00-.336.065c-.098.02-.26.05-.361.073-.099.021-.248.05-.334.064-.084.017-.248.049-.361.073-.115.021-.366.072-.553.11-.555.107-.936.183-1.316.26-.114.024-.285.057-.379.078-.164.032-.44.086-.793.157-.19.04-.354.072-1.037.207-.845.164-.889.175-1.107.217-.114.024-.285.058-.38.079-.164.031-.439.085-.792.156-.453.092-.534.107-.676.134-.083.017-.248.049-.361.073-.192.037-1.059.211-1.498.297-.882.174-1.096.22-1.1.242 0 .012.288.116.636.235.353.119.664.225.689.24a41.64 41.64 0 01.785.27c.437.149 3.359 1.144 3.48 1.183.034.008.246.082.47.159a1116.809 1116.809 0 014.074 1.39 127.205 127.205 0 01.662.222c.026.014.673.235 1.435.493.762.257 1.403.493 1.42.523.035.059-.025 1.028-.231 3.72-.03.38-.07.906-.088 1.177-.018.271-.075 1.043-.122 1.714-.184 2.503-.258 3.536-.306 4.154-.022.35-.026.627-.002.62.036-.017.24-.298.427-.591a9.99 9.99 0 01.196-.297c.067-.096.142-.208.168-.251.028-.041.106-.16.18-.262.073-.105.173-.246.221-.322.087-.13.392-.584.615-.912.059-.09.134-.2.168-.251.03-.048.109-.162.17-.249.059-.089.153-.225.207-.31.19-.283.657-.97.768-1.129l.185-.283c.043-.066.132-.199.199-.294.066-.096.247-.358.399-.586.153-.226.329-.483.39-.57l.185-.283c.043-.067.137-.203.21-.308.074-.102.153-.226.182-.272.025-.043.079-.123.117-.178.07-.098.443-.64.597-.87.079-.124.176-.263.419-.616.301-.442.442-.635.461-.634.036.006 3.236 1.09 3.413 1.158.049.021.825.285 1.723.587.898.303 1.676.57 1.732.593.123.052.146.027.096-.102z" fill="#fff" opacity=".4"/></svg>