<svg width="41" height="40" viewBox="0 0 41 40" fill="none" xmlns="http://www.w3.org/2000/svg"><path d="M32.21 27.602a75.335 75.335 0 00-.46-.741c-.217-.343-.453-.715-.519-.827a56.62 56.62 0 00-.827-1.326c-.26-.417-.535-.847-.601-.959-.066-.112-.174-.284-.234-.385a921.71 921.71 0 00-1.28-2.057 38.578 38.578 0 01-.613-.975c-.302-.495-.302-.484-.047-.939.07-.122.16-.286.2-.365.039-.079.117-.231.172-.337.058-.104.224-.411.368-.68.142-.273.312-.586.375-.7.063-.115.147-.273.187-.352l.173-.337a163.122 163.122 0 001.112-2.085c.063-.115.137-.256.168-.316.03-.057.145-.27.252-.474.11-.201.236-.446.289-.544.128-.237.26-.488.394-.735.063-.115.133-.248.157-.3.026-.049.1-.19.17-.313l.15-.27c.042-.076-.044-.09-.22-.038l-.893.28c-.123.04-.248.078-.273.08-.026.007-.225.07-.45.145-.222.072-.47.15-.557.178-.436.13-1.12.342-1.912.59-.094.031-.262.08-.372.118-.11.032-.319.095-.466.144-.147.049-.335.107-.415.13-.08.023-.241.075-.354.11a52.17 52.17 0 01-.602.187c-.217.067-.517.16-.665.208-.147.049-.358.11-.47.144-.113.03-.215.064-.228.078-.011.01-.067.02-.124.019-.097-.004-.108-.014-.292-.31-.107-.166-.239-.38-.294-.475a95.428 95.428 0 00-.827-1.326c-.398-.635-.777-1.24-.838-1.342-.06-.1-.381-.614-.714-1.142-.596-.949-.794-1.262-.906-1.462-.03-.056-.097-.151-.138-.212a3.82 3.82 0 01-.134-.216c-.03-.056-.44-.712-.91-1.458-.83-1.324-.945-1.51-1.198-1.924-.068-.11-.197-.32-.288-.465-.09-.147-.184-.3-.206-.343-.028-.043-.058-.066-.07-.053-.014.014.003.864.035 1.89.09 2.78.105 3.268.129 4.078.01.409.032 1.003.042 1.32.014.318.043 1.232.067 2.031.023.8.059 1.849.079 2.335.02.482.017.894-.002.913-.018.02-.218.171-.218.171l-.24.113s-.048.06-.6.233c-.477.145-1.422.442-1.63.506l-.394.124a8.298 8.298 0 00-.367.112c-.108.035-.284.087-.394.124-.107.035-.27.084-.364.11-.091.03-.27.084-.394.124-.126.038-.4.124-.603.188-.605.185-1.02.315-1.435.445-.123.04-.31.098-.413.132-.18.055-.479.147-.865.268-.206.067-.385.122-1.13.352l-1.208.373c-.123.04-.31.098-.412.133-.18.054-.48.147-.865.268-.493.156-.581.182-.737.228-.09.029-.27.084-.393.124-.21.064-1.155.36-1.634.508-.962.297-1.195.375-1.197.4.003.013.335.095.737.186.407.09.766.172.795.185.033.01.127.032.216.05a1422.428 1422.428 0 004.707 1.067c.038.004.283.06.542.12a1263.453 1263.453 0 014.701 1.067l.585.13c.068.013.146.03.179.04.03.013.776.183 1.656.38.879.197 1.62.383 1.643.415.046.06.093 1.148.181 4.171.011.426.03 1.017.042 1.321.012.304.04 1.17.066 1.924.09 2.808.13 3.968.15 4.662.016.392.044.701.07.69.038-.022.233-.36.405-.708.04-.08.121-.24.184-.354.063-.115.134-.248.157-.3.027-.049.1-.19.171-.313.068-.125.163-.294.207-.384.082-.155.368-.697.578-1.089l.157-.299c.029-.057.102-.193.16-.297.055-.106.145-.27.194-.37.179-.337.617-1.157.722-1.348.055-.106.134-.258.173-.337.04-.079.123-.237.186-.351.064-.114.234-.428.376-.7.144-.27.31-.577.367-.68.055-.107.134-.259.173-.338.04-.079.129-.242.197-.367a5.53 5.53 0 00.17-.324c.024-.052.074-.147.11-.213.067-.117.418-.765.563-1.04.073-.147.165-.313.393-.735.284-.528.418-.76.44-.76.04.002 3.732.832 3.937.887.057.017.953.22 1.988.45 1.036.232 1.934.437 1.999.457.143.043.167.012.095-.126z" fill="#fff" opacity=".1"/></svg>