<svg width="18" height="18" viewBox="0 0 18 18" fill="none" xmlns="http://www.w3.org/2000/svg"><path d="M10.55 17.166c.012-.041.07-.271.13-.513.058-.239.12-.499.142-.575.079-.299.106-.41.23-.92.071-.29.143-.592.164-.668l.07-.264.357-1.427c.055-.241.097-.41.167-.678.088-.341.083-.337.39-.417.083-.02.192-.05.243-.067a18.359 18.359 0 01.672-.193c.179-.053.387-.11.464-.131.076-.02.18-.05.232-.067l.22-.067a100.906 100.906 0 001.38-.393c.076-.02.17-.048.209-.06.037-.011.178-.05.313-.09.134-.036.294-.085.359-.103l.487-.138c.076-.02.165-.046.197-.058.033-.009.125-.037.209-.057l.18-.049c.052-.013.021-.057-.076-.112l-.498-.272a7.836 7.836 0 00-.404-.22l-.313-.169c-.241-.135-.622-.345-1.064-.586-.054-.028-.146-.081-.21-.113a9.386 9.386 0 00-.259-.143 8.44 8.44 0 01-.232-.126c-.044-.026-.134-.074-.197-.109a32.054 32.054 0 01-.336-.184c-.12-.066-.288-.158-.371-.202-.083-.044-.2-.11-.262-.145a.615.615 0 00-.13-.067c-.01 0-.037-.02-.06-.046-.04-.044-.04-.053.011-.258a58.894 58.894 0 00.313-1.25c.11-.44.214-.862.232-.93.019-.07.107-.426.197-.795.163-.66.216-.879.255-1.012.012-.037.026-.106.035-.15a69.361 69.361 0 00.29-1.162c.227-.92.26-1.049.334-1.334l.081-.322a5.6 5.6 0 01.063-.235c.007-.03.005-.053-.007-.053s-.376.366-.81.812c-1.175 1.213-1.381 1.425-1.725 1.777-.174.177-.424.437-.558.575-.133.14-.52.538-.858.886-.339.347-.782.805-.986 1.02-.202.21-.383.383-.399.383-.016 0-.167-.023-.167-.023l-.15-.057s-.047.004-.355-.164c-.265-.147-.793-.434-.91-.499l-.22-.12a5.032 5.032 0 00-.204-.112c-.06-.032-.157-.088-.22-.12a7.074 7.074 0 01-.202-.113l-.22-.12-.336-.183c-.336-.187-.568-.313-.8-.44l-.232-.124-.482-.265c-.116-.062-.216-.117-.631-.345l-.673-.37c-.07-.037-.174-.095-.232-.125-.1-.055-.266-.147-.482-.264-.276-.15-.324-.177-.41-.226l-.22-.12c-.117-.064-.645-.351-.912-.499-.536-.294-.668-.363-.68-.354-.004.007.1.186.23.4.132.217.248.408.255.426a29.23 29.23 0 01.292.483c.163.27 1.253 2.064 1.3 2.138.013.018.092.15.175.287l.174.288a763.236 763.236 0 011.535 2.527 47.609 47.609 0 00.591.978c.286.467.518.87.513.892-.007.046-.461.525-1.744 1.839-.18.184-.431.441-.559.575-.127.133-.493.51-.811.84L.663 14.75c-.165.172-.288.315-.271.322.025.006.255-.051.48-.122.05-.017.155-.049.231-.07a3.9 3.9 0 00.198-.057c.032-.01.125-.037.208-.057.084-.024.197-.053.255-.072l.72-.207.196-.057c.037-.012.128-.037.197-.056.07-.02.179-.05.244-.07.222-.065.765-.22.893-.254.07-.02.169-.05.22-.067.05-.016.155-.046.232-.066.076-.021.285-.079.464-.132.178-.05.382-.108.452-.126.07-.02.169-.05.22-.067.051-.016.16-.046.243-.069.084-.02.179-.05.214-.062.032-.012.095-.03.139-.041.079-.021.51-.14.691-.194.095-.03.206-.06.487-.138.35-.099.508-.138.517-.129.016.019 1.213 1.981 1.275 2.094.017.032.306.509.643 1.059.336.55.626 1.028.644 1.065.042.08.065.078.095-.012z" fill="#fff" opacity=".35"/></svg>