<svg width="254" height="42" viewBox="0 0 254 42" fill="none" xmlns="http://www.w3.org/2000/svg"><path d="M11.412 9.234H8.568c-.18-1.524-.882-2.286-2.106-2.286-.984 0-1.722.45-2.214 1.35-.48.888-.72 2.052-.72 3.492 0 .228.006.432.018.612.012.18.036.474.072.882.048.396.132.744.252 1.044.12.3.27.612.45.936.192.312.45.558.774.738.336.168.72.252 1.152.252.636 0 1.176-.204 1.62-.612.456-.42.696-1.038.72-1.854h2.934c-.024.384-.054.696-.09.936-.036.228-.144.558-.324.99-.18.42-.432.798-.756 1.134-.948.972-2.214 1.458-3.798 1.458-1.08 0-2.016-.186-2.808-.558-.792-.372-1.41-.876-1.854-1.512a6.674 6.674 0 01-.972-2.07 9.022 9.022 0 01-.306-2.394c0-2.076.534-3.738 1.602-4.986 1.08-1.248 2.532-1.872 4.356-1.872 1.428 0 2.592.402 3.492 1.206.9.792 1.35 1.83 1.35 3.114zM13.248 18V5.004h2.646v5.148c.648-.912 1.524-1.368 2.628-1.368 1.128 0 2.01.408 2.646 1.224.396.552.594 1.374.594 2.466V18h-2.646v-5.436c0-1.32-.498-1.98-1.494-1.98-.456 0-.858.15-1.206.45-.336.288-.504.756-.504 1.404L15.93 18h-2.682zM24.09 7.326V5.004h2.844v2.322H24.09zM24.18 18V8.892h2.664V18H24.18zm5.01 0V4.986h2.663V18H29.19zm11.021-7.974V5.004h2.682v11.52c0 .528.024 1.02.072 1.476h-2.7l-.072-1.314c-.252.456-.558.798-.918 1.026-.48.312-1.068.468-1.764.468-1.212 0-2.16-.396-2.844-1.188-.684-.804-1.026-1.914-1.026-3.33 0-1.488.366-2.67 1.098-3.546.744-.888 1.716-1.332 2.916-1.332 1.104 0 1.956.414 2.556 1.242zm-3.87 3.564c0 .828.15 1.512.45 2.052.3.54.762.81 1.386.81a1.83 1.83 0 001.008-.288c.3-.192.528-.438.684-.738.288-.552.432-1.266.432-2.142 0-.876-.18-1.554-.54-2.034-.348-.48-.828-.72-1.44-.72-.42 0-.774.114-1.062.342-.276.216-.48.504-.612.864-.12.36-.204.684-.252.972a7.105 7.105 0 00-.054.882zM45.203 18v-6.858c0-.696-.042-1.452-.126-2.268h2.502l.054 1.746c.108-.252.216-.462.324-.63.12-.168.294-.354.522-.558.228-.216.534-.372.918-.468a4.61 4.61 0 011.332-.108v2.394c-.636-.06-1.164-.036-1.584.072-.408.108-.702.294-.882.558a2.246 2.246 0 00-.324.756 4.415 4.415 0 00-.072.882V18h-2.664zm14.924-3.87h-6.102c0 1.62.618 2.43 1.854 2.43.852 0 1.38-.42 1.584-1.26h2.43c-.06.78-.348 1.44-.864 1.98-.672.708-1.734 1.062-3.186 1.062-1.404 0-2.472-.378-3.204-1.134-.78-.816-1.17-1.998-1.17-3.546 0-1.992.63-3.426 1.89-4.302.756-.504 1.608-.756 2.556-.756a4.45 4.45 0 012.106.522c.66.336 1.182.894 1.566 1.674.42.864.6 1.974.54 3.33zm-6.012-1.674h3.294c0-.18-.012-.348-.036-.504a3.407 3.407 0 00-.18-.648 1.15 1.15 0 00-.486-.63c-.228-.168-.522-.252-.882-.252-.552 0-.972.192-1.26.576-.276.384-.426.87-.45 1.458zM61.92 18v-7.47c0-.684-.018-1.236-.054-1.656h2.556l.072 1.368c.648-1.056 1.632-1.584 2.952-1.584.792 0 1.41.18 1.854.54.456.348.762.738.918 1.17.168.468.252 1.374.252 2.718V18h-2.718v-5.652c0-.468-.048-.798-.144-.99-.252-.516-.684-.774-1.296-.774s-1.074.234-1.386.702c-.216.312-.324.774-.324 1.386V18H61.92zM77.808 7.326V5.004h2.844v2.322h-2.844zM77.898 18V8.892h2.665V18h-2.665zm5.046 0v-7.47c0-.684-.018-1.236-.054-1.656h2.556l.072 1.368c.648-1.056 1.632-1.584 2.952-1.584.792 0 1.41.18 1.854.54.456.348.762.738.918 1.17.168.468.252 1.374.252 2.718V18h-2.718v-5.652c0-.468-.048-.798-.144-.99-.252-.516-.684-.774-1.296-.774s-1.074.234-1.386.702c-.216.312-.324.774-.324 1.386V18h-2.682zM102.54 4.986h3.312L110.37 18h-2.808l-.936-2.808h-5.148L100.506 18h-2.664l4.698-13.014zm-.342 8.1h3.726l-1.8-5.544-1.926 5.544zM112.092 18v-7.2h-1.35V8.91h1.35V7.668c0-.912.222-1.62.666-2.124.444-.516 1.266-.774 2.466-.774.456 0 .936.03 1.44.09v1.854a5.33 5.33 0 00-.558-.054c-.324 0-.588.036-.792.108a.768.768 0 00-.414.324c-.072.144-.12.264-.144.36a3.374 3.374 0 00-.018.396V8.91h1.692v1.89h-1.692V18h-2.646zm11.934-9.054h2.502c-.084.84-.126 1.59-.126 2.25v6.714c0 2.448-1.512 3.672-4.536 3.672-2.544 0-3.876-.972-3.996-2.916h2.556c.108.84.636 1.26 1.584 1.26.42 0 .78-.102 1.08-.306.3-.204.492-.498.576-.882.072-.288.114-1.008.126-2.16-.624.828-1.44 1.242-2.448 1.242-1.224 0-2.172-.444-2.844-1.332-.66-.888-.99-1.932-.99-3.132 0-1.236.336-2.292 1.008-3.168.684-.888 1.644-1.332 2.88-1.332 1.104 0 1.95.432 2.538 1.296l.09-1.206zm-3.852 4.41c0 .228.012.444.036.648.024.192.084.468.18.828.096.348.276.63.54.846.276.216.618.324 1.026.324.432 0 .786-.108 1.062-.324.288-.216.48-.498.576-.846a5.53 5.53 0 00.198-.828c.024-.192.036-.39.036-.594 0-1.848-.606-2.772-1.818-2.772-.54 0-.984.222-1.332.666-.336.444-.504 1.128-.504 2.052zM128.982 18V5.004h2.646v5.148c.648-.912 1.524-1.368 2.628-1.368 1.128 0 2.01.408 2.646 1.224.396.552.594 1.374.594 2.466V18h-2.646v-5.436c0-1.32-.498-1.98-1.494-1.98-.456 0-.858.15-1.206.45-.336.288-.504.756-.504 1.404l.018 5.562h-2.682zm18.798 0h-2.412a7.836 7.836 0 01-.09-1.242c-.672.972-1.578 1.458-2.718 1.458-1.008 0-1.764-.24-2.268-.72-.528-.528-.792-1.194-.792-1.998 0-1.296.642-2.238 1.926-2.826.744-.336 1.944-.504 3.6-.504 0-.552-.042-.954-.126-1.206-.18-.504-.576-.756-1.188-.756-.444 0-.78.168-1.008.504-.132.204-.198.474-.198.81h-2.61c.036-.96.378-1.674 1.026-2.142.684-.492 1.602-.738 2.754-.738 1.488 0 2.568.39 3.24 1.17.42.504.63 1.248.63 2.232l.018 3.654c0 .864.072 1.632.216 2.304zm-2.754-4.284c-.876-.072-1.584.024-2.124.288-.54.264-.81.66-.81 1.188 0 .336.114.636.342.9.228.264.546.396.954.396.456 0 .834-.174 1.134-.522a1.93 1.93 0 00.414-.882c.06-.336.09-.792.09-1.368zM149.952 18v-7.47c0-.684-.018-1.236-.054-1.656h2.556l.072 1.368c.648-1.056 1.632-1.584 2.952-1.584.792 0 1.41.18 1.854.54.456.348.762.738.918 1.17.168.468.252 1.374.252 2.718V18h-2.718v-5.652c0-.468-.048-.798-.144-.99-.252-.516-.684-.774-1.296-.774s-1.074.234-1.386.702c-.216.312-.324.774-.324 1.386V18h-2.682zM160.83 7.326V5.004h2.844v2.322h-2.844zM160.92 18V8.892h2.664V18h-2.664zm4.362-2.628h2.502c.024.336.156.63.396.882.24.24.612.36 1.116.36.444 0 .786-.102 1.026-.306.252-.216.378-.474.378-.774 0-.228-.09-.42-.27-.576-.168-.168-.498-.318-.99-.45l-1.656-.45a7.928 7.928 0 01-.702-.234 6.971 6.971 0 01-.702-.396 1.778 1.778 0 01-.666-.756c-.156-.324-.234-.702-.234-1.134 0-.876.366-1.566 1.098-2.07.732-.516 1.692-.774 2.88-.774.984 0 1.794.228 2.43.684.648.456.99 1.122 1.026 1.998h-2.43c-.048-.72-.48-1.08-1.296-1.08-.372 0-.678.084-.918.252a.743.743 0 00-.342.648c0 .276.09.474.27.594.18.108.504.228.972.36l1.638.45c1.62.444 2.43 1.29 2.43 2.538 0 .852-.366 1.59-1.098 2.214-.72.612-1.746.918-3.078.918-1.368 0-2.406-.372-3.114-1.116-.408-.432-.63-1.026-.666-1.782zm14.994.756v1.746a7.892 7.892 0 01-2.07.288c-.504 0-.942-.066-1.314-.198-.36-.132-.624-.276-.792-.432a1.576 1.576 0 01-.396-.63c-.096-.276-.15-.486-.162-.63a6.98 6.98 0 01-.018-.558v-4.986h-1.746V8.964h1.746V7.182l2.646-.972v2.754h2.16v1.764h-2.16v4.104c0 .264.006.456.018.576.024.12.072.252.144.396a.613.613 0 00.36.306c.168.048.396.072.684.072.276 0 .576-.018.9-.054zM189.792 18h-2.412a7.836 7.836 0 01-.09-1.242c-.672.972-1.578 1.458-2.718 1.458-1.008 0-1.764-.24-2.268-.72-.528-.528-.792-1.194-.792-1.998 0-1.296.642-2.238 1.926-2.826.744-.336 1.944-.504 3.6-.504 0-.552-.042-.954-.126-1.206-.18-.504-.576-.756-1.188-.756-.444 0-.78.168-1.008.504-.132.204-.198.474-.198.81h-2.61c.036-.96.378-1.674 1.026-2.142.684-.492 1.602-.738 2.754-.738 1.488 0 2.568.39 3.24 1.17.42.504.63 1.248.63 2.232l.018 3.654c0 .864.072 1.632.216 2.304zm-2.754-4.284c-.876-.072-1.584.024-2.124.288-.54.264-.81.66-.81 1.188 0 .336.114.636.342.9.228.264.546.396.954.396.456 0 .834-.174 1.134-.522a1.93 1.93 0 00.414-.882c.06-.336.09-.792.09-1.368zM191.964 18v-7.47c0-.684-.018-1.236-.054-1.656h2.556l.072 1.368c.648-1.056 1.632-1.584 2.952-1.584.792 0 1.41.18 1.854.54.456.348.762.738.918 1.17.168.468.252 1.374.252 2.718V18h-2.718v-5.652c0-.468-.048-.798-.144-.99-.252-.516-.684-.774-1.296-.774s-1.074.234-1.386.702c-.216.312-.324.774-.324 1.386V18h-2.682zm23.843 0h-2.412a7.836 7.836 0 01-.09-1.242c-.672.972-1.578 1.458-2.718 1.458-1.008 0-1.764-.24-2.268-.72-.528-.528-.792-1.194-.792-1.998 0-1.296.642-2.238 1.926-2.826.744-.336 1.944-.504 3.6-.504 0-.552-.042-.954-.126-1.206-.18-.504-.576-.756-1.188-.756-.444 0-.78.168-1.008.504-.132.204-.198.474-.198.81h-2.61c.036-.96.378-1.674 1.026-2.142.684-.492 1.602-.738 2.754-.738 1.488 0 2.568.39 3.24 1.17.42.504.63 1.248.63 2.232l.018 3.654c0 .864.072 1.632.216 2.304zm-2.754-4.284c-.876-.072-1.584.024-2.124.288-.54.264-.81.66-.81 1.188 0 .336.114.636.342.9.228.264.546.396.954.396.456 0 .834-.174 1.134-.522a1.93 1.93 0 00.414-.882c.06-.336.09-.792.09-1.368zm4.89 4.284v-6.858c0-.696-.042-1.452-.126-2.268h2.502l.054 1.746c.108-.252.216-.462.324-.63.12-.168.294-.354.522-.558.228-.216.534-.372.918-.468a4.61 4.61 0 011.332-.108v2.394c-.636-.06-1.164-.036-1.584.072-.408.108-.702.294-.882.558a2.246 2.246 0 00-.324.756 4.415 4.415 0 00-.072.882V18h-2.664zm14.924-3.87h-6.102c0 1.62.618 2.43 1.854 2.43.852 0 1.38-.42 1.584-1.26h2.43c-.06.78-.348 1.44-.864 1.98-.672.708-1.734 1.062-3.186 1.062-1.404 0-2.472-.378-3.204-1.134-.78-.816-1.17-1.998-1.17-3.546 0-1.992.63-3.426 1.89-4.302.756-.504 1.608-.756 2.556-.756a4.45 4.45 0 012.106.522c.66.336 1.182.894 1.566 1.674.42.864.6 1.974.54 3.33zm-6.012-1.674h3.294c0-.18-.012-.348-.036-.504a3.407 3.407 0 00-.18-.648 1.15 1.15 0 00-.486-.63c-.228-.168-.522-.252-.882-.252-.552 0-.972.192-1.26.576-.276.384-.426.87-.45 1.458zM1.35 37v-7.2H0v-1.89h1.35v-1.242c0-.912.222-1.62.666-2.124.444-.516 1.266-.774 2.466-.774.456 0 .936.03 1.44.09v1.854a5.33 5.33 0 00-.558-.054c-.324 0-.588.036-.792.108a.768.768 0 00-.414.324c-.072.144-.12.264-.144.36a3.374 3.374 0 00-.018.396v1.062h1.692v1.89H3.996V37H1.35zm13.68 0h-2.412a7.836 7.836 0 01-.09-1.242c-.672.972-1.578 1.458-2.718 1.458-1.008 0-1.764-.24-2.268-.72-.528-.528-.792-1.194-.792-1.998 0-1.296.642-2.238 1.926-2.826.744-.336 1.944-.504 3.6-.504 0-.552-.042-.954-.126-1.206-.18-.504-.576-.756-1.188-.756-.444 0-.78.168-1.008.504-.132.204-.198.474-.198.81h-2.61c.036-.96.378-1.674 1.026-2.142.684-.492 1.602-.738 2.754-.738 1.488 0 2.568.39 3.24 1.17.42.504.63 1.248.63 2.232l.018 3.654c0 .864.072 1.632.216 2.304zm-2.754-4.284c-.876-.072-1.584.024-2.124.288-.54.264-.81.66-.81 1.188 0 .336.114.636.342.9.228.264.546.396.954.396.456 0 .834-.174 1.134-.522a1.93 1.93 0 00.414-.882c.06-.336.09-.792.09-1.368zm12.306-1.584h-2.61c-.12-1.116-.51-1.674-1.17-1.674-.936 0-1.404.966-1.404 2.898 0 1.38.222 2.31.666 2.79a.948.948 0 001.008.252c.108-.036.234-.102.378-.198.144-.108.264-.288.36-.54.108-.264.174-.582.198-.954h2.628c-.06 1.176-.45 2.07-1.17 2.682-.66.564-1.524.846-2.592.846-1.356 0-2.388-.402-3.096-1.206-.768-.888-1.152-2.082-1.152-3.582 0-.78.108-1.47.324-2.07.228-.6.498-1.062.81-1.386.324-.324.69-.582 1.098-.774.42-.204.786-.336 1.098-.396.324-.06.63-.09.918-.09.972 0 1.83.282 2.574.846.744.564 1.122 1.416 1.134 2.556zm1.494-4.806v-2.322h2.844v2.322h-2.844zM26.166 37v-9.108h2.664V37h-2.664zm5.046 0v-7.47c0-.684-.018-1.236-.054-1.656h2.556l.072 1.368c.648-1.056 1.632-1.584 2.952-1.584.792 0 1.41.18 1.854.54.456.348.762.738.918 1.17.168.468.252 1.374.252 2.718V37h-2.718v-5.652c0-.468-.048-.798-.144-.99-.252-.516-.684-.774-1.296-.774s-1.074.234-1.386.702c-.216.312-.324.774-.324 1.386V37h-2.682zM48.3 27.946h2.502c-.084.84-.126 1.59-.126 2.25v6.714c0 2.448-1.512 3.672-4.536 3.672-2.544 0-3.876-.972-3.996-2.916H44.7c.108.84.636 1.26 1.584 1.26.42 0 .78-.102 1.08-.306.3-.204.492-.498.576-.882.072-.288.114-1.008.126-2.16-.624.828-1.44 1.242-2.448 1.242-1.224 0-2.172-.444-2.844-1.332-.66-.888-.99-1.932-.99-3.132 0-1.236.336-2.292 1.008-3.168.684-.888 1.644-1.332 2.88-1.332 1.104 0 1.95.432 2.538 1.296l.09-1.206zm-3.852 4.41c0 .228.012.444.036.648.024.192.084.468.18.828.096.348.276.63.54.846.276.216.618.324 1.026.324.432 0 .786-.108 1.062-.324.288-.216.48-.498.576-.846a5.53 5.53 0 00.198-.828c.024-.192.036-.39.036-.594 0-1.848-.606-2.772-1.818-2.772-.54 0-.984.222-1.332.666-.336.444-.504 1.128-.504 2.052zm21.161-1.224H63c-.12-1.116-.51-1.674-1.17-1.674-.936 0-1.404.966-1.404 2.898 0 1.38.222 2.31.666 2.79a.948.948 0 001.008.252c.108-.036.234-.102.378-.198.144-.108.264-.288.36-.54.108-.264.174-.582.198-.954h2.628c-.06 1.176-.45 2.07-1.17 2.682-.66.564-1.524.846-2.592.846-1.356 0-2.388-.402-3.096-1.206-.768-.888-1.152-2.082-1.152-3.582 0-.78.108-1.47.324-2.07.228-.6.498-1.062.81-1.386.324-.324.69-.582 1.098-.774.42-.204.786-.336 1.098-.396.324-.06.63-.09.918-.09.972 0 1.83.282 2.574.846.744.564 1.122 1.416 1.134 2.556zM67.265 37V24.004h2.646v5.148c.648-.912 1.524-1.368 2.628-1.368 1.128 0 2.01.408 2.646 1.224.396.552.594 1.374.594 2.466V37h-2.646v-5.436c0-1.32-.498-1.98-1.494-1.98-.456 0-.858.15-1.206.45-.336.288-.504.756-.504 1.404L69.947 37h-2.682zm18.798 0h-2.412a7.836 7.836 0 01-.09-1.242c-.672.972-1.578 1.458-2.718 1.458-1.008 0-1.764-.24-2.268-.72-.528-.528-.792-1.194-.792-1.998 0-1.296.642-2.238 1.926-2.826.744-.336 1.944-.504 3.6-.504 0-.552-.042-.954-.126-1.206-.18-.504-.576-.756-1.188-.756-.444 0-.78.168-1.008.504-.132.204-.198.474-.198.81h-2.61c.036-.96.378-1.674 1.026-2.142.684-.492 1.602-.738 2.754-.738 1.488 0 2.568.39 3.24 1.17.42.504.63 1.248.63 2.232l.018 3.654c0 .864.072 1.632.216 2.304zm-2.754-4.284c-.876-.072-1.584.024-2.124.288-.54.264-.81.66-.81 1.188 0 .336.114.636.342.9.228.264.546.396.954.396.456 0 .834-.174 1.134-.522a1.93 1.93 0 00.414-.882c.06-.336.09-.792.09-1.368zM88.2 37V23.986h2.664V37H88.2zm5.01 0V23.986h2.664V37H93.21zm13.254-3.87h-6.102c0 1.62.618 2.43 1.854 2.43.852 0 1.38-.42 1.584-1.26h2.43c-.06.78-.348 1.44-.864 1.98-.672.708-1.734 1.062-3.186 1.062-1.404 0-2.472-.378-3.204-1.134-.78-.816-1.17-1.998-1.17-3.546 0-1.992.63-3.426 1.89-4.302.756-.504 1.608-.756 2.556-.756a4.45 4.45 0 012.106.522c.66.336 1.182.894 1.566 1.674.42.864.6 1.974.54 3.33zm-6.012-1.674h3.294c0-.18-.012-.348-.036-.504a3.407 3.407 0 00-.18-.648 1.15 1.15 0 00-.486-.63c-.228-.168-.522-.252-.882-.252-.552 0-.972.192-1.26.576-.276.384-.426.87-.45 1.458zM108.257 37v-7.47c0-.684-.018-1.236-.054-1.656h2.556l.072 1.368c.648-1.056 1.632-1.584 2.952-1.584.792 0 1.41.18 1.854.54.456.348.762.738.918 1.17.168.468.252 1.374.252 2.718V37h-2.718v-5.652c0-.468-.048-.798-.144-.99-.252-.516-.684-.774-1.296-.774s-1.074.234-1.386.702c-.216.312-.324.774-.324 1.386V37h-2.682zm17.088-9.054h2.502c-.084.84-.126 1.59-.126 2.25v6.714c0 2.448-1.512 3.672-4.536 3.672-2.544 0-3.876-.972-3.996-2.916h2.556c.108.84.636 1.26 1.584 1.26.42 0 .78-.102 1.08-.306.3-.204.492-.498.576-.882.072-.288.114-1.008.126-2.16-.624.828-1.44 1.242-2.448 1.242-1.224 0-2.172-.444-2.844-1.332-.66-.888-.99-1.932-.99-3.132 0-1.236.336-2.292 1.008-3.168.684-.888 1.644-1.332 2.88-1.332 1.104 0 1.95.432 2.538 1.296l.09-1.206zm-3.852 4.41c0 .228.012.444.036.648.024.192.084.468.18.828.096.348.276.63.54.846.276.216.618.324 1.026.324.432 0 .786-.108 1.062-.324.288-.216.48-.498.576-.846a5.53 5.53 0 00.198-.828c.024-.192.036-.39.036-.594 0-1.848-.606-2.772-1.818-2.772-.54 0-.984.222-1.332.666-.336.444-.504 1.128-.504 2.052zm16.98.774h-6.102c0 1.62.618 2.43 1.854 2.43.852 0 1.38-.42 1.584-1.26h2.43c-.06.78-.348 1.44-.864 1.98-.672.708-1.734 1.062-3.186 1.062-1.404 0-2.472-.378-3.204-1.134-.78-.816-1.17-1.998-1.17-3.546 0-1.992.63-3.426 1.89-4.302.756-.504 1.608-.756 2.556-.756a4.45 4.45 0 012.106.522c.66.336 1.182.894 1.566 1.674.42.864.6 1.974.54 3.33zm-6.012-1.674h3.294c0-.18-.012-.348-.036-.504a3.407 3.407 0 00-.18-.648 1.15 1.15 0 00-.486-.63c-.228-.168-.522-.252-.882-.252-.552 0-.972.192-1.26.576-.276.384-.426.87-.45 1.458zm7.122 2.916h2.502c.024.336.156.63.396.882.24.24.612.36 1.116.36.444 0 .786-.102 1.026-.306.252-.216.378-.474.378-.774 0-.228-.09-.42-.27-.576-.168-.168-.498-.318-.99-.45l-1.656-.45a7.928 7.928 0 01-.702-.234 6.971 6.971 0 01-.702-.396 1.778 1.778 0 01-.666-.756c-.156-.324-.234-.702-.234-1.134 0-.876.366-1.566 1.098-2.07.732-.516 1.692-.774 2.88-.774.984 0 1.794.228 2.43.684.648.456.99 1.122 1.026 1.998h-2.43c-.048-.72-.48-1.08-1.296-1.08-.372 0-.678.084-.918.252a.743.743 0 00-.342.648c0 .276.09.474.27.594.18.108.504.228.972.36l1.638.45c1.62.444 2.43 1.29 2.43 2.538 0 .852-.366 1.59-1.098 2.214-.72.612-1.746.918-3.078.918-1.368 0-2.406-.372-3.114-1.116-.408-.432-.63-1.026-.666-1.782z" fill="#fff"/></svg>