<svg width="22" height="21" viewBox="0 0 22 21" fill="none" xmlns="http://www.w3.org/2000/svg"><path d="M19.035 9.483l-.423.263c-.198.121-.413.252-.475.292-.246.157-.337.213-.76.47-.24.148-.49.299-.551.34l-.218.138-1.177.73c-.2.118-.339.204-.56.344-.28.176-.278.17-.263.469.005.08.01.187.01.237a16.417 16.417 0 00.018.659c.004.175.012.379.015.453.003.075.006.177.006.227l.003.217a94.934 94.934 0 01.04 1.35c.004.075.006.166.007.205l.008.307c.006.13.008.288.01.352.006.154.01.315.015.476.003.075.006.161.005.193 0 .032.003.123.008.204l.008.176c.002.05-.046.035-.123-.036l-.385-.37a7.232 7.232 0 01-.313-.299c-.096-.092-.204-.195-.24-.232-.19-.177-.487-.458-.83-.786-.04-.04-.113-.108-.16-.155a9.05 9.05 0 01-.202-.192 7.54 7.54 0 00-.18-.171l-.153-.146-.26-.25a23.13 23.13 0 01-.288-.274c-.063-.062-.156-.147-.204-.193a.581.581 0 01-.097-.098c-.003-.008-.03-.027-.059-.04-.05-.023-.058-.02-.227.084a54.128 54.128 0 01-1.03.64c-.366.224-.714.438-.77.474-.057.037-.352.218-.656.405-.545.335-.726.446-.835.52-.03.02-.087.052-.124.073a65.13 65.13 0 01-.959.593c-.76.468-.866.535-1.1.683-.064.038-.183.113-.266.165-.084.052-.17.107-.193.124-.025.014-.046.019-.05.009-.003-.01.222-.442.498-.96.752-1.402.883-1.648 1.1-2.056l.357-.667c.088-.159.334-.62.55-1.023.214-.404.499-.932.632-1.177.132-.242.236-.453.23-.468-.004-.014-.067-.143-.067-.143l-.095-.119s-.009-.043-.247-.271c-.208-.195-.616-.587-.707-.672l-.17-.163a4.573 4.573 0 01-.16-.151c-.045-.045-.123-.116-.17-.163a6.508 6.508 0 00-.158-.149l-.17-.163c-.055-.051-.173-.165-.26-.249-.264-.248-.443-.42-.623-.592-.053-.051-.134-.128-.177-.172a70.096 70.096 0 01-.375-.357l-.49-.466-.523-.497-.177-.173a70.901 70.901 0 01-.375-.356c-.213-.205-.251-.24-.32-.304-.038-.038-.116-.111-.17-.163l-.707-.674c-.416-.396-.516-.495-.51-.508.004-.006.195.036.423.091.232.057.436.106.455.107a27.717 27.717 0 00.516.123c.288.069 2.207.531 2.286.552.02.007.16.04.308.075a717.434 717.434 0 003.01.726c.038.01.082.022.101.025.019 0 .444.103.944.225.5.122.927.214.947.203.039-.019.338-.564 1.15-2.091.114-.215.274-.514.357-.666l.521-.97c.76-1.415 1.073-2 1.26-2.35.107-.197.2-.348.211-.336.014.021.027.243.028.466 0 .05 0 .153.004.227.003.075.005.161.004.194.002.032.003.123.008.203.004.082.01.192.01.25.001.1.01.45.018.704l.005.193c0 .037.003.125.007.193.001.068.005.175.005.239.006.218.022.749.028.873l.003.217c0 .05.003.152.006.227.003.075.011.278.015.454l.015.441.003.217c0 .05.005.157.008.238.005.081.005.175.005.21-.001.032 0 .093.002.136.004.077.02.498.024.676 0 .093.005.202.015.476.011.342.021.495.032.5.021.01 2.121.52 2.24.544.034.005.544.129 1.132.273.59.143 1.1.266 1.139.272.084.015.089.036.017.089z" fill="#fff" opacity=".3"/></svg>