<svg width="27" height="27" viewBox="0 0 27 27" fill="none" xmlns="http://www.w3.org/2000/svg"><path d="M19.4 6.753c-.012.047-.084.302-.16.57-.078.264-.162.551-.184.636-.091.334-.126.457-.291 1.02-.093.322-.191.654-.213.74-.022.085-.06.217-.08.295-.068.243-.423 1.488-.45 1.582-.081.265-.134.451-.217.75-.105.38-.107.373.145.623.069.067.158.157.198.2.04.045.12.13.176.189.057.057.222.227.366.376.144.151.313.324.376.387.062.063.146.15.187.194.04.044.12.13.176.188a109.202 109.202 0 011.115 1.155c.062.062.136.141.168.174l.253.263c.11.11.237.247.29.301l.394.407c.062.063.133.137.158.166.027.027.1.106.17.173l.148.148c.042.042-.012.067-.137.066l-.633-.016a8.892 8.892 0 01-.513-.012c-.159-.006-.336-.01-.397-.013a114.02 114.02 0 01-1.356-.028c-.067-.003-.186-.004-.265-.007-.077 0-.226-.003-.33-.008a9.251 9.251 0 00-.295-.007c-.057 0-.171-.004-.251-.006a33.52 33.52 0 00-.428-.01 27.236 27.236 0 01-.472-.011c-.105-.005-.254-.005-.334-.007a.684.684 0 01-.163-.008c-.009-.005-.047 0-.084.01-.062.021-.067.03-.132.257-.038.13-.085.293-.103.365-.016.071-.148.53-.29 1.02-.141.49-.275.956-.296 1.033-.02.078-.134.473-.252.88-.21.73-.28.972-.317 1.123-.01.043-.034.117-.05.165a107.622 107.622 0 00-.788 2.768c-.025.084-.07.245-.101.357a6.31 6.31 0 00-.07.263c-.01.033-.025.054-.037.047-.01-.006-.159-.565-.33-1.24-.46-1.833-.542-2.154-.678-2.688-.07-.269-.167-.66-.22-.87-.05-.21-.202-.813-.336-1.339-.133-.526-.307-1.218-.385-1.54-.077-.317-.155-.586-.171-.595-.016-.01-.175-.071-.175-.071l-.177-.03s-.043-.03-.434-.04c-.338-.005-1.01-.023-1.158-.025l-.28-.008c-.066 0-.181-.001-.26-.005-.076-.002-.2-.003-.28-.007a8.063 8.063 0 00-.257-.004c-.065-.002-.192-.004-.28-.008-.09 0-.283-.006-.428-.01-.429-.008-.724-.015-1.018-.022-.088-.004-.221-.006-.294-.01-.127-.002-.34-.006-.614-.014-.147-.005-.274-.007-.802-.019l-.857-.018c-.088-.003-.22-.006-.294-.01-.127-.002-.34-.006-.613-.013-.35-.01-.413-.01-.523-.012l-.28-.007-1.16-.027c-.681-.015-.848-.022-.854-.037 0-.01.2-.125.445-.26.249-.135.467-.255.484-.27a32.304 32.304 0 00.552-.304c.307-.17 2.361-1.297 2.447-1.343.024-.01.173-.093.331-.18a861.919 861.919 0 003.221-1.769c.042-.02.09-.045.109-.058.017-.014.472-.264 1.008-.557.536-.293.985-.553.993-.578.02-.048-.154-.767-.661-2.758-.073-.28-.171-.67-.22-.87l-.317-1.269c-.466-1.85-.657-2.615-.774-3.072-.063-.26-.102-.467-.083-.464.029.007.219.192.397.387.04.044.123.134.185.196.063.063.134.137.159.167.026.027.1.105.17.172.068.07.16.162.207.212.082.086.37.387.58.604l.158.166.16.164c.055.059.144.149.195.205l.723.746.175.188c.04.044.125.131.188.194.062.063.232.236.375.387.145.15.31.32.367.376l.176.188c.04.044.129.135.197.204.069.066.144.149.171.18.025.029.075.082.112.117.064.065.415.422.56.575.075.082.166.173.394.406.284.292.414.419.428.415a234.76 234.76 0 002.4-1.314c.034-.022.58-.321 1.212-.665a81.734 81.734 0 001.217-.671c.085-.055.107-.04.086.064z" fill="#fff" opacity=".34"/></svg>