<svg width="66" height="66" viewBox="0 0 66 66" fill="none" xmlns="http://www.w3.org/2000/svg"><path fill="#1CABE2" d="M0 0h66v66H0z"/><path d="M10.16 55.07v-3.784h-.852v-.465h.852v-.905c0-.728.294-1.057 1.02-1.057.163.014.324.045.482.092v.407a1.857 1.857 0 00-.312-.034c-.692 0-.71.347-.684.955v.542h.965v.465h-.965v3.78l-.506.003zM15.758 52.946c0 1.116-.624 2.249-1.971 2.249s-1.973-1.13-1.973-2.25c0-1.119.624-2.248 1.968-2.248 1.344 0 1.971 1.13 1.971 2.249h.005zm-1.976-1.785c-1.02 0-1.424 1-1.424 1.785 0 .786.405 1.784 1.424 1.784 1.02 0 1.425-.998 1.425-1.784s-.405-1.785-1.425-1.785zM16.998 55.07h-.507v-3.29c0-.331-.024-.669-.041-.956h.522l.026.623h.016a1.092 1.092 0 01.952-.752c.16 0 .337 0 .506.008v.484c-.101-.008-.21-.034-.312-.034-.749 0-1.146.543-1.162 1.354v2.562zM20.927 53.06c.016.905.43 1.667 1.467 1.667a1.258 1.258 0 001.222-1.015h.53c-.26 1.015-.894 1.48-1.913 1.48-1.264 0-1.854-1.091-1.854-2.25 0-1.158.632-2.248 1.888-2.248 1.416 0 1.929 1.04 1.929 2.366h-3.269zm2.722-.464c-.06-.82-.497-1.438-1.374-1.438-.825 0-1.264.694-1.332 1.438h2.706zM24.88 50.824l1.457 3.543 1.407-3.543h.557l-1.677 4.245h-.574l-1.727-4.245h.556zM28.953 53.06c.017.905.43 1.667 1.467 1.667a1.258 1.258 0 001.222-1.015h.53c-.26 1.015-.894 1.48-1.913 1.48-1.264 0-1.854-1.091-1.854-2.25 0-1.158.632-2.248 1.888-2.248 1.416 0 1.93 1.04 1.93 2.366h-3.27zm2.723-.464c-.06-.82-.497-1.438-1.375-1.438-.825 0-1.264.694-1.331 1.438h2.706zM33.515 55.07h-.505v-3.29c0-.331-.026-.669-.042-.956h.523l.024.625h.017a1.09 1.09 0 01.952-.752c.17 0 .338 0 .507.008v.484c-.102-.008-.212-.034-.312-.034-.751 0-1.147.542-1.164 1.354v2.56zM36.076 50.824l1.425 3.551 1.416-3.55h.547l-2.333 5.867h-.557l.64-1.623-1.752-4.245h.614zM44.284 52.126c-.042-.645-.455-.968-1.155-.968-.774 0-1.255.807-1.255 1.775 0 .968.482 1.792 1.255 1.792.658 0 1.113-.406 1.155-.989h.548c-.135.969-.691 1.453-1.651 1.453-1.265 0-1.854-1.091-1.854-2.25 0-1.158.632-2.249 1.886-2.249.868 0 1.577.525 1.62 1.43l-.55.006zM46.043 51.466h.017a1.45 1.45 0 011.324-.77c1.38 0 1.49 1.227 1.49 1.718v2.655h-.505v-2.743c0-.734-.421-1.166-1.112-1.166-.835 0-1.214.702-1.214 1.463v2.445h-.505v-6.104h.505v2.502zM50.28 49.598h-.59v-.634h.59v.634zm-.043 1.226v4.245h-.504v-4.245h.505zM51.731 55.07h-.506v-6.106h.506v6.105zM55.71 54.443l-.016-.034a1.723 1.723 0 01-1.447.786c-1.255 0-1.734-1.2-1.734-2.259 0-1.1.482-2.233 1.734-2.233a1.69 1.69 0 011.447.77l.017-.018v-2.484h.506v5.148c0 .33.024.668.042.956h-.523l-.025-.626v-.006zm-1.38-3.282c-.965 0-1.274.898-1.274 1.71 0 .785.228 1.86 1.198 1.86 1.103 0 1.447-.922 1.447-1.887 0-.861-.38-1.683-1.365-1.683h-.007zM9.382 46.17v-.257h46.837v.257H9.381zM50.2 31.314c-.875 0-1.729.26-2.455.748a4.43 4.43 0 00-1.625 1.99 4.448 4.448 0 00.96 4.831 4.414 4.414 0 004.814.96 4.421 4.421 0 001.982-1.633 4.444 4.444 0 00-.55-5.596 4.415 4.415 0 00-3.124-1.3H50.2zm3.445 1.96a6.087 6.087 0 01-.711.413 4.753 4.753 0 00-.527-.83c.18-.109.353-.232.514-.369.273.23.516.495.724.786zm-1.859-1.472c.354.145.687.337.99.57a3.977 3.977 0 01-.482.345 4.652 4.652 0 00-.727-.674c.081-.074.156-.155.224-.24h-.005zm.343 1.007a4.011 4.011 0 01-.745.312 6.633 6.633 0 00-.368-.723c.143-.063.278-.142.404-.236.258.189.496.405.709.646v.001zm-.523-1.074a1.64 1.64 0 01-.196.2 4.484 4.484 0 00-.74-.41c.32.033.633.103.936.21zm-.346.322a1.85 1.85 0 01-.337.19 6.453 6.453 0 00-.426-.596c.267.11.523.247.765.406h-.002zm-.964-.374c.164.2.317.408.456.626a1.763 1.763 0 01-.456.08v-.706zm0 .89c.189-.009.376-.043.556-.103.135.227.256.463.362.705-.3.078-.608.121-.918.128v-.733.004zm-.184-.882v.699a1.853 1.853 0 01-.45-.081c.139-.214.289-.42.45-.618zm-.636.557a1.787 1.787 0 01-.34-.19c.24-.16.496-.295.762-.404-.152.19-.293.388-.422.594zm.254-.721c-.261.114-.51.252-.746.413a2.076 2.076 0 01-.195-.2c.304-.108.62-.18.94-.213zm3.027 7.61c-.588-.323-.6-.773-.567-.938.032-.164.146-.095.218-.095.386 0 .793-.114 1.286-.627.565-.578.743-1.862-.125-2.701-.934-.902-1.93-.744-2.572.068a.972.972 0 01-.729.277c-.411-.014-.153.31-.153.378 0 .067-.062.116-.1.104-.137-.04-.083.162-.083.231a.093.093 0 01-.087.094c-.173 0-.125.161-.12.2a.16.16 0 01-.068.145.374.374 0 00-.12.273c0 .188.172.322.46.534a.685.685 0 01.321.564c-.001.183.027.365.084.54.077.188.067.533-.33.55-.482.019-1.344.408-1.416.433a1.709 1.709 0 01-.918.062 4.513 4.513 0 01-.433-.352.668.668 0 01.14-.547.752.752 0 00.537.161c.3-.022.597-.066.89-.13a.238.238 0 01.194 0c.254.092.6.12.74-.366.142-.486-.192-.35-.234-.323-.042.027-.1.014-.079-.026.063-.124-.03-.111-.083-.116a.63.63 0 00-.37.182.126.126 0 01-.135.037c-.18-.09-.716.04-.881-.251a10.08 10.08 0 00-.214-1.465.199.199 0 01.02-.192c.136-.207.512.014.715.01a.365.365 0 00.35-.191c.063-.08.111-.035.145-.058.034-.023 0-.087.02-.118.018-.03.033-.016.073-.052.04-.035 0-.116.016-.146.061-.092.225-.02.126-.257a.385.385 0 01.095-.366c.117-.161.574-.797-.23-1.467-.767-.637-1.544-.585-2.046-.042-.501.544-.249 1.341-.197 1.55a.442.442 0 01-.27.485 3.829 3.829 0 00-.687.484 4.245 4.245 0 01.75-2.326 4.223 4.223 0 011.905-1.524c.068.086.143.166.223.24-.177.13-.561.475-.561.475s.053.008.101.021l.106.03s.34-.29.499-.406c.124.095.259.175.402.237-.078.131-.27.496-.27.496l.085.053a.746.746 0 01.066.05s.21-.397.29-.53c.177.059.362.093.549.1v.732c-.105 0-.371-.015-.482-.026h-.068l.037.056c.027.04.05.08.07.123l.009.014h.018c.078 0 .321.017.413.018v1.33h.183v-.33c.27-.013.494-.03.765-.054h.012l.238-.21-.13.011c-.287.037-.538.055-.766.068h-.119v-.844a4.24 4.24 0 00.992-.139c.089.22.256.752.256.752l.173-.055s-.16-.529-.255-.748a4.35 4.35 0 00.792-.337c.204.248.38.519.525.806-.13.062-.369.145-.369.145.114.013.226.035.335.068l.11-.048.05.114.238.107-.027-.066-.098-.233c.255-.126.5-.269.736-.427a4.26 4.26 0 01-.983 5.708l.017.013zM45.38 32.493l-.069.062c-.258.229-.85.837-.758 1.503l.008.047.03.132.082-.075c.362-.333.635-.897.746-1.548l.03-.184-.068.063zM44.178 33.644l-.029.08a3.058 3.058 0 00-.16.657c-.057.44-.044 1.063.337 1.528l.042.055.045.056.056-.282c.063-.5-.021-1.547-.203-2.015l-.064-.162-.029.08.005.003zM43.739 35.446v.082c-.032.447-.01 1.554.883 2.14l.106.069v-.126c-.015-.42-.504-1.673-.87-2.122l-.103-.125v.082h-.016zM43.893 37.424l.015.076c.132.635.731 1.663 1.66 1.962l.125.041-.046-.125c-.173-.476-1.066-1.583-1.641-1.948l-.129-.082.016.076zM45.755 33.45l-.072.045c-.691.421-1.015.934-.989 1.567v.143l.1-.084c.373-.31.84-1.101.979-1.552l.05-.16-.074.044.006-.003zM45.35 34.83l-.053.048c-.177.161-.748.78-.7 1.534.01.127.037.252.08.371l.04.121.074-.103c.273-.387.643-1.405.615-1.878v-.144l-.051.05h-.005zM45.34 36.203a2.24 2.24 0 00-.426 1.277c.01.307.11.604.285.855l.06.09.05-.096c.125-.234.224-.997.21-1.599 0-.172-.022-.343-.063-.51l-.039-.134-.077.117zM45.713 37.546l-.017.06c-.084.26-.125.533-.12.807a1.595 1.595 0 00.77 1.362l.083.053.017-.113v-.09c-.012-.477-.366-1.677-.643-2.043l-.077-.1-.02.06.007.004zM44.74 39.405l.036.06c.373.626 1.003 1.432 2.183 1.224l.098-.016-.056-.084c-.22-.322-1.651-1.139-2.157-1.223l-.139-.022.036.061zM46.487 40.993l-.187.05.179.072c.749.308 1.69.4 2.236.216.185-.07.35-.184.482-.332.965.1 1.86.9 2.383 1.555l.03.033.04-.013a.628.628 0 00.188-.133l.035-.04-.032-.044a4.737 4.737 0 00-1.447-1.179c-.77-.377-2.13-.671-3.912-.185h.005zM46.525 38.99l.012.063c.112.71.398 1.641 1.593 1.538h.075l-.019-.074c-.08-.323-1.173-1.26-1.556-1.523l-.114-.06.01.063v-.007zM54.965 32.43l.032.184c.11.646.383 1.215.746 1.548l.082.075.029-.132a.62.62 0 01.01-.047c.09-.666-.502-1.274-.761-1.503l-.07-.062-.068-.063zM56.208 33.565l-.063.161c-.184.468-.267 1.515-.204 2.015l.057.282.044-.056.042-.055c.38-.465.394-1.087.337-1.528a3.195 3.195 0 00-.16-.656l-.031-.081-.029-.08.007-.002zM56.67 35.364l-.104.125c-.365.449-.854 1.703-.87 2.122v.126l.105-.07c.892-.585.915-1.692.884-2.139v-.164h-.015zM56.537 37.348l-.129.082c-.574.365-1.467 1.472-1.641 1.948l-.047.125.129-.041c.926-.299 1.527-1.327 1.658-1.962l.016-.076.014-.076zM54.62 33.377l.049.162c.129.453.58 1.253.947 1.571l.1.087.008-.145c.037-.63-.277-1.15-.965-1.586l-.072-.047-.066-.041zM55.013 34.784v.144c-.02.473.342 1.49.616 1.878l.074.103.04-.12c.043-.12.069-.245.079-.372.05-.755-.523-1.365-.7-1.534l-.051-.049-.053-.05h-.005zM54.998 36.086l-.04.134a2.096 2.096 0 00-.06.51c-.015.602.083 1.365.207 1.599l.051.097.061-.09c.175-.252.273-.55.283-.856a2.23 2.23 0 00-.426-1.277l-.037-.059-.039-.058zM54.682 37.487l-.078.1c-.276.366-.63 1.566-.643 2.042v.09l.02.114.083-.054a1.59 1.59 0 00.769-1.361 2.437 2.437 0 00-.12-.807l-.02-.06-.018-.06.007-.004zM55.71 39.347l-.138.023c-.506.083-1.939.895-2.159 1.222l-.054.084.097.017c1.18.208 1.81-.6 2.182-1.225l.036-.06.035-.061z" fill="#fff"/><path d="M50.016 41.178a4.737 4.737 0 00-1.44 1.18l-.033.043.037.04c.054.056.118.1.188.133l.04.013.028-.033c.524-.655 1.423-1.452 2.383-1.555.131.148.297.262.482.332.545.184 1.485.092 2.236-.216l.177-.072-.185-.05c-1.783-.485-3.143-.192-3.913.185zM53.899 38.927l-.114.06c-.383.263-1.476 1.2-1.557 1.523l-.02.074h.077c1.194.104 1.482-.827 1.594-1.537l.02-.126v.006zM23.364 31.627h1.512v1.381h-1.512v-1.38zm.12 9.68v-6.73h1.268V41.3l-1.269.006zM13.907 34.581h1.269v6.726h-1.233v-.992h-.028c-.506.844-1.361 1.192-2.297 1.192-1.4 0-2.203-1.072-2.203-2.42v-4.506h1.27v3.98c0 1.165.267 2.023 1.481 2.023.521 0 1.228-.267 1.495-.968.17-.51.255-1.043.254-1.58V34.58h-.008zM17.708 35.573h.027c.428-.843 1.362-1.192 2.03-1.192.467 0 2.537.12 2.537 2.278v4.648h-1.267v-4.233c0-1.112-.468-1.715-1.537-1.715-.459-.004-.9.174-1.229.495-.186.187-.534.484-.534 1.796v3.657h-1.268v-6.726h1.241v.992zM30.064 36.738c-.067-.839-.465-1.423-1.366-1.423-1.206 0-1.673 1.05-1.673 2.622 0 1.571.467 2.623 1.673 2.623.834 0 1.352-.543 1.418-1.505h1.262c-.108 1.505-1.222 2.42-2.695 2.42-2.135 0-2.984-1.517-2.984-3.488s.98-3.595 3.092-3.595c1.407 0 2.466.893 2.53 2.343l-1.257.003zM33.272 38.176c-.093 1.173.384 2.384 1.67 2.384.983 0 1.473-.385 1.618-1.36h1.328c-.2 1.52-1.367 2.278-2.959 2.278-2.135 0-2.985-1.516-2.985-3.488 0-1.971.982-3.594 3.091-3.594 1.99.042 2.932 1.303 2.932 3.155v.625h-4.695zm3.368-.878c.027-1.116-.482-1.983-1.698-1.983-1.05 0-1.67.89-1.67 1.983h3.368zM39.394 41.283v-5.808h-1.146v-.88h1.146v-1.437c.04-1.465 1.14-1.85 2.082-1.85.305.018.607.062.904.132v1.05c-.214-.011-.425-.04-.643-.04-.716 0-1.126.189-1.087.92v1.224h1.539v.881h-1.54v5.808h-1.255z" fill="#fff"/></svg>