<svg width="19" height="20" viewBox="0 0 19 20" fill="none" xmlns="http://www.w3.org/2000/svg"><path d="M15.982 13.501l-.466-.007c-.218-.005-.453-.011-.523-.01a30.047 30.047 0 01-.836-.016c-.264-.005-.537-.013-.606-.013l-.242-.001-1.296-.022c-.219-.008-.372-.011-.617-.014-.31-.002-.305-.005-.443.237a4.588 4.588 0 01-.113.192 14.904 14.904 0 00-.317.53c-.086.14-.183.304-.218.365-.035.06-.084.142-.11.182l-.106.173a90.28 90.28 0 01-.65 1.086l-.098.164-.148.246c-.062.106-.14.232-.17.283-.073.124-.152.253-.228.383-.036.06-.077.13-.094.155-.016.026-.06.098-.097.165l-.082.143c-.024.04-.054.005-.079-.091a281.31 281.31 0 01-.118-.487 6.955 6.955 0 01-.096-.395c-.028-.122-.062-.258-.072-.305-.06-.237-.153-.609-.258-1.042-.011-.052-.035-.143-.048-.204a8.297 8.297 0 01-.063-.254 7.447 7.447 0 00-.055-.227l-.047-.192c-.015-.064-.05-.211-.08-.33-.03-.117-.07-.28-.088-.362-.019-.081-.05-.195-.064-.256a.543.543 0 01-.028-.126c.003-.008-.009-.037-.025-.062-.028-.044-.036-.046-.222-.05a50.774 50.774 0 01-1.136-.02c-.401-.007-.784-.015-.847-.015-.063 0-.387-.006-.721-.014-.6-.012-.798-.017-.921-.014-.034.001-.096-.002-.135-.005-.04-.002-.1-.003-.136-.002-.034.001-.448-.006-.92-.017a86.014 86.014 0 00-1.214-.02l-.293-.005a4.863 4.863 0 00-.214 0c-.027-.002-.046-.01-.043-.019.002-.01.397-.236.876-.504 1.3-.724 1.528-.852 1.906-1.064.19-.107.47-.261.618-.344.15-.08.577-.32.95-.529a147.6 147.6 0 011.093-.606c.226-.124.414-.238.418-.252.004-.014.018-.148.018-.148l-.014-.141s.014-.039-.059-.34c-.065-.26-.19-.776-.218-.89l-.052-.215a4.462 4.462 0 01-.05-.2l-.052-.215a6.283 6.283 0 00-.05-.198l-.052-.215-.08-.329c-.082-.329-.137-.556-.192-.782-.016-.068-.041-.17-.053-.226a67.23 67.23 0 01-.116-.472l-.15-.617c-.125-.502-.13-.529-.163-.658l-.053-.226a66.096 66.096 0 01-.116-.472c-.065-.27-.077-.317-.099-.402-.012-.05-.036-.147-.051-.215-.029-.114-.154-.63-.218-.891-.13-.524-.158-.653-.148-.66a3.86 3.86 0 01.29.287c.153.162.29.305.304.315a25.973 25.973 0 00.345.36c.192.2 1.474 1.54 1.526 1.596.012.016.106.114.205.217l.205.214a675.34 675.34 0 001.804 1.887 42.127 42.127 0 01.699.728c.332.35.623.64.643.642.041.004.552-.273 1.964-1.066.198-.112.474-.266.617-.344.143-.078.548-.304.9-.5 1.314-.731 1.857-1.032 2.18-1.214.185-.101.334-.173.337-.158 0 .023-.102.206-.214.381a6.11 6.11 0 00-.111.182c-.035.06-.077.13-.094.155-.015.026-.06.098-.097.165-.038.066-.09.156-.118.2-.05.081-.219.362-.34.566l-.094.155c-.019.03-.06.1-.092.155-.034.055-.084.141-.117.192-.105.175-.36.602-.418.703l-.107.172c-.026.04-.075.122-.11.183-.035.06-.132.225-.217.365a16.861 16.861 0 01-.318.529c-.025.04-.076.126-.114.192-.037.066-.084.14-.102.167a1.902 1.902 0 00-.067.11c-.035.062-.236.402-.322.544-.047.074-.098.162-.228.384-.164.276-.233.401-.228.411a185.1 185.1 0 001.494 1.567c.024.021.364.377.756.79.392.413.734.77.76.794.06.054.053.073-.03.078z" fill="#fff" opacity=".2"/></svg>