<svg width="20" height="21" viewBox="0 0 20 21" fill="none" xmlns="http://www.w3.org/2000/svg"><path d="M16.355 7.951c-.023.027-.152.174-.289.327-.136.15-.283.314-.325.363-.168.193-.23.263-.52.584-.164.184-.336.373-.378.422-.042.05-.11.126-.148.17l-.805.907c-.139.15-.234.256-.384.429-.191.218-.19.213-.104.459.025.066.055.154.068.197a14.045 14.045 0 00.179.548c.046.146.104.315.125.377.021.062.05.146.062.189.012.042.038.124.056.18a87.296 87.296 0 01.37 1.124c.022.062.046.138.056.17l.084.255c.037.109.078.24.096.293l.13.396c.022.062.046.134.053.161.009.027.033.103.057.17l.05.145c.015.041-.029.04-.111 0a231.74 231.74 0 01-.543-.277 6.347 6.347 0 01-.209-.109l-.259-.135a85.996 85.996 0 01-.89-.453c-.044-.024-.123-.063-.174-.09a7.987 7.987 0 01-.217-.111 6.862 6.862 0 00-.193-.1l-.165-.083c-.053-.029-.18-.093-.28-.144-.102-.051-.241-.122-.31-.159-.068-.037-.167-.085-.22-.111a.499.499 0 01-.105-.058c-.004-.006-.031-.015-.059-.02-.048-.006-.054-.002-.17.128a47.98 47.98 0 01-.705.794l-.526.59c-.039.045-.24.271-.45.504-.373.417-.497.555-.57.644-.02.025-.06.066-.086.093a79.614 79.614 0 00-1.41 1.585l-.18.204a4.59 4.59 0 00-.131.152c-.017.019-.034.028-.04.02-.005-.008.076-.426.179-.929.281-1.364.33-1.603.41-2 .04-.202.102-.493.133-.649.035-.155.126-.604.206-.996.08-.392.187-.907.238-1.145.05-.236.084-.44.077-.45a3.461 3.461 0 00-.093-.104l-.109-.076s-.018-.033-.275-.166c-.222-.111-.662-.338-.76-.387l-.183-.095a4.169 4.169 0 01-.17-.086c-.05-.027-.133-.067-.184-.095a5.926 5.926 0 00-.17-.085c-.042-.022-.126-.064-.183-.095l-.28-.143c-.283-.143-.476-.242-.67-.342-.056-.03-.144-.074-.19-.1a60.53 60.53 0 01-.404-.206l-.526-.27c-.43-.217-.452-.23-.563-.286l-.191-.1a61.239 61.239 0 01-.403-.206c-.23-.119-.27-.139-.343-.175L2.147 9.4l-.76-.389C.939 8.783.83 8.725.832 8.713c.002-.007.172-.019.378-.03.208-.01.392-.02.407-.024a24.023 24.023 0 00.464-.025 689.27 689.27 0 012.054-.108c.019.001.145-.006.277-.013l.276-.015a624.312 624.312 0 002.428-.127 39.137 39.137 0 01.938-.051c.45-.023.83-.052.844-.066.028-.026.144-.558.444-2.042l.133-.648c.032-.149.12-.574.196-.943.284-1.378.402-1.947.471-2.287.041-.193.082-.343.094-.335.016.014.083.198.139.384.012.042.039.128.06.19.021.062.045.134.052.161.009.027.033.103.057.17.023.067.055.158.07.206.026.084.121.375.191.586l.052.161c.01.031.034.104.054.16.018.057.048.146.064.2l.24.725.056.182.062.189c.022.061.079.23.126.377l.122.367.057.18c.012.043.043.131.066.199.024.066.048.145.056.174.007.027.023.079.036.114.022.063.14.413.188.56.024.08.055.17.131.397.095.284.14.41.152.412.02.003 1.907-.093 2.013-.103.03-.004.487-.028 1.017-.054.53-.026.988-.05 1.022-.055.074-.01.083.008.036.07z" fill="#fff" opacity=".2"/></svg>