<svg width="29" height="29" viewBox="0 0 29 29" fill="none" xmlns="http://www.w3.org/2000/svg"><path d="M23.73 10.745c-.033.039-.218.248-.413.467-.195.215-.406.449-.466.52-.238.274-.327.375-.742.833-.235.263-.48.533-.54.603-.06.071-.156.18-.211.244l-1.15 1.294c-.198.214-.334.367-.55.613-.272.311-.27.304-.147.655.035.096.078.221.096.282l.08.259c.029.08.107.316.176.524.067.209.149.45.179.538.03.089.07.21.088.27l.081.26a121.608 121.608 0 01.529 1.604l.08.243c.013.043.068.207.119.364.053.155.112.343.137.419.061.182.123.375.187.565.03.089.064.191.074.23.013.038.047.147.082.242l.073.208c.02.059-.042.059-.16 0l-.593-.305a9.182 9.182 0 01-.481-.246c-.148-.078-.314-.163-.37-.194-.291-.144-.746-.376-1.273-.647-.062-.033-.175-.089-.247-.128a10.875 10.875 0 01-.31-.158 9.73 9.73 0 00-.277-.142l-.235-.12c-.076-.04-.256-.133-.4-.206a27.899 27.899 0 01-.442-.227c-.098-.052-.24-.12-.314-.159a.719.719 0 01-.15-.082c-.007-.009-.045-.022-.085-.028-.069-.01-.078-.003-.243.182a10.85 10.85 0 00-.264.3c-.049.06-.384.433-.743.834-.357.4-.698.78-.752.844-.055.064-.344.387-.642.719-.534.596-.711.793-.815.92-.028.036-.086.095-.122.133a82.155 82.155 0 01-.938 1.053c-.744.832-.847.95-1.076 1.21l-.259.293a6.58 6.58 0 00-.187.217c-.024.027-.048.04-.056.028-.007-.01.108-.608.255-1.326.402-1.95.471-2.291.587-2.859.057-.287.144-.703.19-.926.049-.221.18-.863.294-1.423.114-.56.266-1.295.34-1.636.072-.337.12-.627.11-.643-.011-.016-.133-.147-.133-.147l-.156-.109s-.026-.048-.393-.237c-.317-.16-.946-.484-1.085-.554l-.262-.135a5.855 5.855 0 01-.244-.124c-.071-.037-.19-.095-.262-.135a8.29 8.29 0 00-.242-.122c-.061-.03-.18-.091-.262-.135-.084-.041-.266-.135-.401-.205-.403-.204-.68-.345-.955-.487-.082-.044-.207-.107-.274-.144-.12-.06-.32-.162-.576-.294l-.751-.385c-.614-.311-.646-.329-.804-.409l-.274-.143c-.12-.06-.32-.162-.576-.294-.327-.17-.386-.199-.49-.25l-.261-.135c-.14-.07-.768-.395-1.087-.557-.64-.326-.794-.409-.793-.426.003-.01.247-.027.54-.042.298-.015.56-.029.582-.034a979.832 979.832 0 013.597-.19c.027.001.206-.009.396-.02a900.651 900.651 0 003.862-.203c.049 0 .106-.002.13-.005.022-.006.569-.035 1.21-.067.643-.032 1.187-.074 1.206-.094.04-.037.205-.797.635-2.917.06-.298.144-.713.19-.926l.28-1.348c.405-1.968.574-2.78.672-3.267.06-.275.117-.489.134-.478.024.02.12.282.199.549.018.06.055.183.086.271.03.089.064.191.074.23.012.038.047.147.082.242.033.096.079.227.099.295.038.12.174.536.274.838.025.081.059.184.074.23.013.044.048.148.076.228.026.082.069.208.092.285.084.26.293.89.343 1.037.026.082.063.198.08.259.019.06.059.182.09.27.03.088.111.33.178.538.069.208.148.445.176.525l.08.258c.018.06.061.187.094.283.035.095.069.208.08.25.01.039.034.112.052.162.032.09.2.59.269.801.033.113.078.24.187.566.135.407.201.586.216.59.029.003 2.726-.134 2.877-.148.042-.006.696-.04 1.452-.077a86.638 86.638 0 001.46-.08c.107-.012.12.012.052.101z" fill="#fff" opacity=".1"/></svg>