<svg width="42" height="43" viewBox="0 0 42 43" fill="none" xmlns="http://www.w3.org/2000/svg"><path d="M15.495 7.318c.055.053.351.349.66.66.305.31.635.647.735.743.39.382.532.524 1.18 1.186.37.374.752.766.852.862.1.096.254.25.344.337.282.281 1.722 1.728 1.83 1.838.303.315.518.532.867.876.441.436.43.434.966.277.145-.044.337-.098.429-.12l.393-.099c.122-.035.483-.133.798-.22.318-.081.686-.184.82-.222.135-.038.32-.088.412-.11.091-.021.27-.067.393-.099a176.159 176.159 0 012.443-.658c.134-.038.3-.08.37-.099.066-.016.316-.085.554-.148.237-.067.523-.139.638-.17.278-.077.57-.154.861-.233.135-.039.29-.08.35-.093.058-.015.223-.058.368-.102.147-.041.289-.083.317-.091.09-.026.084.068-.014.24-.115.198-.335.572-.508.865a3.639 3.639 0 00-.151.266c-.013.026-.127.218-.26.435-.129.215-.27.457-.321.54-.242.424-.628 1.087-1.08 1.856-.055.09-.148.255-.213.36-.06.108-.177.31-.264.453a15.07 15.07 0 00-.236.402c-.044.079-.137.234-.2.343-.068.112-.22.374-.343.585-.122.21-.291.502-.378.644-.087.142-.202.349-.265.458-.058.11-.119.209-.136.22-.014.008-.038.064-.05.124-.02.102-.012.116.25.38.149.152.338.342.425.422.084.078.613.613 1.179 1.187.564.57 1.103 1.113 1.193 1.2.091.089.547.549 1.017 1.025.842.853 1.12 1.135 1.3 1.302.052.045.135.137.189.195.053.058.138.144.191.193.05.045.635.632 1.298 1.304a169.747 169.747 0 001.712 1.72l.414.413c.13.13.268.266.307.3.038.038.055.075.037.086-.017.01-.899-.213-1.958-.495-2.875-.77-3.379-.902-4.216-1.124-.424-.11-1.038-.277-1.366-.364-.327-.092-1.272-.343-2.099-.562-.826-.219-1.91-.51-2.412-.65-.497-.136-.926-.234-.95-.219-.026.015-.233.187-.233.187l-.176.224s-.074.035-.389.57c-.266.463-.806 1.38-.923 1.583-.072.119-.173.293-.225.382-.05.091-.141.25-.207.356-.062.103-.16.276-.225.381-.062.104-.153.263-.203.355-.052.088-.153.262-.225.381-.07.123-.226.387-.342.585-.34.588-.576.99-.813 1.393-.072.119-.177.301-.238.4-.1.173-.27.465-.49.839-.12.199-.22.373-.642 1.096-.52.895-.549.94-.682 1.172-.072.12-.178.302-.239.4-.1.174-.27.465-.49.839-.282.477-.33.563-.417.715-.052.088-.153.262-.225.381-.117.203-.657 1.12-.927 1.585-.544.934-.681 1.158-.707 1.155-.013-.006-.018-.373-.015-.816a22.48 22.48 0 00.001-.876 1464.202 1464.202 0 01.036-5.418c.005-.04.005-.31.007-.596-.001-.288.002-.555.002-.594.005-.097.029-3.93.031-4.58l.007-.644a2.07 2.07 0 00.002-.195c-.006-.035-.001-.857.008-1.824.009-.967-.005-1.788-.032-1.819-.053-.063-1.173-.375-4.3-1.2-.44-.115-1.052-.278-1.366-.364-.314-.087-1.209-.325-1.987-.535-2.903-.776-4.1-1.098-4.819-1.288-.405-.111-.72-.216-.701-.241.032-.034.431-.155.836-.252.092-.022.279-.068.413-.106.135-.038.29-.08.35-.092.058-.015.223-.058.368-.102.147-.041.346-.1.45-.124.182-.047.815-.215 1.275-.34l.35-.092c.066-.016.226-.06.348-.095.124-.032.316-.086.433-.113.395-.105 1.355-.365 1.58-.428.123-.032.3-.078.393-.1.091-.022.276-.071.41-.11.135-.037.503-.14.82-.222.317-.086.677-.184.8-.22l.393-.098c.091-.022.283-.076.43-.117.146-.045.316-.086.38-.1.059-.012.17-.041.247-.064.138-.04.899-.25 1.22-.335.171-.04.367-.097.862-.233.619-.169.893-.253.898-.275.008-.043.043-4.105.036-4.332-.005-.064.003-1.05.014-2.188.012-1.14.017-2.128.012-2.2-.01-.16.027-.178.154-.07z" fill="#fff" opacity=".4"/></svg>