<svg width="160" height="80" viewBox="0 0 160 80" fill="none" xmlns="http://www.w3.org/2000/svg"><path d="M1.08 18V4.95h2.79V18H1.08zm10.446-1.872v1.746a7.892 7.892 0 01-2.07.288c-.504 0-.942-.066-1.314-.198-.36-.132-.624-.276-.792-.432a1.576 1.576 0 01-.396-.63c-.096-.276-.15-.486-.162-.63a6.98 6.98 0 01-.018-.558v-4.986H5.028V8.964h1.746V7.182L9.42 6.21v2.754h2.16v1.764H9.42v4.104c0 .264.006.456.018.576.024.12.072.252.144.396a.613.613 0 00.36.306c.168.048.396.072.684.072.276 0 .576-.018.9-.054zm1.884-6.21l-.486-4.464h2.394l-.486 4.464H13.41zm3.407 5.454h2.502c.024.336.156.63.396.882.24.24.612.36 1.116.36.444 0 .786-.102 1.026-.306.252-.216.378-.474.378-.774 0-.228-.09-.42-.27-.576-.168-.168-.498-.318-.99-.45l-1.656-.45a7.928 7.928 0 01-.702-.234 6.971 6.971 0 01-.702-.396 1.778 1.778 0 01-.666-.756c-.156-.324-.234-.702-.234-1.134 0-.876.366-1.566 1.098-2.07.732-.516 1.692-.774 2.88-.774.984 0 1.794.228 2.43.684.648.456.99 1.122 1.026 1.998h-2.43c-.048-.72-.48-1.08-1.296-1.08-.372 0-.678.084-.918.252a.743.743 0 00-.342.648c0 .276.09.474.27.594.18.108.504.228.972.36l1.638.45c1.62.444 2.43 1.29 2.43 2.538 0 .852-.366 1.59-1.098 2.214-.72.612-1.746.918-3.078.918-1.368 0-2.406-.372-3.114-1.116-.408-.432-.63-1.026-.666-1.782zm20.004.756v1.746a7.892 7.892 0 01-2.07.288c-.504 0-.942-.066-1.314-.198-.36-.132-.624-.276-.792-.432a1.576 1.576 0 01-.396-.63c-.096-.276-.15-.486-.162-.63a6.98 6.98 0 01-.018-.558v-4.986h-1.746V8.964h1.746V7.182l2.646-.972v2.754h2.16v1.764h-2.16v4.104c0 .264.006.456.018.576.024.12.072.252.144.396a.613.613 0 00.36.306c.168.048.396.072.684.072.276 0 .576-.018.9-.054zm1.56-8.802V5.004h2.844v2.322H38.38zM38.47 18V8.892h2.664V18H38.47zm5.064 0v-7.38c0-.504-.03-1.074-.09-1.71h2.574l.09 1.17c.66-.912 1.596-1.368 2.807-1.368 1.428 0 2.383.57 2.863 1.71.587-1.128 1.56-1.692 2.915-1.692 1.308 0 2.232.486 2.773 1.458.3.492.45 1.332.45 2.52V18h-2.683v-5.346c0-.396-.03-.726-.09-.99-.047-.264-.191-.504-.431-.72-.24-.228-.577-.342-1.008-.342-.313 0-.576.06-.792.18-.204.12-.366.264-.486.432-.108.156-.193.378-.252.666a7.155 7.155 0 00-.09.738c-.013.204-.019.48-.019.828V18h-2.681v-5.4c0-.252-.012-.462-.036-.63a3.349 3.349 0 00-.162-.612.94.94 0 00-.45-.558c-.217-.132-.498-.198-.846-.198-.396 0-.72.072-.972.216-.24.144-.408.348-.505.612a3.753 3.753 0 00-.162.63 4.027 4.027 0 00-.035.594V18h-2.682zm25.188-3.87H62.62c0 1.62.618 2.43 1.854 2.43.852 0 1.38-.42 1.584-1.26h2.43c-.06.78-.348 1.44-.864 1.98-.672.708-1.734 1.062-3.186 1.062-1.404 0-2.472-.378-3.204-1.134-.78-.816-1.17-1.998-1.17-3.546 0-1.992.63-3.426 1.89-4.302.756-.504 1.608-.756 2.556-.756a4.45 4.45 0 012.106.522c.66.336 1.182.894 1.566 1.674.42.864.6 1.974.54 3.33zm-6.012-1.674h3.294c0-.18-.012-.348-.036-.504a3.407 3.407 0 00-.18-.648 1.15 1.15 0 00-.486-.63c-.228-.168-.522-.252-.882-.252-.552 0-.972.192-1.26.576-.276.384-.426.87-.45 1.458zm18.125 3.672v1.746a7.892 7.892 0 01-2.07.288c-.504 0-.942-.066-1.314-.198-.36-.132-.624-.276-.792-.432a1.576 1.576 0 01-.396-.63c-.096-.276-.15-.486-.162-.63a6.98 6.98 0 01-.018-.558v-4.986h-1.746V8.964h1.746V7.182l2.646-.972v2.754h2.16v1.764h-2.16v4.104c0 .264.006.456.018.576.024.12.072.252.144.396a.613.613 0 00.36.306c.168.048.396.072.684.072.276 0 .576-.018.9-.054zm1.236-2.592c0-.588.078-1.152.234-1.692.168-.54.42-1.05.756-1.53.348-.492.84-.882 1.476-1.17.636-.3 1.38-.45 2.232-.45 1.56 0 2.736.456 3.528 1.368.792.9 1.188 2.034 1.188 3.402 0 1.38-.408 2.538-1.224 3.474-.804.924-1.986 1.386-3.546 1.386-1.356 0-2.472-.414-3.348-1.242-.864-.828-1.296-2.01-1.296-3.546zm2.736.018c0 1.944.666 2.916 1.998 2.916.636 0 1.122-.234 1.458-.702.336-.468.504-1.272.504-2.412 0-1.92-.666-2.88-1.998-2.88-1.308 0-1.962 1.026-1.962 3.078zM7.182 29.026v-5.022h2.682v11.52c0 .528.024 1.02.072 1.476h-2.7l-.072-1.314c-.252.456-.558.798-.918 1.026-.48.312-1.068.468-1.764.468-1.212 0-2.16-.396-2.844-1.188-.684-.804-1.026-1.914-1.026-3.33 0-1.488.366-2.67 1.098-3.546.744-.888 1.716-1.332 2.916-1.332 1.104 0 1.956.414 2.556 1.242zm-3.87 3.564c0 .828.15 1.512.45 2.052.3.54.762.81 1.386.81a1.83 1.83 0 001.008-.288c.3-.192.528-.438.684-.738.288-.552.432-1.266.432-2.142 0-.876-.18-1.554-.54-2.034-.348-.48-.828-.72-1.44-.72-.42 0-.774.114-1.062.342-.276.216-.48.504-.612.864-.12.36-.204.684-.252.972a7.105 7.105 0 00-.054.882zm8.448-.054c0-.588.078-1.152.234-1.692.168-.54.42-1.05.756-1.53.348-.492.84-.882 1.476-1.17.636-.3 1.38-.45 2.232-.45 1.56 0 2.736.456 3.528 1.368.792.9 1.188 2.034 1.188 3.402 0 1.38-.408 2.538-1.224 3.474-.804.924-1.986 1.386-3.546 1.386-1.356 0-2.472-.414-3.348-1.242-.864-.828-1.296-2.01-1.296-3.546zm2.736.018c0 1.944.666 2.916 1.998 2.916.636 0 1.122-.234 1.458-.702.336-.468.504-1.272.504-2.412 0-1.92-.666-2.88-1.998-2.88-1.308 0-1.962 1.026-1.962 3.078zM23.214 37v-7.47c0-.684-.018-1.236-.054-1.656h2.556l.072 1.368c.648-1.056 1.632-1.584 2.952-1.584.792 0 1.41.18 1.854.54.456.348.762.738.918 1.17.168.468.252 1.374.252 2.718V37h-2.718v-5.652c0-.468-.048-.798-.144-.99-.252-.516-.684-.774-1.296-.774s-1.074.234-1.386.702c-.216.312-.324.774-.324 1.386V37h-2.682zm18.834 0h-2.412a7.836 7.836 0 01-.09-1.242c-.672.972-1.578 1.458-2.718 1.458-1.008 0-1.764-.24-2.268-.72-.528-.528-.792-1.194-.792-1.998 0-1.296.642-2.238 1.926-2.826.744-.336 1.944-.504 3.6-.504 0-.552-.042-.954-.126-1.206-.18-.504-.576-.756-1.188-.756-.444 0-.78.168-1.008.504-.132.204-.198.474-.198.81h-2.61c.036-.96.378-1.674 1.026-2.142.684-.492 1.602-.738 2.754-.738 1.488 0 2.568.39 3.24 1.17.42.504.63 1.248.63 2.232l.018 3.654c0 .864.072 1.632.216 2.304zm-2.754-4.284c-.876-.072-1.584.024-2.124.288-.54.264-.81.66-.81 1.188 0 .336.114.636.342.9.228.264.546.396.954.396.456 0 .834-.174 1.134-.522a1.93 1.93 0 00.414-.882c.06-.336.09-.792.09-1.368zm10.236 2.412v1.746a7.892 7.892 0 01-2.07.288c-.504 0-.942-.066-1.314-.198-.36-.132-.624-.276-.792-.432a1.576 1.576 0 01-.396-.63c-.096-.276-.15-.486-.162-.63a6.98 6.98 0 01-.018-.558v-4.986h-1.746v-1.764h1.746v-1.782l2.646-.972v2.754h2.16v1.764h-2.16v4.104c0 .264.006.456.018.576.024.12.072.252.144.396a.613.613 0 00.36.306c.168.048.396.072.684.072.276 0 .576-.018.9-.054zm9.894-1.998h-6.102c0 1.62.618 2.43 1.854 2.43.852 0 1.38-.42 1.584-1.26h2.43c-.06.78-.348 1.44-.864 1.98-.672.708-1.734 1.062-3.186 1.062-1.404 0-2.472-.378-3.204-1.134-.78-.816-1.17-1.998-1.17-3.546 0-1.992.63-3.426 1.89-4.302.756-.504 1.608-.756 2.556-.756a4.45 4.45 0 012.106.522c.66.336 1.182.894 1.566 1.674.42.864.6 1.974.54 3.33zm-6.012-1.674h3.294c0-.18-.012-.348-.036-.504a3.407 3.407 0 00-.18-.648 1.15 1.15 0 00-.486-.63c-.228-.168-.522-.252-.882-.252-.552 0-.972.192-1.26.576-.276.384-.426.87-.45 1.458zm11.861-3.546h2.88l1.998 6.3 2.035-6.3h2.645l-3.438 8.928-1.097 3.618h-2.683l1.153-3.42-3.493-9.126zm10.506 4.626c0-.588.078-1.152.234-1.692.168-.54.42-1.05.756-1.53.348-.492.84-.882 1.476-1.17.636-.3 1.38-.45 2.232-.45 1.56 0 2.736.456 3.528 1.368.792.9 1.188 2.034 1.188 3.402 0 1.38-.408 2.538-1.224 3.474-.804.924-1.986 1.386-3.546 1.386-1.356 0-2.472-.414-3.348-1.242-.864-.828-1.296-2.01-1.296-3.546zm2.736.018c0 1.944.666 2.916 1.998 2.916.636 0 1.122-.234 1.458-.702.336-.468.504-1.272.504-2.412 0-1.92-.666-2.88-1.998-2.88-1.308 0-1.962 1.026-1.962 3.078zm8.592-4.644h2.7v5.958c.012.12.042.288.09.504.048.204.12.366.216.486s.234.228.414.324c.192.096.426.144.702.144.336 0 .612-.054.828-.162.228-.108.396-.228.504-.36.12-.144.21-.36.27-.648.06-.3.09-.546.09-.738.012-.204.018-.51.018-.918v-4.59h2.736v5.994c.012.564.018 1.038.018 1.422.012.372.018.618.018.738.012.12.018.21.018.27.012.216.036.438.072.666H93.21l-.09-1.206c-.66.96-1.554 1.44-2.682 1.44a3.806 3.806 0 01-1.62-.342c-.48-.24-.852-.534-1.116-.882-.396-.492-.594-1.308-.594-2.448V27.91zM98.201 37v-6.858c0-.696-.042-1.452-.126-2.268h2.502l.054 1.746c.108-.252.216-.462.324-.63.12-.168.294-.354.522-.558.228-.216.534-.372.918-.468a4.61 4.61 0 011.332-.108v2.394c-.636-.06-1.164-.036-1.584.072-.408.108-.702.294-.882.558a2.246 2.246 0 00-.324.756 4.415 4.415 0 00-.072.882V37h-2.664zM.63 51.842h2.844v.504c.012.132.06.336.144.612.084.276.198.498.342.666.156.168.39.324.702.468.324.144.714.216 1.17.216.756 0 1.356-.162 1.8-.486a1.59 1.59 0 00.666-1.332c0-.528-.174-.894-.522-1.098-.336-.204-.984-.42-1.944-.648-1.668-.42-2.886-.912-3.654-1.476-.756-.576-1.134-1.398-1.134-2.466 0-1.164.432-2.124 1.296-2.88.864-.768 2.148-1.152 3.852-1.152 1.8 0 3.108.51 3.924 1.53.492.624.738 1.428.738 2.412H8.172c-.108-1.32-.81-1.98-2.106-1.98-.648 0-1.17.162-1.566.486-.384.324-.576.75-.576 1.278 0 .552.192.936.576 1.152.396.216 1.146.462 2.25.738.564.132 1.014.252 1.35.36.336.096.726.246 1.17.45.444.192.786.408 1.026.648.252.228.468.534.648.918s.27.822.27 1.314c0 1.224-.492 2.238-1.476 3.042-.972.792-2.328 1.188-4.068 1.188a7.987 7.987 0 01-1.854-.198c-.54-.12-.984-.27-1.332-.45-.336-.18-.63-.42-.882-.72a4.67 4.67 0 01-.558-.792 3.622 3.622 0 01-.288-.882 8.704 8.704 0 01-.108-.774 9.44 9.44 0 01-.018-.648zM21.042 56H18.63a7.836 7.836 0 01-.09-1.242c-.672.972-1.578 1.458-2.718 1.458-1.008 0-1.764-.24-2.268-.72-.528-.528-.792-1.194-.792-1.998 0-1.296.642-2.238 1.926-2.826.744-.336 1.944-.504 3.6-.504 0-.552-.042-.954-.126-1.206-.18-.504-.576-.756-1.188-.756-.444 0-.78.168-1.008.504-.132.204-.198.474-.198.81h-2.61c.036-.96.378-1.674 1.026-2.142.684-.492 1.602-.738 2.754-.738 1.488 0 2.568.39 3.24 1.17.42.504.63 1.248.63 2.232l.018 3.654c0 .864.072 1.632.216 2.304zm-2.754-4.284c-.876-.072-1.584.024-2.124.288-.54.264-.81.66-.81 1.188 0 .336.114.636.342.9.228.264.546.396.954.396.456 0 .834-.174 1.134-.522a1.93 1.93 0 00.414-.882c.06-.336.09-.792.09-1.368zm10.902-3.69v-5.022h2.682v11.52c0 .528.024 1.02.072 1.476h-2.7l-.072-1.314c-.252.456-.558.798-.918 1.026-.48.312-1.068.468-1.764.468-1.212 0-2.16-.396-2.844-1.188-.684-.804-1.026-1.914-1.026-3.33 0-1.488.366-2.67 1.098-3.546.744-.888 1.716-1.332 2.916-1.332 1.104 0 1.956.414 2.556 1.242zm-3.87 3.564c0 .828.15 1.512.45 2.052.3.54.762.81 1.386.81a1.83 1.83 0 001.008-.288c.3-.192.528-.438.684-.738.288-.552.432-1.266.432-2.142 0-.876-.18-1.554-.54-2.034-.348-.48-.828-.72-1.44-.72-.42 0-.774.114-1.062.342-.276.216-.48.504-.612.864-.12.36-.204.684-.252.972a7.105 7.105 0 00-.054.882zM42.048 56h-2.412a7.836 7.836 0 01-.09-1.242c-.672.972-1.578 1.458-2.718 1.458-1.008 0-1.764-.24-2.268-.72-.528-.528-.792-1.194-.792-1.998 0-1.296.642-2.238 1.926-2.826.744-.336 1.944-.504 3.6-.504 0-.552-.042-.954-.126-1.206-.18-.504-.576-.756-1.188-.756-.444 0-.78.168-1.008.504-.132.204-.198.474-.198.81h-2.61c.036-.96.378-1.674 1.026-2.142.684-.492 1.602-.738 2.754-.738 1.488 0 2.568.39 3.24 1.17.42.504.63 1.248.63 2.232l.018 3.654c0 .864.072 1.632.216 2.304zm-2.754-4.284c-.876-.072-1.584.024-2.124.288-.54.264-.81.66-.81 1.188 0 .336.114.636.342.9.228.264.546.396.954.396.456 0 .834-.174 1.134-.522a1.93 1.93 0 00.414-.882c.06-.336.09-.792.09-1.368zm11.046-4.824h2.628c0 .036-.012.306-.036.81-.012.492-.018.804-.018.936v10.818h-2.736v-4.518c-.66.792-1.5 1.188-2.52 1.188-1.056 0-1.986-.396-2.79-1.188-.804-.804-1.206-2.004-1.206-3.6 0-.84.114-1.566.342-2.178.228-.624.528-1.104.9-1.44a3.69 3.69 0 011.224-.756 3.74 3.74 0 011.368-.252c1.236 0 2.154.498 2.754 1.494l.09-1.314zm-3.96 4.518c0 1.008.198 1.776.594 2.304.312.432.78.648 1.404.648.408 0 .75-.096 1.026-.288.276-.204.474-.468.594-.792.132-.336.216-.642.252-.918.048-.288.072-.588.072-.9 0-.312-.024-.612-.072-.9a4.618 4.618 0 00-.27-.954 1.708 1.708 0 00-.648-.828c-.3-.216-.666-.324-1.098-.324-1.236 0-1.854.984-1.854 2.952zM63.054 56h-2.412a7.836 7.836 0 01-.09-1.242c-.672.972-1.578 1.458-2.718 1.458-1.008 0-1.764-.24-2.268-.72-.528-.528-.792-1.194-.792-1.998 0-1.296.642-2.238 1.926-2.826.744-.336 1.944-.504 3.6-.504 0-.552-.042-.954-.126-1.206-.18-.504-.576-.756-1.188-.756-.444 0-.78.168-1.008.504-.132.204-.198.474-.198.81h-2.61c.036-.96.378-1.674 1.026-2.142.684-.492 1.602-.738 2.754-.738 1.488 0 2.568.39 3.24 1.17.42.504.63 1.248.63 2.232l.018 3.654c0 .864.072 1.632.216 2.304zM60.3 51.716c-.876-.072-1.584.024-2.124.288-.54.264-.81.66-.81 1.188 0 .336.114.636.342.9.228.264.546.396.954.396.456 0 .834-.174 1.134-.522a1.93 1.93 0 00.414-.882c.06-.336.09-.792.09-1.368zM65.262 56V43.004h2.645v5.148c.648-.912 1.525-1.368 2.629-1.368 1.127 0 2.01.408 2.645 1.224.397.552.594 1.374.594 2.466V56H71.13v-5.436c0-1.32-.498-1.98-1.494-1.98-.456 0-.858.15-1.206.45-.335.288-.504.756-.504 1.404L67.945 56H65.26zm21.287-1.872v1.746a7.892 7.892 0 01-2.07.288c-.504 0-.942-.066-1.314-.198-.36-.132-.624-.276-.792-.432a1.576 1.576 0 01-.396-.63c-.096-.276-.15-.486-.162-.63a6.98 6.98 0 01-.018-.558v-4.986h-1.746v-1.764h1.746v-1.782l2.646-.972v2.754h2.16v1.764h-2.16v4.104c0 .264.006.456.018.576.024.12.072.252.144.396a.613.613 0 00.36.306c.168.048.396.072.684.072.276 0 .576-.018.9-.054zm1.236-2.592c0-.588.078-1.152.234-1.692.168-.54.42-1.05.756-1.53.348-.492.84-.882 1.476-1.17.636-.3 1.38-.45 2.232-.45 1.56 0 2.736.456 3.528 1.368.792.9 1.188 2.034 1.188 3.402 0 1.38-.408 2.538-1.224 3.474-.804.924-1.986 1.386-3.546 1.386-1.356 0-2.472-.414-3.348-1.242-.864-.828-1.296-2.01-1.296-3.546zm2.736.018c0 1.944.666 2.916 1.998 2.916.636 0 1.122-.234 1.458-.702.336-.468.504-1.272.504-2.412 0-1.92-.666-2.88-1.998-2.88-1.308 0-1.962 1.026-1.962 3.078zM8.586 69.132h-2.61c-.12-1.116-.51-1.674-1.17-1.674-.936 0-1.404.966-1.404 2.898 0 1.38.222 2.31.666 2.79a.948.948 0 001.008.252c.108-.036.234-.102.378-.198.144-.108.264-.288.36-.54.108-.264.174-.582.198-.954H8.64c-.06 1.176-.45 2.07-1.17 2.682-.66.564-1.524.846-2.592.846-1.356 0-2.388-.402-3.096-1.206C1.014 73.14.63 71.946.63 70.446c0-.78.108-1.47.324-2.07.228-.6.498-1.062.81-1.386.324-.324.69-.582 1.098-.774.42-.204.786-.336 1.098-.396.324-.06.63-.09.918-.09.972 0 1.83.282 2.574.846.744.564 1.122 1.416 1.134 2.556zM10.242 75V62.004h2.646v5.148c.648-.912 1.524-1.368 2.628-1.368 1.128 0 2.01.408 2.646 1.224.396.552.594 1.374.594 2.466V75H16.11v-5.436c0-1.32-.498-1.98-1.494-1.98-.456 0-.858.15-1.206.45-.336.288-.504.756-.504 1.404L12.924 75h-2.682zm10.842-10.674v-2.322h2.844v2.322h-2.844zM21.174 75v-9.108h2.664V75h-2.664zm5.01 0V61.986h2.664V75h-2.664zm11.021-7.974v-5.022h2.682v11.52c0 .528.024 1.02.072 1.476h-2.7l-.072-1.314c-.252.456-.558.798-.918 1.026-.48.312-1.068.468-1.764.468-1.212 0-2.16-.396-2.844-1.188-.684-.804-1.026-1.914-1.026-3.33 0-1.488.366-2.67 1.098-3.546.744-.888 1.716-1.332 2.916-1.332 1.104 0 1.956.414 2.556 1.242zm-3.87 3.564c0 .828.15 1.512.45 2.052.3.54.762.81 1.386.81a1.83 1.83 0 001.008-.288c.3-.192.528-.438.684-.738.288-.552.432-1.266.432-2.142 0-.876-.18-1.554-.54-2.034-.348-.48-.828-.72-1.44-.72-.42 0-.774.114-1.062.342-.276.216-.48.504-.612.864-.12.36-.204.684-.252.972a7.105 7.105 0 00-.054.882zM42.197 75v-6.858c0-.696-.042-1.452-.126-2.268h2.502l.054 1.746c.108-.252.216-.462.324-.63.12-.168.294-.354.522-.558.228-.216.534-.372.918-.468a4.61 4.61 0 011.332-.108v2.394c-.636-.06-1.164-.036-1.584.072-.408.108-.702.294-.882.558a2.246 2.246 0 00-.324.756 4.415 4.415 0 00-.072.882V75h-2.664zm14.924-3.87h-6.102c0 1.62.618 2.43 1.854 2.43.852 0 1.38-.42 1.584-1.26h2.43c-.06.78-.348 1.44-.864 1.98-.672.708-1.734 1.062-3.186 1.062-1.404 0-2.472-.378-3.204-1.134-.78-.816-1.17-1.998-1.17-3.546 0-1.992.63-3.426 1.89-4.302.756-.504 1.608-.756 2.556-.756a4.45 4.45 0 012.106.522c.66.336 1.182.894 1.566 1.674.42.864.6 1.974.54 3.33zm-6.012-1.674h3.294c0-.18-.012-.348-.036-.504a3.407 3.407 0 00-.18-.648 1.15 1.15 0 00-.486-.63c-.228-.168-.522-.252-.882-.252-.552 0-.972.192-1.26.576-.276.384-.426.87-.45 1.458zM58.915 75v-7.47c0-.684-.018-1.236-.054-1.656h2.556l.072 1.368c.648-1.056 1.632-1.584 2.952-1.584.792 0 1.41.18 1.854.54.456.348.762.738.918 1.17.168.468.252 1.374.252 2.718V75h-2.718v-5.652c0-.468-.048-.798-.144-.99-.252-.516-.684-.774-1.296-.774s-1.074.234-1.386.702c-.216.312-.324.774-.324 1.386V75h-2.682zm15.888-10.674v-2.322h2.844v2.322h-2.844zM74.893 75v-9.108h2.664V75h-2.664zm5.045 0v-7.47c0-.684-.018-1.236-.054-1.656h2.556l.072 1.368c.648-1.056 1.632-1.584 2.952-1.584.792 0 1.41.18 1.854.54.456.348.762.738.918 1.17.168.468.252 1.374.252 2.718V75H85.77v-5.652c0-.468-.048-.798-.144-.99-.252-.516-.684-.774-1.296-.774s-1.074.234-1.386.702c-.216.312-.324.774-.324 1.386V75h-2.682zm15.096-12.96h3.258l2.682 5.922 2.736-5.922h2.862l-4.392 8.226V75h-2.754v-4.77l-4.392-8.19zm19.128 9.09h-6.102c0 1.62.618 2.43 1.854 2.43.852 0 1.38-.42 1.584-1.26h2.43c-.06.78-.348 1.44-.864 1.98-.672.708-1.734 1.062-3.186 1.062-1.404 0-2.472-.378-3.204-1.134-.78-.816-1.17-1.998-1.17-3.546 0-1.992.63-3.426 1.89-4.302.756-.504 1.608-.756 2.556-.756a4.45 4.45 0 012.106.522c.66.336 1.182.894 1.566 1.674.42.864.6 1.974.54 3.33zm-6.012-1.674h3.294c0-.18-.012-.348-.036-.504a3.407 3.407 0 00-.18-.648 1.15 1.15 0 00-.486-.63c-.228-.168-.522-.252-.882-.252-.552 0-.972.192-1.26.576-.276.384-.426.87-.45 1.458zM115.974 75v-7.38c0-.504-.03-1.074-.09-1.71h2.574l.09 1.17c.66-.912 1.596-1.368 2.808-1.368 1.428 0 2.382.57 2.862 1.71.588-1.128 1.56-1.692 2.916-1.692 1.308 0 2.232.486 2.772 1.458.3.492.45 1.332.45 2.52V75h-2.682v-5.346c0-.396-.03-.726-.09-.99-.048-.264-.192-.504-.432-.72-.24-.228-.576-.342-1.008-.342-.312 0-.576.06-.792.18-.204.12-.366.264-.486.432-.108.156-.192.378-.252.666a7.155 7.155 0 00-.09.738c-.012.204-.018.48-.018.828V75h-2.682v-5.4c0-.252-.012-.462-.036-.63a3.349 3.349 0 00-.162-.612.94.94 0 00-.45-.558c-.216-.132-.498-.198-.846-.198-.396 0-.72.072-.972.216-.24.144-.408.348-.504.612a3.753 3.753 0 00-.162.63 4.027 4.027 0 00-.036.594V75h-2.682zm25.188-3.87h-6.102c0 1.62.618 2.43 1.854 2.43.852 0 1.38-.42 1.584-1.26h2.43c-.06.78-.348 1.44-.864 1.98-.672.708-1.734 1.062-3.186 1.062-1.404 0-2.472-.378-3.204-1.134-.78-.816-1.17-1.998-1.17-3.546 0-1.992.63-3.426 1.89-4.302.756-.504 1.608-.756 2.556-.756a4.45 4.45 0 012.106.522c.66.336 1.182.894 1.566 1.674.42.864.6 1.974.54 3.33zm-6.012-1.674h3.294c0-.18-.012-.348-.036-.504a3.407 3.407 0 00-.18-.648 1.15 1.15 0 00-.486-.63c-.228-.168-.522-.252-.882-.252-.552 0-.972.192-1.26.576-.276.384-.426.87-.45 1.458zM142.956 75v-7.47c0-.684-.018-1.236-.054-1.656h2.556l.072 1.368c.648-1.056 1.632-1.584 2.952-1.584.792 0 1.41.18 1.854.54.456.348.762.738.918 1.17.168.468.252 1.374.252 2.718V75h-2.718v-5.652c0-.468-.048-.798-.144-.99-.252-.516-.684-.774-1.296-.774s-1.074.234-1.386.702c-.216.312-.324.774-.324 1.386V75h-2.682z" fill="#fff"/></svg>