<svg width="153" height="25" viewBox="0 0 153 25" fill="none" xmlns="http://www.w3.org/2000/svg"><path d="M3.468 18h-1.04V6.448h1.04v5.072h6.304V6.448h1.04V18h-1.04v-5.52H3.468V18zm16.97-3.792h-6.207c.021.928.256 1.685.704 2.272.458.587 1.152.88 2.08.88.565 0 1.061-.181 1.488-.544.437-.363.714-.821.832-1.376h1.008c-.48 1.867-1.691 2.8-3.632 2.8-1.131 0-2-.41-2.608-1.232-.608-.832-.912-1.84-.912-3.024 0-1.173.314-2.176.944-3.008.629-.832 1.509-1.248 2.64-1.248 1.269 0 2.197.41 2.784 1.232.586.81.88 1.893.88 3.248zm-6.175-.88h5.136c-.064-.821-.315-1.477-.752-1.968-.438-.501-1.056-.752-1.856-.752-.736 0-1.323.261-1.76.784-.438.523-.694 1.168-.768 1.936zm9.274-6.88V18h-.96V6.448h.96zm3.371 7.344c0 .661.075 1.248.224 1.76a2.7 2.7 0 00.88 1.28c.427.352.97.528 1.632.528.438 0 .81-.107 1.12-.32.32-.224.56-.517.72-.88a4.53 4.53 0 00.352-1.12c.075-.384.112-.784.112-1.2 0-.555-.075-1.061-.224-1.52-.139-.47-.4-.87-.784-1.2-.384-.341-.864-.512-1.44-.512-.875 0-1.525.304-1.952.912-.426.608-.64 1.365-.64 2.272zm0 2.96v4.32h-.96v-9.296c0-.203-.026-.805-.08-1.808h.992l.048 1.184.032.032c.267-.459.65-.816 1.152-1.072a3.535 3.535 0 011.6-.384c.758 0 1.392.213 1.904.64.512.427.87.95 1.072 1.568.214.608.32 1.28.32 2.016 0 .533-.064 1.045-.192 1.536-.117.48-.304.933-.56 1.36a2.812 2.812 0 01-1.024 1.008c-.427.256-.917.384-1.472.384-1.184 0-2.117-.496-2.8-1.488h-.032zm12.272-4.784c0-.768.288-1.333.864-1.696.576-.363 1.27-.544 2.08-.544 1.845 0 2.821.741 2.928 2.224h-1.04c-.086-.896-.747-1.344-1.984-1.344-.502 0-.928.107-1.28.32-.352.213-.528.539-.528.976 0 .224.053.41.16.56.117.15.298.277.544.384.245.096.496.181.752.256.267.064.618.155 1.056.272.448.117.853.24 1.216.368.416.15.746.395.992.736.245.33.368.71.368 1.136 0 .853-.33 1.504-.992 1.952-.662.448-1.456.672-2.384.672a4.33 4.33 0 01-1.408-.224c-.427-.15-.8-.416-1.12-.8-.32-.384-.486-.853-.496-1.408h1.04c.032.555.256.955.672 1.2.416.235.933.352 1.552.352.565 0 1.056-.133 1.472-.4.416-.277.624-.677.624-1.2 0-.33-.128-.608-.384-.832-.245-.224-.49-.373-.736-.448a14.58 14.58 0 00-1.152-.288 2.991 2.991 0 00-.272-.064 18.136 18.136 0 01-.96-.256 4.928 4.928 0 01-.768-.368 1.594 1.594 0 01-.624-.624 2.018 2.018 0 01-.192-.912zm8.608 3.792c0 .523.17.923.512 1.2.341.267.773.4 1.296.4 1.728 0 2.528-1.136 2.4-3.408-.096 0-.315.005-.656.016-.33 0-.592.005-.784.016-.192.01-.448.032-.768.064s-.581.09-.784.176a3.235 3.235 0 00-.608.304 1.263 1.263 0 00-.464.512 1.668 1.668 0 00-.144.72zm4.208-2.688v-.736c-.043-.63-.224-1.072-.544-1.328-.31-.267-.763-.4-1.36-.4-1.206 0-1.861.464-1.968 1.392H47.1c.224-1.515 1.227-2.272 3.008-2.272.917 0 1.621.219 2.112.656.501.437.747 1.104.736 2v3.808c0 .203.026.805.08 1.808h-.992l-.032-1.184h-.032l-.048.112c-.181.352-.518.661-1.008.928-.48.256-.981.384-1.504.384-.768 0-1.408-.224-1.92-.672-.502-.448-.752-1.05-.752-1.808 0-.533.144-1.003.432-1.408.298-.405.693-.71 1.184-.912.32-.139.672-.23 1.056-.272.384-.053.864-.08 1.44-.08.587 0 .965-.005 1.136-.016zm2.4-3.104h1.056l2.768 6.704 2.672-6.704h1.056L58.764 18h-1.088l-3.28-8.032zm15.824 4.24h-6.208c.021.928.256 1.685.704 2.272.459.587 1.152.88 2.08.88.565 0 1.061-.181 1.488-.544a2.38 2.38 0 00.832-1.376h1.008c-.48 1.867-1.69 2.8-3.632 2.8-1.13 0-2-.41-2.608-1.232-.608-.832-.912-1.84-.912-3.024 0-1.173.314-2.176.944-3.008.63-.832 1.51-1.248 2.64-1.248 1.27 0 2.197.41 2.784 1.232.587.81.88 1.893.88 3.248zm-6.176-.88h5.136c-.064-.821-.315-1.477-.752-1.968-.438-.501-1.056-.752-1.856-.752-.736 0-1.323.261-1.76.784-.438.523-.694 1.168-.768 1.936zm13.648-3.36l.048 1.184.032.032c.544-.97 1.381-1.456 2.512-1.456.629 0 1.173.16 1.632.48.469.32.794.747.976 1.28.736-1.173 1.658-1.76 2.768-1.76.501 0 .933.085 1.296.256.373.17.65.373.832.608.192.235.341.517.448.848.117.33.186.608.208.832.032.224.048.459.048.704V18h-.96v-5.184c0-.693-.187-1.232-.56-1.616-.374-.395-.891-.592-1.552-.592-.747 0-1.318.267-1.712.8-.395.533-.592 1.19-.592 1.968V18h-.96v-5.184c0-.693-.187-1.232-.56-1.616-.374-.395-.891-.592-1.552-.592-.747 0-1.318.267-1.712.8-.395.533-.592 1.19-.592 1.968V18h-.96v-6.224c0-.299-.027-.901-.08-1.808h.992zm18.506 6.352a4.14 4.14 0 00.688-2.336 4.14 4.14 0 00-.688-2.336c-.458-.693-1.13-1.04-2.016-1.04-.885 0-1.557.347-2.016 1.04a4.14 4.14 0 00-.688 2.336c0 .864.23 1.643.688 2.336.459.693 1.131 1.04 2.016 1.04.886 0 1.558-.347 2.016-1.04zm-4.8-5.328c.651-.843 1.579-1.264 2.784-1.264 1.206 0 2.128.421 2.768 1.264.651.843.976 1.84.976 2.992s-.325 2.15-.976 2.992c-.64.843-1.562 1.264-2.768 1.264-1.205 0-2.133-.421-2.784-1.264-.64-.843-.96-1.84-.96-2.992s.32-2.15.96-2.992zm9.467 2.176V18h-.96v-6.224c0-.203-.027-.805-.08-1.808h.992l.048 1.184h.032a2.28 2.28 0 01.72-1.008 1.775 1.775 0 011.088-.416c.213-.01.533-.005.96.016v.928c-.043 0-.133-.01-.272-.032a2.273 2.273 0 00-.32-.032c-.693 0-1.232.23-1.616.688-.373.459-.571 1.083-.592 1.872zm10.855 1.04h-6.208c.021.928.256 1.685.704 2.272.459.587 1.152.88 2.08.88.565 0 1.061-.181 1.488-.544a2.38 2.38 0 00.832-1.376h1.008c-.48 1.867-1.691 2.8-3.632 2.8-1.131 0-2-.41-2.608-1.232-.608-.832-.912-1.84-.912-3.024 0-1.173.315-2.176.944-3.008.629-.832 1.509-1.248 2.64-1.248 1.269 0 2.197.41 2.784 1.232.587.81.88 1.893.88 3.248zm-6.176-.88h5.136c-.064-.821-.315-1.477-.752-1.968-.437-.501-1.056-.752-1.856-.752-.736 0-1.323.261-1.76.784-.437.523-.693 1.168-.768 1.936zm13.728-6.88V18h-.96V6.448h.96zm2.587 3.52h.96V18h-.96V9.968zm1.04-3.52v1.2h-1.12v-1.2h1.12zm1.434 3.52h1.056l2.768 6.704 2.672-6.704h1.056L128.701 18h-1.088l-3.28-8.032zm15.824 4.24h-6.208c.022.928.256 1.685.704 2.272.459.587 1.152.88 2.08.88.566 0 1.062-.181 1.488-.544.438-.363.715-.821.832-1.376h1.008c-.48 1.867-1.69 2.8-3.632 2.8-1.13 0-2-.41-2.608-1.232-.608-.832-.912-1.84-.912-3.024 0-1.173.315-2.176.944-3.008.63-.832 1.51-1.248 2.64-1.248 1.27 0 2.198.41 2.784 1.232.587.81.88 1.893.88 3.248zm-6.176-.88h5.136c-.064-.821-.314-1.477-.752-1.968-.437-.501-1.056-.752-1.856-.752-.736 0-1.322.261-1.76.784-.437.523-.693 1.168-.768 1.936zm8.027-1.36c0-.768.288-1.333.864-1.696.576-.363 1.269-.544 2.08-.544 1.845 0 2.821.741 2.928 2.224h-1.04c-.085-.896-.747-1.344-1.984-1.344-.501 0-.928.107-1.28.32-.352.213-.528.539-.528.976 0 .224.053.41.16.56.117.15.299.277.544.384.245.096.496.181.752.256.267.064.619.155 1.056.272.448.117.853.24 1.216.368.416.15.747.395.992.736.245.33.368.71.368 1.136 0 .853-.331 1.504-.992 1.952-.661.448-1.456.672-2.384.672a4.33 4.33 0 01-1.408-.224 2.54 2.54 0 01-1.12-.8c-.32-.384-.485-.853-.496-1.408h1.04c.032.555.256.955.672 1.2.416.235.933.352 1.552.352.565 0 1.056-.133 1.472-.4.416-.277.624-.677.624-1.2 0-.33-.128-.608-.384-.832a1.956 1.956 0 00-.736-.448 14.65 14.65 0 00-1.152-.288 2.96 2.96 0 00-.272-.064 17.98 17.98 0 01-.96-.256 4.902 4.902 0 01-.768-.368 1.599 1.599 0 01-.624-.624 2.018 2.018 0 01-.192-.912z" fill="#fff"/></svg>