<svg width="49" height="49" viewBox="0 0 49 49" fill="none" xmlns="http://www.w3.org/2000/svg"><path d="M38.92 34.2a87.26 87.26 0 00-.554-.902c-.261-.416-.546-.868-.625-1.004-.318-.53-.438-.723-.997-1.611-.314-.507-.645-1.03-.725-1.166-.08-.136-.208-.346-.281-.468-.235-.385-1.45-2.352-1.543-2.5a47.18 47.18 0 01-.738-1.185c-.364-.601-.364-.588-.05-1.137.087-.148.197-.345.246-.44.048-.095.145-.279.213-.407.072-.125.276-.496.454-.82.174-.33.385-.707.463-.845a14.5 14.5 0 00.23-.423c.048-.096.145-.28.213-.407.13-.23.67-1.219.89-1.626.117-.223.246-.46.482-.89.078-.138.169-.308.208-.38.035-.07.178-.326.31-.572.136-.243.291-.538.356-.657.159-.285.32-.587.486-.886.078-.138.165-.3.194-.361.032-.06.123-.23.21-.378l.185-.325c.052-.092-.053-.11-.269-.049l-1.088.332c-.15.048-.304.092-.334.096-.033.007-.275.082-.55.17-.27.086-.575.178-.68.213-.532.154-1.366.403-2.333.698-.115.037-.32.095-.455.14-.134.037-.389.113-.569.17-.18.059-.408.127-.506.154-.098.028-.294.09-.432.13-.14.045-.47.144-.735.223-.265.078-.631.188-.811.246-.18.058-.438.13-.575.17a1.233 1.233 0 00-.278.093c-.013.013-.082.024-.15.022-.119-.005-.132-.018-.354-.377-.129-.203-.288-.461-.354-.578-.063-.113-.513-.836-.996-1.611-.48-.772-.937-1.508-1.01-1.631-.073-.123-.46-.746-.86-1.389-.72-1.153-.957-1.534-1.093-1.776-.037-.068-.116-.184-.166-.258a4.724 4.724 0 01-.162-.262c-.036-.068-.53-.866-1.096-1.773-1-1.608-1.139-1.834-1.443-2.338L20.9 5.06c-.109-.178-.222-.365-.248-.417-.033-.052-.07-.08-.086-.064-.016.016-.003 1.046.028 2.287.088 3.367.101 3.957.124 4.937.01.495.031 1.215.04 1.6.016.383.043 1.49.065 2.458.023.967.058 2.238.078 2.827.02.583.013 1.082-.01 1.105a8.597 8.597 0 01-.267.205l-.294.135s-.058.073-.732.278c-.581.17-1.735.523-1.99.598-.15.048-.37.113-.481.147-.114.031-.314.09-.448.134-.13.04-.346.102-.48.146-.131.041-.33.1-.445.13-.111.035-.33.1-.48.148-.154.044-.488.147-.736.222-.739.219-1.246.373-1.752.527-.15.047-.38.116-.504.157-.219.065-.585.174-1.056.318-.252.078-.47.143-1.38.417-1.124.335-1.183.356-1.474.441-.15.048-.379.117-.503.157-.22.066-.585.175-1.056.319-.602.184-.71.215-.9.27-.11.034-.33.099-.48.147-.255.075-1.409.427-1.994.602-1.173.352-1.458.444-1.46.473.002.017.406.118.895.232.495.113.931.215.968.23.039.013.154.04.262.062a1739.912 1739.912 0 005.725 1.329c.045.006.344.076.659.15.318.077.613.144.656.154.108.02 4.344 1.006 5.062 1.175.311.07.633.144.712.163.082.015.177.036.216.049.036.015.945.227 2.014.473 1.07.245 1.972.477 1.999.515.056.074.104 1.39.187 5.05.01.515.027 1.232.04 1.6.012.368.038 1.417.064 2.329.088 3.4.126 4.803.145 5.644.016.475.048.85.08.836.046-.027.286-.434.5-.854.048-.096.148-.29.226-.427a7.79 7.79 0 00.194-.361c.032-.06.123-.23.21-.378.085-.151.201-.355.256-.463.1-.187.453-.84.712-1.313.068-.129.156-.29.195-.362.035-.069.126-.233.197-.358.068-.128.178-.325.24-.446.22-.407.76-1.396.89-1.626.068-.128.165-.311.213-.407.049-.095.152-.285.23-.423.078-.138.288-.516.463-.844.178-.325.382-.696.453-.821l.214-.407c.048-.095.158-.292.242-.443.088-.148.178-.326.21-.391.03-.063.091-.177.137-.256.08-.142.514-.923.692-1.255.091-.177.204-.377.486-.886.35-.637.515-.917.541-.917.05.003 4.54 1.036 4.79 1.105.069.021 1.158.273 2.417.561 1.26.288 2.352.543 2.431.568.174.053.203.017.117-.151z" fill="#fff" opacity=".3"/></svg>