<svg width="18" height="18" viewBox="0 0 18 18" fill="none" xmlns="http://www.w3.org/2000/svg"><path d="M10.556 17.63c.011-.042.07-.272.13-.514.057-.239.12-.499.14-.575.08-.299.107-.41.23-.92.072-.29.144-.592.165-.668.021-.075.051-.195.07-.264l.357-1.427c.055-.241.097-.41.167-.678.088-.341.083-.336.39-.417.083-.02.192-.05.243-.067a17.82 17.82 0 01.672-.193c.179-.053.388-.11.464-.131.077-.02.18-.05.232-.067l.22-.067a100.906 100.906 0 001.38-.393c.076-.02.17-.048.209-.06.037-.011.178-.05.313-.09.134-.036.294-.085.36-.103l.486-.138c.077-.02.165-.046.197-.058.033-.009.125-.037.209-.057l.18-.049c.052-.013.022-.057-.076-.112l-.498-.272a7.84 7.84 0 00-.404-.22l-.313-.169c-.241-.135-.621-.345-1.064-.586-.054-.028-.146-.081-.209-.113a9.24 9.24 0 00-.26-.143 8.597 8.597 0 01-.232-.126c-.044-.026-.134-.074-.197-.109a31.868 31.868 0 01-.336-.184c-.12-.066-.287-.158-.37-.202-.084-.044-.2-.11-.263-.145a.615.615 0 00-.13-.067c-.01 0-.037-.02-.06-.046-.04-.044-.04-.053.011-.257a58.374 58.374 0 00.313-1.25l.232-.932c.019-.069.107-.425.197-.794.163-.66.216-.879.256-1.012.011-.037.025-.106.034-.15a70.107 70.107 0 00.29-1.162c.227-.92.26-1.049.334-1.334l.081-.322c.026-.101.054-.207.063-.235.007-.03.005-.053-.007-.053s-.376.366-.81.812a753.364 753.364 0 01-1.725 1.777l-.558.575c-.133.14-.52.538-.858.886-.339.347-.782.805-.986 1.02-.202.21-.382.383-.399.383-.016 0-.167-.023-.167-.023l-.15-.057s-.047.004-.355-.164c-.265-.147-.793-.434-.91-.499l-.22-.12a5.019 5.019 0 00-.204-.112c-.06-.032-.157-.088-.22-.12a7.036 7.036 0 01-.202-.113l-.22-.12-.336-.183c-.336-.187-.568-.313-.8-.44l-.232-.124-.482-.265c-.116-.062-.216-.117-.631-.345l-.672-.37c-.07-.037-.174-.095-.232-.125l-.483-.264c-.276-.15-.324-.177-.41-.226l-.22-.12c-.116-.064-.645-.351-.912-.499C.833 1.57.7 1.5.688 1.51c-.004.007.1.186.23.4.133.217.249.408.255.426a29.56 29.56 0 01.292.483c.163.27 1.253 2.064 1.3 2.138.013.018.092.15.175.288l.174.287A765.655 765.655 0 014.65 8.058a47.634 47.634 0 00.591.978c.286.467.518.87.513.892-.007.046-.461.525-1.744 1.839-.18.184-.43.441-.558.575l-.812.84C1.452 14.406.962 14.912.668 15.213c-.165.173-.288.316-.271.323.025.007.255-.051.48-.122.05-.016.155-.049.232-.07a3.9 3.9 0 00.197-.057c.032-.01.125-.037.208-.057.084-.023.197-.053.255-.072l.72-.207.196-.057c.037-.012.128-.037.197-.056.07-.02.179-.05.244-.07.223-.065.765-.22.893-.254.07-.02.169-.05.22-.067.051-.016.155-.046.232-.066.076-.021.285-.079.464-.132.178-.05.382-.108.452-.126.07-.02.17-.05.22-.067.051-.016.16-.046.244-.069.083-.02.178-.05.213-.062.032-.012.095-.03.14-.042.078-.02.51-.14.69-.193.095-.03.206-.06.487-.138.35-.099.508-.138.517-.129.016.019 1.213 1.981 1.276 2.094.016.032.306.509.642 1.059.336.55.626 1.028.644 1.065.042.08.065.078.096-.012z" fill="#fff" opacity=".35"/></svg>