<svg width="41" height="40" viewBox="0 0 41 40" fill="none" xmlns="http://www.w3.org/2000/svg"><path d="M32.185 27.415a73.936 73.936 0 00-.46-.739c-.218-.341-.455-.712-.521-.824a56.353 56.353 0 00-.83-1.321c-.261-.416-.537-.845-.603-.956-.066-.112-.174-.284-.234-.384a850.977 850.977 0 00-1.284-2.05 38.65 38.65 0 01-.615-.973c-.303-.492-.303-.482-.047-.935.071-.122.16-.285.2-.364l.174-.336c.058-.104.224-.41.368-.679.143-.271.314-.583.377-.697.063-.114.148-.272.187-.35.04-.08.118-.231.174-.337a164.68 164.68 0 001.116-2.079c.063-.114.137-.255.169-.315.028-.056.144-.268.252-.472.111-.2.237-.445.29-.542.13-.236.26-.486.395-.733.063-.114.134-.247.158-.299.026-.048.1-.19.171-.312l.15-.269c.043-.076-.044-.09-.221-.038l-.895.28c-.123.04-.25.077-.274.08-.027.006-.226.07-.451.143-.223.072-.473.15-.56.179-.437.13-1.122.34-1.918.587-.094.032-.263.08-.373.118-.11.032-.32.095-.467.144-.148.049-.336.106-.417.13-.08.023-.242.074-.355.109-.115.037-.387.12-.604.187-.218.066-.519.158-.666.207-.148.049-.36.11-.473.144-.113.03-.215.064-.229.077-.01.011-.067.02-.123.019-.098-.003-.109-.014-.293-.308-.108-.167-.24-.379-.295-.474a94.153 94.153 0 00-.83-1.322c-.399-.633-.78-1.237-.84-1.337-.06-.101-.383-.612-.716-1.14-.598-.945-.796-1.257-.91-1.456-.03-.056-.096-.151-.137-.212a3.94 3.94 0 01-.135-.214c-.03-.056-.441-.71-.912-1.455a157.988 157.988 0 01-1.202-1.917l-.29-.464c-.09-.145-.184-.3-.206-.342-.027-.042-.057-.065-.07-.052-.014.014.003.862.035 1.883.09 2.773.105 3.258.129 4.066.01.407.032 1 .041 1.316.015.317.044 1.228.068 2.025.023.796.059 1.842.079 2.327.02.48.017.891-.002.91-.019.02-.219.171-.219.171l-.241.112s-.048.06-.601.233c-.479.144-1.427.44-1.637.504-.123.04-.303.095-.395.124a8.29 8.29 0 00-.368.112c-.107.034-.284.086-.395.124-.107.034-.271.083-.365.11-.091.028-.271.083-.395.123-.126.037-.4.124-.604.187-.608.184-1.024.314-1.44.443-.124.04-.312.098-.414.132-.18.055-.481.147-.868.268-.207.066-.387.12-1.134.351-.924.282-.973.3-1.212.372-.123.04-.311.097-.413.132l-.868.267c-.495.156-.583.182-.74.228-.09.029-.27.083-.394.123-.21.064-1.158.36-1.639.507-.965.297-1.198.374-1.2.398.002.013.335.095.738.186.409.09.769.172.798.184.033.01.128.033.217.05a1397.925 1397.925 0 004.721 1.063c.038.004.284.061.544.12a1290.538 1290.538 0 014.716 1.063l.587.13c.068.012.146.03.179.04.03.012.78.182 1.661.378.882.196 1.627.382 1.649.414.046.06.093 1.144.181 4.158.011.424.03 1.014.042 1.317.012.303.04 1.166.065 1.917.091 2.8.13 3.955.15 4.647.016.391.045.7.072.688.037-.022.232-.359.406-.706.04-.079.12-.239.184-.353.063-.114.134-.247.158-.298.026-.05.1-.19.171-.312.069-.125.163-.294.208-.383.082-.155.369-.695.58-1.086l.157-.298c.03-.057.103-.193.161-.296.055-.106.145-.269.195-.369.179-.336.619-1.153.724-1.343l.174-.337c.04-.078.123-.236.187-.35.063-.114.234-.426.376-.697.145-.269.31-.576.369-.679l.174-.336c.039-.079.128-.242.197-.367.071-.122.145-.268.171-.323.024-.051.074-.146.11-.211.067-.117.42-.763.564-1.037.074-.146.166-.312.395-.733.285-.526.42-.757.44-.758.041.002 3.745.829 3.951.884.057.017.955.219 1.994.45 1.04.23 1.94.433 2.005.454.144.042.168.012.096-.126z" fill="#fff" opacity=".1"/></svg>