<svg width="41" height="40" viewBox="0 0 41 40" fill="none" xmlns="http://www.w3.org/2000/svg"><path d="M12.708 31.472c.062-.034.398-.234.75-.445.348-.21.725-.44.838-.504a56.87 56.87 0 001.343-.802c.422-.253.858-.52.971-.584.113-.064.288-.168.39-.226l2.084-1.243c.347-.215.592-.362.987-.594.5-.293.49-.293.941-.031.122.073.284.165.363.205.078.04.23.122.335.178.103.06.408.23.676.379.27.146.581.321.695.386.113.065.27.151.348.192.079.04.23.121.336.178a165.606 165.606 0 002.07 1.146c.114.064.254.14.314.172.057.03.267.15.47.26.2.113.444.243.54.297.236.133.485.268.73.405.114.065.247.138.298.162.049.027.19.103.311.176.124.07.243.14.268.154.075.043.091-.043.042-.22l-.265-.894a3.355 3.355 0 01-.077-.274 12.82 12.82 0 00-.137-.451l-.169-.56c-.123-.437-.323-1.122-.558-1.917-.03-.094-.076-.263-.112-.373-.03-.11-.09-.32-.136-.467a13.975 13.975 0 01-.123-.417c-.022-.08-.072-.242-.104-.354a51.714 51.714 0 01-.178-.605c-.063-.217-.15-.518-.197-.666-.046-.148-.104-.36-.136-.473a1.006 1.006 0 00-.074-.228c-.011-.01-.02-.067-.017-.123.005-.097.016-.108.315-.286.17-.104.384-.232.481-.285.095-.051.697-.413 1.343-.803a206.29 206.29 0 011.36-.813c.102-.058.621-.37 1.156-.693.961-.578 1.279-.77 1.48-.88.057-.029.154-.093.216-.133a114.93 114.93 0 001.695-1.013c1.34-.805 1.529-.917 1.949-1.162.11-.067.323-.192.47-.28.149-.088.305-.178.348-.2.043-.026.067-.056.054-.07-.014-.013-.866-.01-1.894.004-2.789.043-3.277.05-4.09.06-.41.003-1.005.014-1.324.019-.318.01-1.235.022-2.036.032-.801.01-1.853.028-2.341.04-.483.01-.896.001-.915-.018a7.123 7.123 0 01-.168-.22l-.109-.242s-.06-.049-.223-.602c-.137-.478-.419-1.426-.479-1.636-.038-.123-.09-.303-.117-.395a8.197 8.197 0 00-.107-.368c-.033-.107-.082-.284-.117-.394a11.38 11.38 0 01-.104-.366l-.118-.394c-.035-.127-.117-.4-.177-.605-.175-.607-.299-1.023-.422-1.44-.038-.123-.092-.311-.125-.413l-.255-.868c-.062-.206-.114-.386-.333-1.133-.268-.924-.284-.972-.353-1.211-.038-.124-.093-.312-.125-.414l-.255-.868c-.147-.494-.172-.582-.216-.738-.027-.092-.079-.271-.117-.395-.06-.21-.342-1.158-.481-1.638-.282-.965-.356-1.198-.38-1.201-.013.002-.101.332-.2.732a20.52 20.52 0 01-.199.79 48.569 48.569 0 01-.223.9c-.124.502-.948 3.852-.98 3.992-.005.037-.066.281-.13.538a1284.712 1284.712 0 01-1.15 4.672c-.06.255-.124.518-.14.582a1.898 1.898 0 01-.043.177c-.013.03-.196.772-.409 1.646-.212.873-.411 1.61-.444 1.632-.061.045-1.151.073-4.183.11-.426.003-1.02.012-1.324.019l-1.929.032c-2.816.043-3.978.063-4.674.07-.394.01-.704.033-.693.06.021.038.357.237.703.416.078.04.237.124.351.189.114.065.246.138.297.162.049.027.19.103.311.176.125.07.292.167.381.213.154.084.692.378 1.082.595.105.056.238.13.297.162.057.03.192.105.295.164.105.057.267.149.367.2.336.184 1.15.635 1.339.743.105.057.256.138.335.179.078.04.235.127.348.191.114.065.425.24.695.387.268.148.573.319.676.378.106.057.257.138.335.178.079.04.24.133.365.203.122.073.268.149.322.176.051.024.146.075.21.113.117.068.76.43 1.033.578.146.076.311.17.73.405.525.292.755.43.755.451-.003.04-.898 3.71-.956 3.914-.019.056-.237.946-.486 1.975-.25 1.03-.47 1.922-.491 1.986-.046.142-.016.166.124.097z" fill="#fff" opacity=".1"/></svg>