<svg width="254" height="38" viewBox="0 0 254 38" fill="none" xmlns="http://www.w3.org/2000/svg"><path d="M.96 16V4.4h2.48V16H.96zm9.285-1.664v1.552c-.63.17-1.243.256-1.84.256-.448 0-.837-.059-1.168-.176-.32-.117-.555-.245-.704-.384a1.401 1.401 0 01-.352-.56 2.517 2.517 0 01-.144-.56 6.203 6.203 0 01-.016-.496V9.536H4.47V7.968h1.552V6.384l2.352-.864v2.448h1.92v1.568h-1.92v3.648c0 .235.005.405.016.512.021.107.064.224.128.352.064.128.17.219.32.272.15.043.352.064.608.064.245 0 .512-.016.8-.048zm1.675-5.52l-.432-3.968h2.128l-.432 3.968H11.92zm3.028 4.848h2.224c.022.299.139.56.352.784.214.213.544.32.992.32.395 0 .699-.09.912-.272.224-.192.336-.421.336-.688a.652.652 0 00-.24-.512c-.149-.15-.442-.283-.88-.4l-1.472-.4a7.058 7.058 0 01-.624-.208 6.203 6.203 0 01-.624-.352 1.58 1.58 0 01-.592-.672 2.299 2.299 0 01-.208-1.008c0-.779.326-1.392.976-1.84.651-.459 1.504-.688 2.56-.688.875 0 1.595.203 2.16.608.576.405.88.997.912 1.776h-2.16c-.042-.64-.426-.96-1.152-.96-.33 0-.602.075-.816.224a.66.66 0 00-.304.576c0 .245.08.421.24.528.16.096.448.203.864.32l1.456.4c1.44.395 2.16 1.147 2.16 2.256 0 .757-.325 1.413-.976 1.968-.64.544-1.552.816-2.736.816-1.216 0-2.138-.33-2.768-.992-.362-.384-.56-.912-.592-1.584zm17.782.672v1.552c-.63.17-1.243.256-1.84.256-.448 0-.838-.059-1.169-.176-.32-.117-.554-.245-.704-.384a1.401 1.401 0 01-.351-.56 2.522 2.522 0 01-.145-.56 6.189 6.189 0 01-.015-.496V9.536h-1.553V7.968h1.553V6.384l2.352-.864v2.448h1.92v1.568h-1.92v3.648c0 .235.005.405.015.512.022.107.064.224.128.352.064.128.171.219.32.272.15.043.352.064.608.064.246 0 .512-.016.8-.048zm1.386-7.824V4.448h2.528v2.064h-2.528zm.08 9.488V7.904h2.368V16h-2.368zm4.501 0V9.44c0-.448-.026-.955-.08-1.52h2.288l.08 1.04c.587-.81 1.419-1.216 2.496-1.216 1.27 0 2.118.507 2.544 1.52.523-1.003 1.387-1.504 2.592-1.504 1.163 0 1.984.432 2.464 1.296.267.437.4 1.184.4 2.24V16h-2.384v-4.752c0-.352-.026-.645-.08-.88-.042-.235-.17-.448-.384-.64-.213-.203-.512-.304-.896-.304-.277 0-.512.053-.704.16a1.379 1.379 0 00-.432.384c-.096.139-.17.336-.224.592-.042.256-.069.475-.08.656-.01.181-.016.427-.016.736V16h-2.384v-4.8c0-.224-.01-.41-.032-.56-.021-.15-.069-.33-.144-.544a.836.836 0 00-.4-.496c-.192-.117-.442-.176-.752-.176-.352 0-.64.064-.864.192-.213.128-.362.31-.448.544a3.33 3.33 0 00-.144.56 3.57 3.57 0 00-.032.528V16h-2.384zm22.39-3.44h-5.424c0 1.44.55 2.16 1.648 2.16.757 0 1.226-.373 1.408-1.12h2.16c-.054.693-.31 1.28-.768 1.76-.598.63-1.542.944-2.832.944-1.248 0-2.198-.336-2.848-1.008-.694-.725-1.04-1.776-1.04-3.152 0-1.77.56-3.045 1.68-3.824a4.004 4.004 0 012.272-.672c.661 0 1.285.155 1.872.464.586.299 1.05.795 1.392 1.488.373.768.533 1.755.48 2.96zm-5.344-1.488h2.928c0-.16-.01-.31-.032-.448a3.037 3.037 0 00-.16-.576 1.022 1.022 0 00-.432-.56c-.203-.15-.464-.224-.784-.224-.49 0-.864.17-1.12.512-.246.341-.379.773-.4 1.296zm16.111 3.264v1.552c-.629.17-1.242.256-1.84.256-.447 0-.837-.059-1.167-.176-.32-.117-.555-.245-.704-.384a1.401 1.401 0 01-.353-.56 2.522 2.522 0 01-.144-.56 6.189 6.189 0 01-.016-.496V9.536H66.08V7.968h1.552V6.384l2.352-.864v2.448h1.92v1.568h-1.92v3.648c0 .235.005.405.016.512.02.107.064.224.127.352.064.128.171.219.32.272.15.043.353.064.609.064.245 0 .511-.016.8-.048zm1.1-2.304c0-.523.069-1.024.207-1.504.15-.48.374-.933.672-1.36.31-.437.747-.784 1.312-1.04.566-.267 1.227-.4 1.984-.4 1.387 0 2.432.405 3.136 1.216.704.8 1.056 1.808 1.056 3.024 0 1.227-.362 2.256-1.088 3.088-.714.821-1.765 1.232-3.152 1.232-1.205 0-2.197-.368-2.976-1.104-.768-.736-1.152-1.787-1.152-3.152zm2.431.016c0 1.728.592 2.592 1.776 2.592.566 0 .998-.208 1.296-.624.299-.416.448-1.13.448-2.144 0-1.707-.592-2.56-1.776-2.56-1.162 0-1.744.912-1.744 2.736zM92.9 8.912V4.448h2.384v10.24c0 .47.021.907.064 1.312h-2.4l-.064-1.168c-.224.405-.496.71-.816.912-.427.277-.95.416-1.568.416-1.078 0-1.92-.352-2.528-1.056-.608-.715-.912-1.701-.912-2.96 0-1.323.325-2.373.976-3.152.661-.79 1.525-1.184 2.592-1.184.981 0 1.738.368 2.272 1.104zm-3.44 3.168c0 .736.133 1.344.4 1.824.266.48.677.72 1.232.72a1.704 1.704 0 001.504-.912c.256-.49.384-1.125.384-1.904 0-.779-.16-1.381-.48-1.808-.31-.427-.736-.64-1.28-.64-.374 0-.688.101-.944.304a1.688 1.688 0 00-.544.768c-.107.32-.182.608-.224.864a6.315 6.315 0 00-.048.784zm7.509-.048c0-.523.07-1.024.208-1.504.15-.48.373-.933.672-1.36.31-.437.746-.784 1.312-1.04.565-.267 1.227-.4 1.984-.4 1.387 0 2.432.405 3.136 1.216.704.8 1.056 1.808 1.056 3.024 0 1.227-.363 2.256-1.088 3.088-.715.821-1.765 1.232-3.152 1.232-1.206 0-2.197-.368-2.976-1.104-.768-.736-1.152-1.787-1.152-3.152zm2.432.016c0 1.728.592 2.592 1.776 2.592.565 0 .997-.208 1.296-.624.299-.416.448-1.13.448-2.144 0-1.707-.592-2.56-1.776-2.56-1.163 0-1.744.912-1.744 2.736zM107.15 16V9.36c0-.608-.016-1.099-.048-1.472h2.272l.064 1.216c.576-.939 1.451-1.408 2.624-1.408.704 0 1.253.16 1.648.48.405.31.677.656.816 1.04.149.416.224 1.221.224 2.416V16h-2.416v-5.024c0-.416-.043-.71-.128-.88-.224-.459-.608-.688-1.152-.688-.544 0-.955.208-1.232.624-.192.277-.288.688-.288 1.232V16h-2.384zm16.741 0h-2.144a7.006 7.006 0 01-.08-1.104c-.597.864-1.402 1.296-2.416 1.296-.896 0-1.568-.213-2.016-.64-.469-.47-.704-1.061-.704-1.776 0-1.152.571-1.99 1.712-2.512.662-.299 1.728-.448 3.2-.448 0-.49-.037-.848-.112-1.072-.16-.448-.512-.672-1.056-.672-.394 0-.693.15-.896.448-.117.181-.176.421-.176.72h-2.32c.032-.853.336-1.488.912-1.904.608-.437 1.424-.656 2.448-.656 1.323 0 2.283.347 2.88 1.04.374.448.56 1.11.56 1.984l.016 3.248c0 .768.064 1.45.192 2.048zm-2.448-3.808c-.778-.064-1.408.021-1.888.256-.48.235-.72.587-.72 1.056 0 .299.102.565.304.8.203.235.486.352.848.352.406 0 .742-.155 1.008-.464.192-.235.315-.496.368-.784.054-.299.08-.704.08-1.216zm9.099 2.144v1.552a7.014 7.014 0 01-1.84.256c-.448 0-.837-.059-1.168-.176-.32-.117-.555-.245-.704-.384a1.401 1.401 0 01-.352-.56 2.556 2.556 0 01-.144-.56 6.05 6.05 0 01-.016-.496V9.536h-1.552V7.968h1.552V6.384l2.352-.864v2.448h1.92v1.568h-1.92v3.648c0 .235.005.405.016.512.021.107.064.224.128.352a.546.546 0 00.32.272c.149.043.352.064.608.064.245 0 .512-.016.8-.048zm8.795-1.776h-5.424c0 1.44.549 2.16 1.648 2.16.757 0 1.226-.373 1.408-1.12h2.16c-.054.693-.31 1.28-.768 1.76-.598.63-1.542.944-2.832.944-1.248 0-2.198-.336-2.848-1.008-.694-.725-1.04-1.776-1.04-3.152 0-1.77.56-3.045 1.68-3.824a4.003 4.003 0 012.272-.672c.661 0 1.285.155 1.872.464.586.299 1.05.795 1.392 1.488.373.768.533 1.755.48 2.96zm-5.344-1.488h2.928c0-.16-.011-.31-.032-.448a3.106 3.106 0 00-.16-.576 1.024 1.024 0 00-.432-.56c-.203-.15-.464-.224-.784-.224-.491 0-.864.17-1.12.512-.246.341-.379.773-.4 1.296zm10.544-3.152h2.56l1.776 5.6 1.808-5.6h2.352l-3.056 7.936-.976 3.216h-2.384l1.024-3.04-3.104-8.112zm9.338 4.112c0-.523.069-1.024.208-1.504a4.88 4.88 0 01.672-1.36c.309-.437.747-.784 1.312-1.04.565-.267 1.227-.4 1.984-.4 1.387 0 2.432.405 3.136 1.216.704.8 1.056 1.808 1.056 3.024 0 1.227-.363 2.256-1.088 3.088-.715.821-1.765 1.232-3.152 1.232-1.205 0-2.197-.368-2.976-1.104-.768-.736-1.152-1.787-1.152-3.152zm2.432.016c0 1.728.592 2.592 1.776 2.592.565 0 .997-.208 1.296-.624.299-.416.448-1.13.448-2.144 0-1.707-.592-2.56-1.776-2.56-1.163 0-1.744.912-1.744 2.736zm7.637-4.128h2.4V13.216c.011.107.038.256.08.448.043.181.107.325.192.432.086.107.208.203.368.288.171.085.379.128.624.128.299 0 .544-.048.736-.144.203-.096.352-.203.448-.32.107-.128.187-.32.24-.576a3.43 3.43 0 00.08-.656c.011-.181.016-.453.016-.816V7.92h2.432v5.328c.011.501.016.923.016 1.264.011.33.016.55.016.656.011.107.016.187.016.24.011.192.032.39.064.592h-2.304l-.08-1.072c-.586.853-1.381 1.28-2.384 1.28a3.387 3.387 0 01-1.44-.304c-.426-.213-.757-.475-.992-.784-.352-.437-.528-1.163-.528-2.176V7.92zm9.862 8.08V9.904c0-.619-.038-1.29-.112-2.016h2.224l.048 1.552c.096-.224.192-.41.288-.56.106-.15.261-.315.464-.496.202-.192.474-.33.816-.416a4.098 4.098 0 011.184-.096V10c-.566-.053-1.035-.032-1.408.064-.363.096-.624.261-.784.496a1.97 1.97 0 00-.288.672 3.9 3.9 0 00-.064.784V16h-2.368zM.56 29.304h2.528v.448c.01.117.053.299.128.544.075.245.176.443.304.592.139.15.347.288.624.416.288.128.635.192 1.04.192.672 0 1.205-.144 1.6-.432.395-.299.592-.693.592-1.184 0-.47-.155-.795-.464-.976-.299-.181-.875-.373-1.728-.576-1.483-.373-2.565-.81-3.248-1.312-.672-.512-1.008-1.243-1.008-2.192 0-1.035.384-1.888 1.152-2.56.768-.683 1.91-1.024 3.424-1.024 1.6 0 2.763.453 3.488 1.36.437.555.656 1.27.656 2.144H7.264c-.096-1.173-.72-1.76-1.872-1.76-.576 0-1.04.144-1.392.432-.341.288-.512.667-.512 1.136 0 .49.17.832.512 1.024.352.192 1.019.41 2 .656.501.117.901.224 1.2.32.299.085.645.219 1.04.4.395.17.699.363.912.576.224.203.416.475.576.816.16.341.24.73.24 1.168 0 1.088-.437 1.99-1.312 2.704-.864.704-2.07 1.056-3.616 1.056a7.101 7.101 0 01-1.648-.176c-.48-.107-.875-.24-1.184-.4a2.653 2.653 0 01-.784-.64 4.152 4.152 0 01-.496-.704 3.22 3.22 0 01-.256-.784 7.737 7.737 0 01-.096-.688 8.39 8.39 0 01-.016-.576zM18.704 33H16.56a6.958 6.958 0 01-.08-1.104c-.598.864-1.403 1.296-2.416 1.296-.896 0-1.568-.213-2.016-.64-.47-.47-.704-1.061-.704-1.776 0-1.152.57-1.99 1.712-2.512.661-.299 1.728-.448 3.2-.448 0-.49-.038-.848-.112-1.072-.16-.448-.512-.672-1.056-.672-.395 0-.693.15-.896.448-.117.181-.176.421-.176.72h-2.32c.032-.853.336-1.488.912-1.904.608-.437 1.424-.656 2.448-.656 1.322 0 2.283.347 2.88 1.04.373.448.56 1.11.56 1.984l.016 3.248c0 .768.064 1.45.192 2.048zm-2.448-3.808c-.779-.064-1.408.021-1.888.256-.48.235-.72.587-.72 1.056 0 .299.101.565.304.8.203.235.485.352.848.352.405 0 .741-.155 1.008-.464.192-.235.314-.496.368-.784.053-.299.08-.704.08-1.216zm9.69-3.28v-4.464h2.384v10.24c0 .47.022.907.065 1.312h-2.4l-.065-1.168c-.224.405-.495.71-.816.912-.426.277-.949.416-1.567.416-1.078 0-1.92-.352-2.529-1.056-.608-.715-.912-1.701-.912-2.96 0-1.323.326-2.373.976-3.152.662-.79 1.526-1.184 2.592-1.184.982 0 1.74.368 2.273 1.104zm-3.44 3.168c0 .736.134 1.344.4 1.824.267.48.678.72 1.233.72.33 0 .629-.085.896-.256.266-.17.469-.39.607-.656.256-.49.384-1.125.384-1.904 0-.779-.16-1.381-.48-1.808-.309-.427-.735-.64-1.28-.64-.373 0-.688.101-.943.304a1.687 1.687 0 00-.544.768 5.77 5.77 0 00-.224.864 6.315 6.315 0 00-.049.784zM37.377 33h-2.144a6.958 6.958 0 01-.08-1.104c-.598.864-1.403 1.296-2.416 1.296-.896 0-1.568-.213-2.016-.64-.47-.47-.704-1.061-.704-1.776 0-1.152.57-1.99 1.712-2.512.661-.299 1.728-.448 3.2-.448 0-.49-.038-.848-.112-1.072-.16-.448-.512-.672-1.056-.672-.395 0-.694.15-.896.448-.118.181-.176.421-.176.72h-2.32c.032-.853.336-1.488.912-1.904.608-.437 1.424-.656 2.448-.656 1.322 0 2.282.347 2.88 1.04.373.448.56 1.11.56 1.984l.016 3.248c0 .768.064 1.45.192 2.048zm-2.448-3.808c-.779-.064-1.408.021-1.888.256-.48.235-.72.587-.72 1.056 0 .299.101.565.304.8.202.235.485.352.848.352.405 0 .741-.155 1.008-.464.192-.235.314-.496.368-.784.053-.299.08-.704.08-1.216zm9.818-4.288h2.336c0 .032-.01.272-.032.72-.01.437-.016.715-.016.832v9.616h-2.432v-4.016c-.586.704-1.333 1.056-2.24 1.056-.938 0-1.765-.352-2.48-1.056-.714-.715-1.072-1.781-1.072-3.2 0-.747.102-1.392.304-1.936.203-.555.47-.981.8-1.28.342-.31.704-.533 1.088-.672.384-.15.79-.224 1.216-.224 1.099 0 1.915.443 2.448 1.328l.08-1.168zm-3.52 4.016c0 .896.176 1.579.528 2.048.278.384.694.576 1.248.576.363 0 .667-.085.912-.256.246-.181.422-.416.528-.704.118-.299.192-.57.224-.816.043-.256.064-.523.064-.8s-.021-.544-.064-.8a4.11 4.11 0 00-.24-.848 1.52 1.52 0 00-.576-.736c-.266-.192-.592-.288-.976-.288-1.098 0-1.648.875-1.648 2.624zM56.048 33h-2.144a6.97 6.97 0 01-.08-1.104c-.598.864-1.403 1.296-2.416 1.296-.896 0-1.568-.213-2.016-.64-.47-.47-.704-1.061-.704-1.776 0-1.152.57-1.99 1.712-2.512.661-.299 1.728-.448 3.2-.448 0-.49-.038-.848-.112-1.072-.16-.448-.512-.672-1.056-.672-.395 0-.694.15-.896.448-.118.181-.176.421-.176.72h-2.32c.032-.853.336-1.488.912-1.904.608-.437 1.424-.656 2.448-.656 1.322 0 2.282.347 2.88 1.04.373.448.56 1.11.56 1.984l.016 3.248c0 .768.064 1.45.192 2.048zM53.6 29.192c-.779-.064-1.408.021-1.888.256-.48.235-.72.587-.72 1.056 0 .299.101.565.304.8.202.235.485.352.848.352.405 0 .741-.155 1.008-.464.192-.235.314-.496.368-.784.053-.299.08-.704.08-1.216zM58.01 33V21.448h2.352v4.576c.576-.81 1.355-1.216 2.336-1.216 1.003 0 1.787.363 2.352 1.088.352.49.528 1.221.528 2.192V33h-2.352v-4.832c0-1.173-.442-1.76-1.328-1.76-.405 0-.762.133-1.072.4-.298.256-.448.672-.448 1.248L60.394 33H58.01zm18.923-1.664v1.552c-.63.17-1.243.256-1.84.256-.448 0-.838-.059-1.168-.176-.32-.117-.555-.245-.704-.384a1.402 1.402 0 01-.352-.56 2.522 2.522 0 01-.144-.56 6.236 6.236 0 01-.016-.496v-4.432h-1.552v-1.568h1.552v-1.584l2.352-.864v2.448h1.92v1.568h-1.92v3.648c0 .235.005.405.016.512.021.107.064.224.128.352.064.128.17.219.32.272.149.043.352.064.608.064.245 0 .512-.016.8-.048zm1.098-2.304c0-.523.07-1.024.208-1.504.15-.48.374-.933.672-1.36.31-.437.747-.784 1.312-1.04.566-.267 1.227-.4 1.984-.4 1.387 0 2.432.405 3.136 1.216.704.8 1.056 1.808 1.056 3.024 0 1.227-.362 2.256-1.088 3.088-.714.821-1.765 1.232-3.152 1.232-1.205 0-2.197-.368-2.976-1.104-.768-.736-1.152-1.787-1.152-3.152zm2.432.016c0 1.728.592 2.592 1.776 2.592.566 0 .998-.208 1.296-.624.299-.416.448-1.13.448-2.144 0-1.707-.592-2.56-1.776-2.56-1.162 0-1.744.912-1.744 2.736zm18.763-1.264h-2.32c-.107-.992-.454-1.488-1.04-1.488-.832 0-1.248.859-1.248 2.576 0 1.227.197 2.053.592 2.48a.842.842 0 00.896.224c.096-.032.208-.09.336-.176.128-.096.234-.256.32-.48.096-.235.154-.517.176-.848h2.336c-.054 1.045-.4 1.84-1.04 2.384-.587.501-1.355.752-2.304.752-1.206 0-2.123-.357-2.752-1.072-.683-.79-1.024-1.85-1.024-3.184 0-.693.096-1.307.288-1.84.202-.533.442-.944.72-1.232.288-.288.613-.517.976-.688.373-.181.698-.299.976-.352.288-.053.56-.08.816-.08.864 0 1.626.25 2.288.752.661.501.997 1.259 1.008 2.272zM100.698 33V21.448h2.352v4.576c.576-.81 1.354-1.216 2.336-1.216 1.002 0 1.786.363 2.352 1.088.352.49.528 1.221.528 2.192V33h-2.352v-4.832c0-1.173-.443-1.76-1.328-1.76-.406 0-.763.133-1.072.4-.299.256-.448.672-.448 1.248l.016 4.944h-2.384zm9.637-9.488v-2.064h2.528v2.064h-2.528zm.08 9.488v-8.096h2.368V33h-2.368zm4.453 0V21.432h2.368V33h-2.368zm9.797-7.088v-4.464h2.384v10.24c0 .47.022.907.064 1.312h-2.4l-.064-1.168c-.224.405-.496.71-.816.912-.426.277-.949.416-1.568.416-1.077 0-1.92-.352-2.528-1.056-.608-.715-.912-1.701-.912-2.96 0-1.323.326-2.373.976-3.152.662-.79 1.526-1.184 2.592-1.184.982 0 1.739.368 2.272 1.104zm-3.44 3.168c0 .736.134 1.344.4 1.824.267.48.678.72 1.232.72.331 0 .63-.085.896-.256.267-.17.47-.39.608-.656.256-.49.384-1.125.384-1.904 0-.779-.16-1.381-.48-1.808-.309-.427-.736-.64-1.28-.64-.373 0-.688.101-.944.304a1.695 1.695 0 00-.544.768c-.106.32-.181.608-.224.864a6.315 6.315 0 00-.048.784zm7.878 3.92v-6.096c0-.619-.038-1.29-.112-2.016h2.224l.048 1.552c.096-.224.192-.41.288-.56.106-.15.261-.315.464-.496.202-.192.474-.33.816-.416a4.1 4.1 0 011.184-.096V27c-.566-.053-1.035-.032-1.408.064-.363.096-.624.261-.784.496a1.97 1.97 0 00-.288.672 3.9 3.9 0 00-.064.784V33h-2.368zm13.265-3.44h-5.424c0 1.44.549 2.16 1.648 2.16.757 0 1.227-.373 1.408-1.12h2.16c-.053.693-.309 1.28-.768 1.76-.597.63-1.541.944-2.832.944-1.248 0-2.197-.336-2.848-1.008-.693-.725-1.04-1.776-1.04-3.152 0-1.77.56-3.045 1.68-3.824a4.003 4.003 0 012.272-.672c.661 0 1.285.155 1.872.464.587.299 1.051.795 1.392 1.488.373.768.533 1.755.48 2.96zm-5.344-1.488h2.928c0-.16-.011-.31-.032-.448a3.03 3.03 0 00-.16-.576 1.024 1.024 0 00-.432-.56c-.203-.15-.464-.224-.784-.224-.491 0-.864.17-1.12.512-.245.341-.379.773-.4 1.296zM143.963 33v-6.64c0-.608-.016-1.099-.048-1.472h2.272l.064 1.216c.576-.939 1.45-1.408 2.624-1.408.704 0 1.253.16 1.648.48.405.31.677.656.816 1.04.149.416.224 1.221.224 2.416V33h-2.416v-5.024c0-.416-.043-.71-.128-.88-.224-.459-.608-.688-1.152-.688-.544 0-.955.208-1.232.624-.192.277-.288.688-.288 1.232V33h-2.384zm14.122-9.488v-2.064h2.528v2.064h-2.528zm.08 9.488v-8.096h2.368V33h-2.368zm4.485 0v-6.64c0-.608-.016-1.099-.048-1.472h2.272l.064 1.216c.576-.939 1.451-1.408 2.624-1.408.704 0 1.253.16 1.648.48.405.31.677.656.816 1.04.149.416.224 1.221.224 2.416V33h-2.416v-5.024c0-.416-.043-.71-.128-.88-.224-.459-.608-.688-1.152-.688-.544 0-.955.208-1.232.624-.192.277-.288.688-.288 1.232V33h-2.384zm13.419-11.52h2.896l2.384 5.264 2.432-5.264h2.544l-3.904 7.312V33h-2.448v-4.24l-3.904-7.28zm17.002 8.08h-5.424c0 1.44.549 2.16 1.648 2.16.757 0 1.227-.373 1.408-1.12h2.16c-.053.693-.309 1.28-.768 1.76-.597.63-1.541.944-2.832.944-1.248 0-2.197-.336-2.848-1.008-.693-.725-1.04-1.776-1.04-3.152 0-1.77.56-3.045 1.68-3.824a4.003 4.003 0 012.272-.672c.661 0 1.285.155 1.872.464.587.299 1.051.795 1.392 1.488.373.768.533 1.755.48 2.96zm-5.344-1.488h2.928c0-.16-.011-.31-.032-.448a3.03 3.03 0 00-.16-.576 1.024 1.024 0 00-.432-.56c-.203-.15-.464-.224-.784-.224-.491 0-.864.17-1.12.512-.245.341-.379.773-.4 1.296zM194.682 33v-6.56c0-.448-.027-.955-.08-1.52h2.288l.08 1.04c.586-.81 1.418-1.216 2.496-1.216 1.269 0 2.117.507 2.544 1.52.522-1.003 1.386-1.504 2.592-1.504 1.162 0 1.984.432 2.464 1.296.266.437.4 1.184.4 2.24V33h-2.384v-4.752a4.08 4.08 0 00-.08-.88c-.043-.235-.171-.448-.384-.64-.214-.203-.512-.304-.896-.304-.278 0-.512.053-.704.16a1.366 1.366 0 00-.432.384c-.096.139-.171.336-.224.592-.043.256-.07.475-.08.656a12.89 12.89 0 00-.016.736V33h-2.384v-4.8c0-.224-.011-.41-.032-.56a3.09 3.09 0 00-.144-.544.838.838 0 00-.4-.496c-.192-.117-.443-.176-.752-.176-.352 0-.64.064-.864.192a1.02 1.02 0 00-.448.544c-.075.224-.123.41-.144.56a3.49 3.49 0 00-.032.528V33h-2.384zm22.389-3.44h-5.424c0 1.44.549 2.16 1.648 2.16.757 0 1.227-.373 1.408-1.12h2.16c-.053.693-.309 1.28-.768 1.76-.597.63-1.541.944-2.832.944-1.248 0-2.197-.336-2.848-1.008-.693-.725-1.04-1.776-1.04-3.152 0-1.77.56-3.045 1.68-3.824a4.003 4.003 0 012.272-.672c.661 0 1.285.155 1.872.464.587.299 1.051.795 1.392 1.488.373.768.533 1.755.48 2.96zm-5.344-1.488h2.928c0-.16-.011-.31-.032-.448a3.03 3.03 0 00-.16-.576 1.024 1.024 0 00-.432-.56c-.203-.15-.464-.224-.784-.224-.491 0-.864.17-1.12.512-.245.341-.379.773-.4 1.296zM218.666 33v-6.64c0-.608-.016-1.099-.048-1.472h2.272l.064 1.216c.576-.939 1.45-1.408 2.624-1.408.704 0 1.253.16 1.648.48.405.31.677.656.816 1.04.149.416.224 1.221.224 2.416V33h-2.416v-5.024c0-.416-.043-.71-.128-.88-.224-.459-.608-.688-1.152-.688-.544 0-.955.208-1.232.624-.192.277-.288.688-.288 1.232V33h-2.384z" fill="#fff"/></svg>