<svg width="36" height="36" viewBox="0 0 36 36" fill="none" xmlns="http://www.w3.org/2000/svg"><path d="M27.765 25.496a65.509 65.509 0 00-.339-.7c-.161-.323-.336-.674-.385-.78-.194-.41-.267-.56-.612-1.251-.193-.394-.397-.8-.446-.906-.048-.105-.127-.268-.172-.363-.144-.298-.89-1.826-.947-1.941a34.498 34.498 0 01-.454-.92c-.223-.467-.224-.457.046-.836.075-.102.17-.238.212-.304l.186-.283c.061-.086.237-.342.391-.567.152-.228.333-.489.4-.584.067-.095.157-.227.199-.293.042-.067.127-.194.186-.283a144.053 144.053 0 001.187-1.74c.067-.096.145-.214.179-.264.03-.048.154-.225.269-.396.117-.168.252-.373.308-.455.137-.197.277-.406.42-.613.066-.095.142-.207.168-.25.028-.041.107-.16.181-.261l.159-.225c.044-.063-.031-.084-.193-.055l-.82.164a11.966 11.966 0 00-.665.131l-.514.105c-.401.075-1.03.197-1.758.342-.087.019-.242.047-.343.07-.101.017-.293.054-.429.083-.135.03-.308.063-.382.076-.073.013-.221.044-.325.064-.106.022-.355.07-.554.109-.2.038-.476.092-.611.121-.136.03-.33.064-.434.084a.911.911 0 00-.21.047c-.01.008-.061.011-.111.005-.086-.013-.095-.023-.231-.301-.08-.159-.177-.36-.217-.449a85.26 85.26 0 00-.613-1.252c-.295-.6-.575-1.171-.62-1.266-.044-.095-.282-.58-.529-1.079-.441-.896-.588-1.192-.67-1.379-.022-.052-.072-.143-.102-.201a141.7 141.7 0 01-1.659-3.396l-.214-.439a8.249 8.249 0 01-.151-.323c-.02-.04-.045-.064-.058-.053-.013.011-.078.765-.146 1.676-.18 2.47-.213 2.902-.267 3.621-.03.363-.066.892-.087 1.174-.017.282-.078 1.094-.131 1.803-.054.71-.121 1.642-.149 2.075-.028.428-.069.792-.087.807-.018.016-.21.131-.21.131l-.225.078s-.048.048-.556.15c-.438.083-1.308.256-1.5.293l-.362.073a7.601 7.601 0 00-.338.065c-.098.02-.26.05-.362.072-.099.02-.249.049-.335.063-.084.017-.249.049-.362.073-.116.021-.367.072-.554.11-.557.106-.939.182-1.32.257-.114.024-.287.058-.38.079-.165.031-.441.085-.796.156-.19.04-.355.07-1.04.205l-1.11.216c-.114.024-.287.057-.38.078-.165.032-.441.085-.796.156-.454.092-.535.106-.677.133-.084.017-.25.048-.363.072l-1.503.296c-.884.173-1.099.22-1.103.24.001.013.29.116.639.235.354.119.666.225.691.239a43.301 43.301 0 01.788.269c.438.15 3.37 1.144 3.491 1.183.034.008.247.081.472.158a1116.281 1116.281 0 014.087 1.388 115.07 115.07 0 01.664.222c.025.014.675.235 1.44.492.764.257 1.407.492 1.424.523.036.058-.025 1.024-.23 3.709-.03.377-.07.903-.087 1.173-.018.27-.075 1.04-.122 1.708-.183 2.495-.256 3.525-.304 4.14-.022.35-.026.626-.001.619.035-.017.24-.297.427-.59.042-.065.13-.2.196-.295.067-.095.143-.207.169-.25.028-.041.106-.16.181-.261.073-.105.173-.245.22-.32.088-.13.393-.583.617-.91l.168-.25.17-.248c.06-.088.155-.225.209-.309.19-.282.657-.966.769-1.125l.186-.282c.042-.066.132-.198.199-.293.066-.096.248-.357.4-.584l.39-.568.187-.282c.042-.067.137-.203.21-.307.074-.102.153-.225.182-.27.025-.044.079-.124.118-.178.07-.098.444-.638.598-.868.079-.123.176-.261.42-.613.302-.441.443-.634.462-.632.036.006 3.247 1.088 3.424 1.156.049.021.827.284 1.728.587.9.302 1.682.568 1.738.592.123.051.147.027.096-.103z" fill="#fff" opacity=".4"/></svg>