<svg width="90" height="90" viewBox="0 0 90 90" fill="none" xmlns="http://www.w3.org/2000/svg"><path fill="#1CABE2" d="M0 0h90v90H0z"/><path d="M18.007 58.082V53.61H17v-.55h1.007v-1.07c0-.86.348-1.248 1.205-1.248.193.016.384.052.57.108v.481a2.205 2.205 0 00-.369-.04c-.817 0-.838.41-.807 1.129v.64h1.14v.55h-1.14v4.467l-.599.004zM24.623 55.572c0 1.32-.737 2.658-2.33 2.658-1.591 0-2.33-1.334-2.33-2.657 0-1.324.737-2.659 2.325-2.659 1.589 0 2.33 1.335 2.33 2.658h.005zm-2.335-2.108c-1.205 0-1.683 1.18-1.683 2.108 0 .929.478 2.11 1.683 2.11s1.684-1.181 1.684-2.11c0-.928-.48-2.108-1.684-2.108zM26.088 58.082h-.598v-3.888c0-.391-.029-.79-.05-1.129h.618l.03.736h.02a1.29 1.29 0 011.124-.888c.19 0 .4 0 .599.01v.571c-.12-.01-.25-.04-.369-.04-.885 0-1.355.64-1.374 1.6v3.028zM30.732 55.708c.02 1.07.508 1.97 1.733 1.97a1.487 1.487 0 001.444-1.2h.627c-.308 1.2-1.056 1.749-2.26 1.749-1.494 0-2.192-1.29-2.192-2.658 0-1.37.747-2.658 2.231-2.658 1.674 0 2.28 1.23 2.28 2.797h-3.863zm3.217-.55c-.07-.968-.587-1.698-1.624-1.698-.975 0-1.494.82-1.574 1.699h3.198zM35.403 53.065l1.723 4.187 1.663-4.187h.657l-1.982 5.017h-.678l-2.04-5.017h.657zM40.218 55.708c.019 1.07.507 1.97 1.733 1.97a1.486 1.486 0 001.444-1.2h.627c-.308 1.2-1.057 1.749-2.261 1.749-1.494 0-2.191-1.29-2.191-2.658 0-1.37.746-2.658 2.23-2.658 1.675 0 2.28 1.23 2.28 2.797h-3.862zm3.217-.55c-.07-.968-.588-1.698-1.625-1.698-.975 0-1.494.82-1.573 1.699h3.198zM45.608 58.082h-.596v-3.888c0-.391-.03-.79-.05-1.129h.618l.028.738h.021a1.288 1.288 0 011.125-.889c.2 0 .4 0 .599.01v.572c-.12-.01-.251-.04-.369-.04-.887 0-1.355.64-1.376 1.6v3.026zM48.635 53.065l1.684 4.197 1.674-4.197h.646L49.882 60h-.658l.757-1.918-2.072-5.017h.726zM58.335 54.604c-.049-.763-.537-1.144-1.364-1.144-.916 0-1.484.953-1.484 2.097 0 1.144.57 2.119 1.484 2.119.777 0 1.315-.48 1.364-1.17h.648c-.16 1.145-.817 1.717-1.951 1.717-1.495 0-2.19-1.29-2.19-2.658 0-1.37.746-2.658 2.228-2.658 1.026 0 1.864.62 1.913 1.69l-.648.007zM60.414 53.824h.021a1.714 1.714 0 011.564-.91c1.632 0 1.761 1.45 1.761 2.03v3.138h-.596V54.84c0-.867-.498-1.378-1.315-1.378-.986 0-1.435.83-1.435 1.73v2.888h-.596v-7.213h.596v2.957zM65.421 51.616h-.697v-.75h.697v.75zm-.05 1.45v5.016h-.596v-5.017h.597zM67.137 58.082h-.599v-7.215h.599v7.215zM71.84 57.342l-.02-.04a2.036 2.036 0 01-1.71.928c-1.483 0-2.05-1.418-2.05-2.669 0-1.3.57-2.639 2.05-2.639a1.997 1.997 0 011.71.91l.02-.021v-2.937h.598v6.085c0 .39.029.789.05 1.13h-.618l-.03-.74v-.007zm-1.633-3.878c-1.14 0-1.504 1.06-1.504 2.019 0 .928.27 2.198 1.415 2.198 1.304 0 1.71-1.088 1.71-2.229 0-1.018-.448-1.988-1.613-1.988h-.008zM17.087 47.565v-.304H72.44v.303H17.087zM65.326 30.007a5.208 5.208 0 00-2.9.885 5.236 5.236 0 00-1.921 2.352 5.257 5.257 0 001.134 5.709 5.205 5.205 0 005.69 1.134 5.226 5.226 0 002.343-1.93 5.252 5.252 0 00-.651-6.614 5.218 5.218 0 00-3.69-1.536h-.005zm4.072 2.317c-.269.181-.549.344-.84.488a5.616 5.616 0 00-.623-.98c.214-.13.417-.276.608-.437.323.273.61.585.855.929zm-2.196-1.74c.418.172.811.398 1.17.674a4.7 4.7 0 01-.57.408 5.495 5.495 0 00-.859-.797c.096-.088.184-.183.264-.284h-.005zm.404 1.19c-.28.152-.575.276-.88.368a7.854 7.854 0 00-.434-.854 2.4 2.4 0 00.477-.278c.305.223.586.479.837.763v.002zm-.617-1.27c-.07.086-.148.165-.232.237a5.294 5.294 0 00-.874-.484c.377.039.748.122 1.106.248zm-.409.382a2.174 2.174 0 01-.399.225 7.6 7.6 0 00-.503-.706c.316.131.619.292.904.48h-.002zm-1.14-.442c.195.235.375.482.54.74a2.085 2.085 0 01-.54.095v-.835zm0 1.052c.224-.01.445-.052.658-.122.16.268.303.547.427.833a4.732 4.732 0 01-1.085.15v-.865.004zm-.216-1.043v.826c-.18-.01-.36-.042-.532-.096.163-.253.34-.497.532-.73zm-.753.658a2.102 2.102 0 01-.4-.225c.283-.188.585-.348.9-.477-.18.224-.347.458-.5.702zm.3-.852a5.46 5.46 0 00-.881.488 2.444 2.444 0 01-.23-.237c.36-.126.733-.21 1.111-.251zm3.578 8.993c-.695-.38-.708-.913-.67-1.107.038-.195.172-.113.258-.113.456 0 .937-.135 1.52-.741.667-.683.878-2.2-.148-3.192-1.104-1.066-2.28-.88-3.04.08a1.15 1.15 0 01-.861.328c-.487-.017-.18.366-.18.446 0 .08-.075.137-.118.124-.164-.048-.1.19-.1.273a.11.11 0 01-.102.11c-.205 0-.148.19-.142.236a.19.19 0 01-.08.172.442.442 0 00-.143.322c0 .224.204.382.544.632a.808.808 0 01.38.667c-.002.216.032.431.099.637.09.223.08.63-.39.65-.57.023-1.588.482-1.674.513a2.02 2.02 0 01-1.085.072 5.348 5.348 0 01-.511-.415.79.79 0 01.165-.647.89.89 0 00.635.19 7.463 7.463 0 001.053-.154.283.283 0 01.228 0c.3.11.708.142.876-.432.167-.574-.228-.414-.278-.382-.05.033-.118.017-.093-.03.074-.147-.036-.132-.099-.138a.744.744 0 00-.437.216.148.148 0 01-.16.044c-.212-.107-.845.047-1.04-.298a11.906 11.906 0 00-.253-1.73.234.234 0 01.024-.228c.16-.244.605.017.844.012a.43.43 0 00.414-.225c.074-.096.131-.042.171-.069.04-.027 0-.103.023-.14.023-.035.04-.018.088-.06.047-.042 0-.138.019-.174.072-.108.266-.023.148-.303a.455.455 0 01.112-.433c.138-.19.678-.942-.272-1.733-.906-.753-1.824-.692-2.417-.05-.593.643-.294 1.585-.234 1.833a.522.522 0 01-.319.572 4.53 4.53 0 00-.811.572c.02-.984.327-1.94.885-2.75a4.991 4.991 0 012.252-1.8c.08.101.17.196.264.285-.209.152-.663.56-.663.56s.063.01.12.025l.125.034s.401-.341.59-.478c.146.112.305.206.474.28-.091.154-.32.585-.32.585l.102.063a.911.911 0 01.078.06s.248-.47.341-.628c.21.07.43.11.65.12v.864c-.123 0-.439-.017-.57-.03h-.08l.044.066c.032.046.06.095.084.145l.01.017h.02c.093 0 .38.02.489.021v1.571h.216v-.389c.32-.015.584-.036.905-.065h.013l.281-.247-.154.013c-.338.044-.634.065-.904.08h-.14v-.997c.395-.008.789-.063 1.171-.164.105.26.303.888.303.888l.205-.064s-.19-.626-.302-.885c.324-.102.638-.235.937-.399.24.294.448.614.619.954-.154.072-.435.171-.435.171.134.015.266.042.395.08l.131-.057.06.136.28.125-.032-.078s-.093-.223-.116-.274c.3-.15.592-.318.87-.506a5.035 5.035 0 01-1.162 6.746l.02.015zM59.632 31.401l-.082.073c-.306.27-1.005.99-.897 1.777l.01.055.036.156.096-.09c.428-.392.751-1.06.882-1.828l.036-.217-.081.074zM58.21 32.76l-.034.096c-.092.25-.155.511-.19.776-.066.52-.051 1.257.4 1.806l.048.064.054.067.066-.333c.074-.591-.025-1.829-.24-2.382l-.075-.19-.034.093.005.004zM57.691 34.89v.098c-.038.528-.01 1.836 1.044 2.528l.125.082v-.149c-.017-.495-.595-1.977-1.028-2.507l-.121-.149v.098h-.02zM57.874 37.228l.017.09c.156.751.865 1.965 1.961 2.318l.148.05-.053-.149c-.205-.562-1.26-1.87-1.94-2.301l-.152-.097.019.09zM60.074 32.532l-.085.053c-.817.498-1.2 1.104-1.169 1.852v.17l.118-.1c.44-.366.994-1.302 1.157-1.834l.06-.19-.088.053.007-.004zM59.596 34.162l-.063.057c-.21.191-.884.921-.827 1.814.012.15.044.297.093.438l.048.143.087-.122c.323-.457.76-1.66.728-2.22v-.169l-.06.06h-.006zM59.584 35.785a2.65 2.65 0 00-.504 1.51c.012.362.13.714.337 1.01l.07.107.061-.114c.146-.277.264-1.179.247-1.89a2.56 2.56 0 00-.074-.602l-.046-.158-.09.137zM60.025 37.373l-.021.07c-.099.309-.147.63-.142.954a1.885 1.885 0 00.91 1.61l.099.062.02-.133v-.107c-.015-.563-.433-1.981-.76-2.414l-.09-.118-.024.07.008.006zM58.875 39.57l.042.07c.44.74 1.186 1.693 2.58 1.447l.116-.019-.066-.099c-.26-.381-1.951-1.346-2.55-1.445l-.163-.027.041.072zM60.939 41.446l-.22.059.21.086c.886.364 1.997.472 2.643.255.219-.083.414-.218.57-.393 1.14.119 2.197 1.064 2.817 1.838l.034.039.047-.016a.744.744 0 00.222-.156l.042-.048-.038-.051a5.596 5.596 0 00-1.71-1.394c-.91-.446-2.517-.793-4.623-.22h.006zM60.984 39.08l.014.074c.133.839.471 1.939 1.883 1.817h.09l-.024-.088c-.095-.381-1.387-1.489-1.839-1.8l-.135-.07.011.074v-.008zM70.958 31.327l.038.217c.131.763.453 1.436.882 1.829l.097.09.034-.157.011-.055c.107-.788-.592-1.507-.898-1.777l-.082-.073-.082-.074zM72.427 32.667l-.074.191c-.217.553-.316 1.79-.241 2.381l.068.334.051-.067.05-.065c.45-.549.465-1.285.399-1.805a3.785 3.785 0 00-.19-.776l-.036-.096-.034-.093.007-.004zM72.974 34.793l-.123.149c-.431.53-1.01 2.011-1.028 2.507v.149l.123-.082c1.055-.692 1.082-2 1.045-2.528v-.195h-.017zM72.817 37.139l-.152.097c-.679.43-1.735 1.739-1.94 2.301l-.056.149.153-.05c1.094-.353 1.805-1.567 1.959-2.318l.018-.09.018-.09zM70.552 32.446l.057.19c.152.537.686 1.482 1.119 1.858l.118.103.01-.172c.043-.745-.328-1.36-1.141-1.874l-.086-.055-.077-.05zM71.015 34.109v.17c-.022.558.405 1.761.728 2.219l.087.122.048-.143a1.68 1.68 0 00.093-.439c.059-.892-.618-1.613-.827-1.813l-.06-.057-.063-.06h-.006zM70.998 35.648l-.047.158c-.05.197-.073.4-.072.602-.018.711.098 1.613.245 1.89l.06.114.073-.107a1.88 1.88 0 00.334-1.01 2.635 2.635 0 00-.503-1.51l-.044-.069-.046-.069zM70.624 37.303l-.091.118c-.327.432-.745 1.851-.76 2.414v.106l.022.134.1-.063a1.878 1.878 0 00.907-1.61 2.88 2.88 0 00-.142-.953l-.023-.07-.02-.07.007-.006zM71.838 39.5l-.161.028c-.599.099-2.292 1.058-2.552 1.445l-.065.099.116.02c1.395.245 2.14-.708 2.578-1.448l.042-.07.042-.073z" fill="#fff"/><path d="M65.11 41.665a5.6 5.6 0 00-1.701 1.394l-.04.051.044.048a.72.72 0 00.222.156l.048.016.032-.039c.62-.774 1.682-1.716 2.816-1.838.156.175.351.31.57.393.644.218 1.756.109 2.643-.255l.21-.086-.22-.06c-2.107-.571-3.714-.226-4.624.22zM69.698 39.005l-.134.07c-.453.311-1.745 1.42-1.84 1.8l-.023.088h.09c1.412.122 1.752-.978 1.885-1.817l.022-.148v.007zM33.612 30.378H35.4v1.632h-1.787v-1.632zm.141 11.44v-7.955h1.5v7.947l-1.5.008zM22.436 33.869h1.5v7.949h-1.458v-1.173h-.033c-.598.997-1.609 1.41-2.715 1.41-1.655 0-2.603-1.269-2.603-2.86v-5.326h1.501v4.703c0 1.377.316 2.392 1.75 2.392.616 0 1.452-.317 1.767-1.145.2-.602.301-1.233.3-1.868v-4.082h-.01zM26.928 35.041h.032c.506-.997 1.61-1.409 2.398-1.409.553 0 2.998.141 2.998 2.693v5.493H30.86v-5.003c0-1.314-.553-2.027-1.816-2.027a2.054 2.054 0 00-1.452.585c-.22.221-.63.572-.63 2.122v4.323h-1.5v-7.95h1.467v1.173zM41.53 36.418c-.08-.992-.549-1.682-1.615-1.682-1.425 0-1.976 1.242-1.976 3.099 0 1.857.551 3.1 1.976 3.1.986 0 1.598-.643 1.676-1.779h1.492c-.128 1.779-1.444 2.86-3.185 2.86-2.523 0-3.527-1.792-3.527-4.122s1.16-4.248 3.654-4.248c1.663 0 2.915 1.054 2.991 2.768l-1.486.004zM45.321 38.117c-.11 1.386.454 2.818 1.974 2.818 1.161 0 1.74-.456 1.912-1.607h1.57c-.236 1.796-1.616 2.692-3.497 2.692-2.523 0-3.528-1.793-3.528-4.123s1.16-4.248 3.654-4.248c2.35.05 3.464 1.541 3.464 3.73v.738H45.32zm3.98-1.037c.033-1.32-.57-2.344-2.006-2.344-1.24 0-1.974 1.05-1.974 2.344h3.98zM52.557 41.79v-6.865h-1.355v-1.041h1.355v-1.697c.047-1.731 1.347-2.187 2.46-2.187.36.021.717.073 1.068.156v1.242c-.252-.014-.501-.048-.76-.048-.845 0-1.33.223-1.284 1.087v1.447h1.818v1.041h-1.818v6.864h-1.484z" fill="#fff"/></svg>