<svg width="94" height="36" viewBox="0 0 94 36" fill="none" xmlns="http://www.w3.org/2000/svg"><path d="M3.236.462c-.123.256-.246.57-.277.689-.062.167-.174.216-.687.275-1.21.138-1.21.138-.513.65l.605.442-.256.59c-.595 1.367-.657 1.544-.523 1.446.071-.05.492-.374.943-.698.441-.335.851-.58.923-.541.062.04.595.413 1.17.846.584.423 1.076.757 1.097.737.01-.02-.205-.54-.472-1.16-.277-.62-.523-1.2-.554-1.289-.04-.108.226-.364.893-.856.512-.393.912-.708.882-.708-.02 0-.544.07-1.16.148-.604.088-1.128.128-1.169.098-.03-.03-.153-.285-.277-.57C3.738.285 3.595.039 3.533.02c-.051-.01-.184.187-.297.442zM63.615 1.623c0 .03.144.393.329.806l.328.748-.257.207c-.143.108-.42.334-.615.482l-.349.275.308-.05c.174-.029.523-.078.78-.117l.482-.06.184.463.185.462.225-.482c.236-.53.38-.62.923-.62.38 0 .452-.127.175-.285-.575-.324-.575-.334-.298-1.003.144-.334.257-.63.236-.649-.02-.01-.277.147-.584.364-.298.216-.595.364-.657.324a17.25 17.25 0 01-.697-.491c-.554-.404-.698-.482-.698-.374zM8.59 4.013c-.534.325-1.149 1.053-1.518 1.8-.975 1.977-1.734 5.42-2.031 9.236-.113 1.485-.205 1.77-.523 1.77-.215 0 .072-3.698.543-6.983.165-1.16.298-2.252.298-2.43 0-.62-.544-.855-2.36-1.022-1.343-.118-1.538-.05-1.855.649C.528 8.36.23 10.71.23 14.213c0 2.784.102 4.18.461 6.295.79 4.722 2.523 7.495 4.698 7.525.44 0 1.2-.335 1.2-.531 0-.07-.175-.502-.4-.954a16.892 16.892 0 01-1.18-3.217c-.328-1.22-.595-3-.554-3.62.031-.462.041-.481.39-.54.195-.03.451-.089.564-.119.185-.059.298.119.995 1.486 3.005 5.921 6.636 10.091 9.949 11.41 1.025.413 2.123.57 2.964.422 1.364-.226 1.836-1.18.584-1.19-.184 0-.605-.108-.923-.236-2.133-.846-4.84-3.915-7.774-8.823-.8-1.347-2.359-4.249-2.359-4.396 0-.06.215-.217.492-.374.708-.394 2.041-1.417 2.698-2.076 1.949-1.937 2.861-3.944 2.861-6.275 0-1.889-.471-3.511-1.271-4.357-.575-.61-1.047-.728-3.036-.777-1.529-.04-1.723-.02-2 .147zm1.682 1.298c.954.463 1.446 1.574 1.446 3.227-.01 2.321-1.405 4.514-4.133 6.462-.77.56-1.806 1.18-1.857 1.121-.061-.069.226-2.655.451-4.072.606-3.797 1.447-6.216 2.37-6.816.297-.197.43-.226.85-.167.278.03.668.137.873.245zM17.359 4.23c0 .177.072.196.718.196h.718l.02 1.79.031 1.8h.513l.03-1.8.021-1.79h.667c.595 0 .666-.02.666-.197 0-.186-.071-.196-1.692-.196-1.62 0-1.692.01-1.692.196zM21.38 6.02c.03 1.986.03 1.996.266 2.026.226.03.226.01.226-.944 0-.836.03-1.014.215-1.24a.628.628 0 01.544-.256c.554 0 .666.217.697 1.378.031.983.041 1.032.267 1.062.226.03.226.02.226-1.2 0-1.21 0-1.23-.267-1.426-.185-.138-.42-.207-.708-.207-.287 0-.523.069-.707.207l-.267.196V4.83c0-.786 0-.796-.257-.796h-.256l.02 1.987zM33.441 4.672c-.092.403-.123.669-.061.698.143.089.328-.137.625-.777l.267-.56h-.339c-.318 0-.338.01-.492.64zM47.82 6.05c0 1.947.01 2.016.205 2.016.134 0 .206-.07.206-.187 0-.177.01-.177.38 0 .45.226.738.236 1.21.049.512-.207.697-.63.646-1.456-.031-.56-.083-.708-.308-.924-.339-.335-1.036-.423-1.498-.197l-.328.167V4.77c0-.718-.01-.737-.256-.737h-.257v2.016zm1.805-.316c.38.315.462 1.141.154 1.614-.184.275-.266.324-.615.324-.657 0-.913-.383-.841-1.23.072-.806.738-1.17 1.302-.708zM54.826 4.593c-.072.02-.134.177-.134.335 0 .236-.04.285-.256.285-.185 0-.257.05-.257.197 0 .147.072.197.257.197h.256v1.13c0 1.26.041 1.329.76 1.329.297 0 .369-.04.369-.187 0-.138-.083-.207-.277-.227l-.288-.03-.03-1.012-.031-1.003h1.241v1.072c0 1.239.072 1.387.728 1.387.328 0 .4-.03.4-.197 0-.138-.072-.197-.246-.197-.328 0-.37-.147-.37-1.19v-.875h.308c.236 0 .308-.04.308-.197 0-.158-.072-.197-.308-.197-.287 0-.307-.03-.307-.344 0-.187-.041-.344-.093-.344-.266 0-.42.147-.42.393 0 .236-.051.285-.277.315a3.23 3.23 0 01-.615-.01c-.308-.03-.339-.06-.339-.364 0-.325-.082-.384-.38-.266zM25.297 5.4c-.43.256-.584.659-.533 1.446.041.59.072.688.37.934.604.522 1.825.335 2.05-.305.103-.265.093-.295-.102-.295-.113 0-.338.128-.492.295-.175.187-.39.295-.554.295-.38 0-.78-.403-.78-.786v-.296h2.082l-.071-.472c-.082-.649-.493-1.003-1.17-1.003-.287 0-.605.069-.8.187zm1.262.334a.98.98 0 01.185.384l.071.275h-.78c-.686 0-.779-.02-.779-.177 0-.55.883-.875 1.303-.482zM28.21 5.282c-.02.05-.02.688 0 1.436.031 1.338.031 1.357.257 1.328.215-.03.225-.089.277-1.043.05-1.121.153-1.298.738-1.298.246 0 .287-.04.287-.256 0-.236-.03-.256-.328-.197-.174.03-.4.128-.503.217-.153.128-.174.128-.225-.06-.052-.186-.431-.284-.503-.127zM30.826 5.41c-.431.246-.575.521-.585 1.18-.02 1.033.39 1.476 1.364 1.476.4 0 .574-.06.82-.256.38-.305.421-.63.083-.63a.38.38 0 00-.329.217c-.143.305-.584.442-.923.295-.277-.118-.615-.738-.512-.905.04-.06.523-.098 1.097-.098h1.036l-.072-.423c-.133-.758-.482-1.053-1.272-1.053-.205 0-.523.089-.707.197zm1.271.324a.812.812 0 01.154.364c.031.236.01.246-.707.276-.8.03-.893-.04-.636-.482.205-.374.871-.453 1.19-.158zM34.733 5.39c-.738.453-.482 1.131.534 1.426.748.217.923.364.769.64-.216.393-1.046.344-1.19-.07-.041-.137-.154-.206-.318-.206-.338 0-.328.325.02.66.236.226.319.245.985.206.831-.04 1.108-.246 1.108-.816 0-.423-.246-.61-1.036-.817-.626-.157-.656-.187-.656-.462 0-.256.04-.295.297-.325.42-.049.78.06.78.226 0 .089.102.148.256.148.185 0 .256-.05.256-.177 0-.521-1.19-.797-1.805-.433zM39.102 6.64v1.426h.257c.256 0 .256 0 .256-.974 0-.826.031-1.003.216-1.23a.628.628 0 01.543-.255c.554 0 .667.216.698 1.377.03.983.04 1.032.266 1.062.226.03.226.02.226-1.092 0-.63-.03-1.21-.062-1.298-.174-.433-1.169-.58-1.62-.236l-.267.196V5.42c0-.158-.061-.207-.256-.207h-.257V6.64zM43.04 5.4c-.563.325-.81 1.25-.512 1.918.226.511.616.748 1.251.748.688 0 .954-.118 1.262-.541.205-.296.236-.433.195-.964-.041-.66-.257-1.053-.677-1.24-.38-.167-1.16-.128-1.518.079zm1.242.266c.226.088.462.56.462.924 0 .797-.595 1.328-1.221 1.082-.308-.118-.37-.206-.533-.728-.123-.393.05-.993.348-1.19.226-.157.646-.197.944-.088zM51.749 5.41c-.431.246-.575.521-.585 1.18-.02 1.033.39 1.476 1.364 1.476.4 0 .574-.06.82-.256.38-.305.421-.63.083-.63a.38.38 0 00-.329.217c-.143.305-.584.442-.923.295-.277-.118-.615-.738-.513-.905.042-.06.524-.098 1.098-.098H53.8l-.072-.423c-.133-.758-.482-1.053-1.272-1.053-.205 0-.523.089-.707.197zm1.271.324a.81.81 0 01.154.364c.031.236.01.246-.707.276-.8.03-.893-.04-.636-.482.205-.374.871-.453 1.19-.158zM58.682 5.44c-.595.383-.77 1.248-.4 2.016.226.472.492.61 1.23.61.39 0 .565-.06.811-.256.4-.315.42-.63.062-.63-.154 0-.257.06-.257.138 0 .197-.4.452-.687.452-.328 0-.738-.393-.77-.737l-.03-.295 1.056-.03c1.16-.03 1.15-.02.934-.738-.205-.718-1.231-.993-1.949-.53zm1.067.176c.287.148.38.276.38.551 0 .217-.042.226-.719.226-.687 0-.718-.01-.718-.226 0-.236.226-.482.513-.59.236-.079.308-.079.544.04zM61.605 5.341c-.02.069-.03.698-.02 1.407.03 1.21.04 1.268.246 1.298.215.03.225-.02.266-.974.031-.895.062-1.013.277-1.18a.97.97 0 01.534-.187c.246 0 .297-.04.297-.246 0-.177-.051-.246-.205-.246-.246 0-.718.207-.718.315 0 .04-.041.079-.102.079-.052 0-.103-.089-.103-.197 0-.226-.38-.285-.472-.069zM66.23 8.174c-.071.108-.358 1.82-.871 5.252A293.125 293.125 0 0165 15.708l-.051.217-.39-.217c-.338-.197-.523-.216-1.764-.216-1.282 0-1.426.02-1.949.255-2 .905-3.651 3.896-3.856 6.955-.062 1.052-.37 1.957-1.252 3.777-.892 1.859-1.19 1.101-1.323-3.345-.061-2.193-.082-2.42-.266-2.646-.339-.413-.944-.62-1.836-.62-.698 0-.82.03-1.098.257-.184.147-.328.373-.359.56-.02.177-.102.679-.164 1.131-.133.935-.666 2.755-1.148 3.905-.585 1.407-.882 1.741-1.293 1.466-.79-.521-.687-4.062.185-6.56.646-1.85 1.785-3.424 2.81-3.896.626-.295 1.22-.275 1.487.05.277.334.523 1.13.523 1.671 0 .58.083.728.4.728.4 0 .523-.167.523-.708 0-1.131-.39-2.085-1.035-2.538-.585-.403-1.303-.52-2.954-.472-1.292.03-1.436.06-1.939.305-1.507.758-2.697 2.518-3.374 4.977-.349 1.26-.441 3.551-.195 4.574.43 1.731 1.57 2.715 3.17 2.715.328 0 .717-.06.881-.138.544-.275 1.16-1.043 1.723-2.203.37-.738.595-1.082.636-.994.041.079.206.59.37 1.141.543 1.889 1.415 3.06 2.379 3.236.841.148 1.662-.649 2.677-2.596l.574-1.102.328.679c.606 1.259 1.662 1.967 3.067 2.055 1.252.08 2.02-.403 3.098-1.908.318-.452.615-.796.656-.757.041.05.236.442.441.885 1.949 4.387 4.328 7.367 6.595 8.272.287.118.554.217.585.217.184 0-.021-.473-.698-1.663-1.723-3.01-2.687-5.498-3.313-8.557-.256-1.269-.277-1.495-.277-4.19.01-2.656.02-2.951.277-4.328.154-.817.329-1.731.38-2.036.051-.315.287-1.308.523-2.213.225-.915.44-1.86.472-2.105.05-.423.04-.462-.36-.787-.758-.63-2.42-1.112-2.635-.767zm-2.512 8.547c.226.217.267.915.102 1.82-.092.55.031.738.483.738h.246l-.072 1.052c-.092 1.643-.544 3-1.692 5.164-.934 1.741-1.405 2.144-1.918 1.623-.688-.698-.872-2.066-.595-4.298.42-3.286 1.384-5.499 2.677-6.138.4-.207.523-.197.769.04zM29.564 8.95c0 .266.03.296.308.296.277 0 .307-.03.307-.295 0-.266-.03-.295-.307-.295s-.308.03-.308.295zM43.513 10.672v2.016h.256c.257 0 .257-.02.257-.767 0-1.259.215-1.691.85-1.691.462 0 .575.255.606 1.377.03 1.032.03 1.032.287 1.032h.257v-1.15c0-1.043-.021-1.18-.216-1.358-.297-.285-.944-.364-1.354-.157-.174.088-.338.128-.359.079-.03-.04-.051-.325-.051-.64-.01-.305-.01-.61-.01-.659-.01-.059-.123-.098-.267-.098h-.256v2.016zM27.954 9.216c-.072.02-.133.177-.133.335 0 .236-.042.285-.257.285-.338 0-.359.364-.02.413.215.03.225.079.256 1.102.01.6.082 1.14.144 1.21.061.069.307.127.553.127.38 0 .452-.029.452-.186 0-.138-.082-.207-.277-.227l-.287-.03-.031-1.012-.03-1.004h.317c.236 0 .308-.039.308-.196 0-.158-.072-.197-.308-.197-.287 0-.308-.03-.308-.344 0-.335-.082-.394-.38-.276zM41.851 9.256c-.102.049-.184.206-.184.334 0 .167-.062.246-.226.266-.349.049-.38.373-.041.373h.267v1.073c0 1.268.082 1.416.759 1.367.492-.04.605-.305.143-.354-.359-.04-.41-.217-.369-1.25l.03-.786.34-.03c.46-.049.42-.354-.062-.393-.298-.03-.329-.06-.329-.374 0-.354-.05-.384-.328-.226zM32.108 10.023c-.318.246-.39.256-.39.059 0-.089-.092-.148-.256-.148h-.267l.03 1.348.031 1.357h.257c.256 0 .256-.01.277-.885.02-.492.051-.983.082-1.092.061-.265.574-.472.923-.393.359.088.461.403.461 1.495 0 .925 0 .925.257.925h.256v-1.014c0-.934.02-1.032.236-1.23.297-.265.728-.274.995-.019.174.168.205.325.205 1.23v1.032h.513v-1.12c0-1.034-.02-1.152-.236-1.388-.297-.334-.933-.432-1.385-.206-.184.088-.328.216-.328.275 0 .06-.113.01-.246-.108-.37-.334-1.056-.384-1.415-.118zM37.144 10.062c-.441.286-.647.827-.565 1.495.031.266.144.6.246.738.257.325.842.531 1.293.453.718-.128 1.354-.945.749-.945-.164 0-.288.089-.36.246-.225.472-1.035.443-1.302-.049-.297-.56-.256-.59.872-.59 1.17 0 1.21-.03 1.026-.669-.226-.846-1.19-1.17-1.96-.679zm1.261.335a.595.595 0 01.185.393c0 .217-.031.226-.78.226-.759 0-.77-.01-.697-.226.112-.374.359-.56.738-.56.205 0 .452.068.554.167zM47.544 9.934c-.216.089-.441.374-.441.58 0 .207.43.109.635-.137.113-.138.298-.246.431-.246.328 0 .677.275.677.531 0 .207-.061.236-.595.295-.8.089-1.22.345-1.313.797-.092.472.195.846.729.984.317.078.45.059.779-.118.308-.168.4-.177.4-.07 0 .08.103.138.257.138h.256v-1.062c0-1.278-.051-1.465-.42-1.642-.319-.158-1.047-.187-1.395-.05zm1.302 1.574c0 .335-.287.758-.554.826-.318.08-.728-.068-.82-.295-.164-.423.205-.708.943-.718.37-.01.431.02.431.187zM51.41 9.905c-.082.03-.236.118-.328.207-.164.137-.185.127-.185-.01 0-.109-.082-.168-.256-.168h-.256v2.755h.246c.246 0 .246-.02.287-1.043.03-.954.051-1.053.277-1.23.287-.226.605-.236.913-.03.205.139.225.227.225 1.23v1.072h.513v-1.16c-.01-1.2-.051-1.357-.482-1.574-.226-.118-.687-.147-.954-.05zM29.667 11.312v1.377h.512V9.933h-.512v1.378zM17.102 11.37c.052.355.031.414-.174.502l-.226.098.298.138c.164.079.328.246.359.384l.061.246.144-.217c.113-.167.184-.187.38-.118.41.148.492.099.246-.147l-.236-.246.225-.354c.123-.197.205-.374.175-.404-.02-.03-.216.03-.431.128l-.38.177-.256-.295-.246-.295.061.403z" fill="#fff"/><path d="M55.451 11.538c.062.334.051.383-.133.432-.287.07-.267.187.03.266.154.04.267.157.308.315.072.246.082.255.267.088.164-.137.256-.147.513-.069.359.128.39.07.092-.236l-.225-.226.225-.364c.267-.423.216-.521-.133-.295-.339.207-.462.197-.76-.069l-.255-.216.071.374zM34.415 14.872c-1.159.285-2.42 3.384-3.476 8.538l-.298 1.426-.03-.885c-.021-.492.02-1.377.071-1.977a22.4 22.4 0 00.113-1.879c0-.767-.01-.806-.328-1.102-.41-.383-1.416-.698-2.236-.698-.739 0-.923.157-.739.62.093.206.144 1.111.164 2.626l.031 2.311-.502 1.21c-.646 1.574-1.077 2.38-1.262 2.38-.41 0-.564-.914-.656-4.052-.093-2.96-.103-3-.862-3.334-.543-.236-1.795-.256-2.226-.04-.39.197-.471.364-.553 1.141-.134 1.318-.954 4.073-1.57 5.253-.697 1.337-1.24 1.14-1.487-.541-.195-1.279.123-3.66.708-5.312.872-2.449 2.308-4.032 3.662-4.032.44 0 .482.02.717.413.257.423.472 1.308.472 1.918 0 .295.031.324.298.324.513 0 .656-.236.574-.924-.154-1.377-.554-2.105-1.426-2.548-.39-.197-.564-.216-2.215-.216-1.651 0-1.826.02-2.215.216-2.113 1.082-3.631 4.062-3.795 7.456-.144 2.95.974 4.711 3.097 4.85.595.038.79.009 1.149-.168.564-.276 1.19-1.092 1.764-2.302.246-.521.472-.954.503-.954.03 0 .194.462.359 1.033.287 1.023.902 2.37 1.261 2.754.318.344.79.62 1.18.689.85.157 1.64-.61 2.646-2.548.338-.64.625-1.111.656-1.033.02.079.123.384.226.679.246.757.482 1.18.882 1.544.851.787 2.184.836 1.99.079-.042-.138.071-.895.235-1.702.175-.797.482-2.311.688-3.364.85-4.396 1.446-6.255 2.092-6.59.164-.079.215-.059.318.118.164.305.061 2.322-.267 5.046-.38 3.148-.43 4.357-.215 4.908.349.866 1.58 1.604 2.543 1.515.288-.02.39-.108.657-.55.38-.6 1.077-2.224 1.702-3.935.472-1.279.565-1.318.585-.256.03 1.702.78 3.807 1.62 4.584.452.423.81.57 1.354.57.616 0 .636-.088.41-1.574-.245-1.642-.276-3.59-.06-5.183.163-1.289.122-1.77-.206-2.115-.297-.334-1.015-.58-1.815-.64l-.739-.058-.39.432c-.543.61-.974 1.476-1.918 3.876-.533 1.338-.769 1.74-.666 1.131.184-1.131.307-2.833.297-4.377-.01-1.948-.184-2.912-.697-3.748-.482-.787-1.385-1.2-2.175-1.003zM90.282 15.295c-.359.256-1.067 1.15-1.426 1.83-.112.196-.246.452-.307.55-.431.738-1.641 3.797-2.318 5.853-.287.856-.554 1.554-.595 1.554-.051 0-.072-1.23-.062-2.735.02-2.045-.01-2.783-.102-2.95-.246-.433-.964-.66-2.133-.66-.862 0-1.077.03-1.231.178-.164.157-.164.187 0 .452.133.217.174.531.184 1.308 0 .551.041 1.387.082 1.85.052.462.062.875.031.934a.477.477 0 00-.082.197c-.03.206-1.067 2.616-1.374 3.187-.718 1.367-1.005.472-1.118-3.453-.093-2.98-.093-3-.913-3.344-.585-.246-1.703-.266-2.185-.03-.359.187-.45.374-.543 1.23-.205 1.78-1.303 5.036-1.96 5.793-.758.856-1.333-.708-1.107-3.02.297-3.019 1.374-5.616 2.79-6.757.677-.53 1.19-.757 1.682-.718.38.03.451.07.667.433.143.256.276.757.359 1.328l.123.925.307-.03c.452-.04.585-.275.534-.905-.123-1.436-.523-2.125-1.508-2.597-.872-.423-3.508-.403-4.4.04-1.672.816-2.954 2.892-3.62 5.852-.195.905-.165 3.216.061 3.935.349 1.101.913 1.83 1.744 2.232.461.227 1.384.335 1.959.236.646-.118 1.282-.836 1.969-2.213.328-.649.615-1.19.646-1.19.03 0 .195.472.349 1.053.902 3.196 2.523 4.298 3.969 2.695.39-.433 1.836-3.05 1.836-3.315 0-.246.174-.138.236.138.03.147.154.52.266.816.523 1.328 1.354 2.056 2.339 2.056h.543l.35-.679c.338-.63 1.22-3.128 2.379-6.65.759-2.34 1.066-3.235 1.138-3.294.03-.03.03.078 0 .246-.236 1.072-.605 4.406-.656 5.862-.062 1.879.01 2.42.45 3.266.514.983 1.488 1.691 2.462 1.81.75.078.821-.05.544-1.073-.133-.53-.236-1.288-.277-2.144-.061-1.426 0-1.987.595-5.115.728-3.787.749-4.062.328-4.456-.8-.727-2.328-.983-3.005-.51zM80.128 32.498v2.027h.513v-.984c0-.925.02-1.013.256-1.23.277-.275.636-.314.934-.108.164.118.195.285.225 1.23.041 1.082.041 1.092.288 1.092.246 0 .246 0 .246-1.122 0-.974-.031-1.15-.205-1.367-.298-.364-.81-.433-1.334-.197l-.4.197-.03-.748c-.031-.688-.052-.747-.257-.776l-.236-.03v2.016zM86.97 30.55c-.042.04-.073.955-.073 2.027v1.948h.513l-.02-1.987c-.031-1.712-.052-1.997-.185-2.026-.092-.01-.195 0-.236.039zM92.436 31.102c0 .344.03 1.052.072 1.573.05.846.082.964.256.964.164 0 .185-.078.185-.62 0-.334.03-1.042.071-1.573l.062-.954h-.646v.61zM28.98 31.22c-.134.255-.288.432-.36.413-.071-.03-.266-.07-.44-.108l-.308-.07.287.296c.226.226.277.344.215.55-.061.246-.05.256.216.158.246-.089.328-.069.533.108l.236.217v-.266c0-.216.072-.295.308-.384.338-.127.41-.265.133-.265-.338 0-.482-.177-.533-.65l-.062-.452-.225.453zM73.236 31.092c-.113.059-.185.216-.185.383 0 .246-.04.295-.256.295-.328 0-.349.266-.02.315.215.03.225.079.276 1.16.052 1.083.062 1.132.308 1.25.39.197.759.128.8-.157.02-.138 0-.207-.072-.168-.061.04-.205.02-.318-.039-.195-.098-.205-.187-.184-1.062l.03-.954.288-.03c.153-.02.276-.088.276-.167 0-.079-.123-.148-.276-.167-.247-.03-.288-.079-.318-.404-.031-.383-.072-.413-.35-.255zM75.554 31.81c-.739.315-1.046 1.21-.698 2.006.452 1.043 2.082 1.082 2.595.07.329-.64.123-1.565-.41-1.948-.349-.246-1.077-.305-1.487-.128zm1.24.57c.247.276.278.384.237.836-.062.65-.37 1.014-.862 1.014-.554 0-.79-.276-.84-.964-.042-.57-.032-.62.266-.905.43-.404.83-.404 1.2.02zM84.364 31.741c-.42.079-.82.56-.882 1.082-.072.511.041 1.131.246 1.367.626.728 2.246.443 2.246-.393 0-.256-.359-.177-.595.137-.246.315-.666.394-1.046.197-.164-.079-.41-.57-.41-.797 0-.049.492-.088 1.087-.088h1.098l-.072-.462c-.113-.807-.8-1.23-1.672-1.043zm.923.492c.082.098.174.265.195.373.03.178-.03.197-.708.227-.697.03-.748.01-.748-.177 0-.502.902-.807 1.261-.423zM89.492 31.869c-.359.157-.44.157-.44.049 0-.098-.103-.148-.278-.148h-.287l.03 1.928c.032 1.918.032 1.918.257 1.889.205-.03.226-.099.257-.65.03-.61.03-.61.256-.462.297.197.944.187 1.313-.02.39-.225.605-.688.605-1.307 0-.709-.226-1.132-.728-1.319-.493-.196-.462-.196-.985.04zm.667.256c.513.137.707 1.18.328 1.78-.174.275-.256.325-.615.325-.267 0-.482-.07-.606-.187-.44-.423-.338-1.554.175-1.82.318-.167.39-.177.718-.098zM92.436 34.279c0 .206.051.246.307.246.257 0 .308-.04.308-.246 0-.207-.051-.246-.308-.246-.256 0-.307.04-.307.246z" fill="#fff"/></svg>