<svg width="35" height="34" viewBox="0 0 35 34" fill="none" xmlns="http://www.w3.org/2000/svg"><path d="M33.994 13.68c-.083-.024-.543-.14-1.026-.26-.479-.117-.999-.242-1.15-.284-.599-.157-.82-.213-1.841-.459-.58-.143-1.183-.287-1.335-.329-.152-.042-.391-.102-.53-.139-.436-.111-2.682-.672-2.852-.714-.484-.111-.82-.195-1.358-.334-.68-.176-.672-.167-.833-.78a10.184 10.184 0 00-.133-.486 37.87 37.87 0 01-.134-.44c-.037-.14-.151-.548-.253-.905-.106-.357-.22-.775-.262-.928a14.658 14.658 0 00-.133-.463 36.021 36.021 0 01-.134-.441 197.87 197.87 0 00-.506-1.786 49.78 49.78 0 01-.28-.974c-.042-.153-.098-.338-.12-.417-.024-.074-.102-.357-.18-.626-.074-.269-.17-.589-.207-.719-.087-.315-.184-.645-.276-.974a7.78 7.78 0 00-.115-.394c-.019-.065-.074-.25-.115-.417-.046-.167-.088-.33-.097-.362-.028-.102-.115-.042-.225.153-.125.227-.36.658-.544.997-.073.14-.151.278-.17.301a15.7 15.7 0 00-.271.506c-.134.25-.286.529-.336.626-.272.482-.69 1.243-1.174 2.129-.055.106-.16.292-.225.417a18.8 18.8 0 00-.285.52c-.088.167-.203.375-.254.463-.05.089-.147.27-.216.395-.069.13-.235.43-.368.672a49.03 49.03 0 00-.405.742c-.087.167-.22.399-.29.524a1.23 1.23 0 00-.133.26c0 .018-.042.074-.092.12-.088.08-.106.08-.516-.023-.234-.055-.529-.13-.658-.167-.124-.037-.952-.24-1.84-.459-.884-.218-1.726-.426-1.864-.464-.138-.037-.852-.213-1.588-.394-1.32-.324-1.758-.431-2.025-.51-.073-.023-.212-.051-.299-.07a4.712 4.712 0 01-.3-.074c-.073-.023-.984-.25-2.024-.505-1.84-.455-2.098-.52-2.669-.668-.152-.037-.442-.111-.644-.162a11.287 11.287 0 01-.47-.126c-.06-.014-.105-.009-.105.014 0 .024.731.752 1.624 1.619 2.425 2.351 2.849 2.764 3.553 3.45.354.348.874.849 1.15 1.118.28.264 1.077 1.039 1.772 1.716.695.677 1.61 1.563 2.038 1.971.424.403.769.765.769.798 0 .032-.046.334-.046.334l-.115.301s.01.093-.327.71c-.294.528-.87 1.586-.998 1.818-.074.139-.185.338-.24.44-.06.102-.16.283-.225.408-.065.12-.175.316-.24.44-.064.122-.165.302-.225.404-.055.102-.166.302-.24.441-.078.14-.243.445-.367.672-.373.673-.626 1.137-.88 1.6-.073.14-.188.348-.248.464l-.53.965c-.123.232-.234.431-.69 1.261-.565 1.025-.593 1.08-.74 1.345-.074.14-.189.348-.249.464-.11.2-.294.533-.529.965-.3.552-.354.649-.451.82-.055.103-.166.302-.24.441-.128.232-.703 1.29-.998 1.823-.589 1.071-.727 1.335-.709 1.359.014.009.373-.2.801-.46.433-.264.815-.496.851-.51.037-.018.139-.078.23-.139a1696.602 1696.602 0 005.011-3.042c.038-.028.3-.186.576-.353.28-.166.539-.324.575-.347.092-.06 3.802-2.31 4.432-2.69.272-.167.552-.339.621-.38.07-.047.152-.098.189-.117.037-.013.833-.496 1.767-1.066.934-.57 1.74-1.034 1.786-1.025.092.014 1.049.923 3.677 3.487.368.362.883.863 1.15 1.118.267.255 1.022.988 1.68 1.623 2.448 2.375 3.46 3.353 4.063 3.942.345.33.63.575.644.543.014-.051-.1-.51-.244-.96-.032-.102-.096-.31-.138-.464a7.805 7.805 0 00-.115-.394c-.018-.065-.073-.25-.115-.417-.046-.167-.105-.395-.142-.51-.06-.205-.267-.919-.415-1.438l-.114-.394a13.016 13.016 0 01-.111-.395c-.041-.139-.101-.357-.143-.487-.128-.445-.437-1.53-.506-1.785a37.3 37.3 0 00-.133-.44 14.6 14.6 0 01-.134-.464c-.041-.154-.156-.57-.262-.928a88.936 88.936 0 01-.253-.904c-.042-.14-.101-.339-.134-.441-.032-.102-.092-.32-.138-.487a6.702 6.702 0 00-.124-.427 4.274 4.274 0 01-.083-.278c-.041-.157-.28-1.02-.386-1.382-.06-.19-.12-.413-.276-.974-.198-.7-.276-1.015-.258-1.034.037-.032 3.962-2.426 4.188-2.55a177.19 177.19 0 002.116-1.285c1.1-.673 2.058-1.253 2.131-1.29.161-.083.157-.13-.023-.19z" fill="#fff" opacity=".25"/></svg>