<svg width="48" height="48" viewBox="0 0 48 48" fill="none" xmlns="http://www.w3.org/2000/svg"><path d="M30.365 7.814c-.065.055-.42.37-.791.702-.365.33-.761.69-.881.792a68.43 68.43 0 00-1.415 1.264c-.445.399-.903.816-1.023.918-.12.102-.304.266-.412.36-.338.298-2.065 1.84-2.195 1.957-.364.337-.622.567-1.04.934-.529.464-.516.462-1.112.25-.162-.06-.375-.132-.478-.163a37.12 37.12 0 01-.44-.138 83.592 83.592 0 00-.889-.3 46.706 46.706 0 01-.914-.305c-.15-.051-.356-.12-.459-.15-.102-.031-.3-.094-.439-.138-.25-.086-1.32-.442-1.76-.586-.241-.075-.497-.16-.963-.316-.15-.052-.335-.11-.413-.136-.074-.023-.352-.117-.618-.204-.264-.09-.583-.19-.71-.233-.31-.106-.637-.211-.961-.32a7.76 7.76 0 00-.39-.127c-.065-.021-.249-.08-.41-.14-.164-.056-.322-.113-.354-.123-.1-.035-.099.071 0 .272.118.23.342.668.519 1.01.073.14.144.283.153.31.013.032.13.256.265.51.132.251.277.533.329.63.246.496.64 1.27 1.1 2.168.057.106.15.298.218.422.06.125.18.362.269.528.089.166.196.379.24.47.045.092.14.273.205.4.069.131.224.438.349.684.124.246.296.586.385.752.09.166.206.407.27.535.059.129.121.243.14.256.015.01.038.076.048.144.016.117.006.132-.309.413-.178.163-.405.365-.508.45-.1.082-.735.653-1.415 1.264-.677.608-1.323 1.187-1.431 1.28a178.3 178.3 0 00-1.22 1.091c-1.01.91-1.344 1.211-1.56 1.387-.06.048-.16.147-.225.209a4.723 4.723 0 01-.23.205c-.06.048-.76.674-1.556 1.39a193.224 193.224 0 01-2.053 1.831l-.497.442c-.156.138-.321.282-.367.317-.046.042-.068.082-.048.096.019.012 1.032-.183 2.251-.433 3.307-.682 3.887-.8 4.85-.995.487-.098 1.193-.246 1.571-.323.376-.083 1.464-.305 2.415-.499.95-.193 2.198-.452 2.776-.576.571-.123 1.064-.205 1.091-.187.027.018.25.226.25.226l.185.265s.082.045.402.67c.272.54.822 1.611.942 1.848l.23.446c.05.107.142.293.21.416.063.121.162.322.23.446.063.121.155.307.206.414.053.103.156.306.23.446.07.143.23.452.348.682.347.687.588 1.157.829 1.628.073.139.181.352.243.466.103.204.276.544.5.98.122.234.224.438.654 1.281.53 1.045.56 1.1.695 1.37.074.14.182.352.244.466.103.204.275.544.5.981.288.558.337.658.425.835.053.103.156.306.23.446.119.237.67 1.307.944 1.851.555 1.09.695 1.353.725 1.351.015-.006.045-.42.07-.92.026-.507.049-.953.058-.992a59.501 59.501 0 01.06-1.128c.035-.628.252-4.822.258-4.996-.002-.046.015-.352.032-.674a1501.157 1501.157 0 01.305-5.85c.015-.318.03-.647.035-.728 0-.083.005-.18.01-.22.01-.04.058-.969.112-2.062.054-1.094.124-2.02.157-2.054.064-.068 1.353-.348 4.951-1.077.506-.1 1.21-.245 1.57-.322.362-.078 1.392-.29 2.287-.476 3.34-.688 4.718-.974 5.544-1.141.466-.1.83-.198.81-.227-.034-.04-.478-.204-.93-.339-.102-.03-.311-.095-.46-.147a7.87 7.87 0 00-.391-.127c-.064-.02-.249-.08-.41-.14-.164-.055-.386-.134-.502-.168-.202-.066-.91-.297-1.421-.467-.139-.044-.313-.102-.39-.127a13.202 13.202 0 01-.389-.13c-.138-.044-.352-.118-.483-.157-.44-.144-1.51-.5-1.76-.586a35.909 35.909 0 00-.44-.138c-.102-.03-.308-.098-.458-.15-.15-.052-.56-.192-.914-.305a85.378 85.378 0 01-.89-.3 35.34 35.34 0 00-.44-.138c-.102-.03-.315-.104-.48-.16a6.68 6.68 0 00-.422-.137 4.27 4.27 0 01-.277-.088 96.01 96.01 0 00-1.36-.458c-.19-.058-.408-.134-.96-.32-.69-.23-.994-.343-1-.369-.006-.049.224-4.641.247-4.898.01-.072.066-1.186.129-2.474.063-1.288.122-2.405.133-2.487.021-.18-.02-.203-.17-.088z" fill="#fff" opacity=".2"/></svg>