<svg width="43" height="43" viewBox="0 0 43 43" fill="none" xmlns="http://www.w3.org/2000/svg"><path d="M14.19 6.19c0 .086.006.56.015 1.059.012.492.025 1.027.024 1.184.003.619.006.847.033 1.897.011.597.028 1.217.027 1.374-.001.158.003.405.002.548.006.45.045 2.765.049 2.94.017.496.024.842.028 1.398.006.704.013.693-.537 1.007-.15.083-.345.197-.435.255-.09.057-.268.167-.392.243-.124.071-.489.288-.808.479-.317.194-.69.413-.828.493-.137.08-.323.192-.413.25-.09.057-.267.166-.391.242-.229.133-1.197.712-1.594.951-.214.134-.445.272-.868.524-.137.08-.302.18-.372.223-.066.042-.319.19-.558.336-.241.14-.525.317-.641.386-.282.166-.575.345-.87.519-.136.08-.294.174-.35.213-.058.035-.223.136-.374.22l-.324.186c-.092.053-.01.122.206.179l1.104.266c.153.035.308.075.335.086.031.01.277.069.558.132.277.064.585.138.692.162.536.137 1.379.345 2.36.582.117.026.323.08.461.11.134.036.392.1.576.141.184.042.415.099.513.125.098.026.298.072.437.107.143.032.477.114.745.181.267.066.637.158.821.199.184.041.442.11.581.144.136.04.263.068.286.062.018-.005.082.02.14.058.099.064.103.082.11.504.008.24.012.544.01.678-.004.13.013.983.033 1.897.018.91.034 1.778.034 1.92 0 .144.014.879.03 1.636.028 1.36.038 1.81.03 2.088-.003.078.006.218.01.307.005.09.009.227.006.309-.003.077.013 1.016.036 2.086.037 1.896.041 2.162.046 2.752l.01.664c.003.209.004.428 0 .486.002.061.018.105.04.099.023-.007.537-.902 1.144-1.989 1.643-2.951 1.933-3.467 2.414-4.325.244-.432.593-1.064.782-1.4.182-.34.724-1.31 1.199-2.157.474-.846 1.093-1.96 1.376-2.48.28-.513.54-.94.572-.948.031-.008.334-.042.334-.042l.321.033s.087-.033.77.132c.587.147 1.757.43 2.014.494.154.035.375.09.488.117.114.031.315.082.452.112.133.03.35.087.488.117.133.031.334.082.448.113.113.027.334.082.487.117.155.04.493.12.745.182.746.186 1.26.31 1.773.435.153.035.385.092.512.12.221.055.591.146 1.069.26.256.06.477.116 1.397.341 1.136.281 1.197.294 1.49.367.154.036.385.093.513.12.22.056.591.147 1.068.262.61.146.72.174.91.223.113.027.334.082.487.117.258.064 1.428.346 2.02.493 1.186.291 1.477.356 1.495.332.005-.015-.29-.308-.65-.654a25.47 25.47 0 01-.714-.69 3.202 3.202 0 00-.194-.187 1650.865 1650.865 0 00-4.235-4.053c-.036-.028-.256-.24-.489-.464a1537.774 1537.774 0 01-4.23-4.05l-.527-.502a2.363 2.363 0 01-.161-.152 95.138 95.138 0 00-1.487-1.43c-.793-.755-1.45-1.413-1.452-1.46-.01-.093.62-1.253 2.417-4.455.254-.45.605-1.077.782-1.4.177-.324.69-1.243 1.133-2.043 1.66-2.98 2.344-4.211 2.757-4.946.229-.419.392-.758.357-.763-.053 0-.466.23-.864.484-.09.058-.275.174-.412.254-.137.08-.294.174-.351.213-.058.034-.223.136-.373.219-.15.088-.354.204-.456.27-.182.11-.818.495-1.282.772l-.35.213c-.067.042-.228.138-.353.21-.124.075-.319.19-.434.263-.396.24-1.365.819-1.593.951l-.391.243c-.09.058-.277.17-.414.25-.137.079-.51.298-.828.493-.318.19-.683.407-.808.479-.123.076-.3.185-.39.243-.091.057-.286.171-.435.26-.15.082-.32.19-.38.23a4.284 4.284 0 01-.248.152c-.141.08-.913.535-1.235.731-.168.107-.367.222-.869.519-.625.372-.91.53-.932.517-.041-.028-3.368-3.2-3.547-3.385-.048-.054-.855-.824-1.789-1.712a146.347 146.347 0 01-1.796-1.724c-.123-.134-.166-.118-.178.071z" fill="#fff" opacity=".2"/></svg>