<svg width="183" height="31" viewBox="0 0 183 31" fill="none" xmlns="http://www.w3.org/2000/svg"><path d="M19.276 22h-1.17V9.004h1.17v5.706h7.092V9.004h1.17V22h-1.17v-6.21h-7.092V22zm19.092-4.266h-6.984c.024 1.044.288 1.896.792 2.556.517.66 1.296.99 2.34.99.637 0 1.195-.204 1.675-.612.491-.408.803-.924.935-1.548h1.135c-.54 2.1-1.903 3.15-4.087 3.15-1.271 0-2.25-.462-2.933-1.386-.684-.936-1.026-2.07-1.026-3.402 0-1.32.354-2.448 1.061-3.384.709-.936 1.698-1.404 2.97-1.404 1.428 0 2.472.462 3.133 1.386.66.912.99 2.13.99 3.654zm-6.948-.99H37.2c-.072-.924-.355-1.662-.846-2.214-.492-.564-1.189-.846-2.089-.846-.828 0-1.488.294-1.98.882-.491.588-.78 1.314-.863 2.178zm10.434-7.74V22h-1.08V9.004h1.08zm3.793 8.262c0 .744.084 1.404.252 1.98.18.564.51 1.044.99 1.44.48.396 1.092.594 1.836.594.492 0 .912-.12 1.26-.36.36-.252.63-.582.81-.99.192-.42.324-.84.396-1.26a7.06 7.06 0 00.126-1.35 5.5 5.5 0 00-.252-1.71 2.799 2.799 0 00-.882-1.35c-.432-.384-.972-.576-1.62-.576-.984 0-1.716.342-2.196 1.026-.48.684-.72 1.536-.72 2.556zm0 3.33v4.86h-1.08V14.998c0-.228-.03-.906-.09-2.034h1.116l.054 1.332.036.036c.3-.516.732-.918 1.296-1.206a3.976 3.976 0 011.8-.432c.852 0 1.566.24 2.142.72.576.48.978 1.068 1.206 1.764.24.684.36 1.44.36 2.268 0 .6-.072 1.176-.216 1.728a5.493 5.493 0 01-.63 1.53c-.276.468-.66.846-1.152 1.134-.48.288-1.032.432-1.656.432-1.332 0-2.382-.558-3.15-1.674h-.036zm13.805-5.382c0-.864.324-1.5.972-1.908.648-.408 1.428-.612 2.34-.612 2.076 0 3.174.834 3.294 2.502h-1.17c-.096-1.008-.84-1.512-2.232-1.512-.564 0-1.044.12-1.44.36-.396.24-.594.606-.594 1.098 0 .252.06.462.18.63.132.168.336.312.612.432.276.108.558.204.846.288.3.072.696.174 1.188.306.504.132.96.27 1.368.414.468.168.84.444 1.116.828.276.372.414.798.414 1.278 0 .96-.372 1.692-1.116 2.196-.744.504-1.638.756-2.682.756a4.87 4.87 0 01-1.584-.252c-.48-.168-.9-.468-1.26-.9s-.546-.96-.558-1.584h1.17c.036.624.288 1.074.756 1.35.468.264 1.05.396 1.746.396.636 0 1.188-.15 1.656-.45.468-.312.702-.762.702-1.35 0-.372-.144-.684-.432-.936-.276-.252-.552-.42-.828-.504a16.428 16.428 0 00-1.296-.324 3.347 3.347 0 00-.306-.072 20.46 20.46 0 01-1.08-.288 5.55 5.55 0 01-.864-.414 1.794 1.794 0 01-.702-.702c-.144-.288-.216-.63-.216-1.026zm9.684 4.266c0 .588.192 1.038.576 1.35.384.3.87.45 1.458.45 1.944 0 2.844-1.278 2.7-3.834-.108 0-.354.006-.738.018-.372 0-.666.006-.882.018-.216.012-.504.036-.864.072s-.654.102-.882.198a3.64 3.64 0 00-.684.342 1.421 1.421 0 00-.522.576 1.876 1.876 0 00-.162.81zm4.734-3.024v-.828c-.048-.708-.252-1.206-.612-1.494-.348-.3-.858-.45-1.53-.45-1.356 0-2.094.522-2.214 1.566h-1.152c.252-1.704 1.38-2.556 3.384-2.556 1.032 0 1.824.246 2.376.738.564.492.84 1.242.828 2.25v4.284c0 .228.03.906.09 2.034h-1.116l-.036-1.332h-.036l-.054.126c-.204.396-.582.744-1.134 1.044a3.548 3.548 0 01-1.692.432c-.864 0-1.584-.252-2.16-.756-.564-.504-.846-1.182-.846-2.034 0-.6.162-1.128.486-1.584.336-.456.78-.798 1.332-1.026.36-.156.756-.258 1.188-.306.432-.06.972-.09 1.62-.09.66 0 1.086-.006 1.278-.018zm2.7-3.492h1.188l3.114 7.542 3.006-7.542h1.188L81.484 22H80.26l-3.69-9.036zm17.802 4.77h-6.984c.024 1.044.288 1.896.792 2.556.516.66 1.296.99 2.34.99.636 0 1.194-.204 1.674-.612.492-.408.804-.924.936-1.548h1.134c-.54 2.1-1.902 3.15-4.086 3.15-1.272 0-2.25-.462-2.934-1.386-.684-.936-1.026-2.07-1.026-3.402 0-1.32.354-2.448 1.062-3.384.708-.936 1.698-1.404 2.97-1.404 1.428 0 2.472.462 3.132 1.386.66.912.99 2.13.99 3.654zm-6.948-.99h5.778c-.072-.924-.354-1.662-.846-2.214-.492-.564-1.188-.846-2.088-.846-.828 0-1.488.294-1.98.882-.492.588-.78 1.314-.864 2.178zm15.354-3.78l.054 1.332.036.036c.612-1.092 1.554-1.638 2.826-1.638.708 0 1.32.18 1.836.54.528.36.894.84 1.098 1.44.828-1.32 1.866-1.98 3.114-1.98.564 0 1.05.096 1.458.288.42.192.732.42.936.684.216.264.384.582.504.954.132.372.21.684.234.936.036.252.054.516.054.792V22h-1.08v-5.832c0-.78-.21-1.386-.63-1.818-.42-.444-1.002-.666-1.746-.666-.84 0-1.482.3-1.926.9-.444.6-.666 1.338-.666 2.214V22h-1.08v-5.832c0-.78-.21-1.386-.63-1.818-.42-.444-1.002-.666-1.746-.666-.84 0-1.482.3-1.926.9-.444.6-.666 1.338-.666 2.214V22h-1.08v-7.002c0-.336-.03-1.014-.09-2.034h1.116zm20.82 7.146c.516-.78.774-1.656.774-2.628 0-.972-.258-1.848-.774-2.628s-1.272-1.17-2.268-1.17c-.996 0-1.752.39-2.268 1.17a4.658 4.658 0 00-.774 2.628c0 .972.258 1.848.774 2.628s1.272 1.17 2.268 1.17c.996 0 1.752-.39 2.268-1.17zm-5.4-5.994c.732-.948 1.776-1.422 3.132-1.422s2.394.474 3.114 1.422c.732.948 1.098 2.07 1.098 3.366 0 1.296-.366 2.418-1.098 3.366-.72.948-1.758 1.422-3.114 1.422-1.356 0-2.4-.474-3.132-1.422-.72-.948-1.08-2.07-1.08-3.366 0-1.296.36-2.418 1.08-3.366zm10.65 2.448V22h-1.08v-7.002c0-.228-.03-.906-.09-2.034h1.116l.054 1.332h.036a2.57 2.57 0 01.81-1.134c.372-.3.78-.456 1.224-.468.24-.012.6-.006 1.08.018v1.044c-.048 0-.15-.012-.306-.036a2.552 2.552 0 00-.36-.036c-.78 0-1.386.258-1.818.774-.42.516-.642 1.218-.666 2.106zm12.212 1.17h-6.984c.024 1.044.288 1.896.792 2.556.516.66 1.296.99 2.34.99.636 0 1.194-.204 1.674-.612.492-.408.804-.924.936-1.548h1.134c-.54 2.1-1.902 3.15-4.086 3.15-1.272 0-2.25-.462-2.934-1.386-.684-.936-1.026-2.07-1.026-3.402 0-1.32.354-2.448 1.062-3.384.708-.936 1.698-1.404 2.97-1.404 1.428 0 2.472.462 3.132 1.386.66.912.99 2.13.99 3.654zm-6.948-.99h5.778c-.072-.924-.354-1.662-.846-2.214-.492-.564-1.188-.846-2.088-.846-.828 0-1.488.294-1.98.882-.492.588-.78 1.314-.864 2.178zm15.444-7.74V22h-1.08V9.004h1.08zm2.91 3.96h1.08V22h-1.08v-9.036zm1.17-3.96v1.35h-1.26v-1.35h1.26zm1.614 3.96h1.188l3.114 7.542 3.006-7.542h1.188L160.164 22h-1.224l-3.69-9.036zm17.802 4.77h-6.984c.024 1.044.288 1.896.792 2.556.516.66 1.296.99 2.34.99.636 0 1.194-.204 1.674-.612.492-.408.804-.924.936-1.548h1.134c-.54 2.1-1.902 3.15-4.086 3.15-1.272 0-2.25-.462-2.934-1.386-.684-.936-1.026-2.07-1.026-3.402 0-1.32.354-2.448 1.062-3.384.708-.936 1.698-1.404 2.97-1.404 1.428 0 2.472.462 3.132 1.386.66.912.99 2.13.99 3.654zm-6.948-.99h5.778c-.072-.924-.354-1.662-.846-2.214-.492-.564-1.188-.846-2.088-.846-.828 0-1.488.294-1.98.882-.492.588-.78 1.314-.864 2.178zm9.03-1.53c0-.864.324-1.5.972-1.908.648-.408 1.428-.612 2.34-.612 2.076 0 3.174.834 3.294 2.502h-1.17c-.096-1.008-.84-1.512-2.232-1.512-.564 0-1.044.12-1.44.36-.396.24-.594.606-.594 1.098 0 .252.06.462.18.63.132.168.336.312.612.432.276.108.558.204.846.288.3.072.696.174 1.188.306.504.132.96.27 1.368.414.468.168.84.444 1.116.828.276.372.414.798.414 1.278 0 .96-.372 1.692-1.116 2.196-.744.504-1.638.756-2.682.756a4.87 4.87 0 01-1.584-.252c-.48-.168-.9-.468-1.26-.9s-.546-.96-.558-1.584h1.17c.036.624.288 1.074.756 1.35.468.264 1.05.396 1.746.396.636 0 1.188-.15 1.656-.45.468-.312.702-.762.702-1.35 0-.372-.144-.684-.432-.936-.276-.252-.552-.42-.828-.504a16.428 16.428 0 00-1.296-.324 3.347 3.347 0 00-.306-.072 20.46 20.46 0 01-1.08-.288 5.55 5.55 0 01-.864-.414 1.794 1.794 0 01-.702-.702c-.144-.288-.216-.63-.216-1.026z" fill="#fff"/></svg>