<svg width="40" height="40" viewBox="0 0 40 40" fill="none" xmlns="http://www.w3.org/2000/svg"><path d="M33.772 24.992c-.05-.053-.336-.34-.637-.64-.3-.294-.625-.614-.718-.711a58.802 58.802 0 00-1.146-1.143c-.36-.36-.739-.73-.832-.826-.093-.098-.241-.247-.326-.334a919.14 919.14 0 00-1.775-1.774 40.064 40.064 0 01-.847-.84c-.42-.427-.418-.416-.268-.935.043-.14.095-.326.116-.415l.095-.38c.034-.119.129-.468.211-.773.08-.308.178-.664.215-.794.036-.13.084-.31.105-.398.021-.09.065-.261.095-.381a170.054 170.054 0 00.633-2.365c.037-.13.078-.29.096-.358.015-.064.082-.306.143-.537.064-.229.133-.505.163-.617.074-.269.148-.552.225-.833.036-.13.076-.282.088-.34.015-.055.056-.215.099-.355l.087-.307c.025-.087-.066-.081-.232.013l-.834.491c-.114.07-.233.137-.256.146-.026.013-.211.123-.42.251l-.52.311c-.41.234-1.05.607-1.791 1.044-.088.054-.246.143-.348.206-.104.058-.3.172-.436.255-.138.084-.313.187-.389.229-.075.042-.225.132-.33.194l-.564.33c-.204.118-.485.282-.622.366-.137.084-.336.195-.442.256a1.046 1.046 0 00-.21.132c-.009.014-.064.036-.121.048-.099.02-.112.011-.367-.243-.147-.144-.33-.327-.408-.41a97.315 97.315 0 00-1.146-1.144 213.207 213.207 0 01-1.16-1.156c-.085-.088-.53-.53-.99-.985-.823-.817-1.097-1.086-1.257-1.261-.044-.05-.133-.13-.189-.182a4.052 4.052 0 01-.186-.186c-.044-.049-.61-.615-1.26-1.257-1.148-1.14-1.308-1.3-1.66-1.66-.095-.093-.275-.274-.4-.4a9.67 9.67 0 01-.29-.298c-.037-.036-.073-.053-.083-.036-.01.017.206.87.48 1.897.744 2.784.873 3.272 1.088 4.083.107.41.268 1.004.352 1.322.09.316.333 1.232.545 2.033.211.8.493 1.85.628 2.336.133.48.227.897.213.92-.015.024-.18.225-.18.225l-.217.17s-.034.072-.55.376c-.447.258-1.33.78-1.526.893-.115.07-.283.167-.368.217a8.71 8.71 0 00-.344.2c-.1.06-.266.154-.368.218-.1.06-.254.148-.342.196-.085.05-.253.148-.368.218-.118.067-.374.219-.564.33-.567.33-.956.558-1.344.786-.115.07-.29.172-.385.23-.168.098-.449.262-.81.475-.192.115-.36.213-1.057.62-.863.502-.908.53-1.131.66-.115.07-.29.172-.385.23-.168.098-.45.262-.81.474-.46.273-.544.32-.69.403-.085.05-.253.148-.368.218-.195.113-1.08.635-1.529.896-.9.526-1.117.659-1.113.684.006.013.36.017.787.015.432-.004.813-.006.846 0a50.526 50.526 0 01.963-.004c.536-.002 4.117-.023 4.266-.027.039-.004.3-.004.575-.005a1287.743 1287.743 0 014.994-.028l.62-.007c.072-.003.154-.004.19-.002.032.006.826.002 1.76-.006.933-.008 1.725.006 1.755.033.061.05.363 1.135 1.163 4.164.11.427.268 1.02.352 1.323.083.303.314 1.17.518 1.924.75 2.811 1.063 3.971 1.246 4.667.108.392.21.697.233.68.033-.032.15-.418.243-.81.02-.089.065-.27.102-.4.037-.13.077-.281.088-.339.015-.056.056-.216.099-.356.04-.142.095-.335.119-.436.046-.175.207-.789.327-1.234.03-.12.07-.27.088-.339.016-.064.058-.219.092-.337.03-.12.082-.305.109-.419.1-.382.35-1.311.412-1.528.03-.12.074-.292.095-.381.021-.089.069-.268.105-.398.037-.13.136-.486.215-.794.082-.306.177-.655.21-.773.032-.12.075-.292.096-.38.021-.09.073-.275.113-.418.042-.14.082-.305.095-.366a3.65 3.65 0 01.062-.24c.038-.134.241-.87.322-1.181.04-.166.093-.355.225-.834.162-.6.243-.865.264-.87a361.17 361.17 0 014.181-.031c.062.005 1.013-.002 2.112-.012 1.1-.01 2.053-.015 2.124-.01.154.01.17-.026.066-.149z" fill="#fff" opacity=".4"/></svg>