<svg width="43" height="43" viewBox="0 0 43 43" fill="none" xmlns="http://www.w3.org/2000/svg"><path d="M23.458 4.291c-.047.072-.297.475-.559.899-.256.42-.533.878-.619 1.01-.332.522-.452.716-.996 1.614-.313.51-.633 1.04-.719 1.172-.086.132-.216.341-.293.462-.239.382-1.456 2.351-1.547 2.501a46.78 46.78 0 01-.73 1.192c-.375.595-.364.59-.996.557-.171-.012-.397-.02-.504-.021-.107 0-.315-.004-.46-.007a87.165 87.165 0 00-.939-.034 47.03 47.03 0 01-.963-.032 14.787 14.787 0 00-.482-.014c-.107 0-.316-.004-.46-.006-.265-.012-1.392-.048-1.856-.06a49.153 49.153 0 01-1.013-.03c-.158-.006-.351-.01-.434-.012-.077 0-.37-.012-.65-.02-.28-.011-.613-.016-.748-.02-.327-.013-.67-.021-1.012-.034a7.845 7.845 0 00-.41-.01c-.068-.002-.261-.006-.433-.017-.173-.007-.34-.017-.374-.018-.106-.005-.075.097.077.261l.785.82c.11.113.22.23.236.255.02.026.197.207.399.412.198.203.417.432.494.51.377.406.975 1.036 1.672 1.765.085.085.23.243.33.342.093.103.275.296.407.43.133.134.297.307.365.382.069.075.212.222.31.326.103.105.34.355.53.555.188.2.45.477.583.611.133.135.313.332.411.436.093.107.185.2.207.206.018.006.058.062.087.125.049.107.043.124-.178.483-.125.207-.285.465-.36.577-.072.107-.518.834-.996 1.614-.476.776-.93 1.515-1.008 1.635-.077.12-.461.746-.857 1.393-.71 1.16-.945 1.543-1.101 1.774-.045.063-.113.186-.157.264a4.735 4.735 0 01-.162.262c-.044.063-.538.862-1.096 1.776a194.05 194.05 0 01-1.447 2.34l-.35.564c-.11.177-.228.362-.262.41-.032.052-.041.097-.02.104.023.007.939-.468 2.036-1.055 2.977-1.596 3.498-1.874 4.366-2.336.44-.232 1.074-.575 1.414-.757.337-.187 1.317-.71 2.173-1.166a336.57 336.57 0 002.497-1.344c.513-.28.962-.5.993-.49.031.01.304.146.304.146l.253.201s.09.02.576.527c.415.442 1.247 1.311 1.43 1.504.11.113.266.279.346.362.08.088.22.24.32.34.096.097.248.262.348.361.095.098.236.25.316.338.08.083.236.25.347.362.108.116.35.367.528.555.528.56.893.941 1.258 1.324.11.112.274.285.366.377.157.166.419.443.759.798.183.189.34.355.992 1.04.804.852.849.895 1.056 1.116.11.112.274.285.366.377.157.166.419.443.759.798.434.453.51.535.645.68.08.083.236.249.347.361.182.193 1.014 1.063 1.433 1.505.841.887 1.052 1.1 1.08 1.089.012-.01-.078-.416-.195-.903-.12-.492-.226-.927-.228-.966a3.24 3.24 0 00-.062-.261 1717.344 1717.344 0 00-1.377-5.7c-.015-.043-.086-.341-.16-.655a1512.694 1512.694 0 01-1.373-5.694c-.078-.31-.156-.63-.175-.707a2.359 2.359 0 01-.053-.215c-.002-.04-.22-.945-.48-2.008-.26-1.064-.457-1.972-.434-2.013.041-.084 1.198-.72 4.44-2.443.456-.241 1.09-.58 1.413-.757l2.057-1.107c3.006-1.61 4.245-2.277 4.99-2.673.418-.229.739-.426.712-.449-.044-.028-.517-.058-.989-.06-.107 0-.325-.002-.483-.009a7.871 7.871 0 00-.41-.01c-.068-.002-.262-.006-.433-.017-.173-.007-.408-.02-.53-.02-.212-.004-.956-.024-1.495-.042-.145-.002-.329-.008-.41-.01-.078 0-.266-.007-.41-.014-.145-.003-.37-.013-.507-.013-.463-.012-1.59-.048-1.855-.06a38.337 38.337 0 00-.46-.007c-.107 0-.324-.007-.482-.014a46.98 46.98 0 00-.964-.032c-.37-.012-.794-.026-.938-.033a36.175 36.175 0 00-.46-.007c-.107 0-.333-.01-.506-.017-.172-.011-.371-.012-.444-.011-.07.002-.2 0-.29-.006a95.119 95.119 0 00-1.435-.051c-.199-.001-.43-.012-1.011-.033-.728-.025-1.052-.046-1.064-.07a421.92 421.92 0 01-1.158-4.765c-.012-.07-.275-1.155-.581-2.407-.307-1.252-.569-2.34-.582-2.422-.03-.179-.076-.189-.188-.036z" fill="#fff" opacity=".1"/></svg>