<svg width="118" height="46" viewBox="0 0 118 46" fill="none" xmlns="http://www.w3.org/2000/svg"><path d="M4.295.59a6.761 6.761 0 00-.346.88c-.077.214-.218.277-.86.352-1.512.176-1.512.176-.64.83l.756.565-.32.755c-.744 1.747-.821 1.973-.654 1.847.09-.063.615-.477 1.18-.892.55-.428 1.063-.742 1.153-.691.077.05.744.527 1.461 1.08.731.54 1.347.968 1.372.943.013-.025-.256-.691-.59-1.483a46.68 46.68 0 01-.692-1.646c-.051-.139.282-.466 1.116-1.094.64-.503 1.14-.905 1.102-.905-.025 0-.68.088-1.449.189-.756.113-1.41.163-1.461.125-.039-.037-.192-.364-.346-.729-.154-.352-.334-.666-.41-.69-.065-.013-.231.238-.372.565zM79.77 2.074c0 .037.179.502.41 1.03l.41.956-.32.263c-.18.139-.526.428-.77.616l-.436.352.385-.063c.218-.037.654-.1.974-.15l.603-.076.23.59.231.592.282-.616c.295-.679.475-.792 1.154-.792.474 0 .564-.163.218-.365-.718-.414-.718-.427-.372-1.281.18-.428.32-.805.295-.83-.026-.013-.346.189-.73.465-.373.277-.744.465-.821.415a21.45 21.45 0 01-.872-.629c-.692-.515-.872-.615-.872-.477zM10.987 5.128c-.667.415-1.436 1.345-1.897 2.3C7.872 9.954 6.923 14.353 6.55 19.23c-.14 1.897-.256 2.262-.654 2.262-.269 0 .09-4.726.68-8.924.205-1.483.372-2.878.372-3.104 0-.792-.68-1.094-2.95-1.307-1.679-.151-1.922-.063-2.32.83C.91 10.682.54 13.686.54 18.16c0 3.557.128 5.342.576 8.044.987 6.033 3.154 9.577 5.872 9.615.551 0 1.5-.428 1.5-.68 0-.087-.218-.64-.5-1.218-.654-1.408-1.103-2.627-1.474-4.11-.41-1.559-.744-3.833-.693-4.625.039-.59.052-.616.488-.691.243-.038.564-.113.705-.151.23-.076.372.15 1.243 1.898 3.757 7.566 8.295 12.895 12.436 14.579 1.282.528 2.654.729 3.705.54 1.705-.289 2.295-1.508.731-1.52-.23 0-.756-.139-1.154-.302-2.666-1.081-6.051-5.002-9.718-11.274-1-1.722-2.948-5.43-2.948-5.618 0-.075.269-.276.615-.477.885-.503 2.551-1.81 3.372-2.652 2.436-2.476 3.577-5.04 3.577-8.019 0-2.413-.59-4.487-1.59-5.568-.718-.779-1.308-.93-3.795-.993-1.91-.05-2.154-.025-2.5.189zm2.103 1.659c1.192.59 1.807 2.01 1.807 4.122-.013 2.966-1.756 5.77-5.166 8.258-.962.716-2.257 1.508-2.32 1.432-.078-.088.281-3.393.563-5.203.757-4.851 1.808-7.943 2.962-8.71.372-.251.538-.289 1.064-.213.346.037.833.176 1.09.314zM21.948 5.404c0 .227.09.252.898.252h.897l.026 2.287.039 2.3h.64l.039-2.3.026-2.287h.833c.744 0 .833-.025.833-.252 0-.238-.09-.251-2.115-.251-2.026 0-2.116.013-2.116.251zM26.974 7.692c.039 2.539.039 2.551.334 2.589.282.038.282.012.282-1.207 0-1.068.038-1.294.269-1.583.192-.24.385-.327.68-.327.692 0 .833.276.871 1.76.039 1.256.052 1.32.334 1.357.282.038.282.025.282-1.533 0-1.546 0-1.572-.334-1.823-.23-.176-.525-.264-.884-.264-.36 0-.654.088-.885.264l-.333.251V6.171c0-1.005 0-1.018-.32-1.018h-.321l.025 2.539zM42.051 5.97c-.115.515-.154.855-.077.892.18.113.41-.176.782-.993l.334-.716h-.423c-.398 0-.423.013-.616.817zM60.025 7.73c0 2.488.013 2.576.257 2.576.167 0 .256-.088.256-.239 0-.226.013-.226.475 0 .564.29.923.302 1.512.063.641-.264.872-.804.808-1.86-.038-.716-.102-.905-.384-1.182-.424-.427-1.295-.54-1.872-.25l-.41.213v-.955c0-.918-.013-.943-.321-.943h-.32v2.576zm2.257-.403c.474.402.577 1.458.192 2.061-.23.352-.333.415-.77.415-.82 0-1.14-.49-1.05-1.57.09-1.031.923-1.496 1.628-.906zM68.782 5.87c-.09.024-.167.226-.167.427 0 .301-.051.364-.32.364-.231 0-.32.063-.32.252 0 .188.089.25.32.25h.32V8.61c0 1.609.052 1.697.949 1.697.372 0 .462-.05.462-.239 0-.176-.103-.264-.347-.289l-.359-.038-.038-1.294-.039-1.282h1.552v1.37c0 1.583.09 1.772.91 1.772.41 0 .5-.038.5-.251 0-.176-.09-.252-.308-.252-.41 0-.461-.188-.461-1.52v-1.12h.384c.295 0 .385-.05.385-.25 0-.202-.09-.252-.385-.252-.359 0-.384-.038-.384-.44 0-.239-.052-.44-.116-.44-.333 0-.525.189-.525.503 0 .302-.064.365-.347.402a3.95 3.95 0 01-.769-.012c-.384-.038-.423-.076-.423-.465 0-.415-.102-.49-.474-.34zM31.872 6.9c-.539.327-.731.842-.667 1.847.051.755.09.88.462 1.194.756.667 2.282.428 2.564-.39.128-.338.115-.376-.129-.376-.14 0-.423.163-.615.377-.218.239-.487.377-.692.377-.474 0-.975-.515-.975-1.006v-.377H34.423l-.09-.603c-.102-.83-.615-1.282-1.461-1.282-.36 0-.757.088-1 .239zm1.577.427c.077.088.192.302.23.49l.09.352h-.974c-.86 0-.975-.025-.975-.226 0-.704 1.103-1.118 1.629-.616zM35.513 6.75c-.026.062-.026.879 0 1.834.038 1.71.038 1.735.32 1.697.27-.038.282-.113.346-1.332.065-1.433.193-1.66.923-1.66.308 0 .36-.05.36-.326 0-.302-.039-.327-.41-.252-.219.038-.5.164-.629.277-.192.163-.218.163-.282-.075-.064-.24-.538-.365-.628-.164zM38.782 6.913c-.538.314-.718.666-.73 1.508-.026 1.32.486 1.885 1.704 1.885.5 0 .718-.075 1.026-.327.474-.39.526-.804.103-.804a.474.474 0 00-.41.276c-.18.39-.732.566-1.155.377-.346-.15-.769-.942-.64-1.156.05-.075.653-.126 1.371-.126h1.295l-.09-.54c-.166-.968-.602-1.345-1.59-1.345a2.04 2.04 0 00-.884.252zm1.59.414c.077.088.166.29.192.465.038.302.013.315-.885.352-1 .038-1.115-.05-.794-.616.256-.477 1.09-.578 1.487-.2zM43.666 6.887c-.923.579-.602 1.446.667 1.823.936.276 1.154.465.962.817-.27.503-1.308.44-1.488-.088-.05-.176-.192-.264-.397-.264-.423 0-.41.415.026.842.295.289.397.314 1.23.264 1.039-.05 1.385-.314 1.385-1.043 0-.54-.308-.78-1.295-1.043-.782-.202-.82-.24-.82-.591 0-.327.051-.377.371-.415.526-.063.975.075.975.29 0 .112.128.188.32.188.231 0 .32-.063.32-.227 0-.666-1.486-1.018-2.255-.553zM49.128 8.484v1.822h.32c.321 0 .321 0 .321-1.244 0-1.056.038-1.282.27-1.571.191-.24.384-.327.679-.327.692 0 .833.276.871 1.76.039 1.256.052 1.32.334 1.357.282.037.282.025.282-1.395 0-.805-.039-1.546-.077-1.66-.218-.552-1.462-.74-2.026-.3l-.333.25v-.25c0-.202-.077-.265-.32-.265h-.321v1.823zM54.051 6.9c-.705.415-1.013 1.596-.64 2.45.281.654.768.956 1.563.956.86 0 1.193-.15 1.577-.691.257-.377.295-.553.244-1.232-.052-.842-.32-1.345-.846-1.584-.475-.213-1.45-.163-1.898.101zm1.551.34c.283.112.577.716.577 1.18 0 1.019-.743 1.697-1.525 1.383-.385-.15-.462-.264-.667-.93-.154-.503.064-1.27.436-1.52.282-.202.808-.252 1.18-.114zM64.936 6.913c-.539.314-.718.666-.731 1.508-.026 1.32.487 1.885 1.705 1.885.5 0 .718-.075 1.026-.327.474-.39.525-.804.102-.804a.474.474 0 00-.41.276c-.18.39-.73.566-1.154.377-.346-.15-.77-.942-.64-1.156.05-.075.653-.126 1.37-.126H67.5l-.09-.54c-.167-.968-.602-1.345-1.59-1.345a2.04 2.04 0 00-.884.252zm1.59.414c.076.088.166.29.192.465.038.302.013.315-.885.352-1 .038-1.115-.05-.795-.616.257-.477 1.09-.578 1.487-.2zM73.603 6.95c-.744.49-.962 1.596-.5 2.577.282.603.615.779 1.538.779.487 0 .705-.075 1.013-.327.5-.402.525-.804.077-.804-.193 0-.32.075-.32.176 0 .251-.5.578-.86.578-.41 0-.923-.503-.961-.943l-.039-.377 1.32-.037c1.45-.038 1.437-.026 1.167-.943-.256-.918-1.538-1.27-2.435-.679zm1.333.226c.359.189.474.352.474.704 0 .277-.051.29-.897.29-.86 0-.898-.013-.898-.29 0-.301.282-.616.641-.754.295-.1.385-.1.68.05zM77.256 6.825c-.025.088-.038.892-.025 1.797.038 1.546.051 1.621.307 1.659.27.038.282-.025.334-1.244.038-1.144.077-1.295.346-1.509.167-.138.461-.238.667-.238.307 0 .371-.05.371-.315 0-.226-.064-.314-.256-.314-.308 0-.897.264-.897.402 0 .05-.052.1-.129.1-.064 0-.128-.112-.128-.25 0-.29-.474-.365-.59-.088zM83.038 10.444c-.09.138-.448 2.325-1.09 6.712a371.812 371.812 0 01-.448 2.916l-.064.276-.487-.276c-.423-.252-.654-.277-2.206-.277-1.602 0-1.781.025-2.435.327-2.5 1.156-4.565 4.977-4.82 8.886-.078 1.344-.462 2.5-1.565 4.826-1.115 2.375-1.487 1.407-1.654-4.273-.077-2.803-.102-3.092-.333-3.381-.423-.528-1.18-.792-2.295-.792-.872 0-1.026.038-1.372.327-.23.188-.41.477-.449.716-.025.226-.128.867-.205 1.445-.166 1.194-.833 3.52-1.436 4.99-.73 1.797-1.102 2.225-1.615 1.873-.987-.666-.859-5.191.23-8.383.809-2.363 2.232-4.374 3.514-4.977.782-.377 1.525-.352 1.859.063.346.427.653 1.445.653 2.136 0 .742.103.93.5.93.5 0 .654-.213.654-.905 0-1.445-.487-2.664-1.295-3.242-.73-.516-1.628-.666-3.692-.604-1.615.038-1.795.076-2.423.39-1.885.968-3.372 3.217-4.218 6.36-.436 1.608-.551 4.537-.243 5.844.538 2.212 1.961 3.469 3.961 3.469.41 0 .898-.076 1.103-.176.68-.352 1.448-1.333 2.154-2.816.461-.942.743-1.382.794-1.269.052.1.257.754.462 1.458.68 2.413 1.77 3.909 2.974 4.135 1.052.188 2.077-.83 3.346-3.318l.718-1.408.41.867c.757 1.61 2.078 2.514 3.834 2.627 1.564.1 2.526-.515 3.872-2.438.397-.578.769-1.018.82-.968.052.063.295.566.552 1.131 2.435 5.606 5.41 9.414 8.243 10.57.36.151.692.277.73.277.232 0-.025-.603-.87-2.124-2.155-3.846-3.36-7.026-4.142-10.935-.32-1.621-.346-1.91-.346-5.354.013-3.393.025-3.77.346-5.53.192-1.043.41-2.212.474-2.601.065-.403.36-1.672.654-2.828.282-1.17.552-2.376.59-2.69.064-.54.051-.59-.449-1.005-.948-.805-3.025-1.42-3.295-.98zm-3.14 10.922c.281.277.333 1.169.128 2.325-.116.704.038.943.602.943h.308l-.09 1.345c-.115 2.099-.68 3.833-2.115 6.598-1.167 2.225-1.757 2.74-2.398 2.074-.859-.893-1.09-2.64-.743-5.493.525-4.197 1.73-7.025 3.346-7.842.5-.264.654-.252.961.05zM37.205 11.437c0 .34.038.377.385.377.346 0 .384-.037.384-.377s-.038-.377-.384-.377c-.347 0-.385.038-.385.377zM54.64 13.637v2.576h.321c.32 0 .32-.025.32-.98 0-1.609.27-2.162 1.065-2.162.577 0 .718.327.756 1.76.039 1.32.039 1.32.36 1.32h.32V14.68c0-1.332-.026-1.508-.27-1.735-.371-.364-1.179-.465-1.692-.2-.218.112-.423.163-.448.1-.039-.05-.065-.415-.065-.817-.012-.39-.012-.78-.012-.842-.013-.076-.154-.126-.334-.126h-.32v2.577zM35.192 11.777c-.09.025-.166.226-.166.427 0 .301-.052.364-.32.364-.424 0-.45.465-.027.528.27.038.283.1.321 1.408.013.767.103 1.458.18 1.546.076.088.384.163.692.163.474 0 .564-.038.564-.239 0-.176-.103-.264-.346-.289l-.36-.037-.038-1.295-.038-1.282h.397c.295 0 .385-.05.385-.251s-.09-.252-.385-.252c-.359 0-.384-.037-.384-.44 0-.427-.103-.502-.475-.351zM52.564 11.827c-.128.063-.23.264-.23.427 0 .214-.078.314-.283.34-.436.062-.474.477-.051.477h.333v1.37c0 1.621.103 1.81.949 1.747.615-.05.756-.39.18-.452-.45-.05-.513-.277-.462-1.597l.038-1.005.424-.038c.576-.063.525-.452-.078-.502-.371-.038-.41-.076-.41-.478 0-.453-.064-.49-.41-.29zM40.385 12.807c-.398.314-.488.327-.488.075 0-.113-.115-.188-.32-.188h-.333l.038 1.722.039 1.734h.32c.32 0 .32-.012.346-1.13.026-.63.064-1.258.103-1.396.077-.34.718-.603 1.154-.503.448.113.577.516.577 1.91 0 1.182 0 1.182.32 1.182h.32V14.92c0-1.194.026-1.32.295-1.571.372-.34.91-.352 1.244-.026.218.214.256.415.256 1.572v1.32h.641V14.78c0-1.32-.025-1.47-.294-1.772-.372-.427-1.167-.553-1.731-.264-.231.113-.41.277-.41.352 0 .076-.142.013-.308-.138-.462-.427-1.32-.49-1.77-.15zM46.68 12.857c-.552.365-.808 1.056-.706 1.91.039.34.18.767.308.943.32.415 1.051.68 1.615.578.898-.163 1.693-1.206.936-1.206-.205 0-.359.113-.448.314-.283.603-1.295.566-1.629-.063-.371-.716-.32-.754 1.09-.754 1.462 0 1.513-.038 1.282-.854-.282-1.081-1.487-1.496-2.449-.868zm1.576.428c.129.113.231.34.231.502 0 .277-.038.29-.974.29-.95 0-.962-.013-.872-.29.14-.477.449-.716.923-.716.256 0 .564.088.692.214zM59.68 12.694c-.27.113-.552.478-.552.741 0 .264.538.139.795-.175.14-.176.372-.315.538-.315.41 0 .846.352.846.679 0 .264-.076.302-.743.377-1 .113-1.526.44-1.641 1.018-.116.603.243 1.081.91 1.257.398.1.564.075.974-.15.385-.215.5-.227.5-.089 0 .1.129.176.321.176h.32v-1.357c0-1.634-.064-1.873-.525-2.1-.398-.2-1.308-.238-1.744-.062zm1.627 2.01c0 .428-.358.969-.692 1.057-.397.1-.91-.088-1.026-.377-.205-.54.257-.905 1.18-.918.462-.012.538.025.538.239zM64.513 12.656c-.103.038-.295.151-.41.264-.206.176-.231.164-.231-.012 0-.139-.103-.214-.32-.214h-.321v3.52h.307c.308 0 .308-.026.36-1.333.038-1.22.063-1.345.345-1.571.36-.29.757-.302 1.142-.038.256.176.281.29.281 1.571v1.37h.641V14.73c-.012-1.533-.064-1.734-.602-2.01-.282-.152-.859-.19-1.192-.064zM37.333 14.454v1.76h.641v-3.52h-.64v1.76zM21.628 14.529c.064.452.038.528-.218.64l-.282.127.372.176c.205.1.41.314.448.49l.077.314.18-.277c.14-.213.23-.238.474-.15.513.188.616.125.308-.189l-.295-.314.282-.453c.154-.25.257-.477.218-.515-.026-.038-.27.038-.538.163l-.475.227-.32-.377-.308-.377.077.515z" fill="#fff"/><path d="M69.564 14.743c.077.427.064.49-.167.553-.359.088-.333.238.039.339a.54.54 0 01.384.402c.09.314.103.327.334.113.205-.176.32-.188.64-.088.45.164.488.088.116-.301l-.282-.29.282-.464c.334-.54.27-.667-.166-.377-.424.263-.577.25-.95-.089l-.32-.276.09.478zM43.27 19.003c-1.45.365-3.027 4.324-4.347 10.91l-.372 1.822-.038-1.131c-.026-.629.025-1.76.09-2.526.076-.755.14-1.835.14-2.401 0-.98-.012-1.03-.41-1.408-.513-.49-1.769-.892-2.795-.892-.923 0-1.153.201-.923.792.116.264.18 1.42.205 3.356l.039 2.953-.628 1.546c-.808 2.01-1.346 3.041-1.577 3.041-.513 0-.705-1.168-.82-5.178-.116-3.783-.129-3.833-1.078-4.26-.68-.302-2.243-.327-2.782-.05-.487.25-.59.464-.692 1.457-.167 1.684-1.192 5.204-1.962 6.712-.871 1.71-1.55 1.458-1.858-.691-.244-1.634.153-4.676.884-6.787 1.09-3.13 2.885-5.153 4.577-5.153.551 0 .603.025.897.528.321.54.59 1.671.59 2.45 0 .378.039.415.372.415.641 0 .82-.302.718-1.181-.192-1.76-.692-2.69-1.782-3.255-.487-.252-.705-.277-2.77-.277-2.064 0-2.281.025-2.769.277-2.64 1.382-4.538 5.19-4.743 9.526-.18 3.77 1.218 6.02 3.872 6.197.743.05.987.012 1.436-.214.705-.352 1.487-1.395 2.205-2.941.307-.666.59-1.22.628-1.22.038 0 .243.591.449 1.32.358 1.307 1.128 3.03 1.576 3.52.398.44.988.791 1.475.88 1.064.2 2.051-.78 3.308-3.256.423-.817.782-1.42.82-1.32.026.101.154.49.282.868.308.967.603 1.508 1.103 1.973 1.064 1.005 2.73 1.068 2.487.1-.051-.175.09-1.143.295-2.174.218-1.018.602-2.953.859-4.298 1.064-5.618 1.807-7.994 2.615-8.421.205-.1.27-.075.398.15.205.39.076 2.967-.334 6.448-.474 4.022-.538 5.568-.269 6.272.436 1.106 1.974 2.049 3.18 1.935.358-.025.487-.138.82-.703.474-.767 1.346-2.84 2.128-5.028.59-1.634.705-1.684.73-.326.04 2.174.975 4.864 2.027 5.856.564.54 1.012.73 1.692.73.77 0 .795-.114.513-2.012-.308-2.098-.346-4.587-.077-6.623.205-1.646.154-2.262-.257-2.702-.371-.428-1.269-.742-2.269-.817l-.923-.076-.487.553c-.68.78-1.218 1.886-2.398 4.952-.666 1.71-.961 2.225-.833 1.446.23-1.446.385-3.62.372-5.593-.013-2.489-.23-3.72-.872-4.789-.602-1.005-1.73-1.533-2.718-1.282zM113.103 19.544c-.449.326-1.334 1.47-1.783 2.337-.141.252-.307.578-.384.704-.539.943-2.051 4.852-2.898 7.478-.359 1.094-.692 1.986-.743 1.986-.064 0-.09-1.57-.077-3.494.026-2.614-.013-3.557-.128-3.77-.308-.553-1.205-.842-2.667-.842-1.077 0-1.346.037-1.538.226-.206.2-.206.239 0 .578.166.276.218.679.23 1.672 0 .703.052 1.772.103 2.362.064.591.077 1.119.038 1.194a.621.621 0 00-.102.252c-.039.264-1.334 3.343-1.718 4.072-.898 1.747-1.257.603-1.398-4.412-.115-3.808-.115-3.833-1.14-4.273-.731-.314-2.129-.34-2.731-.038-.45.24-.564.478-.68 1.572-.256 2.274-1.628 6.435-2.449 7.402-.948 1.094-1.666-.905-1.384-3.858.372-3.859 1.718-7.177 3.487-8.635.846-.678 1.487-.967 2.102-.917.475.038.565.088.834.553.18.327.346.968.449 1.697l.153 1.181.385-.038c.564-.05.73-.352.667-1.156-.154-1.835-.654-2.715-1.885-3.318-1.09-.54-4.385-.515-5.5.05-2.09 1.043-3.692 3.695-4.526 7.478-.243 1.157-.205 4.11.077 5.028.436 1.407 1.141 2.337 2.18 2.853.577.289 1.73.427 2.449.301.807-.15 1.602-1.068 2.461-2.828.41-.829.77-1.52.808-1.52.038 0 .243.603.436 1.345 1.128 4.084 3.154 5.492 4.961 3.443.487-.553 2.295-3.896 2.295-4.235 0-.314.218-.176.295.176.038.188.192.666.333 1.043.654 1.697 1.693 2.627 2.923 2.627h.68l.436-.868c.423-.804 1.525-3.996 2.974-8.496.949-2.991 1.333-4.135 1.423-4.21.039-.038.039.1 0 .314-.295 1.37-.756 5.63-.82 7.49-.077 2.401.013 3.093.564 4.174.641 1.256 1.859 2.161 3.077 2.312.936.1 1.025-.063.679-1.37-.166-.679-.295-1.646-.346-2.74-.077-1.822 0-2.539.744-6.535.91-4.84.936-5.191.41-5.694-1-.93-2.91-1.257-3.756-.653zM100.41 41.526v2.589h.641v-1.257c0-1.181.026-1.295.321-1.571.346-.352.795-.402 1.166-.138.205.15.244.364.282 1.57.052 1.383.052 1.396.359 1.396.308 0 .308 0 .308-1.433 0-1.244-.038-1.47-.256-1.747-.372-.465-1.013-.553-1.667-.251l-.5.251-.038-.955c-.039-.88-.065-.955-.321-.993l-.295-.038v2.577zM108.961 39.037c-.051.05-.089 1.22-.089 2.59v2.488h.641l-.026-2.54c-.038-2.186-.064-2.55-.231-2.588-.115-.013-.243 0-.295.05zM115.795 39.741c0 .44.038 1.345.089 2.01.065 1.082.103 1.233.321 1.233.205 0 .231-.101.231-.792 0-.428.038-1.333.09-2.011l.076-1.22H115.795v.78zM36.474 39.892c-.166.326-.359.553-.448.528-.09-.038-.334-.088-.552-.139l-.384-.088.359.378c.282.288.346.44.269.703-.077.315-.064.327.27.201.307-.113.41-.088.666.139l.295.276v-.34c0-.276.09-.376.384-.49.423-.163.513-.339.167-.339-.423 0-.603-.226-.667-.83l-.077-.577-.282.578zM91.795 39.728c-.141.076-.23.277-.23.49 0 .315-.052.378-.322.378-.41 0-.435.339-.025.402.27.038.282.1.346 1.483.064 1.382.077 1.445.385 1.596.487.251.948.163 1-.201.025-.176 0-.264-.09-.214-.077.05-.256.025-.397-.05-.244-.126-.257-.239-.231-1.357l.038-1.22.36-.037c.191-.025.345-.113.345-.214 0-.1-.154-.188-.346-.213-.308-.038-.359-.101-.397-.516-.039-.49-.09-.528-.436-.327zM94.692 40.646c-.923.402-1.307 1.546-.872 2.564.565 1.332 2.603 1.382 3.244.088.41-.817.154-1.999-.513-2.489-.436-.314-1.346-.39-1.859-.163zm1.552.729c.307.352.346.49.294 1.068-.077.83-.461 1.295-1.077 1.295-.692 0-.987-.352-1.05-1.232-.052-.729-.04-.792.332-1.156.539-.516 1.039-.516 1.5.025zM105.705 40.558c-.526.1-1.026.716-1.103 1.382-.089.654.052 1.446.308 1.747.782.93 2.808.566 2.808-.502 0-.327-.449-.227-.744.176-.307.402-.833.502-1.307.251-.206-.1-.513-.729-.513-1.018 0-.063.615-.113 1.359-.113h1.371l-.089-.59c-.141-1.032-1-1.572-2.09-1.333zm1.154.628c.102.126.218.34.243.478.039.226-.038.251-.884.289-.872.038-.936.012-.936-.226 0-.641 1.128-1.03 1.577-.54zM112.115 40.721c-.449.201-.551.201-.551.063 0-.126-.128-.188-.346-.188h-.359l.038 2.463c.039 2.45.039 2.45.321 2.413.256-.038.282-.126.32-.83.039-.779.039-.779.321-.59.372.251 1.179.239 1.641-.025.487-.29.756-.88.756-1.672 0-.905-.282-1.445-.91-1.684-.615-.251-.577-.251-1.231.05zm.834.327c.641.176.884 1.508.41 2.275-.218.352-.321.415-.769.415-.334 0-.603-.088-.757-.24-.551-.54-.423-1.985.218-2.324.398-.214.487-.227.898-.126zM115.795 43.8c0 .265.064.315.384.315.321 0 .385-.05.385-.315 0-.263-.064-.314-.385-.314-.32 0-.384.05-.384.315z" fill="#fff"/></svg>