<svg width="44" height="44" viewBox="0 0 44 44" fill="none" xmlns="http://www.w3.org/2000/svg"><path d="M4.93 19.927c.073.048.476.298.9.56.42.255.878.532 1.01.618.522.332.715.452 1.614.996.509.313 1.04.633 1.171.72.132.085.342.215.462.292.383.24 2.352 1.456 2.502 1.547.426.253.72.434 1.192.73.595.375.589.363.556.995-.011.172-.02.398-.02.505 0 .107-.005.315-.007.46-.008.144-.022.568-.034.939-.008.372-.025.804-.032.963-.007.158-.014.375-.014.482 0 .107-.004.315-.007.46-.012.264-.048 1.392-.06 1.855-.004.252-.013.522-.03 1.013-.006.159-.01.352-.012.434 0 .078-.012.371-.02.651-.011.279-.016.613-.02.748-.013.327-.021.67-.034 1.011a7.73 7.73 0 00-.01.41c-.002.068-.006.262-.017.433-.007.173-.017.34-.018.374-.005.106.097.075.261-.077l.82-.785c.113-.11.23-.219.255-.236.026-.02.207-.196.412-.399.203-.198.433-.417.51-.494.406-.377 1.036-.975 1.766-1.672.085-.085.242-.23.341-.329.103-.094.296-.276.43-.408.134-.133.308-.297.383-.365.075-.069.222-.212.325-.31.106-.103.355-.34.556-.529.2-.19.477-.451.611-.584.134-.132.332-.313.436-.411.107-.093.199-.185.206-.207.006-.018.062-.058.124-.087.108-.048.125-.043.484.179.207.124.465.284.576.358.108.074.835.52 1.615.997.775.476 1.514.93 1.634 1.008.12.077.747.461 1.393.857 1.16.71 1.544.945 1.774 1.1.064.045.187.114.264.158.078.044.195.115.263.161.063.045.862.538 1.775 1.097 1.616.991 1.842 1.132 2.34 1.446l.565.35c.177.11.362.228.409.262.053.032.098.041.105.02.007-.023-.469-.939-1.055-2.036a1496.724 1496.724 0 01-2.336-4.366c-.232-.439-.575-1.074-.757-1.414a235.56 235.56 0 01-1.166-2.172c-.456-.856-1.06-1.978-1.343-2.497-.28-.513-.5-.962-.49-.993.01-.031.146-.304.146-.304l.2-.253s.02-.09.528-.576c.441-.415 1.31-1.247 1.504-1.43.113-.11.278-.266.362-.346.088-.08.24-.22.339-.32.098-.096.262-.248.362-.348.098-.095.25-.236.338-.316.083-.08.249-.236.361-.347.117-.108.368-.35.556-.528.56-.528.942-.893 1.324-1.258.112-.11.285-.274.377-.366.166-.157.443-.419.798-.759.189-.183.355-.34 1.041-.992.851-.804.894-.849 1.115-1.056.113-.11.286-.274.378-.366.166-.157.443-.42.797-.759.453-.435.535-.51.68-.645.083-.08.25-.237.362-.347.193-.182 1.063-1.014 1.505-1.433.887-.842 1.1-1.052 1.089-1.08-.01-.012-.416.077-.903.195-.492.12-.927.225-.966.227a57.953 57.953 0 01-1.098.263c-.612.147-4.695 1.133-4.864 1.177-.043.015-.34.086-.655.161a1531.276 1531.276 0 01-5.694 1.374c-.31.076-.629.155-.707.173-.08.024-.175.047-.216.054-.039.002-.944.22-2.008.48-1.063.26-1.971.457-2.012.434-.084-.042-.72-1.198-2.443-4.44-.241-.455-.58-1.09-.757-1.413-.176-.324-.673-1.251-1.107-2.056-1.61-3.006-2.277-4.245-2.673-4.99-.228-.418-.425-.739-.448-.712-.03.044-.06.517-.06.989 0 .107-.002.325-.01.483a7.869 7.869 0 00-.01.41c-.002.068-.006.262-.017.433-.007.173-.019.408-.02.53-.004.212-.024.955-.042 1.495-.002.145-.008.328-.01.41 0 .078-.007.266-.014.41-.003.145-.013.37-.013.507-.012.463-.049 1.59-.06 1.854a38.31 38.31 0 00-.007.46c0 .108-.007.325-.014.483-.007.158-.024.59-.032.963-.012.371-.027.795-.034.939l-.007.46c0 .107-.01.333-.016.506a6.67 6.67 0 00-.011.444c.002.069-.001.2-.006.29a94.92 94.92 0 00-.052 1.434c0 .2-.012.43-.033 1.012-.024.727-.046 1.051-.07 1.063-.044.02-4.512 1.108-4.765 1.159-.07.011-1.155.274-2.407.58-1.253.308-2.34.57-2.422.582-.18.03-.189.076-.036.188z" fill="#fff" opacity=".1"/></svg>