<svg width="27" height="28" viewBox="0 0 27 28" fill="none" xmlns="http://www.w3.org/2000/svg"><path d="M10.863 1.025c-.018.065-.11.43-.206.814-.092.38-.192.793-.225.914-.125.475-.17.65-.365 1.462-.114.46-.228.939-.261 1.06-.033.12-.081.31-.11.42-.089.347-.535 2.13-.568 2.266-.088.383-.154.65-.265 1.078-.14.54-.132.533-.619.661-.132.033-.305.08-.386.106-.081.026-.24.073-.35.106-.11.03-.435.12-.718.201-.284.084-.615.176-.737.208-.121.033-.287.08-.368.106-.081.026-.24.074-.35.106a159.073 159.073 0 00-2.191.625c-.122.033-.27.077-.332.095-.059.019-.283.08-.497.143-.214.058-.468.135-.57.164-.251.07-.513.146-.774.22a6.165 6.165 0 00-.313.09c-.052.016-.2.06-.332.092-.132.037-.261.07-.287.077-.081.022-.033.091.121.179l.792.431c.11.059.221.12.24.136.022.014.199.11.401.215.199.106.42.227.497.267.383.216.987.548 1.69.932.085.044.233.128.332.179.096.055.28.157.413.226.132.07.298.161.368.201.07.04.214.117.313.172.103.055.343.187.534.293.192.106.457.252.59.321.132.07.316.176.415.23a.976.976 0 00.207.106c.014 0 .059.033.095.073.063.07.063.084-.018.41-.044.186-.103.42-.133.522-.029.099-.191.757-.364 1.462-.173.702-.339 1.37-.368 1.48-.03.11-.17.676-.313 1.26-.258 1.05-.343 1.397-.406 1.609-.018.058-.04.168-.055.237-.015.07-.04.176-.059.238-.018.058-.199.782-.401 1.608-.361 1.462-.413 1.666-.53 2.12l-.13.511c-.04.16-.084.329-.099.373-.01.047-.007.084.011.084.019 0 .597-.581 1.285-1.29 1.868-1.926 2.196-2.262 2.74-2.821.277-.282.675-.695.888-.914.21-.223.825-.855 1.363-1.407.537-.552 1.241-1.279 1.565-1.619.32-.336.608-.61.633-.61.026 0 .266.036.266.036l.24.092s.073-.008.563.26c.42.233 1.26.69 1.443.792l.35.19c.081.048.225.128.324.18.096.05.25.138.35.19.096.05.24.13.32.178.081.044.24.132.35.19.11.063.354.194.534.293.534.296.903.497 1.271.698.11.058.276.15.368.197.159.088.424.234.766.42.184.099.343.187 1.002.548.814.45.858.472 1.068.589.11.058.276.15.368.197.159.088.424.234.767.42.438.238.515.282.651.359l.35.19c.184.102 1.024.559 1.448.793.85.467 1.06.577 1.079.563.007-.012-.159-.297-.365-.636-.21-.344-.394-.647-.405-.677a1366.193 1366.193 0 00-2.526-4.162c-.023-.03-.148-.237-.28-.457a1203.36 1203.36 0 01-2.412-3.976 116.193 116.193 0 01-.395-.643c-.01-.03-.394-.661-.847-1.403-.453-.742-.821-1.382-.814-1.418.011-.073.733-.833 2.77-2.92.287-.292.685-.702.887-.914.203-.212.785-.81 1.29-1.333 1.885-1.945 2.662-2.749 3.13-3.227.261-.274.456-.501.43-.512-.04-.01-.404.08-.762.194-.08.025-.246.076-.368.11a6.193 6.193 0 00-.313.09c-.051.015-.199.06-.331.092-.133.037-.313.084-.406.113-.162.048-.729.212-1.141.33l-.313.09c-.06.019-.203.06-.313.088-.11.033-.284.08-.387.114-.354.102-1.215.347-1.418.402-.11.033-.269.08-.35.106-.08.025-.247.073-.368.106-.122.032-.453.124-.737.208-.283.08-.607.172-.718.2-.11.034-.269.081-.35.107-.08.025-.254.073-.387.11-.132.032-.283.08-.338.098a3.342 3.342 0 01-.221.066c-.125.033-.81.223-1.098.307-.15.047-.328.095-.773.22-.556.156-.807.218-.821.204a336.69 336.69 0 01-2.026-3.326c-.026-.05-.486-.807-1.02-1.68-.534-.874-.995-1.634-1.024-1.693-.066-.128-.103-.124-.151.019z" fill="#fff" opacity=".25"/></svg>