<svg width="48" height="48" viewBox="0 0 48 48" fill="none" xmlns="http://www.w3.org/2000/svg"><path d="M8.197 17.083c.055.066.37.42.702.792.33.365.69.76.792.88.406.467.558.637 1.264 1.415.399.445.816.903.918 1.022.103.12.266.305.36.413.299.338 1.84 2.064 1.957 2.195.337.363.568.621.935 1.039.464.529.461.516.25 1.112-.06.162-.133.375-.164.478-.03.102-.093.3-.138.439-.047.136-.182.538-.3.89-.113.355-.253.764-.304.914-.052.15-.12.356-.151.458-.031.103-.094.301-.138.44-.086.25-.442 1.32-.586 1.76-.075.24-.16.497-.316.963-.052.15-.111.334-.136.412-.023.074-.118.352-.204.618-.091.264-.191.583-.234.71-.105.31-.21.637-.32.961-.052.15-.109.324-.127.39-.02.065-.08.249-.14.41-.055.164-.112.322-.123.354-.035.1.072.099.273 0l1.01-.519c.14-.073.282-.145.31-.153.031-.013.255-.13.51-.265.25-.132.533-.277.63-.329.496-.246 1.27-.64 2.168-1.1.106-.057.298-.15.422-.218.125-.06.362-.18.528-.269.167-.089.38-.196.47-.24.092-.045.274-.14.401-.205.13-.068.437-.224.683-.349.246-.124.587-.296.753-.385.166-.09.407-.206.535-.27.128-.059.243-.12.256-.14.01-.015.076-.038.144-.048.117-.016.132-.006.413.309.163.178.365.405.45.508.082.1.652.735 1.264 1.414a251.15 251.15 0 011.28 1.432c.094.108.584.655 1.091 1.218.91 1.011 1.211 1.345 1.388 1.56.047.061.146.162.208.226a139.855 139.855 0 001.595 1.786 194.07 194.07 0 011.832 2.053l.441.496c.139.156.282.321.318.368.041.045.082.067.095.048.013-.02-.182-1.033-.432-2.252-.682-3.307-.8-3.886-.996-4.849-.097-.487-.245-1.193-.322-1.57-.083-.377-.306-1.465-.5-2.415a333.2 333.2 0 00-.575-2.775c-.123-.572-.205-1.065-.187-1.092.018-.027.226-.25.226-.25l.265-.184s.044-.082.67-.403c.54-.272 1.612-.822 1.849-.941.139-.074.342-.177.446-.23.107-.05.292-.143.416-.21.12-.064.322-.163.446-.23.12-.064.306-.156.413-.207.103-.053.307-.156.446-.23.143-.07.453-.23.683-.348.687-.346 1.157-.587 1.628-.828.139-.074.351-.182.466-.244.204-.103.544-.275.98-.5.234-.122.438-.224 1.282-.654 1.045-.529 1.099-.56 1.37-.695.139-.074.351-.182.466-.244.204-.103.544-.275.98-.5.559-.288.66-.337.836-.424.103-.054.306-.156.446-.23.237-.12 1.308-.67 1.851-.945 1.09-.554 1.353-.695 1.351-.725-.006-.015-.42-.044-.92-.07a25.088 25.088 0 01-.991-.057 59.49 59.49 0 01-1.128-.06c-.629-.035-4.824-.252-4.998-.258-.046.002-.352-.015-.674-.032a1516.846 1516.846 0 01-5.85-.305c-.319-.014-.647-.03-.728-.035-.083 0-.18-.005-.221-.01-.039-.01-.968-.058-2.062-.112-1.094-.054-2.02-.123-2.053-.157-.069-.063-.349-1.353-1.078-4.95-.1-.506-.245-1.21-.322-1.57-.077-.361-.289-1.391-.475-2.287-.688-3.339-.975-4.717-1.142-5.543-.1-.466-.197-.83-.227-.81-.04.034-.203.478-.339.93-.03.103-.095.311-.147.461-.052.15-.109.324-.126.39-.022.065-.08.25-.14.41-.056.164-.134.386-.17.502-.065.203-.296.91-.466 1.421-.044.139-.102.313-.127.391a13.13 13.13 0 01-.13.388c-.045.138-.118.352-.157.483-.144.44-.5 1.51-.586 1.76-.044.138-.107.337-.138.44-.03.102-.099.308-.15.457-.052.15-.192.56-.306.915-.117.352-.252.754-.3.89-.044.138-.106.336-.137.439-.03.102-.104.316-.16.48-.06.161-.117.352-.137.422a4.27 4.27 0 01-.089.277 95.559 95.559 0 00-.458 1.36c-.058.19-.133.408-.32.96-.23.69-.343.994-.369 1-.049.006-4.642-.224-4.899-.247a177.03 177.03 0 00-2.473-.129 146.16 146.16 0 01-2.488-.132c-.18-.022-.203.02-.088.17z" fill="#fff" opacity=".2"/></svg>