<svg width="84" height="85" viewBox="0 0 84 85" fill="none" xmlns="http://www.w3.org/2000/svg"><path d="M52.517 13.532c-.112.107-.712.71-1.34 1.344-.617.632-1.286 1.319-1.49 1.515a125.17 125.17 0 00-2.392 2.416c-.752.763-1.526 1.56-1.729 1.756-.203.196-.515.51-.699.688-.571.572-3.492 3.52-3.712 3.744a85.583 85.583 0 01-1.758 1.787c-.894.888-.872.882-1.947.575a17.695 17.695 0 00-.86-.236 64.231 64.231 0 01-.791-.194c-.245-.069-.969-.262-1.603-.43a81.524 81.524 0 01-1.646-.436 25.47 25.47 0 00-.825-.215 60.781 60.781 0 01-.79-.194 350.67 350.67 0 00-3.171-.84 85.837 85.837 0 01-1.734-.45c-.27-.075-.601-.158-.742-.194-.134-.032-.634-.168-1.114-.291-.475-.131-1.048-.272-1.279-.333-.558-.152-1.146-.301-1.73-.458-.27-.075-.583-.157-.702-.18-.116-.03-.447-.114-.738-.201-.296-.081-.58-.164-.637-.18-.18-.05-.17.14.023.486l1.01 1.74c.142.239.28.485.299.535.025.053.252.44.515.876.256.432.538.918.638 1.084.48.855 1.246 2.189 2.142 3.735.11.182.294.513.424.726.119.215.35.624.523.91.172.286.382.652.469.81.087.157.271.47.397.69.133.224.437.752.68 1.176.241.424.577 1.01.75 1.295.172.286.4.702.526.922.114.222.235.42.27.44.028.017.074.131.097.251.04.206.022.234-.51.772-.3.311-.685.697-.86.862-.17.157-1.243 1.247-2.392 2.417a458.418 458.418 0 01-2.421 2.448 320.04 320.04 0 00-2.061 2.086c-1.71 1.738-2.274 2.314-2.64 2.654-.103.092-.272.28-.38.397-.11.118-.282.294-.39.393-.102.092-1.286 1.289-2.632 2.658-2.385 2.421-2.721 2.759-3.472 3.503-.196.2-.576.579-.84.844s-.543.54-.623.609c-.076.08-.111.154-.076.175.035.021 1.812-.445 3.949-1.033 5.796-1.601 6.812-1.879 8.5-2.34.854-.23 2.092-.577 2.754-.758.659-.192 2.566-.715 4.232-1.171a598.56 598.56 0 004.864-1.351c1.002-.286 1.868-.49 1.917-.46.049.03.463.373.463.373l.35.45s.15.07.774 1.146c.529.933 1.6 2.776 1.831 3.185.143.24.343.59.447.767.1.185.28.505.41.717.123.209.316.555.447.768.123.208.303.528.403.713.103.177.303.528.446.767.139.247.45.78.679 1.176a436.233 436.233 0 001.612 2.803c.143.24.353.606.473.803.2.35.536.936.973 1.689.236.401.436.752 1.273 2.205 1.03 1.8 1.09 1.893 1.354 2.36.142.239.352.605.473.802.2.35.536.937.972 1.689.56.96.657 1.134.828 1.438.103.177.303.528.446.767.232.409 1.303 2.252 1.839 3.19 1.079 1.877 1.352 2.329 1.404 2.321.027-.013.042-.754.043-1.648-.001-.906 0-1.704.013-1.773.006-.073.008-.284.001-.48-.003-.185 0-.876.005-1.537.005-1.122.014-8.622.01-8.933-.008-.082-.005-.628-.003-1.204a76.66 76.66 0 00.003-1.201c-.006-.196.008-7.943.014-9.258-.003-.57-.004-1.157-.003-1.3a4.224 4.224 0 01-.002-.396c.013-.07.017-1.732.015-3.687-.003-1.954.038-3.614.094-3.677.106-.129 2.365-.778 8.672-2.497.887-.24 2.12-.579 2.753-.758.632-.18 2.438-.677 4.007-1.114 5.853-1.616 8.268-2.287 9.716-2.681.817-.233 1.452-.45 1.416-.5-.065-.067-.866-.306-1.679-.494-.184-.043-.56-.133-.83-.208-.27-.075-.583-.157-.703-.18-.115-.031-.447-.114-.738-.202-.295-.08-.694-.194-.904-.242a390.15 390.15 0 01-2.559-.666c-.248-.062-.562-.144-.703-.18a22.473 22.473 0 01-.698-.188c-.25-.062-.634-.167-.87-.221-.792-.206-2.72-.715-3.17-.84a62.04 62.04 0 00-.79-.193c-.184-.043-.555-.14-.825-.215a81.013 81.013 0 00-1.647-.437c-.634-.168-1.358-.36-1.602-.43a64.231 64.231 0 00-.79-.194c-.185-.043-.57-.149-.865-.23a11.652 11.652 0 00-.76-.195 7.391 7.391 0 01-.499-.124c-.276-.08-1.803-.493-2.449-.658-.343-.08-.735-.19-1.729-.458-1.243-.33-1.793-.495-1.804-.54-.015-.086-.019-8.296 0-8.757.01-.129.01-2.12.006-4.422-.004-2.302.001-4.3.013-4.448.022-.323-.052-.358-.31-.137z" fill="#fff" opacity=".4"/></svg>