<svg width="19" height="20" viewBox="0 0 19 20" fill="none" xmlns="http://www.w3.org/2000/svg"><path d="M15.982 13.503c-.038 0-.247-.002-.467-.007-.217-.005-.453-.011-.522-.01a30.047 30.047 0 01-.837-.016c-.263-.005-.536-.013-.606-.012l-.24-.002c-.2-.002-1.22-.02-1.298-.022-.218-.008-.37-.011-.616-.013-.31-.003-.305-.006-.444.236a4.377 4.377 0 01-.112.193 16.424 16.424 0 00-.318.529c-.085.14-.182.304-.217.365-.035.06-.084.143-.11.182l-.107.173a86.97 86.97 0 01-.649 1.086l-.098.164c-.019.029-.084.14-.148.246-.062.107-.14.232-.17.283l-.229.384c-.035.06-.076.13-.093.154-.016.026-.06.099-.097.165-.039.066-.075.13-.082.143-.024.04-.054.005-.079-.09a272.36 272.36 0 01-.118-.488 6.955 6.955 0 01-.096-.395c-.029-.122-.062-.258-.072-.305a91 91 0 01-.258-1.042c-.011-.052-.035-.143-.048-.204a8.326 8.326 0 01-.063-.254 7.447 7.447 0 00-.055-.226l-.047-.193-.08-.329c-.03-.118-.07-.281-.089-.363-.018-.08-.048-.195-.063-.256a.543.543 0 01-.028-.126c.002-.008-.009-.037-.025-.062-.028-.044-.036-.046-.222-.05a51.285 51.285 0 01-1.136-.02l-.847-.015c-.063 0-.387-.006-.721-.013-.6-.013-.798-.018-.921-.015-.034.002-.096-.002-.135-.005-.04-.002-.1-.003-.136-.002a60.92 60.92 0 01-.92-.017 84.321 84.321 0 00-1.214-.02l-.293-.005a4.863 4.863 0 00-.214 0C.615 13.226.596 13.22.6 13.21c.002-.01.397-.236.876-.504 1.3-.724 1.528-.851 1.906-1.063.19-.108.47-.262.618-.345.15-.08.577-.32.95-.528.373-.21.864-.482 1.093-.607.226-.123.414-.238.418-.252.003-.014.018-.148.018-.148l-.015-.141s.015-.039-.058-.34l-.219-.89-.051-.215a4.449 4.449 0 01-.05-.2c-.014-.058-.039-.154-.052-.215a6.284 6.284 0 00-.05-.198l-.052-.215-.08-.329c-.082-.329-.137-.556-.192-.782l-.054-.226a66.523 66.523 0 01-.115-.472l-.15-.617c-.125-.502-.13-.529-.163-.658-.016-.068-.041-.17-.053-.226a66.268 66.268 0 01-.116-.472c-.065-.27-.077-.317-.099-.402l-.052-.215c-.028-.113-.153-.63-.218-.891-.129-.524-.157-.653-.147-.66.007-.003.136.127.289.287.154.162.29.305.305.315a26.045 26.045 0 00.345.36l1.526 1.596c.012.017.106.114.205.217l.205.214A674.929 674.929 0 009.17 6.275a42.077 42.077 0 01.699.728c.333.35.623.64.644.642.04.004.552-.273 1.963-1.065.198-.112.475-.267.618-.345.143-.078.548-.304.9-.5 1.313-.731 1.856-1.032 2.18-1.214.185-.101.334-.173.336-.158 0 .024-.1.206-.213.382-.025.04-.076.12-.111.181a3.46 3.46 0 01-.094.155c-.016.026-.06.099-.097.165-.038.066-.09.156-.119.201-.048.08-.218.36-.34.565l-.094.155-.092.156c-.033.054-.083.14-.116.19l-.419.704c-.033.055-.081.133-.107.172a6.63 6.63 0 00-.11.183c-.034.06-.13.225-.217.365a13.942 13.942 0 01-.318.529c-.025.04-.075.126-.114.192-.036.066-.083.14-.101.168a1.847 1.847 0 00-.067.109c-.036.062-.236.402-.322.544-.047.075-.098.163-.229.384-.164.276-.233.401-.227.411.012.018 1.412 1.488 1.494 1.567.024.022.364.378.755.79.393.413.734.77.762.794.059.054.051.073-.032.078z" fill="#fff" opacity=".2"/></svg>