<svg width="20" height="21" viewBox="0 0 20 21" fill="none" xmlns="http://www.w3.org/2000/svg"><path d="M16.282 7.954l-.29.327c-.135.15-.283.314-.325.363-.167.193-.23.263-.52.584-.164.184-.336.373-.378.422-.042.05-.11.126-.148.17l-.805.907c-.138.15-.233.256-.384.429-.191.218-.19.213-.103.459.024.066.054.154.067.197a14.045 14.045 0 00.18.548c.046.146.103.315.124.377.022.062.05.147.062.189.013.042.038.124.057.181a82.73 82.73 0 01.37 1.123l.056.17.083.255c.037.109.078.24.096.293l.131.396c.021.062.045.134.052.161.009.027.033.103.057.17l.051.145c.014.041-.03.041-.112 0a254.82 254.82 0 01-.543-.277 6.5 6.5 0 01-.209-.109l-.259-.135a84.607 84.607 0 01-.89-.453c-.044-.024-.123-.062-.174-.09a7.704 7.704 0 01-.217-.11 6.91 6.91 0 00-.193-.1c-.038-.018-.112-.057-.165-.084l-.28-.144c-.101-.051-.241-.122-.31-.159-.068-.036-.167-.084-.22-.111a.504.504 0 01-.104-.057c-.005-.007-.032-.016-.06-.02-.048-.007-.054-.002-.17.127-.066.074-.15.167-.185.21-.033.042-.268.303-.52.584l-.526.59c-.039.046-.24.271-.449.504-.374.417-.498.555-.57.644-.02.025-.06.067-.086.093a79.365 79.365 0 00-1.41 1.585l-.181.205a4.7 4.7 0 00-.13.151c-.018.02-.035.028-.04.02-.005-.008.075-.426.178-.929.282-1.364.33-1.603.41-2l.134-.649c.034-.155.126-.604.206-.996.08-.392.186-.906.237-1.145.051-.236.085-.44.077-.45-.007-.011-.092-.103-.092-.103l-.11-.076s-.018-.034-.274-.166c-.223-.112-.663-.339-.76-.388l-.183-.095a4.06 4.06 0 01-.171-.086c-.05-.027-.133-.067-.183-.095a5.688 5.688 0 00-.17-.085c-.043-.022-.126-.064-.183-.095-.06-.029-.186-.095-.281-.143l-.669-.341-.191-.1a59.658 59.658 0 01-.403-.207l-.526-.27c-.43-.217-.452-.23-.563-.286-.057-.03-.145-.074-.192-.1a61.421 61.421 0 01-.403-.206c-.229-.118-.27-.139-.343-.175l-.183-.094-.76-.39c-.449-.228-.557-.286-.556-.298.003-.007.173-.019.379-.03.208-.01.391-.02.407-.024a23.915 23.915 0 00.464-.025c.258-.014 1.982-.105 2.054-.107l.277-.014.276-.015a627.463 627.463 0 002.427-.127 39.022 39.022 0 01.938-.051c.45-.023.831-.052.845-.066.028-.026.143-.558.444-2.042.041-.209.101-.5.133-.648.032-.149.119-.574.196-.943.284-1.378.402-1.947.47-2.287.042-.193.082-.343.094-.335.017.014.084.197.14.384.012.042.038.128.06.19.02.062.044.134.051.161.01.026.033.103.058.169.023.068.055.159.07.207.026.083.12.375.19.586l.052.161c.01.03.034.104.054.16.018.057.048.145.064.2l.24.725c.019.057.044.14.057.182.013.042.04.127.062.189.021.061.078.23.125.377l.123.367c.018.057.044.138.056.18.013.043.043.131.066.199.024.066.048.145.056.174.007.027.024.079.036.114.023.063.14.413.188.56.024.08.055.17.131.397.095.284.141.41.152.412.02.003 1.908-.093 2.013-.103.03-.004.488-.028 1.017-.054.53-.026.989-.05 1.022-.055.074-.01.084.008.037.07z" fill="#fff" opacity=".2"/></svg>