<svg width="42" height="42" viewBox="0 0 42 42" fill="none" xmlns="http://www.w3.org/2000/svg"><path d="M15.466 6.323c.055.052.351.348.66.66.305.31.635.647.735.743.39.381.532.523 1.18 1.186.37.374.752.765.852.861.1.096.254.25.344.338.282.28 1.722 1.727 1.83 1.837.303.316.518.532.867.877.441.436.43.433.966.277.145-.044.337-.098.428-.12.092-.022.27-.067.394-.1.122-.034.482-.133.798-.218.318-.082.686-.185.82-.223.135-.038.32-.088.411-.11.092-.022.27-.067.394-.1a179.479 179.479 0 012.443-.657c.134-.038.3-.08.37-.1.066-.015.315-.085.554-.148.237-.066.523-.138.637-.17.278-.077.571-.153.862-.233.134-.038.29-.08.35-.092.057-.015.223-.058.368-.102.147-.041.288-.084.317-.092.09-.025.084.069-.014.24l-.508.865a3.657 3.657 0 00-.152.266c-.012.027-.127.219-.259.436-.13.215-.27.456-.322.539-.242.425-.628 1.088-1.079 1.857-.056.09-.148.255-.214.36-.06.107-.177.31-.264.453-.086.142-.192.324-.236.402-.044.079-.137.234-.2.343-.067.111-.22.374-.342.585-.122.21-.292.502-.378.644-.087.142-.202.349-.266.458a1.09 1.09 0 01-.136.219c-.014.008-.037.065-.05.125-.02.102-.011.116.251.38.149.152.338.341.424.422.084.077.613.612 1.18 1.186.564.57 1.103 1.114 1.193 1.202.09.087.546.548 1.016 1.023.843.854 1.121 1.136 1.301 1.303.051.045.135.137.188.195.054.058.139.144.191.193.051.045.635.632 1.298 1.304a172.079 172.079 0 001.712 1.719l.414.414c.13.13.268.266.307.3.038.038.055.075.038.086-.018.01-.9-.213-1.959-.495-2.875-.77-3.378-.903-4.216-1.124-.423-.11-1.037-.277-1.365-.364-.327-.092-1.273-.344-2.1-.562-.825-.22-1.91-.51-2.412-.65-.496-.136-.926-.234-.95-.219-.025.015-.232.187-.232.187l-.176.224s-.074.035-.389.57c-.267.463-.806 1.38-.923 1.583-.072.119-.173.293-.225.382-.05.091-.141.25-.207.356-.062.104-.16.276-.225.381a12.62 12.62 0 00-.203.355c-.052.088-.153.262-.225.381-.07.123-.227.387-.342.585-.34.588-.577.99-.813 1.393l-.238.4c-.101.173-.27.465-.49.839-.12.2-.22.373-.643 1.096-.519.895-.548.941-.682 1.173-.072.119-.177.3-.238.399-.1.174-.27.465-.49.84-.283.477-.331.563-.417.714-.052.088-.153.263-.225.382-.117.203-.657 1.12-.927 1.585-.544.933-.681 1.158-.707 1.154-.014-.006-.018-.373-.015-.815.004-.448.007-.843 0-.877a1494.657 1494.657 0 01.036-5.417c.005-.041.006-.312.007-.597a1334.757 1334.757 0 00.034-5.174l.007-.644c.004-.073.005-.159.002-.195-.006-.034-.001-.857.008-1.824.009-.967-.005-1.788-.032-1.819-.053-.063-1.173-.375-4.3-1.2a125.31 125.31 0 01-1.366-.364c-.314-.087-1.209-.326-1.987-.535-2.903-.776-4.1-1.098-4.819-1.288-.405-.111-.72-.216-.701-.241.032-.034.431-.155.836-.252.092-.021.279-.068.413-.106.135-.038.29-.08.35-.092.058-.015.223-.058.368-.102.147-.041.346-.1.45-.124.182-.047.816-.215 1.275-.34l.35-.092c.067-.016.226-.06.348-.095.124-.032.316-.086.433-.113a179.91 179.91 0 001.58-.428c.123-.032.301-.078.393-.1.091-.021.276-.071.41-.11.135-.037.503-.14.82-.222.317-.086.677-.184.8-.22l.393-.099c.092-.021.284-.075.43-.116.146-.045.316-.086.38-.1.059-.012.17-.041.247-.064.138-.04.899-.25 1.22-.335.171-.041.367-.097.862-.233.619-.169.893-.253.898-.275.008-.043.043-4.105.036-4.333-.005-.063.003-1.048.014-2.187.012-1.14.017-2.128.012-2.2-.01-.16.028-.178.154-.07z" fill="#fff" opacity=".4"/></svg>