<svg width="27" height="27" viewBox="0 0 27 27" fill="none" xmlns="http://www.w3.org/2000/svg"><path d="M19.35 6.753c-.012.047-.084.302-.16.57-.077.264-.162.551-.184.637-.09.334-.125.456-.29 1.02-.093.321-.191.653-.213.739l-.08.295-.45 1.582c-.081.265-.134.451-.217.751-.105.38-.107.372.144.622.07.067.158.157.199.2.04.045.12.13.175.189.057.057.223.227.367.376.143.151.313.324.376.387.062.063.146.15.187.194.04.045.12.13.175.189a111.834 111.834 0 011.115 1.154c.063.063.137.141.169.175l.253.262c.11.111.237.248.29.302.128.13.26.27.393.406.063.063.134.137.159.166.026.028.1.106.17.173.068.07.135.135.148.148.041.042-.012.068-.137.067l-.634-.017a8.636 8.636 0 01-.513-.012l-.396-.012c-.309-.004-.794-.014-1.357-.028-.066-.004-.186-.004-.264-.008-.078 0-.226-.003-.33-.007a9.251 9.251 0 00-.296-.008c-.056 0-.17-.004-.25-.006a35.854 35.854 0 00-.428-.01 26.17 26.17 0 01-.472-.011c-.105-.005-.254-.005-.334-.007a.688.688 0 01-.163-.008c-.009-.005-.047 0-.084.011-.062.02-.067.03-.132.256-.039.13-.085.293-.103.366-.017.07-.149.529-.29 1.02-.142.489-.275.955-.296 1.033-.02.077-.134.472-.252.88-.21.73-.281.971-.317 1.123-.01.042-.035.117-.05.164a109.265 109.265 0 00-.788 2.768l-.101.358c-.032.112-.064.23-.07.262-.01.033-.026.054-.037.048-.01-.007-.16-.565-.33-1.24-.46-1.834-.542-2.155-.678-2.688-.07-.27-.167-.661-.22-.87-.05-.21-.202-.813-.336-1.34-.134-.526-.307-1.217-.385-1.54-.077-.317-.156-.586-.171-.595-.016-.009-.175-.071-.175-.071l-.177-.029s-.043-.03-.434-.04c-.338-.006-1.01-.023-1.158-.026l-.28-.008c-.066 0-.181 0-.26-.005-.076-.002-.201-.003-.28-.007a7.78 7.78 0 00-.257-.004c-.065-.002-.192-.004-.28-.008-.09 0-.283-.006-.428-.01-.429-.007-.724-.015-1.018-.022-.088-.003-.221-.006-.294-.01a83.71 83.71 0 01-.614-.014l-.802-.019-.857-.018c-.088-.003-.22-.006-.293-.01-.128-.001-.34-.006-.614-.013-.35-.01-.413-.01-.523-.012l-.28-.007-1.16-.027c-.681-.015-.848-.022-.854-.037 0-.01.2-.125.445-.26a14.2 14.2 0 00.484-.269 33.71 33.71 0 00.552-.304c.307-.17 2.361-1.298 2.447-1.344.024-.01.173-.093.331-.18a861.683 861.683 0 003.221-1.769c.042-.02.09-.045.109-.058a52.45 52.45 0 011.008-.557c.536-.293.985-.553.993-.578.019-.048-.154-.767-.662-2.758-.072-.28-.17-.67-.22-.87-.048-.201-.192-.772-.316-1.269-.466-1.85-.657-2.615-.774-3.072-.063-.26-.102-.467-.083-.465.029.008.219.192.396.388.04.044.124.133.186.196.063.063.134.137.159.167.026.027.1.105.17.172.067.07.16.162.206.212.082.086.37.387.58.604l.159.166.16.164c.055.059.144.149.195.205.18.187.618.64.723.746l.175.188c.04.044.125.131.187.194.063.063.233.236.376.387.144.15.31.32.367.376l.175.188c.04.044.13.135.197.204.07.066.145.149.172.18.025.029.075.082.111.117.065.065.416.422.561.575.075.082.166.173.394.406.284.292.414.419.428.415.026-.009 2.277-1.24 2.4-1.314.034-.022.58-.321 1.212-.665a81.26 81.26 0 001.217-.671c.085-.055.106-.04.085.064z" fill="#fff" opacity=".34"/></svg>