<svg width="29" height="29" viewBox="0 0 29 29" fill="none" xmlns="http://www.w3.org/2000/svg"><path d="M23.727 10.747c-.033.039-.218.248-.413.467-.194.215-.406.448-.466.519-.238.275-.327.376-.742.834-.234.262-.48.533-.54.603l-.21.244-1.151 1.294c-.198.214-.334.366-.55.613-.272.312-.27.304-.147.655.035.095.078.221.096.282l.08.259c.029.08.108.316.176.524.067.209.149.45.18.538.03.089.07.21.088.27l.08.26a117.806 117.806 0 01.529 1.604l.08.243c.013.043.068.207.12.364.052.155.11.343.136.419.061.182.123.375.187.565.03.089.064.191.074.23.013.038.047.147.082.242l.073.208c.02.059-.042.059-.16 0l-.593-.305a9.518 9.518 0 01-.481-.246l-.37-.194c-.291-.144-.746-.376-1.273-.647-.062-.033-.174-.088-.247-.128a11.04 11.04 0 01-.31-.158 10.005 10.005 0 00-.276-.142c-.054-.026-.16-.082-.235-.12l-.401-.206a29.702 29.702 0 01-.442-.227c-.098-.052-.239-.12-.314-.159a.72.72 0 01-.15-.082c-.007-.009-.045-.022-.085-.028-.068-.01-.077-.003-.243.182a67.993 67.993 0 01-1.007 1.134c-.357.4-.697.78-.752.844-.055.064-.343.387-.641.719-.534.596-.712.793-.815.92-.028.036-.086.095-.123.133a116.315 116.315 0 00-2.014 2.264l-.258.293c-.082.092-.166.189-.187.216-.025.027-.049.04-.056.029-.008-.012.107-.609.255-1.327.401-1.95.47-2.29.586-2.859.057-.287.145-.703.19-.925.05-.222.18-.863.294-1.424.114-.56.267-1.295.34-1.636.072-.337.12-.627.11-.643a4.975 4.975 0 00-.133-.147l-.155-.109s-.026-.048-.393-.237c-.318-.16-.946-.484-1.085-.554l-.262-.135a5.965 5.965 0 01-.244-.124c-.072-.037-.19-.095-.262-.135a8.29 8.29 0 00-.243-.121c-.06-.032-.18-.092-.262-.136-.084-.041-.265-.136-.4-.205-.404-.204-.68-.345-.956-.487-.081-.044-.206-.107-.273-.144-.12-.06-.32-.162-.576-.294l-.752-.385-.804-.409-.273-.143c-.12-.06-.32-.162-.576-.294-.328-.17-.387-.199-.49-.25l-.262-.135c-.139-.07-.767-.395-1.087-.556-.64-.327-.794-.41-.792-.427.003-.01.246-.027.54-.042.297-.015.56-.029.582-.034a1014.372 1014.372 0 013.596-.19c.028.001.207-.009.396-.02a901.102 901.102 0 003.862-.203c.05 0 .107-.002.13-.005.023-.006.569-.035 1.211-.067.642-.033 1.187-.074 1.206-.094.04-.037.205-.797.635-2.917.059-.299.144-.714.19-.926l.28-1.348c.405-1.968.573-2.78.672-3.267.059-.275.116-.49.134-.478.023.02.119.282.198.548.018.06.056.184.086.272.03.088.064.19.075.23.012.038.046.146.081.241.033.097.08.227.1.296.038.12.173.536.273.837l.074.23c.014.044.049.15.077.23.026.08.068.207.091.284.085.259.293.89.344 1.037l.08.259c.018.06.058.181.089.27.03.088.112.33.178.538.07.208.148.444.176.524.026.082.063.199.08.26l.094.282c.035.095.07.208.08.249.011.04.035.112.052.163.032.09.201.59.269.801.034.113.078.24.187.566.136.406.202.586.217.589.028.004 2.725-.134 2.876-.147.042-.006.696-.04 1.452-.077a84.306 84.306 0 001.461-.08c.106-.012.119.012.052.1z" fill="#fff" opacity=".1"/></svg>