<svg width="22" height="21" viewBox="0 0 22 21" fill="none" xmlns="http://www.w3.org/2000/svg"><path d="M19.033 9.488l-.423.263c-.198.121-.413.252-.475.292-.246.157-.337.214-.76.47-.24.148-.489.299-.55.34-.063.04-.162.101-.218.138l-1.177.73c-.201.118-.34.204-.561.344-.28.177-.277.171-.262.469.005.08.01.187.01.237 0 .05 0 .149.002.217.004.068.01.267.016.442.003.175.011.379.014.453.004.075.006.177.007.228l.002.216a94.968 94.968 0 01.041 1.35l.006.205c0 .037.005.175.009.307.005.13.007.288.01.352l.014.476c.004.075.006.161.005.194.001.031.003.122.008.203l.008.176c.002.05-.045.035-.123-.036l-.385-.37a7.403 7.403 0 01-.313-.299l-.24-.232a96.37 96.37 0 01-.83-.786c-.04-.04-.113-.108-.16-.155a9.05 9.05 0 01-.202-.192 7.768 7.768 0 00-.18-.171l-.152-.146-.261-.249a22.338 22.338 0 01-.287-.275c-.063-.062-.156-.147-.205-.193a.583.583 0 01-.097-.098c-.003-.008-.03-.027-.058-.04-.05-.023-.06-.02-.228.084a54.553 54.553 0 01-1.03.64c-.366.224-.713.438-.77.475l-.655.404c-.546.335-.727.446-.835.52-.03.02-.088.053-.124.073a90.278 90.278 0 00-2.06 1.276l-.266.165c-.084.052-.17.108-.193.124-.024.015-.046.02-.049.009-.003-.01.22-.442.497-.96.752-1.402.883-1.647 1.1-2.056.11-.207.272-.506.357-.667.088-.158.335-.62.55-1.023.215-.404.499-.932.633-1.177.132-.241.235-.453.23-.468a3.975 3.975 0 00-.068-.143l-.094-.119s-.01-.042-.248-.27l-.707-.673-.17-.163a4.762 4.762 0 01-.159-.15c-.046-.046-.123-.117-.17-.164a6.704 6.704 0 00-.159-.149l-.17-.163-.26-.249c-.263-.248-.443-.42-.622-.591l-.178-.173a70.901 70.901 0 01-.375-.356c-.088-.087-.166-.16-.489-.467l-.523-.497c-.053-.052-.135-.129-.178-.172a70.583 70.583 0 01-.375-.357c-.212-.205-.25-.24-.319-.304l-.17-.163-.707-.674c-.417-.396-.516-.495-.511-.508.005-.006.195.036.424.091.232.057.436.106.454.107a27.573 27.573 0 00.516.123c.288.069 2.208.531 2.287.552.02.007.16.04.308.075a718.114 718.114 0 003.01.726 44.714 44.714 0 011.045.25c.5.122.927.214.946.203.04-.019.339-.564 1.15-2.091.114-.215.274-.514.357-.666l.522-.97 1.26-2.35c.107-.197.2-.349.21-.336.014.021.028.243.028.466 0 .05.001.153.004.227.004.075.006.161.005.194 0 .031.003.123.008.203.003.082.008.192.009.25.002.1.01.45.019.704.001.068.003.155.005.193 0 .037.003.125.006.193.001.068.006.174.006.239.005.218.022.749.027.873.002.068.003.166.003.217 0 .05.003.152.006.227.004.075.012.278.015.454l.015.441c.002.069.003.167.003.217 0 .05.005.157.008.238.005.081.005.175.005.21 0 .032 0 .093.003.136.004.077.02.498.023.676 0 .093.006.202.015.476.012.342.021.495.032.5.021.01 2.122.52 2.24.544.034.005.544.129 1.133.273.588.143 1.1.266 1.138.272.084.014.089.036.017.089z" fill="#fff" opacity=".3"/></svg>