<svg width="160" height="80" viewBox="0 0 160 80" fill="none" xmlns="http://www.w3.org/2000/svg"><path d="M.27 5.04h2.88l2.016 9.738L7.704 5.04h3.15l2.286 9.738 2.106-9.738h2.664l-3.312 12.996h-3.096L9.144 8.1l-2.538 9.936H3.438L.27 5.04zm26.125 9.09h-6.102c0 1.62.617 2.43 1.854 2.43.852 0 1.38-.42 1.584-1.26h2.43c-.06.78-.349 1.44-.864 1.98-.672.708-1.735 1.062-3.187 1.062-1.404 0-2.471-.378-3.203-1.134-.78-.816-1.17-1.998-1.17-3.546 0-1.992.63-3.426 1.89-4.302.756-.504 1.608-.756 2.556-.756a4.45 4.45 0 012.105.522c.66.336 1.183.894 1.567 1.674.42.864.6 1.974.54 3.33zm-6.012-1.674h3.294c0-.18-.012-.348-.037-.504a3.407 3.407 0 00-.18-.648 1.15 1.15 0 00-.486-.63c-.227-.168-.521-.252-.881-.252-.552 0-.973.192-1.26.576-.276.384-.426.87-.45 1.458zm20.195-.324h-2.61c-.12-1.116-.51-1.674-1.17-1.674-.936 0-1.404.966-1.404 2.898 0 1.38.222 2.31.666 2.79a.948.948 0 001.008.252c.108-.036.234-.102.378-.198.144-.108.264-.288.36-.54.108-.264.174-.582.198-.954h2.628c-.06 1.176-.45 2.07-1.17 2.682-.66.564-1.524.846-2.592.846-1.356 0-2.388-.402-3.096-1.206-.768-.888-1.152-2.082-1.152-3.582 0-.78.108-1.47.324-2.07.228-.6.498-1.062.81-1.386.324-.324.69-.582 1.098-.774.42-.204.786-.336 1.098-.396.324-.06.63-.09.918-.09.972 0 1.83.282 2.574.846.744.564 1.122 1.416 1.134 2.556zM50.028 18h-2.412a7.836 7.836 0 01-.09-1.242c-.672.972-1.578 1.458-2.718 1.458-1.008 0-1.764-.24-2.268-.72-.528-.528-.792-1.194-.792-1.998 0-1.296.642-2.238 1.926-2.826.744-.336 1.944-.504 3.6-.504 0-.552-.042-.954-.126-1.206-.18-.504-.576-.756-1.188-.756-.444 0-.78.168-1.008.504-.132.204-.198.474-.198.81h-2.61c.036-.96.378-1.674 1.026-2.142.684-.492 1.602-.738 2.754-.738 1.488 0 2.568.39 3.24 1.17.42.504.63 1.248.63 2.232l.018 3.654c0 .864.072 1.632.216 2.304zm-2.754-4.284c-.876-.072-1.584.024-2.124.288-.54.264-.81.66-.81 1.188 0 .336.114.636.342.9.228.264.546.396.954.396.456 0 .834-.174 1.134-.522a1.93 1.93 0 00.414-.882c.06-.336.09-.792.09-1.368zM52.2 18v-7.47c0-.684-.018-1.236-.054-1.656h2.556l.072 1.368c.648-1.056 1.632-1.584 2.952-1.584.792 0 1.41.18 1.854.54.456.348.762.738.918 1.17.168.468.252 1.374.252 2.718V18h-2.718v-5.652c0-.468-.048-.798-.144-.99-.252-.516-.684-.774-1.296-.774s-1.074.234-1.386.702c-.216.312-.324.774-.324 1.386V18H52.2zm15.978 0v-6.858c0-.696-.042-1.452-.126-2.268h2.502l.054 1.746c.108-.252.216-.462.324-.63.12-.168.294-.354.522-.558.228-.216.534-.372.918-.468a4.61 4.61 0 011.332-.108v2.394c-.636-.06-1.164-.036-1.584.072-.408.108-.702.294-.882.558a2.246 2.246 0 00-.324.756 4.415 4.415 0 00-.072.882V18h-2.664zm14.924-3.87h-6.103c0 1.62.619 2.43 1.855 2.43.852 0 1.38-.42 1.584-1.26h2.43c-.06.78-.349 1.44-.864 1.98-.672.708-1.735 1.062-3.187 1.062-1.403 0-2.471-.378-3.203-1.134-.78-.816-1.17-1.998-1.17-3.546 0-1.992.63-3.426 1.89-4.302.755-.504 1.608-.756 2.555-.756a4.45 4.45 0 012.107.522c.66.336 1.181.894 1.566 1.674.42.864.6 1.974.54 3.33zm-6.013-1.674h3.294c0-.18-.011-.348-.035-.504a3.407 3.407 0 00-.18-.648 1.15 1.15 0 00-.487-.63c-.227-.168-.522-.252-.882-.252-.552 0-.972.192-1.26.576-.276.384-.425.87-.45 1.458zM92.725 18h-2.411a7.836 7.836 0 01-.09-1.242c-.672.972-1.579 1.458-2.719 1.458-1.007 0-1.763-.24-2.267-.72-.528-.528-.793-1.194-.793-1.998 0-1.296.643-2.238 1.927-2.826.743-.336 1.944-.504 3.6-.504 0-.552-.042-.954-.126-1.206-.18-.504-.577-.756-1.189-.756-.444 0-.78.168-1.007.504-.133.204-.199.474-.199.81h-2.61c.037-.96.379-1.674 1.027-2.142.684-.492 1.602-.738 2.754-.738 1.487 0 2.567.39 3.24 1.17.42.504.63 1.248.63 2.232l.017 3.654c0 .864.073 1.632.216 2.304zm-2.753-4.284c-.876-.072-1.584.024-2.124.288-.54.264-.81.66-.81 1.188 0 .336.114.636.341.9.228.264.546.396.954.396.457 0 .835-.174 1.135-.522a1.93 1.93 0 00.413-.882c.06-.336.09-.792.09-1.368zm12.305-1.584h-2.61c-.12-1.116-.51-1.674-1.17-1.674-.936 0-1.404.966-1.404 2.898 0 1.38.222 2.31.666 2.79a.948.948 0 001.008.252c.108-.036.234-.102.378-.198.144-.108.264-.288.36-.54.108-.264.174-.582.198-.954h2.628c-.06 1.176-.45 2.07-1.17 2.682-.66.564-1.524.846-2.592.846-1.356 0-2.388-.402-3.096-1.206-.768-.888-1.152-2.082-1.152-3.582 0-.78.108-1.47.324-2.07.228-.6.498-1.062.81-1.386.324-.324.69-.582 1.098-.774.42-.204.786-.336 1.098-.396.324-.06.63-.09.918-.09.972 0 1.83.282 2.574.846.744.564 1.122 1.416 1.134 2.556zM103.933 18V5.004h2.646v5.148c.648-.912 1.524-1.368 2.628-1.368 1.128 0 2.01.408 2.646 1.224.396.552.594 1.374.594 2.466V18h-2.646v-5.436c0-1.32-.498-1.98-1.494-1.98-.456 0-.858.15-1.206.45-.336.288-.504.756-.504 1.404l.018 5.562h-2.682zM.288 24.04h3.258l2.682 5.922 2.736-5.922h2.862l-4.392 8.226V37H4.68v-4.77L.288 24.04zm19.128 9.09h-6.102c0 1.62.618 2.43 1.854 2.43.852 0 1.38-.42 1.584-1.26h2.43c-.06.78-.348 1.44-.864 1.98-.672.708-1.734 1.062-3.186 1.062-1.404 0-2.472-.378-3.204-1.134-.78-.816-1.17-1.998-1.17-3.546 0-1.992.63-3.426 1.89-4.302.756-.504 1.608-.756 2.556-.756a4.45 4.45 0 012.106.522c.66.336 1.182.894 1.566 1.674.42.864.6 1.974.54 3.33zm-6.012-1.674h3.294c0-.18-.012-.348-.036-.504a3.407 3.407 0 00-.18-.648 1.15 1.15 0 00-.486-.63c-.228-.168-.522-.252-.882-.252-.552 0-.972.192-1.26.576-.276.384-.426.87-.45 1.458zM21.228 37v-7.38c0-.504-.03-1.074-.09-1.71h2.574l.09 1.17c.66-.912 1.596-1.368 2.808-1.368 1.428 0 2.382.57 2.862 1.71.588-1.128 1.56-1.692 2.916-1.692 1.308 0 2.232.486 2.772 1.458.3.492.45 1.332.45 2.52V37h-2.682v-5.346c0-.396-.03-.726-.09-.99-.048-.264-.192-.504-.432-.72-.24-.228-.576-.342-1.008-.342-.312 0-.576.06-.792.18-.204.12-.366.264-.486.432-.108.156-.192.378-.252.666a7.155 7.155 0 00-.09.738c-.012.204-.018.48-.018.828V37h-2.682v-5.4c0-.252-.012-.462-.036-.63a3.349 3.349 0 00-.162-.612.94.94 0 00-.45-.558c-.216-.132-.498-.198-.846-.198-.396 0-.72.072-.972.216-.24.144-.408.348-.504.612a3.753 3.753 0 00-.162.63 4.027 4.027 0 00-.036.594V37h-2.682zm25.188-3.87h-6.102c0 1.62.618 2.43 1.854 2.43.852 0 1.38-.42 1.584-1.26h2.43c-.06.78-.348 1.44-.864 1.98-.672.708-1.734 1.062-3.186 1.062-1.404 0-2.472-.378-3.204-1.134-.78-.816-1.17-1.998-1.17-3.546 0-1.992.63-3.426 1.89-4.302.756-.504 1.608-.756 2.556-.756a4.45 4.45 0 012.106.522c.66.336 1.182.894 1.566 1.674.42.864.6 1.974.54 3.33zm-6.012-1.674h3.294c0-.18-.012-.348-.036-.504a3.407 3.407 0 00-.18-.648 1.15 1.15 0 00-.486-.63c-.228-.168-.522-.252-.882-.252-.552 0-.972.192-1.26.576-.276.384-.426.87-.45 1.458zM48.21 37v-7.47c0-.684-.018-1.236-.054-1.656h2.556l.072 1.368c.648-1.056 1.632-1.584 2.952-1.584.792 0 1.41.18 1.854.54.456.348.762.738.918 1.17.168.468.252 1.374.252 2.718V37h-2.718v-5.652c0-.468-.048-.798-.144-.99-.252-.516-.684-.774-1.296-.774s-1.074.234-1.386.702c-.216.312-.324.774-.324 1.386V37H48.21zm10.878-10.674v-2.322h2.844v2.322h-2.844zM59.178 37v-9.108h2.664V37h-2.664zm17.435-5.868h-2.61c-.12-1.116-.51-1.674-1.17-1.674-.936 0-1.404.966-1.404 2.898 0 1.38.222 2.31.666 2.79a.948.948 0 001.008.252c.108-.036.234-.102.378-.198.144-.108.264-.288.36-.54.108-.264.174-.582.198-.954h2.628c-.06 1.176-.45 2.07-1.17 2.682-.66.564-1.524.846-2.592.846-1.356 0-2.388-.402-3.096-1.206-.768-.888-1.152-2.082-1.152-3.582 0-.78.108-1.47.324-2.07.228-.6.498-1.062.81-1.386.324-.324.69-.582 1.098-.774.42-.204.786-.336 1.098-.396.324-.06.63-.09.918-.09.972 0 1.83.282 2.574.846.744.564 1.122 1.416 1.134 2.556zM78.27 37V24.004h2.646v5.148c.648-.912 1.524-1.368 2.628-1.368 1.128 0 2.01.408 2.646 1.224.396.552.594 1.374.594 2.466V37h-2.646v-5.436c0-1.32-.498-1.98-1.494-1.98-.456 0-.858.15-1.206.45-.336.288-.504.756-.504 1.404L80.951 37H78.27zm10.842-10.674v-2.322h2.844v2.322h-2.844zM89.201 37v-9.108h2.664V37h-2.664zm5.01 0V23.986h2.664V37h-2.664zm11.022-7.974v-5.022h2.682v11.52c0 .528.024 1.02.072 1.476h-2.7l-.072-1.314c-.252.456-.558.798-.918 1.026-.48.312-1.068.468-1.764.468-1.212 0-2.16-.396-2.844-1.188-.684-.804-1.026-1.914-1.026-3.33 0-1.488.366-2.67 1.098-3.546.744-.888 1.716-1.332 2.916-1.332 1.104 0 1.956.414 2.556 1.242zm-3.87 3.564c0 .828.15 1.512.45 2.052.3.54.762.81 1.386.81a1.83 1.83 0 001.008-.288c.3-.192.528-.438.684-.738.288-.552.432-1.266.432-2.142 0-.876-.18-1.554-.54-2.034-.348-.48-.828-.72-1.44-.72-.42 0-.774.114-1.062.342-.276.216-.48.504-.612.864-.12.36-.204.684-.252.972a7.105 7.105 0 00-.054.882zm8.862 4.41v-6.858c0-.696-.042-1.452-.126-2.268h2.502l.054 1.746c.108-.252.216-.462.324-.63.12-.168.294-.354.522-.558.228-.216.534-.372.918-.468a4.61 4.61 0 011.332-.108v2.394c-.636-.06-1.164-.036-1.584.072-.408.108-.702.294-.882.558a2.246 2.246 0 00-.324.756 4.415 4.415 0 00-.072.882V37h-2.664zm14.923-3.87h-6.102c0 1.62.618 2.43 1.854 2.43.852 0 1.38-.42 1.584-1.26h2.43c-.06.78-.348 1.44-.864 1.98-.672.708-1.734 1.062-3.186 1.062-1.404 0-2.472-.378-3.204-1.134-.78-.816-1.17-1.998-1.17-3.546 0-1.992.63-3.426 1.89-4.302.756-.504 1.608-.756 2.556-.756a4.45 4.45 0 012.106.522c.66.336 1.182.894 1.566 1.674.42.864.6 1.974.54 3.33zm-6.012-1.674h3.294c0-.18-.012-.348-.036-.504a3.407 3.407 0 00-.18-.648 1.15 1.15 0 00-.486-.63c-.228-.168-.522-.252-.882-.252-.552 0-.972.192-1.26.576-.276.384-.426.87-.45 1.458zM126.942 37v-7.47c0-.684-.018-1.236-.054-1.656h2.556l.072 1.368c.648-1.056 1.632-1.584 2.952-1.584.792 0 1.41.18 1.854.54.456.348.762.738.918 1.17.168.468.252 1.374.252 2.718V37h-2.718v-5.652c0-.468-.048-.798-.144-.99-.252-.516-.684-.774-1.296-.774s-1.074.234-1.386.702c-.216.312-.324.774-.324 1.386V37h-2.682zM6.516 54.128v1.746a7.892 7.892 0 01-2.07.288c-.504 0-.942-.066-1.314-.198-.36-.132-.624-.276-.792-.432a1.576 1.576 0 01-.396-.63c-.096-.276-.15-.486-.162-.63a6.98 6.98 0 01-.018-.558v-4.986H.018v-1.764h1.746v-1.782l2.646-.972v2.754h2.16v1.764H4.41v4.104c0 .264.006.456.018.576.024.12.072.252.144.396a.613.613 0 00.36.306c.168.048.396.072.684.072.276 0 .576-.018.9-.054zm1.236-2.592c0-.588.078-1.152.234-1.692.168-.54.42-1.05.756-1.53.348-.492.84-.882 1.476-1.17.636-.3 1.38-.45 2.232-.45 1.56 0 2.736.456 3.528 1.368.792.9 1.188 2.034 1.188 3.402 0 1.38-.408 2.538-1.224 3.474-.804.924-1.986 1.386-3.546 1.386-1.356 0-2.472-.414-3.348-1.242-.864-.828-1.296-2.01-1.296-3.546zm2.736.018c0 1.944.666 2.916 1.998 2.916.636 0 1.122-.234 1.458-.702.336-.468.504-1.272.504-2.412 0-1.92-.666-2.88-1.998-2.88-1.308 0-1.962 1.026-1.962 3.078zM24.252 56V43.004h2.646v5.148c.648-.912 1.524-1.368 2.628-1.368 1.128 0 2.01.408 2.646 1.224.396.552.594 1.374.594 2.466V56H30.12v-5.436c0-1.32-.498-1.98-1.494-1.98-.456 0-.858.15-1.206.45-.336.288-.504.756-.504 1.404L26.934 56h-2.682zm19.176-3.87h-6.102c0 1.62.618 2.43 1.854 2.43.852 0 1.38-.42 1.584-1.26h2.43c-.06.78-.348 1.44-.864 1.98-.672.708-1.734 1.062-3.186 1.062-1.404 0-2.472-.378-3.204-1.134-.78-.816-1.17-1.998-1.17-3.546 0-1.992.63-3.426 1.89-4.302.756-.504 1.608-.756 2.556-.756a4.45 4.45 0 012.106.522c.66.336 1.182.894 1.566 1.674.42.864.6 1.974.54 3.33zm-6.012-1.674h3.294c0-.18-.012-.348-.036-.504a3.407 3.407 0 00-.18-.648 1.15 1.15 0 00-.486-.63c-.228-.168-.522-.252-.882-.252-.552 0-.972.192-1.26.576-.276.384-.426.87-.45 1.458zM45.186 56V42.986h2.664V56h-2.664zm4.92-9.09h2.591l.072 1.296c.564-.984 1.488-1.476 2.772-1.476 1.176 0 2.1.408 2.772 1.224.672.816 1.008 1.92 1.008 3.312 0 1.368-.348 2.52-1.044 3.456-.696.936-1.668 1.404-2.916 1.404-1.092 0-1.938-.39-2.538-1.17v4.536h-2.718V46.91zm4.571 7.47c.624 0 1.104-.27 1.44-.81.336-.54.504-1.272.504-2.196 0-.324-.024-.63-.072-.918a4.956 4.956 0 00-.252-.936 1.633 1.633 0 00-.576-.774c-.252-.204-.564-.306-.936-.306-.54 0-1.026.24-1.458.72-.42.48-.63 1.272-.63 2.376 0 .252.012.486.036.702.036.216.108.516.216.9.108.372.306.672.594.9.3.228.678.342 1.134.342zm16.878-.252v1.746a7.892 7.892 0 01-2.07.288c-.504 0-.942-.066-1.314-.198-.36-.132-.624-.276-.792-.432a1.576 1.576 0 01-.396-.63c-.096-.276-.15-.486-.162-.63a6.98 6.98 0 01-.018-.558v-4.986h-1.746v-1.764h1.746v-1.782l2.646-.972v2.754h2.16v1.764h-2.16v4.104c0 .264.006.456.018.576.024.12.072.252.144.396a.613.613 0 00.36.306c.168.048.396.072.684.072.276 0 .576-.018.9-.054zM73.277 56V43.004h2.646v5.148c.648-.912 1.524-1.368 2.628-1.368 1.128 0 2.01.408 2.646 1.224.396.552.594 1.374.594 2.466V56h-2.646v-5.436c0-1.32-.498-1.98-1.494-1.98-.456 0-.858.15-1.206.45-.336.288-.504.756-.504 1.404L75.96 56h-2.682zm19.176-3.87h-6.102c0 1.62.618 2.43 1.854 2.43.852 0 1.38-.42 1.584-1.26h2.43c-.06.78-.348 1.44-.864 1.98-.672.708-1.734 1.062-3.186 1.062-1.404 0-2.472-.378-3.204-1.134-.78-.816-1.17-1.998-1.17-3.546 0-1.992.63-3.426 1.89-4.302.756-.504 1.608-.756 2.556-.756a4.45 4.45 0 012.106.522c.66.336 1.182.894 1.566 1.674.42.864.6 1.974.54 3.33zm-6.012-1.674h3.294c0-.18-.012-.348-.036-.504a3.407 3.407 0 00-.18-.648 1.15 1.15 0 00-.486-.63c-.228-.168-.522-.252-.882-.252-.552 0-.972.192-1.26.576-.276.384-.426.87-.45 1.458zM94.265 56v-7.38c0-.504-.03-1.074-.09-1.71h2.574l.09 1.17c.66-.912 1.596-1.368 2.808-1.368 1.428 0 2.382.57 2.862 1.71.588-1.128 1.56-1.692 2.916-1.692 1.308 0 2.232.486 2.772 1.458.3.492.45 1.332.45 2.52V56h-2.682v-5.346c0-.396-.03-.726-.09-.99-.048-.264-.192-.504-.432-.72-.24-.228-.576-.342-1.008-.342-.312 0-.576.06-.792.18-.204.12-.366.264-.486.432-.108.156-.192.378-.252.666a7.155 7.155 0 00-.09.738c-.012.204-.018.48-.018.828V56h-2.682v-5.4c0-.252-.012-.462-.036-.63a3.349 3.349 0 00-.162-.612.94.94 0 00-.45-.558c-.216-.132-.498-.198-.846-.198-.396 0-.72.072-.972.216-.24.144-.408.348-.504.612a3.753 3.753 0 00-.162.63 4.027 4.027 0 00-.036.594V56h-2.682zm20.874-9.09h2.826l1.674 6.858 1.926-6.858h2.934l1.908 6.858 1.782-6.858h2.646L127.721 56h-2.898l-1.872-6.732L121.043 56h-2.934l-2.97-9.09zm16.986-1.584v-2.322h2.844v2.322h-2.844zm.09 10.674v-9.108h2.664V56h-2.664zm10.356-1.872v1.746a7.892 7.892 0 01-2.07.288c-.504 0-.942-.066-1.314-.198-.36-.132-.624-.276-.792-.432a1.576 1.576 0 01-.396-.63c-.096-.276-.15-.486-.162-.63a6.98 6.98 0 01-.018-.558v-4.986h-1.746v-1.764h1.746v-1.782l2.646-.972v2.754h2.16v1.764h-2.16v4.104c0 .264.006.456.018.576.024.12.072.252.144.396a.613.613 0 00.36.306c.168.048.396.072.684.072.276 0 .576-.018.9-.054zM144.293 56V43.004h2.646v5.148c.648-.912 1.524-1.368 2.628-1.368 1.128 0 2.01.408 2.646 1.224.396.552.594 1.374.594 2.466V56h-2.646v-5.436c0-1.32-.498-1.98-1.494-1.98-.456 0-.858.15-1.206.45-.336.288-.504.756-.504 1.404l.018 5.562h-2.682zM1.224 75v-7.38c0-.504-.03-1.074-.09-1.71h2.574l.09 1.17c.66-.912 1.596-1.368 2.808-1.368 1.428 0 2.382.57 2.862 1.71.588-1.128 1.56-1.692 2.916-1.692 1.308 0 2.232.486 2.772 1.458.3.492.45 1.332.45 2.52V75h-2.682v-5.346c0-.396-.03-.726-.09-.99-.048-.264-.192-.504-.432-.72-.24-.228-.576-.342-1.008-.342-.312 0-.576.06-.792.18-.204.12-.366.264-.486.432-.108.156-.192.378-.252.666a7.155 7.155 0 00-.09.738c-.012.204-.018.48-.018.828V75H7.074v-5.4c0-.252-.012-.462-.036-.63a3.349 3.349 0 00-.162-.612.94.94 0 00-.45-.558c-.216-.132-.498-.198-.846-.198-.396 0-.72.072-.972.216-.24.144-.408.348-.504.612a3.753 3.753 0 00-.162.63 4.027 4.027 0 00-.036.594V75H1.224zm24.81 0h-2.412a7.836 7.836 0 01-.09-1.242c-.672.972-1.578 1.458-2.718 1.458-1.008 0-1.764-.24-2.268-.72-.528-.528-.792-1.194-.792-1.998 0-1.296.642-2.238 1.926-2.826.744-.336 1.944-.504 3.6-.504 0-.552-.042-.954-.126-1.206-.18-.504-.576-.756-1.188-.756-.444 0-.78.168-1.008.504-.132.204-.198.474-.198.81h-2.61c.036-.96.378-1.674 1.026-2.142.684-.492 1.602-.738 2.754-.738 1.488 0 2.568.39 3.24 1.17.42.504.63 1.248.63 2.232l.018 3.654c0 .864.072 1.632.216 2.304zm-2.754-4.284c-.876-.072-1.584.024-2.124.288-.54.264-.81.66-.81 1.188 0 .336.114.636.342.9.228.264.546.396.954.396.456 0 .834-.174 1.134-.522a1.93 1.93 0 00.414-.882c.06-.336.09-.792.09-1.368zM28.17 75V61.986h2.664V75H28.17zm5.046 0v-7.47c0-.684-.018-1.236-.054-1.656h2.556l.072 1.368c.648-1.056 1.632-1.584 2.952-1.584.792 0 1.41.18 1.854.54.456.348.762.738.918 1.17.168.468.252 1.374.252 2.718V75h-2.718v-5.652c0-.468-.048-.798-.144-.99-.252-.516-.684-.774-1.296-.774s-1.074.234-1.386.702c-.216.312-.324.774-.324 1.386V75h-2.682zm10.878-9.09h2.7v5.958c.012.12.042.288.09.504.048.204.12.366.216.486s.234.228.414.324c.192.096.426.144.702.144.336 0 .612-.054.828-.162.228-.108.396-.228.504-.36.12-.144.21-.36.27-.648.06-.3.09-.546.09-.738.012-.204.018-.51.018-.918v-4.59h2.736v5.994c.012.564.018 1.038.018 1.422.012.372.018.618.018.738.012.12.018.21.018.27.012.216.036.438.072.666h-2.592l-.09-1.206c-.66.96-1.554 1.44-2.682 1.44a3.806 3.806 0 01-1.62-.342c-.48-.24-.852-.534-1.116-.882-.396-.492-.594-1.308-.594-2.448V65.91zm16.44 7.218v1.746a7.892 7.892 0 01-2.07.288c-.504 0-.942-.066-1.314-.198-.36-.132-.624-.276-.792-.432a1.576 1.576 0 01-.396-.63c-.096-.276-.15-.486-.162-.63a6.98 6.98 0 01-.018-.558v-4.986h-1.746v-1.764h1.746v-1.782l2.646-.972v2.754h2.16v1.764h-2.16v4.104c0 .264.006.456.018.576.024.12.072.252.144.396a.613.613 0 00.36.306c.168.048.396.072.684.072.276 0 .576-.018.9-.054zM62.184 75v-6.858c0-.696-.042-1.452-.126-2.268h2.502l.054 1.746c.108-.252.216-.462.324-.63.12-.168.294-.354.522-.558.228-.216.534-.372.918-.468a4.61 4.61 0 011.332-.108v2.394c-.636-.06-1.164-.036-1.584.072-.408.108-.702.294-.882.558a2.246 2.246 0 00-.324.756 4.415 4.415 0 00-.072.882V75h-2.664zm6.906-10.674v-2.322h2.844v2.322H69.09zM69.18 75v-9.108h2.664V75H69.18zm10.355-1.872v1.746a7.892 7.892 0 01-2.07.288c-.504 0-.942-.066-1.314-.198-.36-.132-.623-.276-.791-.432a1.576 1.576 0 01-.397-.63c-.095-.276-.15-.486-.161-.63a6.98 6.98 0 01-.019-.558v-4.986h-1.746v-1.764h1.746v-1.782l2.647-.972v2.754h2.16v1.764h-2.16v4.104c0 .264.005.456.017.576.025.12.072.252.144.396a.613.613 0 00.36.306c.169.048.397.072.684.072.276 0 .576-.018.9-.054zm1.56-8.802v-2.322h2.845v2.322h-2.844zM81.186 75v-9.108h2.665V75h-2.664zm4.596-4.464c0-.588.078-1.152.234-1.692.168-.54.42-1.05.756-1.53.348-.492.84-.882 1.476-1.17.636-.3 1.38-.45 2.232-.45 1.56 0 2.736.456 3.528 1.368.792.9 1.188 2.034 1.188 3.402 0 1.38-.408 2.538-1.224 3.474-.804.924-1.986 1.386-3.546 1.386-1.356 0-2.472-.414-3.348-1.242-.864-.828-1.296-2.01-1.296-3.546zm2.736.018c0 1.944.666 2.916 1.998 2.916.636 0 1.122-.234 1.458-.702.336-.468.504-1.272.504-2.412 0-1.92-.666-2.88-1.998-2.88-1.308 0-1.962 1.026-1.962 3.078zM97.235 75v-7.47c0-.684-.018-1.236-.054-1.656h2.556l.072 1.368c.648-1.056 1.632-1.584 2.952-1.584.792 0 1.41.18 1.854.54.456.348.762.738.918 1.17.168.468.252 1.374.252 2.718V75h-2.718v-5.652c0-.468-.048-.798-.144-.99-.252-.516-.684-.774-1.296-.774s-1.074.234-1.386.702c-.216.312-.324.774-.324 1.386V75h-2.682z" fill="#fff"/></svg>