<svg width="18" height="18" viewBox="0 0 18 18" fill="none" xmlns="http://www.w3.org/2000/svg"><path d="M10.548 17.615c.012-.042.07-.272.13-.513.058-.24.12-.5.141-.576.08-.299.107-.409.23-.92.072-.29.144-.591.165-.667.02-.076.05-.196.07-.265l.356-1.426c.056-.242.098-.41.167-.68.088-.34.084-.335.39-.416.083-.02.192-.05.243-.066a17.82 17.82 0 01.673-.194c.178-.053.387-.11.464-.13.076-.021.18-.051.231-.067.052-.017.151-.046.22-.067a99.861 99.861 0 001.38-.394c.077-.02.17-.048.21-.06.036-.011.178-.05.312-.09.135-.036.295-.084.36-.103.157-.043.322-.092.487-.138.076-.02.164-.046.197-.057.032-.01.125-.037.208-.058l.181-.048c.051-.014.021-.058-.076-.113l-.499-.271a8.088 8.088 0 00-.404-.22l-.312-.17c-.241-.135-.622-.344-1.065-.586l-.208-.113a9.384 9.384 0 00-.26-.142 8.445 8.445 0 01-.232-.127l-.197-.108a31.094 31.094 0 01-.336-.184c-.12-.067-.288-.159-.371-.203-.084-.043-.2-.11-.262-.145a.618.618 0 00-.13-.066c-.01 0-.037-.021-.06-.046-.04-.044-.04-.053.011-.258a57.18 57.18 0 00.313-1.25c.11-.441.213-.862.232-.931.018-.07.107-.426.197-.794.162-.66.216-.88.255-1.013.012-.036.026-.105.035-.15a70.828 70.828 0 00.29-1.162c.227-.92.26-1.048.334-1.334l.08-.322c.026-.101.054-.207.063-.235.008-.03.005-.052-.006-.052-.012 0-.376.365-.81.812-1.175 1.212-1.382 1.424-1.725 1.776-.174.177-.424.437-.559.575-.132.14-.52.539-.858.886-.338.348-.781.806-.985 1.02-.202.211-.383.384-.4.384-.015 0-.166-.023-.166-.023l-.15-.058s-.047.005-.356-.163c-.264-.147-.793-.435-.909-.5-.07-.036-.169-.091-.22-.12a5.057 5.057 0 00-.204-.112l-.22-.12a7.075 7.075 0 01-.202-.112c-.051-.028-.15-.083-.22-.12l-.337-.184c-.336-.186-.568-.313-.8-.44-.07-.036-.173-.094-.231-.124a75.02 75.02 0 00-.483-.264c-.116-.062-.215-.118-.63-.345l-.673-.37c-.07-.038-.174-.095-.232-.125l-.482-.265c-.276-.15-.325-.177-.41-.225l-.22-.12c-.117-.064-.646-.352-.912-.5-.536-.294-.668-.363-.68-.354-.004.007.1.187.23.4.132.217.248.408.255.427a29.382 29.382 0 01.292.483c.163.269 1.252 2.064 1.299 2.137.014.019.093.15.176.288a761.877 761.877 0 011.709 2.814 47.57 47.57 0 00.591.978c.286.467.517.87.513.893-.007.046-.462.524-1.744 1.838l-.559.575c-.127.134-.494.511-.811.84L.66 15.2c-.165.172-.288.315-.272.322.026.007.255-.05.48-.122.051-.016.156-.048.232-.069.077-.02.165-.046.197-.057.033-.01.125-.037.209-.058.083-.023.197-.053.255-.071.102-.03.46-.134.719-.207l.197-.058c.037-.011.127-.037.197-.055.07-.02.179-.05.243-.072l.893-.253.22-.066.232-.067c.077-.02.286-.078.464-.131l.452-.127c.07-.02.17-.05.22-.067.052-.016.16-.046.244-.069.084-.02.179-.05.213-.062.033-.011.096-.03.14-.041.078-.02.51-.14.69-.193.096-.03.207-.06.488-.138.35-.1.507-.139.517-.13.016.02 1.212 1.982 1.275 2.095.016.032.306.508.642 1.058.337.55.627 1.029.645 1.065.042.08.065.079.095-.011z" fill="#fff" opacity=".35"/></svg>