<svg width="49" height="49" viewBox="0 0 49 49" fill="none" xmlns="http://www.w3.org/2000/svg"><path d="M38.908 34.187a88.457 88.457 0 00-.553-.9c-.261-.417-.546-.87-.625-1.005-.318-.53-.438-.723-.997-1.611-.314-.507-.645-1.03-.725-1.166-.08-.136-.209-.346-.281-.468-.235-.385-1.45-2.351-1.543-2.5-.268-.416-.45-.71-.738-1.185-.365-.6-.365-.588-.05-1.136.087-.148.197-.345.246-.44.048-.096.145-.28.213-.407.072-.125.275-.496.454-.821.174-.329.385-.706.462-.844.078-.138.182-.329.23-.424l.214-.407c.13-.23.67-1.218.89-1.625.117-.223.246-.46.482-.89.078-.138.169-.309.207-.38.036-.07.178-.326.311-.572.136-.243.292-.538.356-.657.159-.285.32-.587.486-.886.078-.138.165-.3.194-.361.032-.06.123-.23.21-.378l.185-.325c.052-.092-.053-.11-.269-.048l-1.089.331c-.15.048-.303.092-.333.096-.033.007-.275.082-.55.17-.27.086-.575.178-.68.212-.532.155-1.366.404-2.334.698-.114.038-.32.096-.454.14-.134.038-.389.114-.569.172-.18.057-.409.126-.507.153-.098.028-.294.09-.431.13-.14.045-.47.144-.736.223-.265.078-.63.188-.81.246-.18.058-.439.13-.576.17a1.239 1.239 0 00-.278.093c-.013.013-.082.024-.15.021-.118-.004-.131-.017-.353-.376-.13-.203-.288-.462-.355-.578a114.14 114.14 0 00-.996-1.611c-.48-.772-.937-1.508-1.01-1.631-.073-.123-.46-.746-.86-1.389-.719-1.152-.957-1.533-1.093-1.776-.037-.068-.116-.184-.166-.258a4.667 4.667 0 01-.162-.262c-.036-.068-.53-.865-1.096-1.773-1-1.608-1.138-1.834-1.443-2.338-.083-.132-.239-.387-.348-.565a11.12 11.12 0 01-.248-.416c-.033-.052-.07-.08-.086-.064-.016.016-.003 1.045.028 2.286.088 3.368.101 3.957.124 4.937.01.495.031 1.215.04 1.6.016.383.043 1.49.065 2.458.023.967.057 2.237.078 2.827.02.583.013 1.081-.01 1.104-.022.023-.267.206-.267.206l-.294.135s-.058.072-.732.277c-.582.171-1.736.523-1.99.599l-.481.147c-.115.03-.314.089-.448.133-.131.041-.347.103-.48.147-.132.041-.331.1-.446.13-.11.034-.33.1-.48.147-.154.045-.487.147-.736.222-.739.22-1.245.373-1.752.527-.15.048-.38.116-.503.157-.22.065-.586.175-1.056.318-.252.079-.471.144-1.38.418-1.125.335-1.184.355-1.475.44-.15.049-.379.117-.503.158-.22.065-.585.174-1.056.318-.602.184-.71.215-.9.27-.11.034-.33.1-.48.147-.255.075-1.409.427-1.994.602-1.174.352-1.458.444-1.461.474.003.016.407.118.896.231.495.114.931.215.967.23.04.013.155.04.263.062a1704.694 1704.694 0 005.725 1.329c.046.006.344.076.66.15.317.077.613.145.655.154.108.021 4.344 1.006 5.063 1.175.311.07.633.144.711.163.082.015.177.036.217.049.036.015.945.227 2.014.473 1.07.245 1.972.477 1.999.515.056.074.104 1.39.186 5.05.01.515.028 1.231.04 1.6.013.367.04 1.416.065 2.328.087 3.4.126 4.803.145 5.644.016.475.048.85.08.836.046-.027.286-.434.5-.854.048-.096.148-.29.226-.427.078-.138.165-.299.194-.361.032-.06.123-.23.21-.378.085-.151.201-.355.256-.463.1-.187.453-.84.712-1.313.068-.128.156-.29.195-.361.035-.07.126-.233.197-.358.068-.128.178-.325.24-.447.22-.407.76-1.395.89-1.625.068-.128.165-.312.213-.407.049-.095.152-.286.23-.424.078-.138.288-.515.463-.844.178-.325.382-.696.453-.82.068-.129.165-.312.214-.408.048-.095.159-.292.243-.443.087-.148.178-.325.21-.39.03-.063.09-.178.136-.257.081-.14.515-.922.693-1.254.09-.177.204-.377.485-.886.35-.637.515-.917.541-.917.05.002 4.54 1.036 4.79 1.104.07.022 1.158.274 2.418.562 1.26.288 2.352.543 2.431.568.174.053.204.017.117-.152z" fill="#fff" opacity=".3"/></svg>