<svg width="254" height="38" viewBox="0 0 254 38" fill="none" xmlns="http://www.w3.org/2000/svg"><path d="M.24 4.48H2.8l1.792 8.656L6.848 4.48h2.8l2.032 8.656 1.872-8.656h2.368l-2.944 11.552h-2.752L8.128 7.2l-2.256 8.832H3.056L.24 4.48zm23.222 8.08h-5.424c0 1.44.55 2.16 1.648 2.16.757 0 1.226-.373 1.408-1.12h2.16c-.054.693-.31 1.28-.768 1.76-.598.63-1.542.944-2.832.944-1.248 0-2.198-.336-2.848-1.008-.694-.725-1.04-1.776-1.04-3.152 0-1.77.56-3.045 1.68-3.824a4.004 4.004 0 012.272-.672c.661 0 1.285.155 1.872.464.586.299 1.05.795 1.392 1.488.373.768.533 1.755.48 2.96zm-5.344-1.488h2.928c0-.16-.01-.31-.032-.448a3.037 3.037 0 00-.16-.576 1.022 1.022 0 00-.432-.56c-.203-.15-.464-.224-.784-.224-.49 0-.864.17-1.12.512-.246.341-.379.773-.4 1.296zm17.951-.288h-2.32c-.106-.992-.453-1.488-1.04-1.488-.832 0-1.248.859-1.248 2.576 0 1.227.198 2.053.593 2.48a.843.843 0 00.895.224c.096-.032.209-.09.337-.176.127-.096.234-.256.32-.48.096-.235.154-.517.175-.848h2.337c-.054 1.045-.4 1.84-1.04 2.384-.587.501-1.355.752-2.305.752-1.205 0-2.122-.357-2.752-1.072-.682-.79-1.024-1.85-1.024-3.184 0-.693.096-1.307.288-1.84.203-.533.443-.944.72-1.232.289-.288.614-.517.977-.688.373-.181.698-.299.976-.352.288-.053.56-.08.816-.08.864 0 1.626.25 2.288.752.66.501.997 1.259 1.008 2.272zM44.47 16h-2.144a6.97 6.97 0 01-.08-1.104c-.597.864-1.402 1.296-2.415 1.296-.896 0-1.569-.213-2.017-.64-.469-.47-.704-1.061-.704-1.776 0-1.152.571-1.99 1.712-2.512.662-.299 1.729-.448 3.2-.448 0-.49-.037-.848-.111-1.072-.16-.448-.512-.672-1.056-.672-.395 0-.694.15-.896.448-.118.181-.176.421-.176.72h-2.32c.031-.853.335-1.488.911-1.904.608-.437 1.425-.656 2.449-.656 1.322 0 2.282.347 2.88 1.04.373.448.56 1.11.56 1.984l.016 3.248c0 .768.064 1.45.191 2.048zm-2.447-3.808c-.78-.064-1.408.021-1.889.256-.48.235-.72.587-.72 1.056 0 .299.102.565.305.8.202.235.485.352.847.352.406 0 .742-.155 1.009-.464.192-.235.314-.496.367-.784.054-.299.08-.704.08-1.216zM46.4 16V9.36c0-.608-.016-1.099-.048-1.472h2.272l.064 1.216c.576-.939 1.45-1.408 2.624-1.408.704 0 1.254.16 1.648.48.405.31.678.656.816 1.04.15.416.224 1.221.224 2.416V16h-2.416v-5.024c0-.416-.043-.71-.128-.88-.224-.459-.608-.688-1.152-.688-.544 0-.955.208-1.232.624-.192.277-.288.688-.288 1.232V16H46.4zm14.203 0V9.904c0-.619-.038-1.29-.113-2.016h2.224l.049 1.552c.096-.224.192-.41.288-.56.106-.15.26-.315.463-.496.203-.192.475-.33.816-.416a4.099 4.099 0 011.184-.096V10c-.565-.053-1.034-.032-1.407.064-.363.096-.624.261-.785.496-.149.235-.245.459-.288.672a3.922 3.922 0 00-.063.784V16h-2.368zm13.265-3.44h-5.424c0 1.44.55 2.16 1.648 2.16.757 0 1.227-.373 1.408-1.12h2.16c-.053.693-.31 1.28-.768 1.76-.597.63-1.541.944-2.832.944-1.248 0-2.197-.336-2.848-1.008-.693-.725-1.04-1.776-1.04-3.152 0-1.77.56-3.045 1.68-3.824a4.004 4.004 0 012.272-.672c.661 0 1.285.155 1.872.464.587.299 1.05.795 1.392 1.488.373.768.533 1.755.48 2.96zm-5.344-1.488h2.928c0-.16-.01-.31-.032-.448a3.03 3.03 0 00-.16-.576 1.022 1.022 0 00-.432-.56c-.203-.15-.464-.224-.784-.224-.49 0-.864.17-1.12.512-.245.341-.379.773-.4 1.296zM82.423 16h-2.144a6.97 6.97 0 01-.08-1.104c-.598.864-1.403 1.296-2.416 1.296-.896 0-1.568-.213-2.016-.64-.47-.47-.704-1.061-.704-1.776 0-1.152.57-1.99 1.712-2.512.661-.299 1.728-.448 3.2-.448 0-.49-.038-.848-.112-1.072-.16-.448-.512-.672-1.056-.672-.395 0-.694.15-.896.448-.118.181-.176.421-.176.72h-2.32c.032-.853.336-1.488.912-1.904.608-.437 1.424-.656 2.448-.656 1.322 0 2.282.347 2.88 1.04.373.448.56 1.11.56 1.984l.016 3.248c0 .768.064 1.45.192 2.048zm-2.448-3.808c-.779-.064-1.408.021-1.888.256-.48.235-.72.587-.72 1.056 0 .299.101.565.304.8.202.235.485.352.848.352.405 0 .741-.155 1.008-.464.192-.235.314-.496.368-.784.053-.299.08-.704.08-1.216zm10.938-1.408h-2.32c-.106-.992-.453-1.488-1.04-1.488-.832 0-1.248.859-1.248 2.576 0 1.227.198 2.053.592 2.48a.842.842 0 00.896.224c.096-.032.208-.09.336-.176.128-.096.235-.256.32-.48.096-.235.155-.517.176-.848h2.336c-.053 1.045-.4 1.84-1.04 2.384-.586.501-1.354.752-2.304.752-1.205 0-2.122-.357-2.752-1.072-.682-.79-1.024-1.85-1.024-3.184 0-.693.096-1.307.288-1.84.203-.533.443-.944.72-1.232.288-.288.614-.517.976-.688.374-.181.699-.299.976-.352.288-.053.56-.08.816-.08.864 0 1.627.25 2.288.752.662.501.998 1.259 1.008 2.272zM92.385 16V4.448h2.352v4.576c.576-.81 1.355-1.216 2.336-1.216 1.003 0 1.787.363 2.352 1.088.352.49.528 1.221.528 2.192V16h-2.352v-4.832c0-1.173-.442-1.76-1.328-1.76-.405 0-.762.133-1.072.4-.298.256-.448.672-.448 1.248L94.77 16h-2.384zm13.387-11.52h2.896l2.384 5.264 2.432-5.264h2.544l-3.904 7.312V16h-2.448v-4.24l-3.904-7.28zm17.002 8.08h-5.424c0 1.44.55 2.16 1.648 2.16.758 0 1.227-.373 1.408-1.12h2.16c-.053.693-.309 1.28-.768 1.76-.597.63-1.541.944-2.832.944-1.248 0-2.197-.336-2.848-1.008-.693-.725-1.04-1.776-1.04-3.152 0-1.77.56-3.045 1.68-3.824a4.005 4.005 0 012.272-.672c.662 0 1.286.155 1.872.464.587.299 1.051.795 1.392 1.488.374.768.534 1.755.48 2.96zm-5.344-1.488h2.928c0-.16-.01-.31-.032-.448a2.956 2.956 0 00-.16-.576 1.015 1.015 0 00-.432-.56c-.202-.15-.464-.224-.784-.224-.49 0-.864.17-1.12.512-.245.341-.378.773-.4 1.296zM124.385 16V9.44c0-.448-.027-.955-.08-1.52h2.288l.08 1.04c.587-.81 1.419-1.216 2.496-1.216 1.269 0 2.117.507 2.544 1.52.523-1.003 1.387-1.504 2.592-1.504 1.163 0 1.984.432 2.464 1.296.267.437.4 1.184.4 2.24V16h-2.384v-4.752a4.08 4.08 0 00-.08-.88c-.043-.235-.171-.448-.384-.64-.213-.203-.512-.304-.896-.304-.277 0-.512.053-.704.16a1.388 1.388 0 00-.432.384c-.096.139-.171.336-.224.592a6.361 6.361 0 00-.08.656 12.89 12.89 0 00-.016.736V16h-2.384v-4.8c0-.224-.011-.41-.032-.56a2.923 2.923 0 00-.144-.544.835.835 0 00-.4-.496c-.192-.117-.443-.176-.752-.176-.352 0-.64.064-.864.192-.213.128-.363.31-.448.544-.075.224-.123.41-.144.56a3.627 3.627 0 00-.032.528V16h-2.384zm22.389-3.44h-5.424c0 1.44.55 2.16 1.648 2.16.758 0 1.227-.373 1.408-1.12h2.16c-.053.693-.309 1.28-.768 1.76-.597.63-1.541.944-2.832.944-1.248 0-2.197-.336-2.848-1.008-.693-.725-1.04-1.776-1.04-3.152 0-1.77.56-3.045 1.68-3.824a4.005 4.005 0 012.272-.672c.662 0 1.286.155 1.872.464.587.299 1.051.795 1.392 1.488.374.768.534 1.755.48 2.96zm-5.344-1.488h2.928c0-.16-.01-.31-.032-.448a2.956 2.956 0 00-.16-.576 1.015 1.015 0 00-.432-.56c-.202-.15-.464-.224-.784-.224-.49 0-.864.17-1.12.512-.245.341-.378.773-.4 1.296zM148.369 16V9.36c0-.608-.016-1.099-.048-1.472h2.272l.064 1.216c.576-.939 1.451-1.408 2.624-1.408.704 0 1.253.16 1.648.48.405.31.677.656.816 1.04.149.416.224 1.221.224 2.416V16h-2.416v-5.024c0-.416-.043-.71-.128-.88-.224-.459-.608-.688-1.152-.688-.544 0-.955.208-1.232.624-.192.277-.288.688-.288 1.232V16h-2.384zm9.669-9.488V4.448h2.528v2.064h-2.528zm.08 9.488V7.904h2.368V16h-2.368zm15.498-5.216h-2.32c-.106-.992-.453-1.488-1.04-1.488-.832 0-1.248.859-1.248 2.576 0 1.227.198 2.053.592 2.48a.843.843 0 00.896.224c.096-.032.208-.09.336-.176.128-.096.235-.256.32-.48.096-.235.155-.517.176-.848h2.336c-.053 1.045-.4 1.84-1.04 2.384-.586.501-1.354.752-2.304.752-1.205 0-2.122-.357-2.752-1.072-.682-.79-1.024-1.85-1.024-3.184 0-.693.096-1.307.288-1.84.203-.533.443-.944.72-1.232.288-.288.614-.517.976-.688.374-.181.699-.299.976-.352.288-.053.56-.08.816-.08.864 0 1.627.25 2.288.752.662.501.998 1.259 1.008 2.272zM175.088 16V4.448h2.352v4.576c.576-.81 1.355-1.216 2.336-1.216 1.003 0 1.787.363 2.352 1.088.352.49.528 1.221.528 2.192V16h-2.352v-4.832c0-1.173-.442-1.76-1.328-1.76-.405 0-.762.133-1.072.4-.298.256-.448.672-.448 1.248l.016 4.944h-2.384zm9.638-9.488V4.448h2.528v2.064h-2.528zm.08 9.488V7.904h2.368V16h-2.368zm4.453 0V4.432h2.368V16h-2.368zm9.797-7.088V4.448h2.384v10.24c0 .47.021.907.064 1.312h-2.4l-.064-1.168c-.224.405-.496.71-.816.912-.427.277-.949.416-1.568.416-1.077 0-1.92-.352-2.528-1.056-.608-.715-.912-1.701-.912-2.96 0-1.323.325-2.373.976-3.152.661-.79 1.525-1.184 2.592-1.184.981 0 1.739.368 2.272 1.104zm-3.44 3.168c0 .736.133 1.344.4 1.824s.677.72 1.232.72c.331 0 .629-.085.896-.256.267-.17.469-.39.608-.656.256-.49.384-1.125.384-1.904 0-.779-.16-1.381-.48-1.808-.309-.427-.736-.64-1.28-.64-.373 0-.688.101-.944.304a1.687 1.687 0 00-.544.768 5.77 5.77 0 00-.224.864 6.315 6.315 0 00-.048.784zm7.877 3.92V9.904c0-.619-.037-1.29-.112-2.016h2.224l.048 1.552c.096-.224.192-.41.288-.56.107-.15.261-.315.464-.496.203-.192.475-.33.816-.416a4.098 4.098 0 011.184-.096V10c-.565-.053-1.035-.032-1.408.064-.363.096-.624.261-.784.496a2.01 2.01 0 00-.288.672 3.9 3.9 0 00-.064.784V16h-2.368zm13.266-3.44h-5.424c0 1.44.549 2.16 1.648 2.16.757 0 1.226-.373 1.408-1.12h2.16c-.054.693-.31 1.28-.768 1.76-.598.63-1.542.944-2.832.944-1.248 0-2.198-.336-2.848-1.008-.694-.725-1.04-1.776-1.04-3.152 0-1.77.56-3.045 1.68-3.824a4.003 4.003 0 012.272-.672c.661 0 1.285.155 1.872.464.586.299 1.05.795 1.392 1.488.373.768.533 1.755.48 2.96zm-5.344-1.488h2.928c0-.16-.011-.31-.032-.448a3.106 3.106 0 00-.16-.576 1.024 1.024 0 00-.432-.56c-.203-.15-.464-.224-.784-.224-.491 0-.864.17-1.12.512-.246.341-.379.773-.4 1.296zM218.353 16V9.36c0-.608-.016-1.099-.048-1.472h2.272l.064 1.216c.576-.939 1.451-1.408 2.624-1.408.704 0 1.254.16 1.648.48.406.31.678.656.816 1.04.15.416.224 1.221.224 2.416V16h-2.416v-5.024c0-.416-.042-.71-.128-.88-.224-.459-.608-.688-1.152-.688-.544 0-.954.208-1.232.624-.192.277-.288.688-.288 1.232V16h-2.384zm18.955-1.664v1.552a7.02 7.02 0 01-1.84.256c-.448 0-.838-.059-1.168-.176-.32-.117-.555-.245-.704-.384a1.39 1.39 0 01-.352-.56 2.445 2.445 0 01-.144-.56 6.05 6.05 0 01-.016-.496V9.536h-1.552V7.968h1.552V6.384l2.352-.864v2.448h1.92v1.568h-1.92v3.648c0 .235.005.405.016.512.021.107.064.224.128.352.064.128.17.219.32.272.149.043.352.064.608.064.245 0 .512-.016.8-.048zm1.098-2.304c0-.523.07-1.024.208-1.504.15-.48.374-.933.672-1.36.31-.437.747-.784 1.312-1.04.566-.267 1.227-.4 1.984-.4 1.387 0 2.432.405 3.136 1.216.704.8 1.056 1.808 1.056 3.024 0 1.227-.362 2.256-1.088 3.088-.714.821-1.765 1.232-3.152 1.232-1.205 0-2.197-.368-2.976-1.104-.768-.736-1.152-1.787-1.152-3.152zm2.432.016c0 1.728.592 2.592 1.776 2.592.566 0 .998-.208 1.296-.624.299-.416.448-1.13.448-2.144 0-1.707-.592-2.56-1.776-2.56-1.162 0-1.744.912-1.744 2.736zM1.104 33V21.448h2.352v4.576c.576-.81 1.355-1.216 2.336-1.216 1.003 0 1.787.363 2.352 1.088.352.49.528 1.221.528 2.192V33H6.32v-4.832c0-1.173-.443-1.76-1.328-1.76-.405 0-.763.133-1.072.4-.299.256-.448.672-.448 1.248L3.488 33H1.104zm17.045-3.44h-5.424c0 1.44.55 2.16 1.648 2.16.758 0 1.227-.373 1.408-1.12h2.16c-.053.693-.31 1.28-.768 1.76-.597.63-1.541.944-2.832.944-1.248 0-2.197-.336-2.848-1.008-.693-.725-1.04-1.776-1.04-3.152 0-1.77.56-3.045 1.68-3.824a4.004 4.004 0 012.272-.672c.662 0 1.286.155 1.872.464.587.299 1.05.795 1.392 1.488.374.768.534 1.755.48 2.96zm-5.344-1.488h2.928c0-.16-.01-.31-.032-.448a3.037 3.037 0 00-.16-.576 1.022 1.022 0 00-.432-.56c-.202-.15-.464-.224-.784-.224-.49 0-.864.17-1.12.512-.245.341-.378.773-.4 1.296zM19.712 33V21.432h2.368V33h-2.368zm4.373-8.08h2.304l.064 1.152c.501-.875 1.323-1.312 2.464-1.312 1.045 0 1.867.363 2.464 1.088.597.725.896 1.707.896 2.944 0 1.216-.31 2.24-.928 3.072-.619.832-1.483 1.248-2.592 1.248-.97 0-1.723-.347-2.256-1.04v4.032h-2.416V24.92zm4.064 6.64c.555 0 .981-.24 1.28-.72.299-.48.448-1.13.448-1.952 0-.288-.021-.56-.064-.816a4.404 4.404 0 00-.224-.832 1.452 1.452 0 00-.512-.688c-.224-.181-.501-.272-.832-.272-.48 0-.912.213-1.296.64-.373.427-.56 1.13-.56 2.112 0 .224.01.432.032.624.032.192.096.459.192.8.096.33.272.597.528.8.267.203.603.304 1.008.304zm15.002-.224v1.552c-.629.17-1.242.256-1.84.256-.448 0-.837-.059-1.168-.176-.32-.117-.554-.245-.704-.384a1.4 1.4 0 01-.352-.56 2.51 2.51 0 01-.144-.56 6.189 6.189 0 01-.016-.496v-4.432h-1.552v-1.568h1.552v-1.584l2.352-.864v2.448h1.92v1.568h-1.92v3.648c0 .235.006.405.016.512.022.107.064.224.128.352.064.128.171.219.32.272.15.043.352.064.608.064.246 0 .512-.016.8-.048zM44.682 33V21.448h2.352v4.576c.576-.81 1.355-1.216 2.336-1.216 1.003 0 1.787.363 2.352 1.088.352.49.528 1.221.528 2.192V33h-2.352v-4.832c0-1.173-.443-1.76-1.328-1.76-.405 0-.763.133-1.072.4-.298.256-.448.672-.448 1.248L47.066 33h-2.384zm17.045-3.44h-5.424c0 1.44.55 2.16 1.648 2.16.758 0 1.227-.373 1.408-1.12h2.16c-.053.693-.309 1.28-.768 1.76-.597.63-1.541.944-2.832.944-1.248 0-2.197-.336-2.848-1.008-.693-.725-1.04-1.776-1.04-3.152 0-1.77.56-3.045 1.68-3.824a4.004 4.004 0 012.272-.672c.662 0 1.286.155 1.872.464.587.299 1.051.795 1.392 1.488.374.768.534 1.755.48 2.96zm-5.344-1.488h2.928c0-.16-.01-.31-.032-.448a3.037 3.037 0 00-.16-.576 1.022 1.022 0 00-.432-.56c-.202-.15-.464-.224-.784-.224-.49 0-.864.17-1.12.512-.245.341-.378.773-.4 1.296zM63.338 33v-6.56c0-.448-.027-.955-.08-1.52h2.288l.08 1.04c.587-.81 1.419-1.216 2.496-1.216 1.27 0 2.117.507 2.544 1.52.523-1.003 1.387-1.504 2.592-1.504 1.163 0 1.984.432 2.464 1.296.267.437.4 1.184.4 2.24V33h-2.384v-4.752c0-.352-.027-.645-.08-.88-.043-.235-.17-.448-.384-.64-.213-.203-.512-.304-.896-.304a1.43 1.43 0 00-.704.16 1.382 1.382 0 00-.432.384c-.096.139-.17.336-.224.592-.043.256-.07.475-.08.656-.01.181-.016.427-.016.736V33h-2.384v-4.8c0-.224-.01-.41-.032-.56-.021-.15-.07-.33-.144-.544a.836.836 0 00-.4-.496c-.192-.117-.443-.176-.752-.176-.352 0-.64.064-.864.192-.213.128-.363.31-.448.544a3.33 3.33 0 00-.144.56 3.585 3.585 0 00-.032.528V33h-2.384zm18.554-8.08h2.513l1.487 6.096 1.713-6.096h2.608l1.696 6.096 1.584-6.096h2.352L93.075 33h-2.575l-1.665-5.984L87.142 33h-2.609l-2.64-8.08zm15.1-1.408v-2.064h2.527v2.064h-2.528zm.08 9.488v-8.096h2.367V33h-2.368zm9.204-1.664v1.552a7.008 7.008 0 01-1.84.256c-.448 0-.837-.059-1.168-.176-.32-.117-.554-.245-.704-.384a1.412 1.412 0 01-.352-.56 2.556 2.556 0 01-.144-.56 6.537 6.537 0 01-.016-.496v-4.432H100.5v-1.568h1.552v-1.584l2.352-.864v2.448h1.92v1.568h-1.92v3.648c0 .235.006.405.016.512.022.107.064.224.128.352a.546.546 0 00.32.272 2.3 2.3 0 00.608.064c.246 0 .512-.016.8-.048zM107.807 33V21.448h2.352v4.576c.576-.81 1.355-1.216 2.336-1.216 1.003 0 1.787.363 2.352 1.088.352.49.528 1.221.528 2.192V33h-2.352v-4.832c0-1.173-.443-1.76-1.328-1.76-.405 0-.763.133-1.072.4-.299.256-.448.672-.448 1.248l.016 4.944h-2.384zm14.219 0v-6.56c0-.448-.027-.955-.08-1.52h2.288l.08 1.04c.586-.81 1.418-1.216 2.496-1.216 1.269 0 2.117.507 2.544 1.52.522-1.003 1.386-1.504 2.592-1.504 1.162 0 1.984.432 2.464 1.296.266.437.4 1.184.4 2.24V33h-2.384v-4.752a4.08 4.08 0 00-.08-.88c-.043-.235-.171-.448-.384-.64-.214-.203-.512-.304-.896-.304-.278 0-.512.053-.704.16a1.366 1.366 0 00-.432.384c-.096.139-.171.336-.224.592-.043.256-.07.475-.08.656a12.89 12.89 0 00-.016.736V33h-2.384v-4.8c0-.224-.011-.41-.032-.56a3.09 3.09 0 00-.144-.544.838.838 0 00-.4-.496c-.192-.117-.443-.176-.752-.176-.352 0-.64.064-.864.192a1.02 1.02 0 00-.448.544c-.075.224-.123.41-.144.56a3.49 3.49 0 00-.032.528V33h-2.384zm22.053 0h-2.144a7.006 7.006 0 01-.08-1.104c-.597.864-1.403 1.296-2.416 1.296-.896 0-1.568-.213-2.016-.64-.469-.47-.704-1.061-.704-1.776 0-1.152.571-1.99 1.712-2.512.661-.299 1.728-.448 3.2-.448 0-.49-.037-.848-.112-1.072-.16-.448-.512-.672-1.056-.672-.395 0-.693.15-.896.448-.117.181-.176.421-.176.72h-2.32c.032-.853.336-1.488.912-1.904.608-.437 1.424-.656 2.448-.656 1.323 0 2.283.347 2.88 1.04.373.448.56 1.11.56 1.984l.016 3.248c0 .768.064 1.45.192 2.048zm-2.448-3.808c-.779-.064-1.408.021-1.888.256-.48.235-.72.587-.72 1.056 0 .299.101.565.304.8.203.235.485.352.848.352.405 0 .741-.155 1.008-.464.192-.235.315-.496.368-.784.053-.299.08-.704.08-1.216zM145.978 33V21.432h2.368V33h-2.368zm4.485 0v-6.64c0-.608-.016-1.099-.048-1.472h2.272l.064 1.216c.576-.939 1.45-1.408 2.624-1.408.704 0 1.253.16 1.648.48.405.31.677.656.816 1.04.149.416.224 1.221.224 2.416V33h-2.416v-5.024c0-.416-.043-.71-.128-.88-.224-.459-.608-.688-1.152-.688-.544 0-.955.208-1.232.624-.192.277-.288.688-.288 1.232V33h-2.384zm9.669-8.08h2.4V30.216c.011.107.037.256.08.448.043.181.107.325.192.432.085.107.208.203.368.288.171.085.379.128.624.128.299 0 .544-.048.736-.144.203-.096.352-.203.448-.32.107-.128.187-.32.24-.576.053-.267.08-.485.08-.656.011-.181.016-.453.016-.816v-4.08h2.432v5.328c.011.501.016.923.016 1.264.011.33.016.55.016.656.011.107.016.187.016.24.011.192.032.39.064.592h-2.304l-.08-1.072c-.587.853-1.381 1.28-2.384 1.28a3.38 3.38 0 01-1.44-.304c-.427-.213-.757-.475-.992-.784-.352-.437-.528-1.163-.528-2.176V24.92zm14.613 6.416v1.552a7.014 7.014 0 01-1.84.256c-.448 0-.837-.059-1.168-.176-.32-.117-.555-.245-.704-.384a1.401 1.401 0 01-.352-.56 2.556 2.556 0 01-.144-.56 6.05 6.05 0 01-.016-.496v-4.432h-1.552v-1.568h1.552v-1.584l2.352-.864v2.448h1.92v1.568h-1.92v3.648c0 .235.005.405.016.512.021.107.064.224.128.352a.546.546 0 00.32.272c.149.043.352.064.608.064.245 0 .512-.016.8-.048zM176.212 33v-6.096c0-.619-.037-1.29-.112-2.016h2.224l.048 1.552c.096-.224.192-.41.288-.56.107-.15.261-.315.464-.496.203-.192.475-.33.816-.416a4.1 4.1 0 011.184-.096V27c-.565-.053-1.035-.032-1.408.064-.363.096-.624.261-.784.496a2.01 2.01 0 00-.288.672 3.9 3.9 0 00-.064.784V33h-2.368zm6.139-9.488v-2.064h2.528v2.064h-2.528zm.08 9.488v-8.096h2.368V33h-2.368zm9.205-1.664v1.552a7.02 7.02 0 01-1.84.256c-.448 0-.838-.059-1.168-.176-.32-.117-.555-.245-.704-.384a1.39 1.39 0 01-.352-.56 2.445 2.445 0 01-.144-.56 6.05 6.05 0 01-.016-.496v-4.432h-1.552v-1.568h1.552v-1.584l2.352-.864v2.448h1.92v1.568h-1.92v3.648c0 .235.005.405.016.512.021.107.064.224.128.352.064.128.17.219.32.272.149.043.352.064.608.064.245 0 .512-.016.8-.048zm1.387-7.824v-2.064h2.528v2.064h-2.528zm.08 9.488v-8.096h2.368V33h-2.368zm4.085-3.968c0-.523.069-1.024.208-1.504.149-.48.373-.933.672-1.36.309-.437.746-.784 1.312-1.04.565-.267 1.226-.4 1.984-.4 1.386 0 2.432.405 3.136 1.216.704.8 1.056 1.808 1.056 3.024 0 1.227-.363 2.256-1.088 3.088-.715.821-1.766 1.232-3.152 1.232-1.206 0-2.198-.368-2.976-1.104-.768-.736-1.152-1.787-1.152-3.152zm2.432.016c0 1.728.592 2.592 1.776 2.592.565 0 .997-.208 1.296-.624.298-.416.448-1.13.448-2.144 0-1.707-.592-2.56-1.776-2.56-1.163 0-1.744.912-1.744 2.736zM207.369 33v-6.64c0-.608-.016-1.099-.048-1.472h2.272l.064 1.216c.576-.939 1.451-1.408 2.624-1.408.704 0 1.253.16 1.648.48.405.31.677.656.816 1.04.149.416.224 1.221.224 2.416V33h-2.416v-5.024c0-.416-.043-.71-.128-.88-.224-.459-.608-.688-1.152-.688-.544 0-.955.208-1.232.624-.192.277-.288.688-.288 1.232V33h-2.384z" fill="#fff"/></svg>