<svg width="41" height="40" viewBox="0 0 41 40" fill="none" xmlns="http://www.w3.org/2000/svg"><path d="M12.347 31.483c.062-.035.398-.235.751-.445.347-.211.724-.44.837-.504.441-.256.603-.352 1.343-.802.422-.254.859-.52.972-.584.113-.064.288-.168.39-.227.32-.189 1.96-1.167 2.083-1.242.347-.216.592-.362.988-.594.5-.293.49-.293.941-.032.122.073.284.165.362.206.079.04.23.121.336.178.102.06.408.23.675.378.27.146.582.322.695.387.114.064.27.15.349.191l.335.179a166.014 166.014 0 002.071 1.145c.114.065.254.14.314.173.056.03.267.149.47.26.2.113.444.243.54.297.236.132.485.267.73.405.114.065.247.138.298.162.049.027.19.103.311.176.124.07.243.14.268.153.075.044.091-.042.042-.22l-.265-.894a3.39 3.39 0 01-.077-.274 12.953 12.953 0 00-.136-.45c-.069-.224-.142-.473-.17-.56-.123-.437-.323-1.122-.558-1.917-.03-.094-.076-.263-.112-.373-.03-.11-.09-.32-.136-.468a13.8 13.8 0 01-.123-.416c-.022-.08-.072-.242-.104-.355a51.714 51.714 0 01-.178-.604c-.063-.217-.15-.518-.197-.666-.046-.148-.104-.36-.137-.473a1.008 1.008 0 00-.073-.228c-.011-.01-.02-.067-.017-.123.005-.097.016-.107.315-.286.17-.104.384-.232.481-.285.095-.05.697-.413 1.343-.803.644-.386 1.257-.754 1.36-.813.102-.058.621-.37 1.157-.693.96-.578 1.278-.77 1.48-.88.057-.028.153-.093.215-.133a114.716 114.716 0 001.696-1.013c1.34-.804 1.529-.916 1.948-1.162l.472-.28c.148-.087.304-.178.347-.2.043-.026.067-.055.053-.069-.013-.013-.866-.011-1.893.004-2.79.043-3.278.049-4.09.059-.41.004-1.006.015-1.324.02-.319.009-1.236.021-2.037.032-.801.01-1.853.027-2.341.039-.483.011-.896.002-.915-.017a7.123 7.123 0 01-.168-.22l-.109-.243s-.06-.048-.223-.602c-.137-.477-.419-1.426-.479-1.635-.038-.124-.09-.304-.117-.395a8.297 8.297 0 00-.107-.368c-.033-.107-.082-.284-.118-.395-.032-.107-.079-.27-.104-.365-.027-.091-.079-.271-.117-.395-.036-.126-.118-.4-.178-.604-.175-.607-.298-1.023-.42-1.44-.04-.123-.094-.311-.127-.413-.052-.18-.139-.48-.254-.868-.063-.206-.115-.386-.333-1.133-.268-.924-.285-.972-.353-1.211-.038-.124-.093-.312-.126-.414l-.254-.867c-.148-.495-.172-.583-.216-.739l-.118-.395c-.06-.21-.341-1.157-.48-1.638-.282-.964-.356-1.198-.38-1.2-.014.002-.102.332-.2.731-.098.405-.186.761-.2.79a48.582 48.582 0 01-.223.9c-.124.502-.947 3.852-.98 3.992-.004.037-.065.281-.13.539a1255.258 1255.258 0 01-1.15 4.671c-.06.255-.124.517-.14.582a1.923 1.923 0 01-.042.177c-.014.029-.197.771-.41 1.645-.212.874-.411 1.61-.443 1.632-.062.046-1.152.074-4.184.11-.426.004-1.02.012-1.324.02l-1.93.032c-2.815.043-3.978.062-4.674.07-.394.01-.704.032-.693.06.022.037.357.237.703.415.078.04.238.125.351.19.114.064.246.137.298.162.048.027.189.102.31.175.125.07.293.168.382.213.154.084.692.379 1.081.595l.298.162c.056.03.192.105.294.165.106.057.268.148.368.2.335.183 1.149.634 1.338.743l.335.178c.079.04.236.127.35.192.113.064.424.24.694.386.268.149.573.319.676.378l.335.179c.079.04.24.132.365.202.122.073.268.149.322.176.051.024.146.076.21.113.117.068.76.43 1.033.578.146.076.311.17.73.406.525.291.755.429.755.45-.003.04-.898 3.71-.956 3.913-.019.057-.236.947-.486 1.976s-.47 1.921-.491 1.986c-.046.142-.016.166.124.097z" fill="#fff" opacity=".1"/></svg>