<svg width="36" height="36" viewBox="0 0 36 36" fill="none" xmlns="http://www.w3.org/2000/svg"><path d="M27.761 25.491a65.89 65.89 0 00-.339-.7c-.161-.323-.336-.675-.385-.78a50.04 50.04 0 00-.612-1.251c-.193-.394-.397-.8-.446-.906-.048-.105-.127-.268-.172-.363-.144-.298-.89-1.825-.947-1.94a34.338 34.338 0 01-.454-.922c-.223-.466-.224-.456.046-.835.075-.102.17-.238.212-.304.042-.066.127-.193.186-.282.061-.086.237-.343.391-.568.152-.227.333-.489.4-.584.067-.095.157-.227.199-.293.042-.066.127-.194.186-.282a145.757 145.757 0 001.187-1.741c.066-.095.145-.214.179-.264.03-.048.154-.225.269-.395.117-.168.252-.373.308-.455.137-.197.277-.407.42-.613.066-.096.142-.207.168-.25.028-.041.107-.16.181-.262l.159-.224c.045-.064-.03-.084-.193-.055l-.82.164a11.69 11.69 0 00-.665.131l-.514.105c-.401.074-1.03.197-1.759.341-.086.02-.241.047-.342.07-.101.018-.293.054-.429.084-.136.03-.308.063-.382.075l-.325.064-.555.11c-.199.038-.475.091-.61.12-.136.03-.33.064-.434.084a.911.911 0 00-.21.047c-.01.009-.061.012-.112.005-.086-.012-.094-.022-.23-.3-.08-.159-.178-.36-.218-.45-.038-.087-.315-.649-.612-1.25-.295-.6-.576-1.172-.62-1.268-.045-.095-.283-.579-.53-1.078-.441-.896-.588-1.192-.67-1.38-.022-.051-.071-.142-.102-.2a102.646 102.646 0 00-.773-1.58c-.615-1.25-.7-1.425-.886-1.816l-.213-.439a8.4 8.4 0 01-.152-.323c-.02-.04-.045-.063-.058-.053-.013.011-.078.765-.146 1.676-.18 2.47-.213 2.902-.267 3.621-.03.363-.066.891-.087 1.173-.017.282-.078 1.095-.131 1.804-.054.71-.12 1.641-.149 2.074-.027.428-.068.792-.087.808-.018.015-.21.13-.21.13l-.225.078s-.048.049-.556.15c-.438.083-1.308.257-1.5.293l-.362.073a7.601 7.601 0 00-.338.065c-.098.02-.26.05-.362.073-.099.02-.249.048-.335.063-.084.017-.249.048-.362.072-.116.022-.367.072-.554.11-.557.106-.939.182-1.32.258-.114.024-.287.057-.38.078-.166.032-.441.085-.796.156-.19.04-.355.07-1.04.205-.847.164-.892.175-1.111.216l-.38.078-.796.156c-.453.092-.534.107-.677.133-.084.017-.249.048-.362.073-.192.036-1.062.21-1.503.295-.884.173-1.1.22-1.104.24.002.013.29.117.639.235.354.12.666.225.691.239a43.342 43.342 0 01.788.269c.439.15 3.37 1.144 3.492 1.183.033.008.247.081.472.158a1126.868 1126.868 0 014.087 1.388 109.156 109.156 0 01.664.222c.025.014.675.235 1.44.492.764.257 1.408.492 1.424.523.036.058-.024 1.024-.23 3.708-.03.378-.069.903-.087 1.173-.017.27-.074 1.04-.122 1.709-.182 2.494-.256 3.524-.304 4.14-.022.35-.026.625-.001.618.035-.017.24-.297.427-.589.042-.066.13-.2.197-.296.067-.095.142-.206.168-.25.028-.04.107-.16.181-.261.073-.105.173-.245.221-.32.087-.13.393-.582.617-.91l.168-.25a9.42 9.42 0 01.17-.247c.06-.089.154-.225.208-.31.19-.282.658-.965.77-1.124.059-.089.143-.216.185-.283.043-.066.132-.198.2-.293.066-.095.247-.356.4-.584.153-.225.33-.481.39-.567.06-.09.144-.217.186-.283.043-.066.138-.202.21-.306.075-.102.154-.226.182-.271.026-.044.08-.123.118-.178.07-.097.444-.637.598-.867.08-.123.177-.262.42-.614.302-.44.443-.633.462-.631.036.005 3.247 1.088 3.425 1.156.049.02.827.284 1.728.586.901.303 1.682.569 1.738.592.123.052.147.027.096-.102z" fill="#fff" opacity=".4"/></svg>