<svg width="41" height="40" viewBox="0 0 41 40" fill="none" xmlns="http://www.w3.org/2000/svg"><path d="M32.756 27.642a73.168 73.168 0 00-.46-.74c-.218-.34-.455-.712-.521-.823a56.221 56.221 0 00-.83-1.321c-.261-.416-.537-.845-.603-.956-.066-.112-.173-.284-.234-.385a863.186 863.186 0 00-1.284-2.05 38.926 38.926 0 01-.615-.972c-.303-.492-.303-.482-.047-.935.071-.122.16-.285.2-.364l.174-.336c.058-.103.224-.41.368-.679.143-.27.314-.583.377-.697.063-.114.148-.271.187-.35l.174-.336a161.334 161.334 0 001.116-2.08c.064-.113.137-.254.169-.314.029-.057.145-.269.253-.472.11-.201.237-.445.29-.543.128-.236.26-.486.394-.732.063-.114.135-.248.158-.299.027-.049.1-.19.172-.312.068-.125.137-.245.15-.269.042-.076-.045-.09-.222-.038l-.895.279c-.123.04-.25.077-.274.08-.027.007-.226.07-.451.144l-.559.178c-.438.13-1.123.34-1.919.588-.094.031-.263.08-.373.118-.11.031-.32.095-.468.143a14.2 14.2 0 01-.416.13c-.08.023-.242.075-.355.11-.115.037-.387.12-.604.186-.218.067-.519.159-.667.207-.147.05-.36.11-.472.145-.114.029-.216.063-.229.077-.01.01-.067.02-.124.019-.097-.004-.108-.014-.292-.308-.108-.167-.24-.379-.295-.474a93.737 93.737 0 00-.83-1.322c-.4-.633-.78-1.237-.84-1.338-.06-.1-.383-.611-.717-1.138-.598-.946-.796-1.258-.91-1.457-.03-.056-.095-.151-.137-.212a3.883 3.883 0 01-.135-.214c-.03-.056-.44-.71-.912-1.454a160.12 160.12 0 01-1.201-1.918c-.07-.109-.199-.318-.29-.463a9.293 9.293 0 01-.207-.342c-.027-.043-.057-.066-.07-.052-.014.013.003.86.035 1.882.09 2.773.105 3.258.13 4.066.01.407.031 1 .04 1.316.016.316.044 1.228.068 2.025.024.796.06 1.842.079 2.327.02.48.017.89-.002.91-.018.019-.218.17-.218.17l-.242.113s-.048.06-.601.232c-.478.145-1.427.44-1.636.504-.124.04-.304.095-.395.124a8.331 8.331 0 00-.369.112c-.107.035-.284.087-.394.124-.108.034-.272.083-.366.11-.091.028-.271.083-.395.123l-.604.187c-.608.185-1.024.314-1.44.444-.124.04-.312.097-.415.132-.18.054-.48.147-.867.267-.207.066-.387.121-1.134.351-.925.283-.973.3-1.212.372-.124.04-.312.098-.414.132-.18.055-.48.147-.868.268-.494.155-.583.18-.739.227-.091.029-.271.084-.395.124-.21.063-1.158.36-1.639.506-.964.297-1.198.374-1.2.398.002.014.335.095.739.186.408.09.768.172.798.185a48.277 48.277 0 01.91.206c.505.116 3.887.877 4.028.906.038.005.284.061.544.12a1256.697 1256.697 0 014.716 1.063l.588.13c.067.012.146.03.178.04.03.012.78.182 1.662.378.882.196 1.626.382 1.648.413.047.061.093 1.144.181 4.158.011.424.03 1.014.042 1.317.012.303.04 1.166.066 1.917.09 2.8.13 3.955.15 4.647.016.392.044.7.07.688.038-.022.234-.359.407-.706.04-.079.121-.239.184-.353.064-.114.135-.247.158-.298.027-.049.1-.19.171-.312.069-.125.164-.294.209-.383.081-.155.368-.695.579-1.085l.158-.299c.029-.057.103-.192.16-.296.056-.105.145-.268.195-.369.18-.336.62-1.153.724-1.343.056-.106.135-.258.174-.336.04-.079.124-.236.187-.35.063-.114.235-.427.377-.698.145-.268.31-.575.369-.678.055-.106.134-.258.173-.337.04-.078.13-.241.198-.366.07-.122.144-.269.17-.323.024-.052.074-.146.111-.212.066-.116.42-.762.564-1.036.074-.147.166-.312.395-.733.285-.527.42-.758.44-.758.041.002 3.745.829 3.951.883.057.018.955.22 1.994.45 1.04.23 1.94.434 2.005.454.144.043.168.013.096-.125z" fill="#fff" opacity=".1"/></svg>