<svg width="19" height="20" viewBox="0 0 19 20" fill="none" xmlns="http://www.w3.org/2000/svg"><path d="M15.983 13.504l-.467-.007c-.217-.006-.453-.012-.523-.011a30.04 30.04 0 01-.836-.016c-.263-.005-.537-.013-.606-.012l-.241-.002c-.2-.002-1.22-.02-1.297-.022-.219-.008-.371-.01-.617-.013-.31-.003-.305-.006-.443.237a4.377 4.377 0 01-.112.192 16.424 16.424 0 00-.318.529c-.086.14-.182.305-.218.365a6.39 6.39 0 01-.11.183l-.106.172a90.464 90.464 0 01-.65 1.086l-.098.164-.148.247c-.062.106-.14.231-.17.282-.073.125-.152.254-.228.384-.035.06-.077.13-.094.155-.015.025-.06.098-.097.164l-.082.143c-.023.04-.054.005-.079-.09a270.89 270.89 0 01-.118-.488 6.955 6.955 0 01-.096-.395l-.072-.305a90.38 90.38 0 01-.257-1.042c-.012-.051-.036-.143-.049-.203a8.3 8.3 0 01-.062-.254 7.447 7.447 0 00-.056-.227l-.047-.193c-.014-.063-.05-.21-.08-.329-.03-.118-.07-.281-.088-.362-.018-.081-.049-.196-.064-.257a.544.544 0 01-.027-.126c.002-.008-.01-.036-.026-.062-.028-.043-.036-.046-.222-.049a52.565 52.565 0 01-1.136-.02c-.401-.008-.784-.015-.847-.015-.063 0-.387-.007-.721-.014-.6-.013-.798-.018-.92-.014-.035.001-.097-.003-.136-.005a62.467 62.467 0 01-1.056-.02 86.014 86.014 0 00-1.213-.02l-.293-.005a5.032 5.032 0 00-.215 0C.615 13.228.596 13.22.6 13.21c.003-.01.397-.237.876-.504l1.907-1.064c.19-.108.469-.261.617-.345.15-.08.577-.319.95-.528.373-.209.864-.482 1.093-.607.226-.123.414-.238.418-.252.004-.013.019-.147.019-.147l-.015-.142s.014-.038-.059-.34c-.065-.259-.19-.775-.218-.889l-.052-.215a4.452 4.452 0 01-.05-.2c-.013-.059-.038-.154-.051-.215a6.29 6.29 0 00-.05-.198c-.012-.05-.037-.147-.052-.215-.018-.068-.054-.218-.08-.329-.083-.33-.138-.556-.193-.783l-.053-.226a66.233 66.233 0 01-.116-.472c-.026-.113-.05-.21-.15-.616l-.163-.659-.053-.226a66.233 66.233 0 01-.116-.471c-.064-.27-.077-.318-.098-.402-.012-.05-.037-.148-.052-.215-.029-.114-.153-.63-.218-.892-.13-.524-.158-.652-.147-.66a3.86 3.86 0 01.289.288c.154.162.29.304.304.314a25.973 25.973 0 00.345.36c.193.2 1.474 1.54 1.526 1.597.013.016.107.113.205.216l.206.214A673.918 673.918 0 009.17 6.276a42.073 42.073 0 01.699.728c.333.35.623.64.644.641.04.005.552-.273 1.963-1.065.198-.112.475-.267.617-.345.143-.078.548-.304.9-.5 1.314-.73 1.857-1.032 2.18-1.214.185-.1.335-.173.337-.157 0 .023-.101.205-.213.38a6.11 6.11 0 00-.112.183c-.035.06-.076.13-.094.155-.015.025-.06.098-.096.164-.039.066-.09.156-.119.201l-.34.566c-.034.054-.075.124-.094.155l-.092.155-.116.191c-.106.175-.36.602-.419.703a16.85 16.85 0 01-.107.173c-.025.04-.075.122-.11.182s-.131.225-.217.365c-.084.141-.18.302-.21.357a13.86 13.86 0 01-.108.172c-.025.04-.075.126-.114.192-.037.067-.084.14-.101.168a1.9 1.9 0 00-.068.109c-.035.062-.235.403-.322.545-.047.074-.097.162-.228.383-.164.276-.233.402-.227.412a185.1 185.1 0 001.493 1.566c.024.022.364.378.756.79.392.413.734.77.761.794.06.054.052.073-.031.079z" fill="#fff" opacity=".2"/></svg>