<svg width="22" height="21" viewBox="0 0 22 21" fill="none" xmlns="http://www.w3.org/2000/svg"><path d="M19.04 9.488l-.424.264c-.197.12-.413.251-.475.292-.245.156-.337.213-.76.47-.239.147-.489.298-.55.339l-.218.138c-.18.113-1.107.686-1.177.73-.2.119-.34.204-.56.344-.281.177-.278.171-.263.469.005.08.01.187.01.237a16.417 16.417 0 00.018.659c.003.175.011.379.015.454.003.074.006.176.006.227l.003.216a94.855 94.855 0 01.04 1.35c.004.075.005.167.006.205 0 .037.006.175.01.307.005.13.007.288.009.352l.015.476c.003.075.006.161.004.194.002.031.003.122.008.203l.009.176c.002.05-.046.035-.123-.036l-.386-.37a7.255 7.255 0 01-.313-.299l-.24-.232c-.19-.177-.486-.458-.829-.786-.04-.04-.114-.108-.16-.155a9.05 9.05 0 01-.202-.192 7.54 7.54 0 00-.18-.171l-.153-.146-.261-.249a23.772 23.772 0 01-.287-.275c-.063-.062-.156-.147-.205-.193a.583.583 0 01-.097-.098c-.002-.008-.029-.027-.058-.04-.05-.023-.059-.02-.228.084a54.406 54.406 0 01-1.03.64l-.77.474c-.056.037-.351.218-.655.405-.546.335-.727.445-.835.52-.03.02-.088.052-.124.073a90.948 90.948 0 00-2.06 1.276l-.266.165a5.2 5.2 0 00-.192.124c-.025.014-.046.019-.05.008-.003-.01.221-.441.498-.958l1.1-2.057.356-.667c.089-.159.335-.62.55-1.023.215-.404.499-.932.633-1.177.132-.241.235-.453.23-.468a4.045 4.045 0 00-.068-.143l-.094-.119s-.01-.043-.248-.27l-.707-.673c-.052-.052-.13-.125-.17-.163a4.772 4.772 0 01-.159-.151c-.046-.045-.123-.116-.17-.163a6.72 6.72 0 00-.159-.149l-.17-.163-.26-.249c-.263-.248-.443-.42-.622-.591l-.178-.173a70.714 70.714 0 01-.375-.357c-.088-.086-.166-.16-.489-.466-.4-.379-.42-.4-.524-.497l-.177-.173a69.904 69.904 0 01-.375-.356c-.212-.205-.251-.24-.319-.304l-.17-.163-.707-.674c-.417-.396-.517-.495-.512-.508.005-.006.196.036.425.091.231.057.436.106.454.107a27.507 27.507 0 00.516.123c.288.069 2.208.531 2.287.552.02.007.16.04.308.075a716.755 716.755 0 003.01.726 44.674 44.674 0 011.045.25c.5.122.927.214.946.204.04-.02.339-.565 1.15-2.092.114-.215.274-.513.357-.666.084-.153.317-.59.522-.969l1.26-2.35c.107-.198.2-.35.21-.337.014.021.028.244.028.466 0 .05.001.153.004.228.004.074.006.16.005.193 0 .032.002.123.008.204.003.081.008.192.009.249.002.1.01.45.019.704.001.069.003.155.005.193 0 .037.003.125.006.193.001.068.006.175.006.239.005.218.022.75.027.873.002.069.003.167.003.217 0 .05.003.153.007.227.003.075.01.279.014.454.006.175.012.374.016.442l.003.216c0 .05.004.157.007.239.005.08.006.174.005.209 0 .032 0 .094.003.137.004.076.02.497.023.675 0 .094.006.202.016.476.01.343.02.495.031.501.022.01 2.122.52 2.241.543.034.006.543.129 1.132.273.589.144 1.1.266 1.139.272.084.015.088.036.016.089z" fill="#fff" opacity=".3"/></svg>