<svg width="28" height="29" viewBox="0 0 28 29" fill="none" xmlns="http://www.w3.org/2000/svg"><path d="M23.323 10.934c-.032.04-.218.248-.412.467-.195.216-.406.449-.466.52-.238.275-.327.375-.742.834-.235.262-.48.532-.54.603l-.211.243c-.176.2-1.082 1.217-1.15 1.294-.198.215-.334.367-.55.613-.272.312-.27.304-.147.656.035.095.078.22.096.281l.08.259c.029.08.108.317.176.524.067.21.149.45.179.539.03.088.07.21.088.27l.08.259a117.806 117.806 0 01.53 1.604l.08.243c.013.044.068.207.119.364.053.155.112.343.137.419l.187.566c.03.088.064.19.074.23.013.037.047.146.082.241l.073.208c.02.059-.042.059-.16 0l-.593-.305a9.123 9.123 0 01-.481-.246c-.148-.078-.314-.163-.37-.194-.291-.144-.746-.376-1.273-.647-.062-.033-.175-.088-.247-.128a11.285 11.285 0 01-.31-.158 9.935 9.935 0 00-.277-.142l-.235-.12-.4-.206a27.899 27.899 0 01-.442-.226c-.098-.053-.24-.121-.314-.16a.722.722 0 01-.15-.082c-.007-.009-.045-.022-.085-.028-.069-.01-.078-.003-.243.183-.096.105-.214.238-.265.3-.048.058-.383.433-.742.833-.357.4-.698.78-.753.844-.054.064-.343.387-.64.719-.535.596-.712.793-.816.92-.028.036-.086.095-.122.133a82.155 82.155 0 01-.938 1.053c-.744.832-.848.949-1.076 1.21l-.26.293a6.6 6.6 0 00-.186.217c-.024.027-.048.04-.056.028-.008-.011.107-.608.255-1.326.402-1.95.471-2.291.586-2.859l.19-.926c.05-.221.18-.863.294-1.423.114-.56.267-1.295.34-1.636.072-.336.12-.627.11-.643-.01-.016-.133-.147-.133-.147l-.155-.109s-.026-.048-.393-.237c-.318-.16-.946-.483-1.085-.554l-.262-.135a5.849 5.849 0 01-.244-.124c-.071-.037-.19-.095-.262-.135a8.278 8.278 0 00-.243-.121l-.262-.135-.4-.206c-.404-.203-.68-.345-.956-.487l-.274-.143c-.119-.06-.319-.162-.575-.295l-.752-.385c-.613-.31-.645-.329-.804-.409-.082-.043-.206-.106-.274-.143-.12-.06-.319-.162-.575-.294-.328-.17-.387-.199-.49-.25l-.262-.135c-.14-.07-.768-.394-1.087-.556-.64-.326-.794-.41-.793-.427.004-.009.247-.026.54-.042.298-.015.56-.029.583-.034a33.76 33.76 0 00.662-.036c.369-.02 2.832-.15 2.934-.154.027.002.207-.009.396-.019a898.007 898.007 0 003.863-.203c.048 0 .106-.003.13-.006a55.51 55.51 0 011.21-.067c.642-.032 1.187-.073 1.206-.093.04-.037.205-.798.635-2.918.06-.298.144-.713.19-.926l.28-1.347c.405-1.968.574-2.78.672-3.267.059-.275.116-.49.134-.478.023.02.12.282.198.548.018.06.056.184.086.272.03.088.064.19.075.23.012.038.047.146.082.241.032.097.078.227.099.296.038.12.173.536.273.837l.074.23c.014.044.049.15.077.229.026.081.069.207.091.284.085.26.293.89.344 1.038.026.081.063.198.08.258l.089.27c.03.089.112.33.179.539.069.207.147.444.175.524l.081.259c.018.06.061.186.094.283.035.095.069.207.08.249.01.039.034.112.052.163.032.09.2.59.268.8.034.113.079.241.188.567.135.406.201.586.216.588.029.004 2.726-.133 2.877-.147.042-.005.696-.04 1.452-.077a86.638 86.638 0 001.46-.079c.107-.012.12.012.052.1z" fill="#fff" opacity=".1"/></svg>