<svg width="27" height="27" viewBox="0 0 27 27" fill="none" xmlns="http://www.w3.org/2000/svg"><path d="M19.414 5.769l-.16.57c-.078.264-.163.55-.185.636-.09.334-.125.457-.29 1.02-.093.321-.191.654-.213.739-.022.085-.06.218-.08.295a587.39 587.39 0 01-.45 1.582c-.081.266-.135.452-.217.752-.105.379-.107.372.144.621.07.067.158.157.199.201l.175.188c.058.057.223.227.367.376.143.151.313.324.376.387.062.063.146.15.187.195l.175.188a114.142 114.142 0 011.116 1.154c.062.063.136.142.168.175l.253.262c.11.111.237.248.29.302.128.13.26.27.394.406.062.063.133.137.158.167.026.027.1.105.17.172.068.07.135.135.148.148.041.042-.012.068-.137.067l-.633-.017a8.895 8.895 0 01-.513-.012l-.397-.012c-.309-.004-.793-.014-1.357-.028-.067-.003-.186-.004-.264-.008-.078 0-.226-.003-.33-.007a9.207 9.207 0 00-.296-.008c-.056 0-.17-.004-.25-.005a33.52 33.52 0 00-.428-.01 27.25 27.25 0 01-.472-.012c-.105-.005-.254-.005-.334-.006a.684.684 0 01-.163-.009c-.009-.005-.047 0-.084.011-.062.02-.068.03-.132.256-.039.13-.085.293-.103.366-.017.07-.149.529-.291 1.02-.14.49-.275.956-.295 1.033-.02.077-.134.472-.252.88-.211.73-.281.972-.318 1.123-.009.042-.034.117-.05.164a107.622 107.622 0 00-.788 2.768l-.1.358c-.032.112-.064.23-.071.262-.01.033-.025.054-.036.047-.011-.006-.16-.564-.33-1.24-.461-1.833-.543-2.154-.678-2.687-.07-.27-.167-.661-.22-.87-.05-.21-.203-.813-.336-1.34-.134-.526-.307-1.217-.385-1.539-.077-.318-.156-.587-.172-.596-.015-.009-.174-.07-.174-.07l-.178-.03s-.042-.03-.434-.04c-.338-.006-1.01-.023-1.157-.026l-.28-.007c-.066 0-.182-.001-.26-.005-.077-.003-.201-.004-.28-.008a7.78 7.78 0 00-.258-.004l-.28-.007c-.089-.001-.283-.007-.427-.01-.43-.008-.724-.015-1.019-.023-.088-.003-.22-.006-.294-.01-.127-.002-.34-.006-.613-.013-.147-.005-.274-.007-.803-.02l-.857-.017c-.087-.003-.22-.006-.293-.01a88.36 88.36 0 01-.614-.013c-.35-.01-.413-.01-.523-.012-.064-.002-.192-.004-.28-.008-.147-.002-.82-.02-1.159-.026-.682-.015-.849-.022-.855-.038 0-.009.2-.124.446-.259.248-.135.467-.256.483-.27a32.284 32.284 0 00.552-.304c.307-.17 2.362-1.298 2.448-1.343.023-.01.173-.093.33-.18a861.702 861.702 0 003.221-1.769c.042-.02.09-.046.11-.058a53.36 53.36 0 011.008-.557c.536-.293.984-.553.993-.578.019-.049-.154-.767-.662-2.758-.072-.28-.17-.67-.22-.87-.049-.201-.193-.772-.316-1.269-.466-1.85-.657-2.615-.774-3.072-.063-.26-.103-.467-.083-.464.029.007.218.192.396.387.04.044.124.133.186.196s.134.137.159.167c.026.027.1.105.17.172.067.07.16.162.206.212.082.086.37.387.58.604l.159.166c.029.032.102.107.16.164.055.059.144.149.195.205.18.187.618.64.722.746.056.059.136.143.176.188.04.044.125.131.187.194.063.063.232.236.376.387.144.15.31.32.367.376l.175.188c.04.044.13.134.197.203.07.067.145.15.172.18.025.03.075.082.111.118.065.064.416.422.561.574.075.083.166.174.394.407.283.292.414.418.428.415.026-.01 2.277-1.24 2.4-1.314.034-.022.58-.321 1.212-.666a81.446 81.446 0 001.217-.67c.085-.055.107-.04.086.064z" fill="#fff" opacity=".34"/></svg>