<svg width="20" height="20" viewBox="0 0 20 20" fill="none" xmlns="http://www.w3.org/2000/svg"><path d="M16.217 6.955c-.023.028-.153.174-.29.327-.135.15-.283.314-.325.363-.167.193-.23.263-.52.584-.164.184-.336.372-.378.422-.042.05-.11.125-.148.17-.123.14-.757.852-.805.906-.139.15-.234.256-.384.428-.191.218-.19.213-.104.46.025.066.055.154.068.196a15.223 15.223 0 00.18.548c.046.146.103.315.124.377.022.061.05.146.062.189l.057.18a84.648 84.648 0 01.37 1.123l.056.17.084.255.096.293.13.396c.022.062.046.134.053.161.009.027.033.103.057.17l.051.145c.014.041-.03.04-.112 0a214.587 214.587 0 01-.543-.277 6.302 6.302 0 01-.21-.11l-.258-.134a84.745 84.745 0 01-.892-.453c-.043-.024-.122-.063-.173-.09a7.837 7.837 0 01-.217-.111 6.585 6.585 0 00-.193-.1l-.165-.083c-.054-.029-.18-.093-.28-.144a19.566 19.566 0 01-.31-.159c-.069-.036-.168-.085-.22-.111a.506.506 0 01-.105-.058c-.005-.006-.032-.015-.06-.02-.048-.006-.054-.002-.17.128a46.812 46.812 0 01-.705.793l-.527.59c-.038.046-.24.271-.448.504-.375.417-.499.554-.571.643-.02.025-.06.067-.086.093a79.752 79.752 0 00-1.41 1.584l-.181.205a4.512 4.512 0 00-.131.152c-.017.018-.034.027-.04.02-.005-.009.076-.427.18-.93l.41-2 .132-.647c.035-.155.126-.604.206-.996.08-.391.187-.906.238-1.144.05-.236.084-.44.077-.45-.008-.011-.093-.103-.093-.103l-.109-.076s-.018-.034-.275-.166c-.223-.112-.663-.339-.76-.388l-.184-.095a4.176 4.176 0 01-.17-.086c-.05-.026-.133-.067-.184-.095a5.676 5.676 0 00-.17-.085c-.042-.022-.126-.064-.183-.095l-.281-.143-.669-.341-.192-.1a62.001 62.001 0 01-.403-.206l-.526-.27-.563-.286-.192-.1a61.41 61.41 0 01-.403-.207l-.343-.175-.184-.094-.76-.39c-.449-.228-.557-.286-.556-.298.002-.006.173-.018.378-.03.209-.01.392-.02.408-.023a24.206 24.206 0 00.464-.025c.258-.014 1.983-.105 2.054-.107.02 0 .145-.007.278-.014l.276-.015a627.907 627.907 0 002.428-.126 39.104 39.104 0 01.939-.051c.45-.023.831-.052.845-.065.028-.027.143-.558.444-2.042.041-.209.1-.499.133-.648l.196-.942L10 1.34c.041-.193.082-.343.094-.335.016.014.083.197.139.384.012.042.039.128.06.19.021.062.045.133.052.16.009.027.033.103.057.17.024.067.056.159.07.207l.192.586.052.16c.009.031.034.105.053.16.018.058.048.146.064.2l.241.725.056.181.062.19c.022.061.079.23.126.376a15.813 15.813 0 01.18.548c.012.042.042.13.065.198.024.067.048.145.056.174.007.028.024.079.036.114.023.064.14.413.189.56.023.08.054.17.13.397.095.284.142.41.152.412.02.002 1.909-.093 2.015-.103.03-.004.487-.027 1.017-.053.53-.027.989-.051 1.023-.056.074-.009.083.008.036.07z" fill="#fff" opacity=".2"/></svg>