<svg width="42" height="42" viewBox="0 0 42 42" fill="none" xmlns="http://www.w3.org/2000/svg"><path d="M15.527 6.323c.056.052.351.348.661.659.304.31.634.647.734.743.39.382.532.524 1.18 1.186.37.374.752.766.852.862.1.096.254.25.345.337.282.281 1.722 1.728 1.83 1.838.303.315.518.532.866.877.442.435.43.433.966.277a8.85 8.85 0 01.43-.12l.393-.1c.122-.035.482-.133.798-.22.318-.081.686-.184.82-.222.135-.038.32-.088.411-.11.092-.021.27-.067.394-.099a176.516 176.516 0 012.443-.658c.134-.038.3-.08.37-.099.066-.016.315-.085.554-.148.237-.067.522-.139.637-.17.278-.077.571-.153.862-.233.134-.039.29-.08.35-.092.057-.016.223-.058.368-.103.147-.04.288-.083.317-.091.09-.026.084.068-.014.24l-.508.865a3.657 3.657 0 00-.151.266c-.013.027-.127.218-.26.435-.129.215-.27.457-.322.54-.242.424-.627 1.087-1.079 1.856-.056.09-.148.255-.214.36-.06.108-.177.31-.263.453-.087.142-.193.324-.237.402-.043.079-.137.234-.2.343-.067.112-.22.374-.342.585-.122.21-.291.502-.378.644-.087.142-.202.349-.265.458-.058.11-.12.209-.137.22-.014.008-.037.064-.05.124-.02.102-.01.116.251.38.149.152.338.341.424.422.085.078.613.613 1.18 1.186.564.57 1.103 1.114 1.193 1.202.09.087.547.548 1.016 1.024.843.853 1.122 1.135 1.302 1.302.05.045.134.137.188.195.053.058.138.144.191.193.05.045.635.632 1.298 1.304a169.747 169.747 0 001.712 1.719l.414.414c.13.13.268.266.307.3.038.038.055.075.037.086-.017.01-.899-.213-1.958-.496-2.875-.768-3.379-.902-4.216-1.123-.424-.11-1.038-.277-1.366-.364-.327-.093-1.273-.344-2.099-.563-.826-.218-1.91-.51-2.412-.648-.497-.138-.927-.235-.951-.22-.025.015-.232.186-.232.186l-.176.225s-.074.035-.389.57c-.267.463-.806 1.38-.923 1.583-.072.119-.173.293-.225.381-.05.092-.141.25-.207.356-.062.104-.16.276-.225.382-.062.104-.153.262-.203.354-.052.088-.153.263-.225.382-.07.122-.226.387-.342.584-.34.588-.577.99-.813 1.393-.072.12-.178.302-.238.4-.101.174-.27.465-.49.839-.12.2-.22.374-.642 1.096-.52.895-.55.941-.683 1.173-.072.119-.177.3-.238.399-.1.174-.27.465-.49.84-.282.477-.331.563-.417.714-.052.088-.153.263-.225.382-.117.203-.657 1.119-.927 1.585-.544.933-.681 1.157-.707 1.154-.014-.006-.018-.373-.015-.815.004-.448.007-.843 0-.877a1500.768 1500.768 0 01.036-5.417c.005-.041.006-.312.007-.597a1367.18 1367.18 0 00.033-5.174l.007-.643a2.07 2.07 0 00.003-.196c-.006-.034-.002-.857.007-1.824.01-.967-.004-1.788-.032-1.818-.052-.064-1.172-.376-4.3-1.201a124.72 124.72 0 01-1.366-.364c-.313-.086-1.209-.325-1.987-.535-2.903-.776-4.1-1.098-4.819-1.287-.405-.112-.72-.216-.701-.242.032-.033.431-.155.836-.251.092-.022.279-.068.413-.106.135-.038.29-.08.35-.092.058-.016.223-.058.368-.103.147-.04.346-.099.45-.123.182-.048.816-.216 1.275-.34l.35-.092c.067-.016.226-.06.348-.096.124-.031.316-.085.433-.113.395-.105 1.355-.364 1.58-.428.123-.032.301-.077.393-.099.092-.022.276-.071.411-.11.134-.038.502-.14.82-.222.316-.086.677-.184.798-.22.124-.031.302-.077.394-.099.092-.022.284-.075.43-.116.146-.045.317-.086.38-.1.06-.012.17-.041.248-.064.138-.04.898-.25 1.22-.335.17-.041.366-.097.861-.233.62-.169.893-.253.899-.275.008-.043.043-4.105.035-4.332-.004-.064.003-1.05.015-2.188.01-1.14.017-2.128.011-2.2-.01-.16.028-.178.155-.07z" fill="#fff" opacity=".4"/></svg>