<svg width="115" height="25" viewBox="0 0 115 25" fill="none" xmlns="http://www.w3.org/2000/svg"><path d="M3.405 18h-1.04V6.448h1.04v5.072H9.71V6.448h1.04V18H9.71v-5.52H3.405V18zm16.971-3.792h-6.208c.022.928.256 1.685.704 2.272.459.587 1.152.88 2.08.88.565 0 1.061-.181 1.488-.544.438-.363.715-.821.832-1.376h1.008c-.48 1.867-1.69 2.8-3.632 2.8-1.13 0-2-.41-2.608-1.232-.608-.832-.912-1.84-.912-3.024 0-1.173.315-2.176.944-3.008.63-.832 1.51-1.248 2.64-1.248 1.27 0 2.198.41 2.784 1.232.587.81.88 1.893.88 3.248zm-6.176-.88h5.136c-.064-.821-.314-1.477-.752-1.968-.437-.501-1.056-.752-1.856-.752-.736 0-1.323.261-1.76.784-.437.523-.693 1.168-.768 1.936zm9.275-6.88V18h-.96V6.448h.96zm3.37 7.344c0 .661.075 1.248.225 1.76a2.7 2.7 0 00.88 1.28c.426.352.97.528 1.632.528.437 0 .81-.107 1.12-.32.32-.224.56-.517.72-.88a4.53 4.53 0 00.352-1.12c.074-.384.112-.784.112-1.2 0-.555-.075-1.061-.224-1.52-.139-.47-.4-.87-.784-1.2-.384-.341-.864-.512-1.44-.512-.875 0-1.526.304-1.952.912-.427.608-.64 1.365-.64 2.272zm0 2.96v4.32h-.96v-9.296c0-.203-.026-.805-.08-1.808h.993l.048 1.184.032.032c.266-.459.65-.816 1.152-1.072a3.535 3.535 0 011.6-.384c.757 0 1.392.213 1.904.64.512.427.869.95 1.072 1.568.213.608.32 1.28.32 2.016 0 .533-.064 1.045-.192 1.536-.118.48-.304.933-.56 1.36a2.812 2.812 0 01-1.024 1.008c-.427.256-.918.384-1.472.384-1.184 0-2.118-.496-2.8-1.488h-.032zm13.232-.896v-5.008h-1.6v-.88h1.6V8.256l.96-.416v2.128h1.824v.88h-1.824v5.376c-.021.757.347 1.136 1.104 1.136.352 0 .63-.032.832-.096v.832a3.858 3.858 0 01-.976.144 3.71 3.71 0 01-.816-.08 1.19 1.19 0 01-.544-.272 3.283 3.283 0 01-.336-.352c-.074-.107-.128-.267-.16-.48a9.127 9.127 0 01-.064-.496v-.544-.16zm5.6-9.408v4.736h.032c.544-.97 1.382-1.456 2.512-1.456.502 0 .934.085 1.297.256.373.17.65.373.831.608.193.235.342.517.449.848.117.33.186.608.207.832.032.224.048.459.048.704V18h-.96v-5.184c0-.693-.186-1.232-.56-1.616-.373-.395-.89-.592-1.552-.592-.746 0-1.317.267-1.712.8-.394.533-.591 1.19-.591 1.968V18h-.96V6.448h.96zm14.7 7.76h-6.209c.022.928.256 1.685.704 2.272.459.587 1.152.88 2.08.88.566 0 1.062-.181 1.488-.544.438-.363.715-.821.832-1.376h1.008c-.48 1.867-1.69 2.8-3.632 2.8-1.13 0-2-.41-2.608-1.232-.608-.832-.912-1.84-.912-3.024 0-1.173.315-2.176.944-3.008.63-.832 1.51-1.248 2.64-1.248 1.27 0 2.197.41 2.784 1.232.587.81.88 1.893.88 3.248zm-6.177-.88h5.136c-.064-.821-.314-1.477-.752-1.968-.437-.501-1.056-.752-1.856-.752-.736 0-1.322.261-1.76.784-.437.523-.693 1.168-.768 1.936zm9.195-3.36l.048 1.184.032.032c.544-.97 1.381-1.456 2.512-1.456.63 0 1.173.16 1.632.48.47.32.794.747.976 1.28.736-1.173 1.658-1.76 2.768-1.76.501 0 .933.085 1.296.256.373.17.65.373.832.608.192.235.341.517.448.848.117.33.186.608.208.832.032.224.048.459.048.704V18h-.96v-5.184c0-.693-.187-1.232-.56-1.616-.374-.395-.89-.592-1.552-.592-.747 0-1.318.267-1.712.8-.395.533-.592 1.19-.592 1.968V18h-.96v-5.184c0-.693-.187-1.232-.56-1.616-.374-.395-.89-.592-1.552-.592-.747 0-1.318.267-1.712.8-.395.533-.592 1.19-.592 1.968V18h-.96v-6.224c0-.299-.027-.901-.08-1.808h.992zm18.736 3.408V18h-.96v-6.224c0-.299-.027-.901-.08-1.808h.992l.048 1.184.032.032c.544-.97 1.381-1.456 2.512-1.456.501 0 .933.085 1.296.256.373.17.65.373.832.608.192.235.341.517.448.848.117.33.186.608.208.832.032.224.048.459.048.704V18h-.96v-5.184c0-.693-.187-1.232-.56-1.616-.374-.395-.891-.592-1.552-.592-.747 0-1.318.267-1.712.8-.395.533-.592 1.19-.592 1.968zm13.114 2.944a4.14 4.14 0 00.688-2.336 4.14 4.14 0 00-.688-2.336c-.458-.693-1.13-1.04-2.016-1.04-.885 0-1.557.347-2.016 1.04a4.14 4.14 0 00-.688 2.336c0 .864.23 1.643.688 2.336.459.693 1.13 1.04 2.016 1.04.886 0 1.558-.347 2.016-1.04zm-4.8-5.328c.65-.843 1.579-1.264 2.784-1.264 1.206 0 2.128.421 2.768 1.264.65.843.976 1.84.976 2.992s-.325 2.15-.976 2.992c-.64.843-1.562 1.264-2.768 1.264-1.205 0-2.133-.421-2.784-1.264-.64-.843-.96-1.84-.96-2.992s.32-2.15.96-2.992zm8.539-1.024l2.4 6.768h.032l2.432-6.768h1.136l2.368 6.704h.032l2.32-6.704h1.056L107.768 18h-.912l-2.464-6.928h-.032L101.848 18h-.976l-2.944-8.032h1.056z" fill="#fff"/></svg>